<svg xmlns="http://www.w3.org/2000/svg" viewBox="0 0 19.4 17.9"><defs><style>.cls-1{fill:#c00d0d;}.cls-2{fill:none;stroke:#c00d0d;stroke-miterlimit:10;stroke-width:0.5px;}</style></defs><g id="Camada_2" data-name="Camada 2"><g id="Camada_1-2" data-name="Camada 1"><path class="cls-1" d="M9.6,12.65a.8.8,0,0,0,0,1.6.86.86,0,0,0,.8-.8c.1-.4-.3-.8-.8-.8"/><path class="cls-2" d="M9.6,12.65a.8.8,0,0,0,0,1.6.86.86,0,0,0,.8-.8C10.5,13.05,10.1,12.65,9.6,12.65Z"/><path class="cls-1" d="M17.4,15.15a1.7,1.7,0,0,1-1.6.9H3.5a1.7,1.7,0,0,1-1.6-.9,2.12,2.12,0,0,1,0-1.9L8,2.65a1.7,1.7,0,0,1,1.6-.9,1.7,1.7,0,0,1,1.6.9l6.1,10.6a1.86,1.86,0,0,1,.1,1.9m1.3.8a3.44,3.44,0,0,0,0-3.4L12.6,2A3.32,3.32,0,0,0,6.8,2L.7,12.55a3.4,3.4,0,0,0,2.9,5.1H15.9A3.42,3.42,0,0,0,18.7,16"/><path class="cls-2" d="M17.4,15.15a1.7,1.7,0,0,1-1.6.9H3.5a1.7,1.7,0,0,1-1.6-.9,2.12,2.12,0,0,1,0-1.9L8,2.65a1.7,1.7,0,0,1,1.6-.9,1.7,1.7,0,0,1,1.6.9l6.1,10.6A1.86,1.86,0,0,1,17.4,15.15Zm1.3.8a3.44,3.44,0,0,0,0-3.4L12.6,2A3.32,3.32,0,0,0,6.8,2L.7,12.55a3.4,3.4,0,0,0,2.9,5.1H15.9A3.42,3.42,0,0,0,18.7,16Z"/><path class="cls-1" d="M9.4,5.65a1,1,0,0,0-.7,1,2.77,2.77,0,0,0,.1.9c.1,1.1.1,2.3.2,3.4a.67.67,0,0,0,.6.7.67.67,0,0,0,.6-.7v-.7c0-.7.1-1.5.1-2.2,0-.5.1-.9.1-1.4a.9.9,0,0,0-.1-.5.72.72,0,0,0-.9-.5"/><path class="cls-2" d="M9.4,5.65a1,1,0,0,0-.7,1,2.77,2.77,0,0,0,.1.9c.1,1.1.1,2.3.2,3.4a.67.67,0,0,0,.6.7.67.67,0,0,0,.6-.7v-.7c0-.7.1-1.5.1-2.2,0-.5.1-.9.1-1.4a.9.9,0,0,0-.1-.5A.72.72,0,0,0,9.4,5.65Z"/></g></g></svg>