<svg xmlns="http://www.w3.org/2000/svg" viewBox="0 0 453.54 492.07"><defs><style>.cls-1{fill:#fef3b2;}.cls-2{fill:#f2afcf;}.cls-3{fill:#f094bd;}.cls-4{fill:#9dd3f4;}.cls-5{fill:#74c8f1;}.cls-6{fill:#16a5df;}.cls-7{fill:#c4d980;}.cls-8{fill:#b4d173;}.cls-9{fill:#afcb41;}.cls-10,.cls-30{fill:#88be47;}.cls-11,.cls-21,.cls-25,.cls-26,.cls-30{font-size:11.99px;font-family:Calibri-Bold, Calibri;font-weight:700;}.cls-11{fill:#002c42;}.cls-12{letter-spacing:-0.01em;}.cls-13{letter-spacing:0em;}.cls-14{letter-spacing:-0.01em;}.cls-15{letter-spacing:-0.01em;}.cls-16{letter-spacing:-0.05em;}.cls-17{letter-spacing:-0.05em;}.cls-18{opacity:0.5;}.cls-19,.cls-20{fill:none;stroke:#002c42;stroke-miterlimit:10;}.cls-20{stroke-dasharray:4.99 4.99;}.cls-21{fill:#f6b719;}.cls-22{letter-spacing:-0.01em;}.cls-23{letter-spacing:-0.01em;}.cls-24{letter-spacing:0em;}.cls-25{fill:#e72772;}.cls-26{fill:#048cbd;}.cls-27{letter-spacing:-0.01em;}.cls-28{letter-spacing:-0.01em;}.cls-29{letter-spacing:-0.08em;}</style></defs><g id="Camada_2" data-name="Camada 2"><g id="Camada_1-2" data-name="Camada 1"><path class="cls-1" d="M14.17,63.53h99.16a0,0,0,0,1,0,0v79.56a0,0,0,0,1,0,0H14.17A14.17,14.17,0,0,1,0,128.91V77.7A14.17,14.17,0,0,1,14.17,63.53Z"/><path class="cls-2" d="M14.37,179.86h99.16a0,0,0,0,1,0,0v79.56a0,0,0,0,1,0,0H14.37A14.17,14.17,0,0,1,.2,245.24V194a14.17,14.17,0,0,1,14.17-14.17Z"/><rect class="cls-3" x="113.53" y="179.86" width="113.34" height="79.56"/><path class="cls-4" d="M14.37,296.18h99.16a0,0,0,0,1,0,0v79.56a0,0,0,0,1,0,0H14.37A14.17,14.17,0,0,1,.2,361.57V310.36A14.17,14.17,0,0,1,14.37,296.18Z"/><rect class="cls-5" x="113.53" y="296.18" width="113.34" height="79.56"/><rect class="cls-6" x="226.87" y="296.18" width="113.34" height="79.56"/><path class="cls-7" d="M14.37,412.51h99.16a0,0,0,0,1,0,0v79.56a0,0,0,0,1,0,0H14.37A14.17,14.17,0,0,1,.2,477.9V426.68A14.17,14.17,0,0,1,14.37,412.51Z"/><rect class="cls-8" x="113.53" y="412.51" width="113.34" height="79.56"/><rect class="cls-9" x="226.87" y="412.51" width="113.34" height="79.56"/><path class="cls-10" d="M340.21,412.51h99.16a14.17,14.17,0,0,1,14.17,14.17V477.9a14.17,14.17,0,0,1-14.17,14.17H340.21a0,0,0,0,1,0,0V412.51A0,0,0,0,1,340.21,412.51Z"/><text class="cls-11" transform="translate(25.78 9.9)">EME<tspan class="cls-12" x="22.19" y="0">R</tspan><tspan class="cls-13" x="28.84" y="0">GENTE</tspan></text><text class="cls-11" transform="translate(151.57 9.9)"><tspan class="cls-14">B</tspan><tspan x="6.61" y="0">ÁSI</tspan><tspan class="cls-15" x="22.74" y="0">C</tspan><tspan x="29" y="0">O</tspan></text><text class="cls-11" transform="translate(242.43 9.9)">INTERMEDIÁRIO</text><text class="cls-11" transform="translate(368.02 9.9)"><tspan class="cls-16">A</tspan><tspan class="cls-17" x="6.65" y="0">V</tspan><tspan x="13.11" y="0">ANÇADO</tspan></text><g class="cls-18"><line class="cls-19" x1="113.53" y1="3.41" x2="113.53" y2="5.91"/><line class="cls-20" x1="113.53" y1="10.9" x2="113.53" y2="487.08"/><line class="cls-19" x1="113.53" y1="489.57" x2="113.53" y2="492.07"/></g><g class="cls-18"><line class="cls-19" x1="226.87" y1="3.41" x2="226.87" y2="5.91"/><line class="cls-20" x1="226.87" y1="10.9" x2="226.87" y2="487.08"/><line class="cls-19" x1="226.87" y1="489.57" x2="226.87" y2="492.07"/></g><g class="cls-18"><line class="cls-19" x1="340.21" y1="3.41" x2="340.21" y2="5.91"/><line class="cls-20" x1="340.21" y1="10.9" x2="340.21" y2="487.08"/><line class="cls-19" x1="340.21" y1="489.57" x2="340.21" y2="492.07"/></g><text class="cls-21" transform="translate(7.33 48.43)">VI<tspan class="cls-22" x="10.29" y="0">S</tspan><tspan class="cls-23" x="15.81" y="0">Ã</tspan><tspan class="cls-24" x="22.92" y="0">O</tspan></text><text class="cls-25" transform="translate(0.13 172.79)"><tspan class="cls-15">C</tspan><tspan x="6.26" y="0">OMPETÊNCIA</tspan></text><text class="cls-26" transform="translate(1.73 277.15)">R<tspan class="cls-27" x="6.75" y="0">E</tspan><tspan x="12.43" y="0">CU</tspan><tspan class="cls-14" x="26.61" y="0">R</tspan><tspan x="33.24" y="0">SOS</tspan><tspan x="0" y="14.39">EDUC</tspan><tspan class="cls-28" x="27.59" y="14.39">A</tspan><tspan x="34.72" y="14.39">CIONAIS DIGI</tspan><tspan class="cls-29" x="100.73" y="14.39">T</tspan><tspan class="cls-24" x="105.72" y="14.39">AIS</tspan></text><text class="cls-30" transform="translate(0.45 404.73)">INFRA<tspan class="cls-14" x="30.63" y="0">ES</tspan><tspan class="cls-24" x="41.91" y="0">TRUTURA</tspan></text></g></g></svg>