<svg xmlns="http://www.w3.org/2000/svg" viewBox="0 0 62.07 35.6"><defs><style>.a{fill:#20273d;}.b{fill:#86bd45;}</style></defs><path class="a" d="M1.42,32.16l.1-.24.37.95H1.14Zm.31-.91H1.32L0,34.46H.52L1,33.3H2.06l.39,1,0,.14v0H3L1.74,31.27Z"/><polygon class="a" points="5.01 33.05 6.28 33.05 6.28 32.6 5.01 32.6 5.01 31.7 6.33 31.7 6.33 31.25 4.54 31.25 4.54 34.46 6.44 34.46 6.44 34.01 5.01 34.01 5.01 33.05"/><path class="a" d="M9.41,32.86a1.1,1.1,0,0,1-1.25,1.19c-.32,0-.58,0-.67,0V31.68h.58a1.33,1.33,0,0,1,1.08.38,1.23,1.23,0,0,1,.26.81M8.08,31.24H7v3.2h0l1,0A1.73,1.73,0,0,0,9.47,34h0a1.63,1.63,0,0,0,.43-1.2,1.47,1.47,0,0,0-.37-1.07,1.79,1.79,0,0,0-1.45-.5"/><path class="a" d="M13,31.25h-.45v0s0,.62,0,1.29c0,.31,0,.57,0,.68,0,.57-.28.82-.86.82s-.82-.26-.83-.76c0-.26,0-.64,0-.92s0-1.11,0-1.11v0h-.47v0s0,.79,0,1.23,0,.77,0,.94c0,.68.49,1,1.3,1A1.16,1.16,0,0,0,13,33.33c0-.16,0-.53,0-.74s0-1.3,0-1.3Z"/><path class="a" d="M16,33.91a2.17,2.17,0,0,1-.82.13A1.16,1.16,0,0,1,14,32.79a1,1,0,0,1,1.18-1.15,2.06,2.06,0,0,1,.9.17l.06,0v-.47h0a2.07,2.07,0,0,0-1-.15,1.5,1.5,0,0,0-1.67,1.63,1.56,1.56,0,0,0,1.69,1.64,2.76,2.76,0,0,0,.94-.13h0v-.46Z"/><path class="a" d="M18.34,32.87h-.75l.38-.95Zm-.16-1.62h-.41l-1.28,3.21H17l.45-1.16h1.09L19,34.46h.51l-1.28-3.19Z"/><path class="a" d="M22.2,33.91a2.08,2.08,0,0,1-.81.13,1.16,1.16,0,0,1-1.28-1.25,1.05,1.05,0,0,1,1.19-1.15,2.06,2.06,0,0,1,.9.17l.06,0v-.47h0a2.19,2.19,0,0,0-1-.15,1.5,1.5,0,0,0-1.67,1.63,1.54,1.54,0,0,0,1.26,1.6l-.11.22v.23h0c.27,0,.51.1.51.26s-.16.12-.23.12a.72.72,0,0,1-.33-.09l0,0-.06.33h0a.89.89,0,0,0,.44.1.51.51,0,0,0,.57-.49c0-.26-.17-.42-.49-.5l.06-.13h.07a2.76,2.76,0,0,0,.94-.13h0v-.46Z"/><path class="a" d="M24.53,32.87h-.75l.38-.95Zm-.16-1.62H24l-1.28,3.21h.48l.45-1.16H24.7l.46,1.16h.5l-1.28-3.19Z"/><path class="a" d="M24.24,30.22a.68.68,0,0,0-.34-.11.64.64,0,0,0-.51.28l0,0,.16.33,0,0a.34.34,0,0,1,.31-.17.48.48,0,0,1,.24.09.68.68,0,0,0,.33.11.72.72,0,0,0,.51-.28v0l-.16-.34,0,.06a.36.36,0,0,1-.53.08"/><path class="a" d="M28.56,32.84a1.1,1.1,0,0,1-1.15,1.24,1.11,1.11,0,0,1-1.1-1.24,1.13,1.13,0,1,1,2.25,0m-1.09-1.65a1.66,1.66,0,1,0,1.58,1.66,1.52,1.52,0,0,0-1.58-1.66"/><path class="a" d="M32.4,33.53c0,.35-.22.52-.68.52l-.43,0V33h.27c.56,0,.84.18.84.56m-.79-1h-.32v-.94h.28c.42,0,.62.15.62.46a.51.51,0,0,1-.58.5m.7.13a.79.79,0,0,0,.38-.7c0-.48-.39-.77-1-.77h-.83v3.21h.94c.72,0,1.16-.36,1.16-1a.81.81,0,0,0-.61-.8"/><path class="a" d="M37.8,32.87H37l.38-.95Zm-.16-1.62h-.41L36,34.4l0,.06h.48l.46-1.16H38l.46,1.16h.5l-1.27-3.19Z"/><path class="a" d="M40.41,32.63l-.12-.06c-.29-.12-.59-.25-.59-.52s.16-.39.51-.39a1.94,1.94,0,0,1,.77.18l.06,0v-.46h0a1.69,1.69,0,0,0-.83-.16c-.59,0-1,.31-1,.83A1,1,0,0,0,40,33l.1,0c.32.13.62.25.62.57s-.23.46-.69.46a1.56,1.56,0,0,1-.8-.25l-.07,0v.48l0,0a1.64,1.64,0,0,0,.88.21c.69,0,1.14-.36,1.14-.92s-.42-.76-.82-.93"/><polygon class="a" points="41.82 31.25 41.82 31.25 41.82 34.46 42.28 34.46 42.28 34.46 42.28 31.25 41.82 31.25 41.82 31.25"/><polygon class="a" points="43.47 31.25 43 31.25 43 34.46 44.85 34.46 44.85 34 43.47 34 43.47 31.25"/><polygon class="a" points="45.86 33.05 47.14 33.05 47.14 32.6 45.86 32.6 45.86 31.7 47.18 31.7 47.18 31.25 45.39 31.25 45.39 34.46 47.29 34.46 47.29 34.01 45.86 34.01 45.86 33.05"/><polygon class="a" points="47.93 31.25 47.93 34.46 47.93 34.46 48.4 34.46 48.4 34.46 48.4 31.25 48.4 31.25 47.93 31.25 47.93 31.25"/><path class="a" d="M53.53,32.87h-.75l.37-.95Zm-.16-1.62H53L51.69,34.4l0,.06h.48l.46-1.16h1.08l.46,1.16h.51l-1.28-3.19Z"/><path class="a" d="M35,32.23a.57.57,0,0,1-.19.44.63.63,0,0,1-.49.16h-.42V31.64h.36a.79.79,0,0,1,.59.18.54.54,0,0,1,.15.41m.5,0a1,1,0,0,0-.23-.65,1.24,1.24,0,0,0-.92-.31h-.92v3.21h.47V33.24h.54l.74,1.2v0h.55l-.84-1.34a1,1,0,0,0,.6-.92"/><path class="a" d="M50.58,32.23a.57.57,0,0,1-.19.44.63.63,0,0,1-.49.16h-.42V31.64h.36a.77.77,0,0,1,.59.18.54.54,0,0,1,.15.41m.5,0a1,1,0,0,0-.23-.65,1.24,1.24,0,0,0-.92-.31H49v3.21h.47V33.24H50l.74,1.2v0h.55l-.84-1.34a1,1,0,0,0,.6-.92"/><path class="a" d="M20.51,28.69c-.32,0-.58,0-.67,0V26.32h.58a1.33,1.33,0,0,1,1.08.38,1.23,1.23,0,0,1,.26.81,1.1,1.1,0,0,1-1.25,1.19m-.05.43a1.73,1.73,0,0,0,1.36-.47h0a1.69,1.69,0,0,0,.42-1.2,1.51,1.51,0,0,0-.37-1.08,1.81,1.81,0,0,0-1.44-.49H19.37v3.2h0l1.05,0"/><polygon class="a" points="24.59 28.65 23.16 28.65 23.16 27.69 24.44 27.69 24.44 27.24 23.16 27.24 23.16 26.34 24.48 26.34 24.48 25.89 22.7 25.89 22.7 29.1 24.59 29.1 24.59 28.65"/><polygon class="a" points="27.11 29.1 27.11 25.89 27.11 25.89 26.64 25.89 26.64 25.89 26.64 29.1 26.64 29.1 27.11 29.1 27.11 29.1"/><polygon class="a" points="29.92 28.25 28.2 25.89 27.77 25.89 27.77 29.1 28.22 29.1 28.22 26.74 29.92 29.08 29.94 29.1 30.36 29.1 30.36 25.89 29.92 25.89 29.92 28.25"/><path class="a" d="M31.43,27.47a1.13,1.13,0,1,1,1.1,1.25,1.12,1.12,0,0,1-1.1-1.25m1.1,1.68a1.54,1.54,0,0,0,1.64-1.66,1.52,1.52,0,0,0-1.58-1.66,1.66,1.66,0,0,0-.06,3.32"/><polygon class="a" points="35.53 29.1 35.94 29.1 37.15 25.94 37.17 25.89 36.68 25.89 35.75 28.38 34.83 25.89 34.3 25.89 35.52 29.07 35.53 29.1"/><path class="a" d="M38,27.51l.38-1,.37,1ZM36.84,29.1h.49l.45-1.16h1.09l.45,1.16h.51l-1.28-3.19v0h-.41L36.86,29Z"/><path class="a" d="M42.51,28.54a2,2,0,0,1-.82.13,1.15,1.15,0,0,1-1.27-1.24,1,1,0,0,1,1.18-1.15,2.06,2.06,0,0,1,.9.17l.06,0V26h0a2,2,0,0,0-1-.16,1.5,1.5,0,0,0-1.66,1.63,1.54,1.54,0,0,0,1.25,1.61l-.1.22v.23h0c.26,0,.5.1.5.26s-.14.12-.22.12a.73.73,0,0,1-.34-.09l0,0-.05.32,0,0a.78.78,0,0,0,.43.1.51.51,0,0,0,.57-.5c0-.25-.16-.41-.49-.49l.06-.13h.08a2.89,2.89,0,0,0,.94-.13h0v-.46Z"/><path class="a" d="M44.76,27.51H44l.37-1Zm-.15-1.6v0h-.41L42.92,29l0,.06h.49l.45-1.16h1.09l.45,1.16h.51Z"/><path class="a" d="M43.79,25.33a.36.36,0,0,1,.32-.17.48.48,0,0,1,.23.09.76.76,0,0,0,.33.11.64.64,0,0,0,.51-.29h0L45,24.72l0,.06a.43.43,0,0,1-.31.16.54.54,0,0,1-.22-.08.76.76,0,0,0-.34-.11.7.7,0,0,0-.52.28v0l.15.33Z"/><path class="a" d="M48.65,27.48a1.1,1.1,0,0,1-1.14,1.24,1.12,1.12,0,0,1-1.1-1.25,1.12,1.12,0,1,1,2.24,0m-1.09-1.65a1.55,1.55,0,0,0-1.65,1.65,1.62,1.62,0,1,0,1.65-1.65"/><path class="a" d="M1.74,29.12A2.76,2.76,0,0,0,2.68,29h0v-.46l-.06,0a2,2,0,0,1-.82.13A1.15,1.15,0,0,1,.55,27.43a1,1,0,0,1,1.18-1.15,2.2,2.2,0,0,1,.91.17l0,0V26h0a2,2,0,0,0-.95-.16A1.51,1.51,0,0,0,.05,27.47a1.56,1.56,0,0,0,1.69,1.65"/><polygon class="a" points="5.21 28.65 3.78 28.65 3.78 27.69 5.06 27.69 5.06 27.24 3.78 27.24 3.78 26.34 5.1 26.34 5.1 25.89 3.32 25.89 3.32 29.1 5.21 29.1 5.21 28.65"/><polygon class="a" points="6.17 26.74 7.88 29.08 7.89 29.1 8.31 29.1 8.31 25.89 7.87 25.89 7.87 28.25 6.15 25.89 5.72 25.89 5.72 29.1 6.17 29.1 6.17 26.74"/><polygon class="a" points="11.41 25.89 8.74 25.89 8.74 26.34 9.83 26.34 9.83 29.1 10.3 29.1 10.3 26.34 11.41 26.34 11.41 25.89"/><path class="a" d="M14.83,27.47a1.12,1.12,0,1,1,2.24,0,1.09,1.09,0,0,1-1.14,1.24,1.12,1.12,0,0,1-1.1-1.25m1.1,1.68a1.54,1.54,0,0,0,1.64-1.66A1.52,1.52,0,0,0,16,25.83a1.66,1.66,0,0,0-.05,3.32"/><path class="a" d="M13.44,26.87a.61.61,0,0,1-.19.44.67.67,0,0,1-.5.16h-.41V26.28h.36a.8.8,0,0,1,.59.18.54.54,0,0,1,.15.41m-1.1,1h.53l.76,1.22h.54l-.83-1.34a1,1,0,0,0,.59-.92.91.91,0,0,0-.23-.65,1.21,1.21,0,0,0-.92-.3h-.92V29.1h.48Z"/><path class="a" d="M52.32,27.27l0,0a1,1,0,0,1-.54.16h-.38V26.28h.37a.8.8,0,0,1,.59.17.55.55,0,0,1,.14.41.62.62,0,0,1-.12.38l0,0m.28.34h0l0,0a1,1,0,0,0,.32-.75.87.87,0,0,0-.23-.64h0a1.18,1.18,0,0,0-.92-.31h-.92V29.1h.47V27.87h.37a1.55,1.55,0,0,0,.87-.26"/><path class="a" d="M54.7,27.51h-.76l.38-1Zm-.16-1.62h-.41L52.86,29l0,.06h.48l.46-1.16h1.08l.46,1.16h.5l-1.27-3.19Z"/><path class="a" d="M60.16,27.51l.37-1,.38,1Zm1.17-.18-.57-1.42v0h-.41L59.07,29l0,.06h.48l.23-.58.23-.58h1.09l.22.58.23.58H62Z"/><path class="a" d="M58,26.86a.59.59,0,0,1-.19.45.69.69,0,0,1-.49.16h-.42V26.28h.36a.79.79,0,0,1,.59.17.56.56,0,0,1,.15.41m.5,0a.93.93,0,0,0-.23-.64,1.21,1.21,0,0,0-.93-.31h-.92v3.2h.48V27.87h.54l.74,1.21v0h.55l-.84-1.34a1,1,0,0,0,.6-.93"/><path class="a" d="M10.77,21C3.92,21,0,16.5,0,10.49,0,3.94,3.8.12,10.62.12c4.36,0,6.1,1,6.1,1V3.58a13.63,13.63,0,0,0-6-1.13c-4.22,0-8,1.88-8,7.74s3.89,8.38,8.55,8.38a14.13,14.13,0,0,0,5.45-.87l.06,2.45a19.06,19.06,0,0,1-6,.84"/><rect class="a" x="23.25" y="9" width="2.54" height="11.81"/><polygon class="a" points="31.72 0.38 31.72 20.81 43.59 20.81 43.59 18.39 34.26 18.39 34.26 2.81 42.88 2.81 42.88 0.38 31.72 0.38"/><path class="a" d="M57.64,9.71a4.65,4.65,0,0,0,3-4.63C60.6,2,58.09.35,54.08.35c-2,0-5.14,0-5.14,0V11.12h4.6c3.42,0,5.69,1.07,5.69,3.89s-2.12,3.66-4.6,3.68H48.94v2.12s4.4.06,5.86.06c4.76,0,7.27-2.36,7.27-6,0-4.49-4.43-5.18-4.43-5.18m-3.86-.65c-1.31,0-2.3-.09-2.3-.09V2.39s1.14-.06,2.07-.06c2.75,0,4.27,1,4.27,3.26,0,1.82-1.25,3.47-4,3.47"/><path class="b" d="M24.62,4.85A2.43,2.43,0,1,0,22.2,2.42a2.42,2.42,0,0,0,2.42,2.43"/><path class="b" d="M40.23,13.73a2.43,2.43,0,1,0-2.42-2.42,2.42,2.42,0,0,0,2.42,2.42"/><polygon class="b" points="40.45 10.72 24.14 1.4 24.14 3.07 40.45 12.38 40.45 10.72"/></svg>