<svg xmlns="http://www.w3.org/2000/svg" viewBox="0 0 286.2 272.3"><defs><style>.cls-1{fill:#008bbc;}.cls-2,.cls-6{fill:#fff;}.cls-3{fill:none;stroke:#008bbc;stroke-width:2px;}.cls-4{fill:#86bd45;}.cls-5{fill:#e72371;}.cls-6{isolation:isolate;font-size:17px;font-family:Calibri-Bold, Calibri;font-weight:700;}</style></defs><g id="Camada_2" data-name="Camada 2"><g id="Camada_1-2" data-name="Camada 1"><path class="cls-1" d="M33.1,5V48.9H286.2V17a12,12,0,0,0-12-12Z"/><path class="cls-2" d="M77,27.8a8.75,8.75,0,0,1-.3,2.4,5.24,5.24,0,0,1-1,1.8,3.55,3.55,0,0,1-1.6,1.1,5.09,5.09,0,0,1-2.2.4,7.32,7.32,0,0,1-2.2-.3,5.37,5.37,0,0,1-1.6-1,3.11,3.11,0,0,1-.9-1.7,9,9,0,0,1-.3-2.5,7.55,7.55,0,0,1,.3-2.3,5.24,5.24,0,0,1,1-1.8,3.55,3.55,0,0,1,1.6-1.1,5.09,5.09,0,0,1,2.2-.4,7.8,7.8,0,0,1,2.2.3,3.36,3.36,0,0,1,1.6,1,3.93,3.93,0,0,1,.9,1.7A8.75,8.75,0,0,1,77,27.8Zm-2.3.1a6.62,6.62,0,0,0-.1-1.5,2.2,2.2,0,0,0-.5-1.2,2.36,2.36,0,0,0-.9-.8,2.77,2.77,0,0,0-1.3-.3,2.5,2.5,0,0,0-1.3.3,2.36,2.36,0,0,0-.9.8,3.34,3.34,0,0,0-.5,1.2,6.6,6.6,0,0,0-.1,1.4,8.08,8.08,0,0,0,.1,1.6,3.37,3.37,0,0,0,.4,1.2,3,3,0,0,0,.8.8,2.77,2.77,0,0,0,1.3.3,2.5,2.5,0,0,0,1.3-.3,2.36,2.36,0,0,0,.9-.8,3.34,3.34,0,0,0,.5-1.2A6.64,6.64,0,0,0,74.7,27.9Zm11,5.1v.1a.35.35,0,0,1-.2.1.37.37,0,0,0-.3.1h-1a.37.37,0,0,1-.3-.1c-.1,0-.1-.1-.2-.1s0-.1,0-.1V28.8a1.72,1.72,0,0,0-.1-.8c-.1-.2-.1-.4-.2-.5s-.2-.3-.4-.3a1.08,1.08,0,0,0-.6-.1,1.33,1.33,0,0,0-.8.3,3,3,0,0,0-.8.8v5a.35.35,0,0,1-.2.1.37.37,0,0,0-.3.1h-1a.37.37,0,0,1-.3-.1c-.1,0-.1-.1-.2-.1s0-.1,0-.1V25.6l.1-.1a.37.37,0,0,0,.3-.1H80a.37.37,0,0,1,.3.1.1.1,0,0,1,.1.1v1a5.3,5.3,0,0,1,1.2-1,3.08,3.08,0,0,1,1.3-.3,5.07,5.07,0,0,1,1.3.2,2.7,2.7,0,0,1,.8.7,3.13,3.13,0,0,1,.5,1,5.72,5.72,0,0,1,.1,1.4V33Zm9.1,0v.2l-.1.1a.49.49,0,0,0-.3.1h-.8a.37.37,0,0,1-.3-.1.1.1,0,0,1-.1-.1v-1a10.59,10.59,0,0,1-1.2,1,3.19,3.19,0,0,1-1.4.3,2.9,2.9,0,0,1-1.4-.3,2.84,2.84,0,0,1-1-.9,5,5,0,0,1-.5-1.3,7.77,7.77,0,0,1-.2-1.6,9,9,0,0,1,.2-1.8,2.62,2.62,0,0,1,.6-1.3,2.84,2.84,0,0,1,1-.9,3.19,3.19,0,0,1,1.4-.3,2,2,0,0,1,1.1.3,6.07,6.07,0,0,1,1,.7V22a.35.35,0,0,1,.2-.1c.1,0,.2-.1.3-.1h1a.37.37,0,0,1,.3.1c.1,0,.1.1.2.1V33Zm-2-4.9a3.82,3.82,0,0,0-.9-.9,1.61,1.61,0,0,0-.9-.3,1.45,1.45,0,0,0-.7.2,1.21,1.21,0,0,0-.5.5,6.89,6.89,0,0,0-.3.8,2.77,2.77,0,0,0-.1.9,2.77,2.77,0,0,0,.1.9,1.88,1.88,0,0,0,.2.8,2.65,2.65,0,0,0,.5.6,1.45,1.45,0,0,0,.7.2.6.6,0,0,0,.4-.1.76.76,0,0,0,.4-.2c.1-.1.3-.2.4-.4s.3-.3.5-.6V28.1Zm11,1a1.07,1.07,0,0,1-.2.6.76.76,0,0,1-.5.2H98.6a2.77,2.77,0,0,0,.1.9,1.61,1.61,0,0,0,.4.7,2.09,2.09,0,0,0,.6.4,2.77,2.77,0,0,0,.9.1,3.08,3.08,0,0,0,1-.1,6.37,6.37,0,0,0,.7-.2c.2-.1.4-.1.5-.2a.37.37,0,0,1,.3-.1h.1l.1.1v1.2l-.1.1a1.24,1.24,0,0,1-.3.2c-.2.1-.4.1-.6.2a6.37,6.37,0,0,1-.9.2c-.3,0-.7.1-1,.1a7.93,7.93,0,0,1-1.7-.2,2.55,2.55,0,0,1-1.2-.8,2.73,2.73,0,0,1-.7-1.3,5,5,0,0,1-.2-1.8,4.84,4.84,0,0,1,.3-1.8,4,4,0,0,1,.7-1.3,2.55,2.55,0,0,1,1.2-.8,4.42,4.42,0,0,1,3.2,0,2.84,2.84,0,0,1,1.1.8,3,3,0,0,1,.6,1.1,5.9,5.9,0,0,1,.2,1.4v.3Zm-2.1-.6a2.12,2.12,0,0,0-.4-1.4,1.5,1.5,0,0,0-1.2-.5,1.48,1.48,0,0,0-.7.1,1,1,0,0,0-.5.4l-.3.6a1.7,1.7,0,0,0-.1.7h3.2ZM121.1,33v.1a.35.35,0,0,1-.2.1.37.37,0,0,0-.3.1h-1a.37.37,0,0,1-.3-.1c-.1,0-.1-.1-.2-.1V28.6a1.7,1.7,0,0,0-.1-.7.76.76,0,0,0-.2-.5c-.1-.1-.2-.3-.4-.3a.75.75,0,0,0-.5-.1,1.6,1.6,0,0,0-.8.3,6,6,0,0,0-.8.8v5a.35.35,0,0,1-.2.1.37.37,0,0,0-.3.1h-1a.37.37,0,0,1-.3-.1c-.1,0-.1-.1-.2-.1s0-.1,0-.1V28.6a1.7,1.7,0,0,0-.1-.7.76.76,0,0,0-.2-.5c-.1-.1-.2-.3-.4-.3a.75.75,0,0,0-.5-.1,1.33,1.33,0,0,0-.8.3,6,6,0,0,0-.8.8v5a.35.35,0,0,1-.2.1.37.37,0,0,0-.3.1h-1a.37.37,0,0,1-.3-.1c-.1,0-.1-.1-.2-.1s0-.1,0-.1V25.5l.1-.1a.37.37,0,0,0,.3-.1h.8a.37.37,0,0,1,.3.1.1.1,0,0,1,.1.1v1a5.3,5.3,0,0,1,1.2-1,2.77,2.77,0,0,1,1.3-.3,2,2,0,0,1,.8.1c.2.1.5.2.7.3a2.18,2.18,0,0,1,.5.4c.1.2.3.4.3.6a4.35,4.35,0,0,1,.7-.6,2.09,2.09,0,0,1,.6-.4,1.42,1.42,0,0,1,.6-.2,1.27,1.27,0,0,1,.6-.1,3.73,3.73,0,0,1,1.2.2,2.7,2.7,0,0,1,.8.7,1.78,1.78,0,0,1,.4,1,4.87,4.87,0,0,1,.1,1.2V33Zm4.3-9.9a1.22,1.22,0,0,1-.3.9c-.2.2-.5.2-1,.2a2.15,2.15,0,0,1-1-.2c-.2-.2-.2-.4-.2-.8a1.22,1.22,0,0,1,.3-.9c.2-.2.5-.2,1-.2a1.44,1.44,0,0,1,.9.2A1.21,1.21,0,0,1,125.4,23.1Zm-.2,9.9v.1a.35.35,0,0,1-.2.1.37.37,0,0,0-.3.1h-1a.37.37,0,0,1-.3-.1c-.1,0-.1-.1-.2-.1s0-.1,0-.1V25.5a.35.35,0,0,1,.2-.1c.1,0,.2-.1.3-.1h1a.37.37,0,0,1,.3.1c.1,0,.1.1.2.1s0,.1,0,.1Zm9.2,0v.1a.35.35,0,0,1-.2.1.37.37,0,0,0-.3.1h-1a.37.37,0,0,1-.3-.1c-.1,0-.1-.1-.2-.1s0-.1,0-.1V28.8a1.72,1.72,0,0,0-.1-.8c-.1-.2-.1-.4-.2-.5s-.2-.3-.4-.3a1.08,1.08,0,0,0-.6-.1,1.33,1.33,0,0,0-.8.3,3,3,0,0,0-.8.8v5a.35.35,0,0,1-.2.1.37.37,0,0,0-.3.1h-1a.37.37,0,0,1-.3-.1c-.1,0-.1-.1-.2-.1s0-.1,0-.1V25.6l.1-.1a.37.37,0,0,0,.3-.1h.8a.37.37,0,0,1,.3.1.1.1,0,0,1,.1.1v1a5.3,5.3,0,0,1,1.2-1,3.08,3.08,0,0,1,1.3-.3,5.07,5.07,0,0,1,1.3.2,2.7,2.7,0,0,1,.8.7,3.13,3.13,0,0,1,.5,1,5.72,5.72,0,0,1,.1,1.4V33Zm9.1,0v.1a.35.35,0,0,1-.2.1.37.37,0,0,0-.3.1h-1a.37.37,0,0,1-.3-.1c-.1,0-.1-.1-.2-.1s0-.1,0-.1V28.8a1.72,1.72,0,0,0-.1-.8c-.1-.2-.1-.4-.2-.5s-.2-.3-.4-.3a1.08,1.08,0,0,0-.6-.1,1.33,1.33,0,0,0-.8.3,3,3,0,0,0-.8.8v5a.35.35,0,0,1-.2.1.37.37,0,0,0-.3.1h-1a.37.37,0,0,1-.3-.1c-.1,0-.1-.1-.2-.1s0-.1,0-.1v-11a.35.35,0,0,1,.2-.1c.1,0,.2-.1.3-.1h1a.37.37,0,0,1,.3.1c.1,0,.1.1.2.1v4.2a3.83,3.83,0,0,1,1.1-.8,2.66,2.66,0,0,1,1.2-.3,5.07,5.07,0,0,1,1.3.2,2.7,2.7,0,0,1,.8.7,3.13,3.13,0,0,1,.5,1,6.15,6.15,0,0,1,.1,1.4V33Zm8.4.1c0,.1,0,.1-.1.2s-.1.1-.3.1h-1a.35.35,0,0,1-.3-.3v-.6a7,7,0,0,1-1,.8,2.5,2.5,0,0,1-1.3.3,3.59,3.59,0,0,1-1.1-.2,4.05,4.05,0,0,1-.9-.5,5.55,5.55,0,0,1-.6-.8,1.64,1.64,0,0,1-.2-1,2,2,0,0,1,.3-1.1,2,2,0,0,1,.8-.8,4.33,4.33,0,0,1,1.2-.5,8.62,8.62,0,0,1,1.7-.1h.7v-.4a1.27,1.27,0,0,0-.1-.6.52.52,0,0,0-.2-.4c-.1-.1-.3-.2-.4-.3a1.48,1.48,0,0,0-.7-.1,2.48,2.48,0,0,0-.9.1,4.88,4.88,0,0,0-.7.3,2.19,2.19,0,0,0-.5.3.49.49,0,0,1-.3.1c-.1,0-.1,0-.2-.1a.35.35,0,0,1-.1-.2c0-.1-.1-.2-.1-.3v-.7c0-.1.1-.2.2-.3a1.38,1.38,0,0,1,.4-.3,4.88,4.88,0,0,1,.7-.3,2.39,2.39,0,0,1,.9-.2,3.08,3.08,0,0,1,1-.1,6.05,6.05,0,0,1,1.5.2,2.34,2.34,0,0,1,1,.5,1.46,1.46,0,0,1,.6.9,5.07,5.07,0,0,1,.2,1.3v5.1Zm-2.1-3.2H149a2.77,2.77,0,0,0-.9.1,1.42,1.42,0,0,0-.6.2c-.2.1-.3.2-.3.4a.75.75,0,0,0-.1.5.78.78,0,0,0,.3.7,1.14,1.14,0,0,0,.8.3,1.88,1.88,0,0,0,.8-.2,4.37,4.37,0,0,0,.8-.7V29.9Zm14.9-.8a1.07,1.07,0,0,1-.2.6.76.76,0,0,1-.5.2h-4.5a2.77,2.77,0,0,0,.1.9,1.61,1.61,0,0,0,.4.7,2.09,2.09,0,0,0,.6.4,2.77,2.77,0,0,0,.9.1,3.08,3.08,0,0,0,1-.1,6.37,6.37,0,0,0,.7-.2c.2-.1.4-.1.5-.2a.37.37,0,0,1,.3-.1h.1l.1.1v1.2l-.1.1a1.24,1.24,0,0,1-.3.2c-.2.1-.4.1-.6.2a6.37,6.37,0,0,1-.9.2c-.3,0-.7.1-1,.1a7.93,7.93,0,0,1-1.7-.2,2.55,2.55,0,0,1-1.2-.8,2.73,2.73,0,0,1-.7-1.3,5,5,0,0,1-.2-1.8,4.84,4.84,0,0,1,.3-1.8,4,4,0,0,1,.7-1.3,2.55,2.55,0,0,1,1.2-.8,4.42,4.42,0,0,1,3.2,0,2.26,2.26,0,0,1,1.1.8,3,3,0,0,1,.6,1.1,5.9,5.9,0,0,1,.2,1.4v.3Zm-2.1-.6a2.12,2.12,0,0,0-.4-1.4,1.5,1.5,0,0,0-1.2-.5,1.48,1.48,0,0,0-.7.1,1,1,0,0,0-.5.4l-.3.6a1.7,1.7,0,0,0-.1.7h3.2Zm9,2.4a3.59,3.59,0,0,1-.2,1.1,2.7,2.7,0,0,1-.7.8,3.13,3.13,0,0,1-1,.5,5.07,5.07,0,0,1-1.3.2,2.2,2.2,0,0,1-.8-.1,1.45,1.45,0,0,1-.7-.2c-.2-.1-.4-.1-.5-.2s-.2-.1-.3-.2-.1-.1-.1-.3V31.3c0-.1,0-.1.1-.1h.1a.37.37,0,0,1,.3.1c.1.1.3.1.4.2a1.42,1.42,0,0,0,.6.2,2,2,0,0,0,.8.1.75.75,0,0,0,.5-.1.76.76,0,0,0,.4-.2c.1-.1.2-.2.2-.3s.1-.2.1-.4a.52.52,0,0,0-.2-.4,1.38,1.38,0,0,0-.4-.3,1.42,1.42,0,0,0-.6-.2,43170720257388.54,43170720257388.54,0,0,1-1.4-.6c-.2-.1-.4-.3-.6-.4a2.09,2.09,0,0,1-.4-.6,2,2,0,0,1-.2-.9,3,3,0,0,1,.2-1,2.1,2.1,0,0,1,.6-.8,3.13,3.13,0,0,1,1-.5,5.07,5.07,0,0,1,1.3-.2h.7c.2,0,.4.1.6.1a.52.52,0,0,1,.4.2.37.37,0,0,0,.3.1.1.1,0,0,1,.1.1v1.2c0,.1,0,.1-.1.1h-.1a.31.31,0,0,1-.2-.1c-.1-.1-.2-.1-.4-.2s-.3-.1-.5-.2a1.48,1.48,0,0,0-.7-.1.75.75,0,0,0-.5.1c-.1,0-.3.1-.3.2s-.2.2-.2.3-.1.2-.1.3a.52.52,0,0,0,.2.4,1.38,1.38,0,0,0,.4.3,1.42,1.42,0,0,0,.6.2,4.88,4.88,0,0,0,.7.3c.3.1.4.2.7.3s.4.3.6.4a2.09,2.09,0,0,1,.4.6C171.5,30.3,171.6,30.6,171.6,30.9Zm7.2,1v.8a.35.35,0,0,0-.1.2c-.1.1-.2.1-.3.2s-.3.2-.5.2a6.37,6.37,0,0,1-.7.2c-.2,0-.5.1-.7.1a3.34,3.34,0,0,1-1.5-.3,2.84,2.84,0,0,1-1.1-.8,4,4,0,0,1-.7-1.3,4.68,4.68,0,0,1-.2-1.7,5.41,5.41,0,0,1,.3-1.9,2.87,2.87,0,0,1,.8-1.3,2.55,2.55,0,0,1,1.2-.8,4,4,0,0,1,1.5-.3,2,2,0,0,1,.7.1,1.42,1.42,0,0,1,.6.2c.2.1.4.1.5.2a1.44,1.44,0,0,0,.3.2c.1.1.1.1.1.2s0,.1.1.2v.6a1.48,1.48,0,0,1-.1.7c-.1.1-.1.2-.2.2a.37.37,0,0,1-.3-.1,1.38,1.38,0,0,0-.4-.3,2.19,2.19,0,0,0-.5-.3,1.48,1.48,0,0,0-.7-.1,1.31,1.31,0,0,0-1.2.6,3,3,0,0,0-.4,1.8,4.1,4.1,0,0,0,.1,1.1,6.89,6.89,0,0,0,.3.8,1.21,1.21,0,0,0,.5.5,1.85,1.85,0,0,0,.7.2,1.48,1.48,0,0,0,.7-.1,2.19,2.19,0,0,0,.5-.3,1.38,1.38,0,0,0,.4-.3.37.37,0,0,1,.3-.1h.1a.35.35,0,0,1,.1.2v.3C178.8,31.5,178.8,31.7,178.8,31.9Zm8.9-2.6a8.81,8.81,0,0,1-.2,1.7,2.87,2.87,0,0,1-.8,1.3,3,3,0,0,1-1.3.9,4.84,4.84,0,0,1-1.8.3,4.31,4.31,0,0,1-1.7-.3,2.55,2.55,0,0,1-1.2-.8,2.73,2.73,0,0,1-.7-1.3,4.68,4.68,0,0,1-.2-1.7,4.67,4.67,0,0,1,.3-1.7,2.87,2.87,0,0,1,.8-1.3,3,3,0,0,1,1.3-.9,4.84,4.84,0,0,1,1.8-.3,4.31,4.31,0,0,1,1.7.3,2.55,2.55,0,0,1,1.2.8,2.73,2.73,0,0,1,.7,1.3C187.6,28,187.7,28.6,187.7,29.3Zm-2.2,0a3.08,3.08,0,0,0-.1-1,6.89,6.89,0,0,0-.3-.8,1,1,0,0,0-.6-.5,2,2,0,0,0-.9-.2,1.88,1.88,0,0,0-.8.2,2.65,2.65,0,0,0-.6.5,1.91,1.91,0,0,0-.3.8c0,.3-.1.7-.1,1.1a3.08,3.08,0,0,0,.1,1,6.89,6.89,0,0,0,.3.8,1,1,0,0,0,.6.5,2.39,2.39,0,0,0,.9.2,1.88,1.88,0,0,0,.8-.2,2.65,2.65,0,0,0,.6-.5,1.14,1.14,0,0,0,.3-.8A3.75,3.75,0,0,0,185.5,29.3Zm5.9,3.7v.1a.35.35,0,0,1-.2.1.37.37,0,0,0-.3.1h-1a.37.37,0,0,1-.3-.1c-.1,0-.1-.1-.2-.1s0-.1,0-.1V22a.35.35,0,0,1,.2-.1c.1,0,.2-.1.3-.1h1a.37.37,0,0,1,.3.1c.1,0,.1.1.2.1V33Zm8.4.1c0,.1,0,.1-.1.2s-.1.1-.3.1h-1a.35.35,0,0,1-.3-.3v-.6a7,7,0,0,1-1,.8,2.5,2.5,0,0,1-1.3.3,3.59,3.59,0,0,1-1.1-.2,4.05,4.05,0,0,1-.9-.5,5.55,5.55,0,0,1-.6-.8,1.64,1.64,0,0,1-.2-1,2,2,0,0,1,.3-1.1,2,2,0,0,1,.8-.8,4.33,4.33,0,0,1,1.2-.5,8.62,8.62,0,0,1,1.7-.1h.7v-.4a1.27,1.27,0,0,0-.1-.6.52.52,0,0,0-.2-.4c-.1-.1-.3-.2-.4-.3a1.48,1.48,0,0,0-.7-.1,2.48,2.48,0,0,0-.9.1,4.88,4.88,0,0,0-.7.3,2.19,2.19,0,0,0-.5.3.49.49,0,0,1-.3.1c-.1,0-.1,0-.2-.1a.35.35,0,0,1-.1-.2c0-.1-.1-.2-.1-.3v-.7c0-.1.1-.2.2-.3a1.38,1.38,0,0,1,.4-.3,4.88,4.88,0,0,1,.7-.3,2.39,2.39,0,0,1,.9-.2,3.08,3.08,0,0,1,1-.1,6.05,6.05,0,0,1,1.5.2,2.34,2.34,0,0,1,1,.5,1.46,1.46,0,0,1,.6.9A5.07,5.07,0,0,1,200,28v5.1Zm-2-3.2H197a2.77,2.77,0,0,0-.9.1,1.42,1.42,0,0,0-.6.2c-.2.1-.3.2-.3.4a.75.75,0,0,0-.1.5.78.78,0,0,0,.3.7,1.14,1.14,0,0,0,.8.3,1.88,1.88,0,0,0,.8-.2,4.37,4.37,0,0,0,.8-.7V29.9Zm14.8-.8a1.07,1.07,0,0,1-.2.6.76.76,0,0,1-.5.2h-4.5a2.77,2.77,0,0,0,.1.9,1.61,1.61,0,0,0,.4.7,2.09,2.09,0,0,0,.6.4,2.77,2.77,0,0,0,.9.1,3.08,3.08,0,0,0,1-.1,6.37,6.37,0,0,0,.7-.2c.2-.1.4-.1.5-.2a.37.37,0,0,1,.3-.1h.1l.1.1v1.2l-.1.1a1.24,1.24,0,0,1-.3.2c-.2.1-.4.1-.6.2a6.37,6.37,0,0,1-.9.2c-.3,0-.7.1-1,.1a7.93,7.93,0,0,1-1.7-.2,2.55,2.55,0,0,1-1.2-.8,2.73,2.73,0,0,1-.7-1.3,5,5,0,0,1-.2-1.8,4.84,4.84,0,0,1,.3-1.8,4,4,0,0,1,.7-1.3,2.55,2.55,0,0,1,1.2-.8,4.42,4.42,0,0,1,3.2,0,2.26,2.26,0,0,1,1.1.8,3,3,0,0,1,.6,1.1,5.9,5.9,0,0,1,.2,1.4v.3Zm-2-.6a2.12,2.12,0,0,0-.4-1.4,1.5,1.5,0,0,0-1.2-.5,1.48,1.48,0,0,0-.7.1,1,1,0,0,0-.5.4l-.3.6a1.7,1.7,0,0,0-.1.7h3.2Zm8.9,2.4a3.59,3.59,0,0,1-.2,1.1,2.7,2.7,0,0,1-.7.8,3.13,3.13,0,0,1-1,.5,5.07,5.07,0,0,1-1.3.2,2.2,2.2,0,0,1-.8-.1,1.45,1.45,0,0,1-.7-.2c-.2-.1-.4-.1-.5-.2s-.2-.1-.3-.2-.1-.1-.1-.3V31.3c0-.1,0-.1.1-.1h.1a.37.37,0,0,1,.3.1c.1.1.3.1.4.2a1.42,1.42,0,0,0,.6.2,2,2,0,0,0,.8.1.75.75,0,0,0,.5-.1.76.76,0,0,0,.4-.2c.1-.1.2-.2.2-.3s.1-.2.1-.4a.52.52,0,0,0-.2-.4,1.38,1.38,0,0,0-.4-.3,1.42,1.42,0,0,0-.6-.2,43170720256939.46,43170720256939.46,0,0,1-1.4-.6c-.2-.1-.4-.3-.6-.4a2.09,2.09,0,0,1-.4-.6,2,2,0,0,1-.2-.9,3,3,0,0,1,.2-1,2.1,2.1,0,0,1,.6-.8,3.13,3.13,0,0,1,1-.5,5.07,5.07,0,0,1,1.3-.2h.7c.2,0,.4.1.6.1a.52.52,0,0,1,.4.2.37.37,0,0,0,.3.1.1.1,0,0,1,.1.1v1.2c0,.1,0,.1-.1.1h-.1a.31.31,0,0,1-.2-.1c-.1-.1-.2-.1-.4-.2s-.3-.1-.5-.2a1.48,1.48,0,0,0-.7-.1.75.75,0,0,0-.5.1c-.1,0-.3.1-.3.2s-.2.2-.2.3-.1.2-.1.3a.52.52,0,0,0,.2.4,1.38,1.38,0,0,0,.4.3,1.42,1.42,0,0,0,.6.2,4.88,4.88,0,0,0,.7.3c.3.1.4.2.7.3s.4.3.6.4a2.09,2.09,0,0,1,.4.6A4.86,4.86,0,0,1,219.5,30.9Zm5.8,1.4v.6c0,.1-.1.2-.1.3s-.1.1-.2.1-.2.1-.3.1-.3.1-.4.1h-.5a3.59,3.59,0,0,1-1.1-.2,2.18,2.18,0,0,1-.8-.5,2,2,0,0,1-.4-.8,4.12,4.12,0,0,1-.1-1.2V27h-.9a.22.22,0,0,1-.2-.2c-.1-.1-.1-.3-.1-.7v-.4a.37.37,0,0,1,.1-.3.1.1,0,0,1,.1-.1h1V23.5a.35.35,0,0,1,.2-.1c.1,0,.2-.1.3-.1h1a.37.37,0,0,1,.3.1c.1,0,.1.1.2.1v1.8h1.7l.1.1a.37.37,0,0,0,.1.3v.4a1.48,1.48,0,0,1-.1.7c-.1.1-.1.2-.2.2h-1.6v3.5a2,2,0,0,0,.2.9.78.78,0,0,0,.7.3h.3c.1,0,.2,0,.2-.1s.1,0,.2-.1h.2l.1.1v.7Zm7.6.8c0,.1,0,.1-.1.2s-.1.1-.3.1h-1a.35.35,0,0,1-.3-.3v-.6a7,7,0,0,1-1,.8,2.5,2.5,0,0,1-1.3.3,3.59,3.59,0,0,1-1.1-.2,4.05,4.05,0,0,1-.9-.5,5.55,5.55,0,0,1-.6-.8,1.64,1.64,0,0,1-.2-1,2,2,0,0,1,.3-1.1,2,2,0,0,1,.8-.8,4.33,4.33,0,0,1,1.2-.5,8.62,8.62,0,0,1,1.7-.1h.7v-.4a1.27,1.27,0,0,0-.1-.6.52.52,0,0,0-.2-.4c-.1-.1-.3-.2-.4-.3a1.48,1.48,0,0,0-.7-.1,2.48,2.48,0,0,0-.9.1,4.88,4.88,0,0,0-.7.3,2.19,2.19,0,0,0-.5.3.49.49,0,0,1-.3.1c-.1,0-.1,0-.2-.1a.35.35,0,0,1-.1-.2c0-.1-.1-.2-.1-.3v-.7c0-.1.1-.2.2-.3a1.38,1.38,0,0,1,.4-.3,4.88,4.88,0,0,1,.7-.3,2.39,2.39,0,0,1,.9-.2,3.08,3.08,0,0,1,1-.1,6.05,6.05,0,0,1,1.5.2,2.34,2.34,0,0,1,1,.5,1.46,1.46,0,0,1,.6.9,5.07,5.07,0,0,1,.2,1.3v5.1Zm-2-3.2h-.8a2.77,2.77,0,0,0-.9.1,1.42,1.42,0,0,0-.6.2c-.2.1-.3.2-.3.4a.75.75,0,0,0-.1.5.78.78,0,0,0,.3.7,1.14,1.14,0,0,0,.8.3,1.88,1.88,0,0,0,.8-.2,4.37,4.37,0,0,0,.8-.7V29.9Zm-.8-7.9c0-.1.1-.1.1-.2s.1-.1.2-.1a.37.37,0,0,0,.3-.1h1.1a1,1,0,0,1,.3.1.1.1,0,0,1,.1.1c0,.1,0,.1-.1.2l-1.6,1.9a.1.1,0,0,1-.1.1.35.35,0,0,1-.2.1H229c-.1,0-.2,0-.2-.1l-.1-.1c0-.1,0-.1.1-.2Zm11,3.1a3.73,3.73,0,0,1-.2,1.2,1.93,1.93,0,0,1-.5.9,1.56,1.56,0,0,1-.8.6,2,2,0,0,1-1.1.3l-.1,1.6a.22.22,0,0,1-.2.2c-.2,0-.4.1-.7.1h-.8c-.1,0-.1-.1-.2-.1l-.1-.1-.1-2v-.4c0-.1.1-.2.1-.3s.1-.1.2-.1h.4a2.2,2.2,0,0,0,.8-.1,1,1,0,0,0,.5-.4c.1-.2.2-.3.3-.5a1.48,1.48,0,0,0,.1-.7,1.48,1.48,0,0,0-.1-.7l-.3-.6a1.27,1.27,0,0,0-.6-.4,2,2,0,0,0-.8-.1,1.48,1.48,0,0,0-.7.1c-.2.1-.4.1-.6.2s-.3.1-.4.2a.31.31,0,0,1-.2.1h-.1l-.1-.1a.37.37,0,0,0-.1-.3v-.9a.35.35,0,0,1,.1-.2c.1-.1.2-.1.3-.2a4.17,4.17,0,0,1,.6-.2c.2-.1.5-.1.7-.2s.5-.1.8-.1a4.31,4.31,0,0,1,1.7.3,3,3,0,0,1,1.1.7,6.07,6.07,0,0,1,.7,1A1.47,1.47,0,0,1,241.1,25.1Zm-2.4,7.1a1.27,1.27,0,0,1-.1.6.71.71,0,0,1-.6.6c-.2,0-.3.1-.6.1a1.27,1.27,0,0,1-.6-.1c-.2-.1-.3-.1-.4-.2a.52.52,0,0,1-.2-.4c0-.2-.1-.3-.1-.6a1.27,1.27,0,0,1,.1-.6.71.71,0,0,1,.6-.6c.2,0,.3-.1.6-.1a1.27,1.27,0,0,1,.6.1.71.71,0,0,1,.6.6A1.27,1.27,0,0,1,238.7,32.2Z"/><path class="cls-2" d="M26.9,52.8A25.9,25.9,0,1,0,1,26.9,25.91,25.91,0,0,0,26.9,52.8"/><circle class="cls-3" cx="26.9" cy="26.9" r="25.9"/><path class="cls-4" d="M42.7,33v-.5h0v-.1h0V31.2c0-.3-.1-.5-.1-.8a.6.6,0,0,0-.1-.4c0-.1-.1-.2-.1-.4a1.85,1.85,0,0,0-.2-.7v-.3c0-.1-.1-.2-.1-.3s0-.2-.1-.2,0-.1-.1-.2a.35.35,0,0,0-.1-.2c0-.1-.1-.1-.2-.1l-5.3,1.5c-.1,0-.1.1-.1.2v3.2h0v-.1h0v1.8h6.5a.22.22,0,0,0,.2-.2h0V32.8c-.2.3-.2.2-.2.2"/><path class="cls-4" d="M41,26.1c.1,0,.1-.1.1-.2a.1.1,0,0,0-.1-.1.31.31,0,0,0-.1-.2c0-.1-.1-.1-.1-.2s-.1-.2-.1-.3a.1.1,0,0,0-.1-.1.1.1,0,0,0-.1-.1c-.1-.1-.1-.2-.2-.3s-.1-.2-.2-.3-.1-.1-.1-.2-.1-.1-.1-.2-.1-.2-.2-.3-.3-.4-.5-.7c0-.1-.1-.1-.1-.2l-.1-.1-.1-.1-.3-.3-.3-.3c0-.1-.1-.1-.1-.2s-.1-.1-.1-.2-.1-.1-.1-.2a.1.1,0,0,0-.1-.1l-.3-.3-.3-.3-.3-.3-.2-.2c-.1-.1-.2-.1-.2-.2s-.2-.1-.2-.2l-.2-.2c-.1-.1-.1-.1-.2-.1s-.1-.1-.2-.1-.1-.1-.2-.1a.14.14,0,0,0-.2,0l-2.9,3.5c-.1.1-.1.2,0,.2l.1.1.1.1.1.1.1.1a.35.35,0,0,1,.1.2c0,.1.1.1.1.2l.2.2.2.2.2.2.2.2.1.1.1.1.1.1.1.1c.1.1.1.2.2.2a.35.35,0,0,0,.1.2v.2a.1.1,0,0,0,.1.1c.1.2.2.3.3.5a.35.35,0,0,0,.1.2.1.1,0,0,0,.1.1v.1c0,.1.1.1.1.2s.1.1.1.2v.2c0,.1,0,.1.1.2v.1c0,.1,0,.1.1.2v.1c0,.1.1.1.2.1Z"/><path class="cls-4" d="M26.4,19.9h.7l1.8-3.7H26.4a.22.22,0,0,0-.2.2L26,19.8a.35.35,0,0,0,.1.2.77.77,0,0,1,.3-.1"/><path class="cls-4" d="M31.3,21.8l.1.1.1.1h.2l.1.1a.14.14,0,0,0,.2,0l2.4-3.6c.1-.1,0-.2-.1-.2a.1.1,0,0,1-.1-.1H34c-.1,0-.1-.1-.2-.1a.35.35,0,0,1-.2-.1c-.1,0-.2-.1-.3-.1s-.2-.1-.3-.1-.2-.1-.3-.1a.37.37,0,0,0-.3-.1c-.1,0-.2-.1-.3-.1H32l-1,4.4c.1,0,.1.1.2.1,0-.3,0-.2.1-.2"/><path class="cls-4" d="M23.2,19.9h1.6a.22.22,0,0,0,.2-.2l-.2-3.2a.22.22,0,0,0-.2-.2h-1a.37.37,0,0,0-.3.1.37.37,0,0,0-.3.1h-.4c-.1,0-.2.1-.4.1s-.2.1-.4.1-.1,0-.2.1-.1,0-.2.1-.1,0-.2.1-.1,0-.2.1-.2.1-.4.1-.2.1-.4.1-.1,0-.2.1-.1.1-.2.1-.1.1-.2.1-.1.1-.2.1-.2.1-.3.2-.2.1-.3.2-.2.1-.3.2-.2.1-.3.2-.2.1-.3.2a.31.31,0,0,1-.2.1c-.1,0-.1.1-.2.1s-.1.1-.2.1-.1.1-.2.1-.1.1-.2.1-.1.2,0,.2l1.3,2c0,.1.1.1.2.1a7961314590657.4,7961314590657.4,0,0,1,.2-.2.35.35,0,0,1,.2-.1c.1,0,.1-.1.2-.1s.1-.1.2-.1.1-.1.2-.1a.35.35,0,0,0,.2-.1c.1,0,.2-.1.3-.1s.2-.1.3-.1.2-.1.3-.1h.4c.1,0,.2-.1.3-.1a.37.37,0,0,0,.3-.1h.7a5.54,5.54,0,0,1,1-.4"/><path class="cls-4" d="M14.1,22.5c0,.1-.1.1-.1.2s-.1.1-.1.2-.1.1-.1.2-.1.2-.2.3-.1.2-.2.3v.2c0,.1-.1.1-.1.2l-.3.6c-.1.1-.1.2-.2.3a15922629181314.59,15922629181314.59,0,0,1-.2.2c0,.1-.1.2-.1.3s-.1.2-.1.3a39337323868134.89,39337323868134.89,0,0,1-.2.4c0,.1-.1.1-.1.2s0,.1-.1.2,0,.1-.1.2,0,.2.1.2l1.3.5c.1,0,.2,0,.2-.1a7961314590657.19,7961314590657.19,0,0,0,.2-.2c0-.1.1-.1.1-.2s.1-.1.1-.2.1-.1.1-.2.1-.1.1-.2a.35.35,0,0,1,.1-.2.1.1,0,0,1,.1-.1l.1-.1c.1-.1.1-.2.2-.3a1.76,1.76,0,0,1,.4-.5l.1-.1V25l.1-.1c.1-.1.1-.2.2-.3s.1-.2.2-.2l.1-.1.1-.1.1-.1L16,24l.2-.2.2-.2.2-.2.2-.2L17,23c.1-.1.1-.1.2-.1s.1-.1.2-.1l.1-.1.1-.1h.1l.1-.1c.1-.1.1-.2,0-.2l-1.4-1.7c-.1-.1-.2-.1-.2,0l-.1.1-.1.1-.1.1-.2.2-.2.2-.2.2-.2.2c-.1.1-.1.2-.2.2s-.1.2-.2.3-.1.2-.2.3-.1.2-.2.3c-.2-.4-.2-.4-.2-.3"/><path class="cls-4" d="M11.5,28.3v.9c0,.2-.1.4-.1.6v2.6h0v1.7a.37.37,0,0,0,.1.3h0c0,.1.1.1.2.1h.4a.22.22,0,0,0,.2-.2v-2h0V31.1c0-.2.1-.4.1-.6a.37.37,0,0,1,.1-.3.37.37,0,0,1,.1-.3,4.33,4.33,0,0,1,.1-.5v-.2c0-.1,0-.1.1-.2s0-.1.1-.2,0-.1.1-.2v-.1c0-.1,0-.2-.1-.2L11.8,28c-.2.2-.3.2-.3.3"/><path class="cls-5" d="M25.2,30.5a1.22,1.22,0,0,1,1.2,1.2,1.2,1.2,0,0,1-2.4,0,1.22,1.22,0,0,1,1.2-1.2M24,34.1a2.28,2.28,0,0,0,1.1.3A2.65,2.65,0,0,0,27.4,33a1.69,1.69,0,0,0,.2-.5l2.6-11.2,1-4.3.6-2.6a.4.4,0,0,0-.4-.5.76.76,0,0,0-.4.2l-1.2,2.5L28,20.3,22.9,30.7A2.45,2.45,0,0,0,24,34.1"/><path class="cls-1" d="M33.1,77.8v43.9H286.2V89.8a12,12,0,0,0-12-12Z"/><path class="cls-2" d="M77,100.6a8.75,8.75,0,0,1-.3,2.4,5.24,5.24,0,0,1-1,1.8,3.55,3.55,0,0,1-1.6,1.1,5.09,5.09,0,0,1-2.2.4,7.32,7.32,0,0,1-2.2-.3,5.37,5.37,0,0,1-1.6-1,3.11,3.11,0,0,1-.9-1.7,9,9,0,0,1-.3-2.5,7.55,7.55,0,0,1,.3-2.3,5.24,5.24,0,0,1,1-1.8,3.55,3.55,0,0,1,1.6-1.1,5.09,5.09,0,0,1,2.2-.4,7.8,7.8,0,0,1,2.2.3,3.36,3.36,0,0,1,1.6,1,3.93,3.93,0,0,1,.9,1.7A8.75,8.75,0,0,1,77,100.6Zm-2.3.2a6.62,6.62,0,0,0-.1-1.5,2.2,2.2,0,0,0-.5-1.2,2.36,2.36,0,0,0-.9-.8,2.77,2.77,0,0,0-1.3-.3,2.5,2.5,0,0,0-1.3.3,2.36,2.36,0,0,0-.9.8,3.34,3.34,0,0,0-.5,1.2,6.6,6.6,0,0,0-.1,1.4,8.08,8.08,0,0,0,.1,1.6,3.37,3.37,0,0,0,.4,1.2,3,3,0,0,0,.8.8,2.77,2.77,0,0,0,1.3.3,2.5,2.5,0,0,0,1.3-.3,2.36,2.36,0,0,0,.9-.8,3.34,3.34,0,0,0,.5-1.2A8,8,0,0,0,74.7,100.8Zm14.8,8v.1a.35.35,0,0,1-.2.1c-.1,0-.2.1-.3.1H88a.37.37,0,0,1-.3-.1c-.1,0-.1-.1-.2-.1v-3.6c-.2.2-.4.3-.6.5l-.6.3c-.2.1-.4.1-.6.2s-.4.1-.6.1a3.19,3.19,0,0,1-1.4-.3,2,2,0,0,1-.9-.9,5,5,0,0,1-.5-1.3,7.77,7.77,0,0,1-.2-1.6,9,9,0,0,1,.2-1.8,3.93,3.93,0,0,1,.6-1.3,2.84,2.84,0,0,1,1-.9,3.19,3.19,0,0,1,1.4-.3,1.27,1.27,0,0,1,.6.1,1.42,1.42,0,0,1,.6.2,2.09,2.09,0,0,1,.6.4,4.35,4.35,0,0,0,.7.6v-.9l.1-.1a.37.37,0,0,0,.3-.1H89a.37.37,0,0,1,.3.1.1.1,0,0,1,.1.1v10.4Zm-2-7.9a3.82,3.82,0,0,0-.9-.9,1.61,1.61,0,0,0-.9-.3,1.45,1.45,0,0,0-.7.2,1.21,1.21,0,0,0-.5.5,6.89,6.89,0,0,0-.3.8,4.1,4.1,0,0,0,0,1.8,1.88,1.88,0,0,0,.2.8,1.21,1.21,0,0,0,.5.5,1.45,1.45,0,0,0,.7.2.6.6,0,0,0,.4-.1.76.76,0,0,0,.4-.2c.1-.1.3-.2.4-.4s.3-.3.5-.6v-2.3Zm11.2,5v.1l-.1.1a.37.37,0,0,0-.3.1h-.8a.37.37,0,0,1-.3-.1.1.1,0,0,1-.1-.1v-1a5.3,5.3,0,0,1-1.2,1,3.08,3.08,0,0,1-1.3.3,5.07,5.07,0,0,1-1.3-.2,2.7,2.7,0,0,1-.8-.7,3.13,3.13,0,0,1-.5-1,6.15,6.15,0,0,1-.1-1.4V98.4a.35.35,0,0,1,.2-.1.37.37,0,0,0,.3-.1h1a.37.37,0,0,1,.3.1c.1,0,.1.1.2.1s0,.1,0,.1v4.2a2.22,2.22,0,0,0,.1.9.76.76,0,0,0,.2.5c.1.1.2.3.4.3a1.08,1.08,0,0,0,.6.1,1.33,1.33,0,0,0,.8-.3,6.47,6.47,0,0,0,.9-.8v-5a.35.35,0,0,1,.2-.1.37.37,0,0,0,.3-.1h1a.37.37,0,0,1,.3.1c.1,0,.1.1.2.1s0,.1,0,.1v7.4Zm8.9-4a1.07,1.07,0,0,1-.2.6.76.76,0,0,1-.5.2h-4.5a2.77,2.77,0,0,0,.1.9,1.61,1.61,0,0,0,.4.7,2.09,2.09,0,0,0,.6.4,2.77,2.77,0,0,0,.9.1,3.08,3.08,0,0,0,1-.1,6.37,6.37,0,0,0,.7-.2c.2-.1.4-.1.5-.2a.37.37,0,0,1,.3-.1h.1l.1.1v1.2l-.1.1a1.24,1.24,0,0,1-.3.2c-.2.1-.4.1-.6.2a6.37,6.37,0,0,1-.9.2c-.3,0-.7.1-1,.1a7.93,7.93,0,0,1-1.7-.2,2.55,2.55,0,0,1-1.2-.8,2.73,2.73,0,0,1-.7-1.3,5,5,0,0,1-.2-1.8,4.84,4.84,0,0,1,.3-1.8,4,4,0,0,1,.7-1.3,2.55,2.55,0,0,1,1.2-.8,4.42,4.42,0,0,1,3.2,0,2.26,2.26,0,0,1,1.1.8,3,3,0,0,1,.6,1.1,5.9,5.9,0,0,1,.2,1.4v.3Zm-2-.6a2.12,2.12,0,0,0-.4-1.4,1.5,1.5,0,0,0-1.2-.5,1.48,1.48,0,0,0-.7.1,1,1,0,0,0-.5.4l-.3.6a1.7,1.7,0,0,0-.1.7h3.2Zm9.8-5.4a1.22,1.22,0,0,1-.3.9c-.2.2-.5.2-1,.2a2.15,2.15,0,0,1-1-.2c-.2-.2-.2-.4-.2-.8a1.22,1.22,0,0,1,.3-.9c.2-.2.5-.2,1-.2a1.44,1.44,0,0,1,.9.2A1.21,1.21,0,0,1,115.4,95.9Zm-.1,10v.1a.35.35,0,0,1-.2.1.37.37,0,0,0-.3.1h-1a.37.37,0,0,1-.3-.1c-.1,0-.1-.1-.2-.1s0-.1,0-.1V98.4a.35.35,0,0,1,.2-.1c.1,0,.2-.1.3-.1h1a.37.37,0,0,1,.3.1c.1,0,.1.1.2.1s0,.1,0,.1Zm7.3-2.1a3.59,3.59,0,0,1-.2,1.1,2.7,2.7,0,0,1-.7.8,3.13,3.13,0,0,1-1,.5,5.07,5.07,0,0,1-1.3.2,2.2,2.2,0,0,1-.8-.1,1.45,1.45,0,0,1-.7-.2c-.2-.1-.4-.1-.5-.2s-.2-.1-.3-.2-.1-.1-.1-.3v-1.2c0-.1,0-.1.1-.1h.1a.37.37,0,0,1,.3.1c.1.1.3.1.4.2a1.42,1.42,0,0,0,.6.2,2,2,0,0,0,.8.1.75.75,0,0,0,.5-.1.76.76,0,0,0,.4-.2c.1-.1.2-.2.2-.3s.1-.2.1-.4a.52.52,0,0,0-.2-.4,1.38,1.38,0,0,0-.4-.3,1.42,1.42,0,0,0-.6-.2,86341440514665.2,86341440514665.2,0,0,1-1.4-.6c-.2-.1-.4-.3-.6-.4a2.09,2.09,0,0,1-.4-.6,2,2,0,0,1-.2-.9,3,3,0,0,1,.2-1,2.1,2.1,0,0,1,.6-.8,3.13,3.13,0,0,1,1-.5,5.07,5.07,0,0,1,1.3-.2h.7c.2,0,.4.1.6.1a.52.52,0,0,1,.4.2.37.37,0,0,0,.3.1.1.1,0,0,1,.1.1v1.2c0,.1,0,.1-.1.1h-.1a.31.31,0,0,1-.2-.1c-.1-.1-.2-.1-.4-.2s-.3-.1-.5-.2a1.48,1.48,0,0,0-.7-.1.75.75,0,0,0-.5.1c-.1,0-.3.1-.3.2s-.2.2-.2.3-.1.2-.1.3a.52.52,0,0,0,.2.4,1.38,1.38,0,0,0,.4.3,1.42,1.42,0,0,0,.6.2,4.88,4.88,0,0,0,.7.3c.3.1.4.2.7.3s.4.3.6.4a2.09,2.09,0,0,1,.4.6A11.48,11.48,0,0,1,122.6,103.8Zm6.7,0a3.59,3.59,0,0,1-.2,1.1,2.7,2.7,0,0,1-.7.8,3.13,3.13,0,0,1-1,.5,5.07,5.07,0,0,1-1.3.2,2.2,2.2,0,0,1-.8-.1,1.45,1.45,0,0,1-.7-.2c-.2-.1-.4-.1-.5-.2s-.2-.1-.3-.2-.1-.1-.1-.3v-1.2c0-.1,0-.1.1-.1h.1a.37.37,0,0,1,.3.1c.1.1.3.1.4.2a1.42,1.42,0,0,0,.6.2,2,2,0,0,0,.8.1.75.75,0,0,0,.5-.1.76.76,0,0,0,.4-.2c.1-.1.2-.2.2-.3s.1-.2.1-.4a.52.52,0,0,0-.2-.4,1.38,1.38,0,0,0-.4-.3,1.42,1.42,0,0,0-.6-.2,4.88,4.88,0,0,0-.7-.3,4.88,4.88,0,0,0-.7-.3c-.2-.1-.4-.3-.6-.4a2.09,2.09,0,0,1-.4-.6,2,2,0,0,1-.2-.9,3,3,0,0,1,.2-1,2.1,2.1,0,0,1,.6-.8,3.13,3.13,0,0,1,1-.5,5.07,5.07,0,0,1,1.3-.2h.7c.2,0,.4.1.6.1a.52.52,0,0,1,.4.2.37.37,0,0,0,.3.1.1.1,0,0,1,.1.1v1.2c0,.1,0,.1-.1.1h-.1a.31.31,0,0,1-.2-.1c-.1-.1-.2-.1-.4-.2s-.3-.1-.5-.2a1.48,1.48,0,0,0-.7-.1.75.75,0,0,0-.5.1c-.1,0-.3.1-.3.2s-.2.2-.2.3-.1.2-.1.3a.52.52,0,0,0,.2.4,1.38,1.38,0,0,0,.4.3,1.42,1.42,0,0,0,.6.2,4.88,4.88,0,0,0,.7.3c.3.1.4.2.7.3s.4.3.6.4a2.09,2.09,0,0,1,.4.6A4.19,4.19,0,0,1,129.3,103.8Zm9.1-1.7a8.81,8.81,0,0,1-.2,1.7,2.87,2.87,0,0,1-.8,1.3,3,3,0,0,1-1.3.9,4.84,4.84,0,0,1-1.8.3,4.31,4.31,0,0,1-1.7-.3,2.55,2.55,0,0,1-1.2-.8,2.73,2.73,0,0,1-.7-1.3,5.91,5.91,0,0,1,.1-3.4,2.87,2.87,0,0,1,.8-1.3,3,3,0,0,1,1.3-.9,4.84,4.84,0,0,1,1.8-.3,4.31,4.31,0,0,1,1.7.3,2.55,2.55,0,0,1,1.2.8,2.73,2.73,0,0,1,.7,1.3C138.3,100.8,138.4,101.4,138.4,102.1Zm-2.1.1a3.08,3.08,0,0,0-.1-1,6.89,6.89,0,0,0-.3-.8,1,1,0,0,0-.6-.5,2,2,0,0,0-.9-.2,1.88,1.88,0,0,0-.8.2,2.65,2.65,0,0,0-.6.5,1.91,1.91,0,0,0-.3.8c0,.3-.1.7-.1,1.1a3.08,3.08,0,0,0,.1,1,6.89,6.89,0,0,0,.3.8,1,1,0,0,0,.6.5,2.39,2.39,0,0,0,.9.2,1.88,1.88,0,0,0,.8-.2,2.65,2.65,0,0,0,.6-.5,1.14,1.14,0,0,0,.3-.8C136.2,102.9,136.3,102.6,136.3,102.2Zm12.8,1.6a3.59,3.59,0,0,1-.2,1.1,2.7,2.7,0,0,1-.7.8,3.13,3.13,0,0,1-1,.5,5.07,5.07,0,0,1-1.3.2,2.2,2.2,0,0,1-.8-.1,1.45,1.45,0,0,1-.7-.2c-.2-.1-.4-.1-.5-.2s-.2-.1-.3-.2-.1-.1-.1-.3v-1.2c0-.1,0-.1.1-.1h.1a.37.37,0,0,1,.3.1c.1.1.3.1.4.2a1.42,1.42,0,0,0,.6.2,2,2,0,0,0,.8.1.75.75,0,0,0,.5-.1.76.76,0,0,0,.4-.2c.1-.1.2-.2.2-.3s.1-.2.1-.4a.52.52,0,0,0-.2-.4,1.38,1.38,0,0,0-.4-.3,1.42,1.42,0,0,0-.6-.2,43170720257294.83,43170720257294.83,0,0,1-1.4-.6c-.2-.1-.4-.3-.6-.4a2.09,2.09,0,0,1-.4-.6,2,2,0,0,1-.2-.9,3,3,0,0,1,.2-1,2.1,2.1,0,0,1,.6-.8,3.13,3.13,0,0,1,1-.5,5.07,5.07,0,0,1,1.3-.2h.7c.2,0,.4.1.6.1a.52.52,0,0,1,.4.2.37.37,0,0,0,.3.1.1.1,0,0,1,.1.1v1.2c0,.1,0,.1-.1.1h-.1a.31.31,0,0,1-.2-.1c-.1-.1-.2-.1-.4-.2s-.3-.1-.5-.2a1.48,1.48,0,0,0-.7-.1.75.75,0,0,0-.5.1c-.1,0-.3.1-.3.2s-.2.2-.2.3-.1.2-.1.3a.52.52,0,0,0,.2.4,1.38,1.38,0,0,0,.4.3,1.42,1.42,0,0,0,.6.2,4.88,4.88,0,0,0,.7.3c.3.1.4.2.7.3s.4.3.6.4a2.09,2.09,0,0,1,.4.6A4.19,4.19,0,0,1,149.1,103.8Zm3.8-7.9a1.22,1.22,0,0,1-.3.9c-.2.2-.5.2-1,.2a2.15,2.15,0,0,1-1-.2c-.2-.2-.2-.4-.2-.8a1.22,1.22,0,0,1,.3-.9c.2-.2.5-.2,1-.2a1.44,1.44,0,0,1,.9.2A1.21,1.21,0,0,1,152.9,95.9Zm-.1,10v.1a.35.35,0,0,1-.2.1.37.37,0,0,0-.3.1h-1a.37.37,0,0,1-.3-.1c-.1,0-.1-.1-.2-.1s0-.1,0-.1V98.4a.35.35,0,0,1,.2-.1c.1,0,.2-.1.3-.1h1a.37.37,0,0,1,.3.1c.1,0,.1.1.2.1s0,.1,0,.1Zm8.7-6.9c0,.3,0,.5-.1.6s-.1.2-.2.2h-.9a2.19,2.19,0,0,1,.3.5.9.9,0,0,1,.1.5,3.59,3.59,0,0,1-.2,1.1,2.41,2.41,0,0,1-.6.8,3.13,3.13,0,0,1-1,.5,5.07,5.07,0,0,1-1.3.2,1.7,1.7,0,0,1-.7-.1c-.2-.1-.4-.1-.5-.2-.1.1-.1.2-.2.3a.37.37,0,0,0-.1.3.52.52,0,0,0,.2.4.85.85,0,0,0,.6.2l1.8.1a3.59,3.59,0,0,1,1.1.2,2,2,0,0,1,.8.4,1.79,1.79,0,0,1,.5.7,2.92,2.92,0,0,1,.2.9,3,3,0,0,1-.2,1,2.7,2.7,0,0,1-.7.8,6.66,6.66,0,0,1-1.2.6,8.81,8.81,0,0,1-1.7.2,7.59,7.59,0,0,1-1.6-.1,3.58,3.58,0,0,1-1.1-.4,1.7,1.7,0,0,1-.6-.6,1.88,1.88,0,0,1-.2-.8.75.75,0,0,1,.1-.5c0-.2.1-.3.2-.5a1.38,1.38,0,0,1,.3-.4,2.18,2.18,0,0,1,.5-.4,2.65,2.65,0,0,1-.6-.5,1.85,1.85,0,0,1-.2-.7,2.92,2.92,0,0,1,.2-.9,1.34,1.34,0,0,1,.6-.7,4.23,4.23,0,0,1-.5-.7,3,3,0,0,1-.2-1,5,5,0,0,1,.2-1.2l.6-.9a3.13,3.13,0,0,1,1-.5,5,5,0,0,1,1.2-.2h.7c.2,0,.4.1.6.1H161a.22.22,0,0,1,.2.2C161.5,98.5,161.5,98.7,161.5,99Zm-2.1,7.6a.86.86,0,0,0-.3-.6,1.08,1.08,0,0,0-.8-.2h-1.5c-.1.1-.3.2-.3.3s-.2.2-.2.3a.37.37,0,0,0-.1.3v.3a.55.55,0,0,0,.4.6,3.73,3.73,0,0,0,1.2.2,2,2,0,0,0,.8-.1c.2-.1.4-.1.5-.3a1.38,1.38,0,0,0,.3-.4C159.3,106.9,159.4,106.8,159.4,106.6Zm-.5-5.9a1.06,1.06,0,0,0-1.2-1.2.75.75,0,0,0-.5.1,1.38,1.38,0,0,0-.4.3.76.76,0,0,0-.2.4,4.33,4.33,0,0,0-.1.5,1.06,1.06,0,0,0,1.2,1.2.75.75,0,0,0,.5-.1,1.38,1.38,0,0,0,.4-.3.76.76,0,0,0,.2-.4C158.8,101,158.9,100.9,158.9,100.7Zm11.1,5.2v.1a.35.35,0,0,1-.2.1.37.37,0,0,0-.3.1h-1a.37.37,0,0,1-.3-.1c-.1,0-.1-.1-.2-.1s0-.1,0-.1v-4.2a1.72,1.72,0,0,0-.1-.8c-.1-.2-.1-.4-.2-.5s-.2-.3-.4-.3a1.08,1.08,0,0,0-.6-.1,1.33,1.33,0,0,0-.8.3,3,3,0,0,0-.8.8v5a.35.35,0,0,1-.2.1.37.37,0,0,0-.3.1h-1a.37.37,0,0,1-.3-.1c-.1,0-.1-.1-.2-.1s0-.1,0-.1V98.4l.1-.1a.37.37,0,0,0,.3-.1h.8a.37.37,0,0,1,.3.1.1.1,0,0,1,.1.1v1a5.3,5.3,0,0,1,1.2-1,3.08,3.08,0,0,1,1.3-.3,5.07,5.07,0,0,1,1.3.2,2.7,2.7,0,0,1,.8.7,3.13,3.13,0,0,1,.5,1,5.72,5.72,0,0,1,.1,1.4v4.5Zm4.3-10a1.22,1.22,0,0,1-.3.9c-.2.2-.5.2-1,.2a2.15,2.15,0,0,1-1-.2c-.2-.2-.2-.4-.2-.8a1.22,1.22,0,0,1,.3-.9c.2-.2.5-.2,1-.2a1.44,1.44,0,0,1,.9.2A1.21,1.21,0,0,1,174.3,95.9Zm-.2,10v.1a.35.35,0,0,1-.2.1.37.37,0,0,0-.3.1h-1a.37.37,0,0,1-.3-.1c-.1,0-.1-.1-.2-.1s0-.1,0-.1V98.4a.35.35,0,0,1,.2-.1c.1,0,.2-.1.3-.1h1a.37.37,0,0,1,.3.1c.1,0,.1.1.2.1s0,.1,0,.1Zm9.5,0v.1a.35.35,0,0,1-.2.1.37.37,0,0,0-.3.1h-1a.37.37,0,0,1-.3-.1c-.1,0-.1-.1-.2-.1s0-.1,0-.1v-6h-2.7V106a.35.35,0,0,1-.2.1.37.37,0,0,0-.3.1h-1a.37.37,0,0,1-.3-.1c-.1,0-.1-.1-.2-.1V99.9H176a.22.22,0,0,1-.2-.2c-.1-.1-.1-.3-.1-.7v-.4a.37.37,0,0,1,.1-.3.1.1,0,0,1,.1-.1h1v-.7a5.07,5.07,0,0,1,.2-1.3,1.93,1.93,0,0,1,.5-.9,2.41,2.41,0,0,1,.8-.6,3.59,3.59,0,0,1,1.1-.2h.8a.37.37,0,0,1,.3.1c.1,0,.1.1.2.1l.1.1v1.3a.22.22,0,0,1-.2.2H180a.6.6,0,0,0-.6.3,2.15,2.15,0,0,0-.2,1v.7h4.2a.75.75,0,0,1,.5.1.52.52,0,0,1,.2.4v7.1Zm.1-9.9a.75.75,0,0,1-.1.5c0,.1-.1.3-.2.3s-.2.1-.4.2-.3.1-.6.1a1.27,1.27,0,0,1-.6-.1.52.52,0,0,1-.4-.2c-.1-.1-.2-.2-.2-.3a4.33,4.33,0,0,1-.1-.5.75.75,0,0,1,.1-.5c0-.1.1-.3.2-.3a.52.52,0,0,1,.4-.2c.2,0,.3-.1.6-.1a1.27,1.27,0,0,1,.6.1.52.52,0,0,1,.4.2c.1.1.2.2.2.3A.75.75,0,0,1,183.7,96Zm7.6,8.7v.8a.35.35,0,0,0-.1.2c-.1.1-.2.1-.3.2s-.3.2-.5.2a6.37,6.37,0,0,1-.7.2c-.2,0-.5.1-.7.1a3.34,3.34,0,0,1-1.5-.3,2.84,2.84,0,0,1-1.1-.8,4,4,0,0,1-.7-1.3,4.68,4.68,0,0,1-.2-1.7,5.41,5.41,0,0,1,.3-1.9,2.87,2.87,0,0,1,.8-1.3,2.55,2.55,0,0,1,1.2-.8,4,4,0,0,1,1.5-.3,2,2,0,0,1,.7.1,1.42,1.42,0,0,1,.6.2c.2.1.4.1.5.2a1.44,1.44,0,0,0,.3.2c.1.1.1.1.1.2s0,.1.1.2v.6a1.48,1.48,0,0,1-.1.7c-.1.1-.1.2-.2.2a.37.37,0,0,1-.3-.1,1.38,1.38,0,0,0-.4-.3,2.19,2.19,0,0,0-.5-.3,1.48,1.48,0,0,0-.7-.1,1.31,1.31,0,0,0-1.2.6,3,3,0,0,0-.4,1.8,4.1,4.1,0,0,0,.1,1.1,6.89,6.89,0,0,0,.3.8,1.21,1.21,0,0,0,.5.5,1.85,1.85,0,0,0,.7.2,1.48,1.48,0,0,0,.7-.1,2.19,2.19,0,0,0,.5-.3,1.38,1.38,0,0,0,.4-.3.37.37,0,0,1,.3-.1h.1a.35.35,0,0,1,.1.2v.3C191.3,104.3,191.3,104.5,191.3,104.7Zm7.7,1.2c0,.1,0,.1-.1.2s-.1.1-.3.1h-1a.35.35,0,0,1-.3-.3v-.6a7,7,0,0,1-1,.8,2.5,2.5,0,0,1-1.3.3,3.59,3.59,0,0,1-1.1-.2,4.05,4.05,0,0,1-.9-.5,5.55,5.55,0,0,1-.6-.8,1.64,1.64,0,0,1-.2-1,2,2,0,0,1,.3-1.1,2,2,0,0,1,.8-.8,4.33,4.33,0,0,1,1.2-.5,8.62,8.62,0,0,1,1.7-.1h.7V101a1.27,1.27,0,0,0-.1-.6.52.52,0,0,0-.2-.4c-.1-.1-.3-.2-.4-.3a1.48,1.48,0,0,0-.7-.1,2.48,2.48,0,0,0-.9.1,4.88,4.88,0,0,0-.7.3,2.19,2.19,0,0,0-.5.3.49.49,0,0,1-.3.1c-.1,0-.1,0-.2-.1a.35.35,0,0,1-.1-.2c0-.1-.1-.2-.1-.3v-.7c0-.1.1-.2.2-.3a1.38,1.38,0,0,1,.4-.3,4.88,4.88,0,0,1,.7-.3,2.39,2.39,0,0,1,.9-.2,3.08,3.08,0,0,1,1-.1,6.05,6.05,0,0,1,1.5.2,2.34,2.34,0,0,1,1,.5,1.46,1.46,0,0,1,.6.9,5.07,5.07,0,0,1,.2,1.3v5.1Zm-2.1-3.2h-.8a2.77,2.77,0,0,0-.9.1,1.42,1.42,0,0,0-.6.2c-.2.1-.3.2-.3.4a.75.75,0,0,0-.1.5.78.78,0,0,0,.3.7,1.14,1.14,0,0,0,.8.3,1.88,1.88,0,0,0,.8-.2,4.37,4.37,0,0,0,.8-.7v-1.3Zm10.3-4.8a3.73,3.73,0,0,1-.2,1.2,1.93,1.93,0,0,1-.5.9,1.56,1.56,0,0,1-.8.6,2,2,0,0,1-1.1.3l-.1,1.6a.22.22,0,0,1-.2.2c-.2,0-.4.1-.7.1h-.8c-.1,0-.1-.1-.2-.1l-.1-.1-.1-2v-.4c0-.1.1-.2.1-.3s.1-.1.2-.1h.4a2.2,2.2,0,0,0,.8-.1,1,1,0,0,0,.5-.4c.1-.2.2-.3.3-.5a2.5,2.5,0,0,0,0-1.4l-.3-.6a1.27,1.27,0,0,0-.6-.4,2,2,0,0,0-.8-.1,1.48,1.48,0,0,0-.7.1c-.2.1-.4.1-.6.2s-.3.1-.4.2a.31.31,0,0,1-.2.1H201l-.1-.1a.37.37,0,0,0-.1-.3v-.9a.35.35,0,0,1,.1-.2c.1-.1.2-.1.3-.2a4.17,4.17,0,0,1,.6-.2c.2-.1.5-.1.7-.2s.5-.1.8-.1a4.31,4.31,0,0,1,1.7.3,3,3,0,0,1,1.1.7,6.07,6.07,0,0,1,.7,1A1.92,1.92,0,0,1,207.2,97.9Zm-2.5,7.2a1.27,1.27,0,0,1-.1.6.71.71,0,0,1-.6.6c-.2,0-.3.1-.6.1a1.27,1.27,0,0,1-.6-.1c-.2-.1-.3-.1-.4-.2a.52.52,0,0,1-.2-.4c0-.2-.1-.3-.1-.6a1.27,1.27,0,0,1,.1-.6.71.71,0,0,1,.6-.6c.2,0,.3-.1.6-.1a1.27,1.27,0,0,1,.6.1.71.71,0,0,1,.6.6C204.7,104.6,204.7,104.8,204.7,105.1Z"/><path class="cls-2" d="M26.9,125.6A25.9,25.9,0,1,0,1,99.7a25.91,25.91,0,0,0,25.9,25.9"/><circle class="cls-3" cx="26.9" cy="99.8" r="25.9"/><path class="cls-4" d="M22.7,102.2a8,8,0,1,1,11.3,0,8,8,0,0,1-11.3,0m13.3,2A10.82,10.82,0,0,0,20.7,88.9a10.5,10.5,0,0,0-1.6,13,.35.35,0,0,1-.1.5l-5.5,5.5c-1.1,1.1-1.4,2.6-.4,3.6l.2.2c1,1,2.5.7,3.6-.4l5.5-5.5a.47.47,0,0,1,.6-.1,10.35,10.35,0,0,0,13-1.5"/><path class="cls-5" d="M23.4,95.9a.6.6,0,0,1-.4-.1,1.14,1.14,0,0,1-.6-1.5,7,7,0,0,1,9.2-3.7,1.14,1.14,0,0,1-.9,2.1,4.85,4.85,0,0,0-6.3,2.5,1,1,0,0,1-1,.7"/><path class="cls-1" d="M33.1,150.6v43.9H286.2V162.6a12,12,0,0,0-12-12Z"/><path class="cls-2" d="M74.7,167.1v.6c0,.1,0,.1-.1.2a.35.35,0,0,0-.1.2c-.1.1-.2.1-.4.2l-.6.3a2.39,2.39,0,0,1-.9.2,3.75,3.75,0,0,1-1.1.1,6.45,6.45,0,0,1-2-.3,4,4,0,0,1-1.5-1,6.93,6.93,0,0,1-1-1.7,8.75,8.75,0,0,1-.3-2.4,6.05,6.05,0,0,1,.4-2.4,5.24,5.24,0,0,1,1-1.8,4.57,4.57,0,0,1,1.6-1.1,6.47,6.47,0,0,1,2-.4,2.77,2.77,0,0,1,.9.1,2.35,2.35,0,0,1,.8.2l.6.3a1.38,1.38,0,0,1,.4.3l.2.2a.31.31,0,0,0,.1.2v1.1a.37.37,0,0,1-.1.3c0,.1-.1.1-.1.2h-.1a.37.37,0,0,1-.3-.1,2.19,2.19,0,0,0-.5-.3,4.88,4.88,0,0,0-.7-.3,3.08,3.08,0,0,0-1-.1,2,2,0,0,0-1.1.3,5.5,5.5,0,0,0-.9.7,3.34,3.34,0,0,0-.5,1.2,7.77,7.77,0,0,0-.2,1.6,7,7,0,0,0,.2,1.6,2,2,0,0,0,.6,1.1,3.11,3.11,0,0,0,.9.7,3.59,3.59,0,0,0,1.1.2,3.08,3.08,0,0,0,1-.1,4.88,4.88,0,0,0,.7-.3,2.19,2.19,0,0,0,.5-.3.37.37,0,0,1,.3-.1h.1l.1.1v.5Zm9-2.4a8.81,8.81,0,0,1-.2,1.7,2.87,2.87,0,0,1-.8,1.3,3,3,0,0,1-1.3.9,4.84,4.84,0,0,1-1.8.3,4.31,4.31,0,0,1-1.7-.3,2.55,2.55,0,0,1-1.2-.8,2.73,2.73,0,0,1-.7-1.3,5.91,5.91,0,0,1,.1-3.4,2.87,2.87,0,0,1,.8-1.3,3,3,0,0,1,1.3-.9,4.84,4.84,0,0,1,1.8-.3,4.31,4.31,0,0,1,1.7.3,2.55,2.55,0,0,1,1.2.8,2.73,2.73,0,0,1,.7,1.3C83.6,163.5,83.7,164,83.7,164.7Zm-2.2.1a3.08,3.08,0,0,0-.1-1,6.89,6.89,0,0,0-.3-.8,1,1,0,0,0-.6-.5,2,2,0,0,0-.9-.2,1.88,1.88,0,0,0-.8.2,2.65,2.65,0,0,0-.6.5,1.91,1.91,0,0,0-.3.8c0,.3-.1.7-.1,1.1a3.08,3.08,0,0,0,.1,1,6.89,6.89,0,0,0,.3.8,1,1,0,0,0,.6.5,2.39,2.39,0,0,0,.9.2,1.88,1.88,0,0,0,.8-.2,2.65,2.65,0,0,0,.6-.5,1.14,1.14,0,0,0,.3-.8A4.1,4.1,0,0,0,81.5,164.8Zm15.6,3.7v.1a.35.35,0,0,1-.2.1.37.37,0,0,0-.3.1h-1a.37.37,0,0,1-.3-.1c-.1,0-.1-.1-.2-.1v-4.5a1.7,1.7,0,0,0-.1-.7.76.76,0,0,0-.2-.5c-.1-.1-.2-.3-.4-.3a.75.75,0,0,0-.5-.1,1.6,1.6,0,0,0-.8.3,6,6,0,0,0-.8.8v5a.35.35,0,0,1-.2.1.37.37,0,0,0-.3.1h-1a.37.37,0,0,1-.3-.1c-.1,0-.1-.1-.2-.1s0-.1,0-.1v-4.4a1.7,1.7,0,0,0-.1-.7.76.76,0,0,0-.2-.5c-.1-.1-.2-.3-.4-.3a.75.75,0,0,0-.5-.1,1.33,1.33,0,0,0-.8.3,6,6,0,0,0-.8.8v5a.35.35,0,0,1-.2.1.37.37,0,0,0-.3.1H86a.37.37,0,0,1-.3-.1c-.1,0-.1-.1-.2-.1s0-.1,0-.1V161l.1-.1a.37.37,0,0,0,.3-.1h.8a.37.37,0,0,1,.3.1.1.1,0,0,1,.1.1v1a5.3,5.3,0,0,1,1.2-1,2.77,2.77,0,0,1,1.3-.3,2,2,0,0,1,.8.1c.2.1.5.2.7.3a2.18,2.18,0,0,1,.5.4c.1.2.3.4.3.6a4.35,4.35,0,0,1,.7-.6,2.09,2.09,0,0,1,.6-.4,1.42,1.42,0,0,1,.6-.2,1.27,1.27,0,0,1,.6-.1,3.73,3.73,0,0,1,1.2.2,2.7,2.7,0,0,1,.8.7,1.78,1.78,0,0,1,.4,1,4.87,4.87,0,0,1,.1,1.2v4.6Zm9.5-3.8a8.81,8.81,0,0,1-.2,1.7,2.87,2.87,0,0,1-.8,1.3,3,3,0,0,1-1.3.9,4.84,4.84,0,0,1-1.8.3,4.31,4.31,0,0,1-1.7-.3,2.55,2.55,0,0,1-1.2-.8,2.73,2.73,0,0,1-.7-1.3,5.91,5.91,0,0,1,.1-3.4,2.87,2.87,0,0,1,.8-1.3,3,3,0,0,1,1.3-.9,4.84,4.84,0,0,1,1.8-.3,4.31,4.31,0,0,1,1.7.3,2.55,2.55,0,0,1,1.2.8,2.73,2.73,0,0,1,.7,1.3A8.62,8.62,0,0,1,106.6,164.7Zm-2.1.1a3.08,3.08,0,0,0-.1-1,6.89,6.89,0,0,0-.3-.8,1,1,0,0,0-.6-.5,2,2,0,0,0-.9-.2,1.88,1.88,0,0,0-.8.2,2.65,2.65,0,0,0-.6.5,1.91,1.91,0,0,0-.3.8c0,.3-.1.7-.1,1.1a3.08,3.08,0,0,0,.1,1,6.89,6.89,0,0,0,.3.8,1,1,0,0,0,.6.5,2,2,0,0,0,.9.2,1.88,1.88,0,0,0,.8-.2,2.65,2.65,0,0,0,.6-.5,1.14,1.14,0,0,0,.3-.8C104.4,165.5,104.5,165.2,104.5,164.8Zm19.4,3.7v.1a.35.35,0,0,1-.2.1.37.37,0,0,0-.3.1h-1a.37.37,0,0,1-.3-.1c-.1,0-.1-.1-.2-.1v-4.5a1.7,1.7,0,0,0-.1-.7.76.76,0,0,0-.2-.5c-.1-.1-.2-.3-.4-.3a.75.75,0,0,0-.5-.1,1.6,1.6,0,0,0-.8.3,6,6,0,0,0-.8.8v5a.35.35,0,0,1-.2.1.37.37,0,0,0-.3.1h-1a.37.37,0,0,1-.3-.1c-.1,0-.1-.1-.2-.1s0-.1,0-.1v-4.4a1.7,1.7,0,0,0-.1-.7.76.76,0,0,0-.2-.5c-.1-.1-.2-.3-.4-.3a.75.75,0,0,0-.5-.1,1.33,1.33,0,0,0-.8.3,6,6,0,0,0-.8.8v5a.35.35,0,0,1-.2.1.37.37,0,0,0-.3.1h-1a.37.37,0,0,1-.3-.1c-.1,0-.1-.1-.2-.1s0-.1,0-.1V161l.1-.1a.37.37,0,0,0,.3-.1h.8a.37.37,0,0,1,.3.1.1.1,0,0,1,.1.1v1a5.3,5.3,0,0,1,1.2-1,2.77,2.77,0,0,1,1.3-.3,2,2,0,0,1,.8.1c.2.1.5.2.7.3a2.18,2.18,0,0,1,.5.4c.1.2.3.4.3.6a4.35,4.35,0,0,1,.7-.6,2.09,2.09,0,0,1,.6-.4,1.42,1.42,0,0,1,.6-.2,1.27,1.27,0,0,1,.6-.1,3.73,3.73,0,0,1,1.2.2,2.7,2.7,0,0,1,.8.7,1.78,1.78,0,0,1,.4,1,4.87,4.87,0,0,1,.1,1.2v4.6Zm4.3-9.9a1.22,1.22,0,0,1-.3.9c-.2.2-.5.2-1,.2a2.15,2.15,0,0,1-1-.2c-.2-.2-.2-.4-.2-.8a1.22,1.22,0,0,1,.3-.9c.2-.2.5-.2,1-.2a1.44,1.44,0,0,1,.9.2A1.21,1.21,0,0,1,128.2,158.6Zm-.2,9.9v.1a.35.35,0,0,1-.2.1.37.37,0,0,0-.3.1h-1a.37.37,0,0,1-.3-.1c-.1,0-.1-.1-.2-.1s0-.1,0-.1V161a.35.35,0,0,1,.2-.1c.1,0,.2-.1.3-.1h1a.37.37,0,0,1,.3.1c.1,0,.1.1.2.1s0,.1,0,.1Zm9.2,0v.1a.35.35,0,0,1-.2.1.37.37,0,0,0-.3.1h-1a.37.37,0,0,1-.3-.1c-.1,0-.1-.1-.2-.1s0-.1,0-.1v-4.2a1.72,1.72,0,0,0-.1-.8c-.1-.2-.1-.4-.2-.5s-.2-.3-.4-.3a1.08,1.08,0,0,0-.6-.1,1.33,1.33,0,0,0-.8.3,3,3,0,0,0-.8.8v5a.35.35,0,0,1-.2.1.37.37,0,0,0-.3.1h-1a.37.37,0,0,1-.3-.1c-.1,0-.1-.1-.2-.1s0-.1,0-.1v-7.5l.1-.1a.37.37,0,0,0,.3-.1h.8a.37.37,0,0,1,.3.1.1.1,0,0,1,.1.1v1a5.3,5.3,0,0,1,1.2-1,3.08,3.08,0,0,1,1.3-.3,5.07,5.07,0,0,1,1.3.2,2.7,2.7,0,0,1,.8.7,3.13,3.13,0,0,1,.5,1,5.72,5.72,0,0,1,.1,1.4v4.4Zm9.1,0v.1a.35.35,0,0,1-.2.1.37.37,0,0,0-.3.1h-1a.37.37,0,0,1-.3-.1c-.1,0-.1-.1-.2-.1s0-.1,0-.1v-4.2a1.72,1.72,0,0,0-.1-.8c-.1-.2-.1-.4-.2-.5s-.2-.3-.4-.3a1.08,1.08,0,0,0-.6-.1,1.33,1.33,0,0,0-.8.3,3,3,0,0,0-.8.8v5a.35.35,0,0,1-.2.1.37.37,0,0,0-.3.1h-1a.37.37,0,0,1-.3-.1c-.1,0-.1-.1-.2-.1s0-.1,0-.1v-11a.35.35,0,0,1,.2-.1c.1,0,.2-.1.3-.1h1a.37.37,0,0,1,.3.1c.1,0,.1.1.2.1v4.2a3.83,3.83,0,0,1,1.1-.8,2.66,2.66,0,0,1,1.2-.3,5.07,5.07,0,0,1,1.3.2,2.7,2.7,0,0,1,.8.7,3.13,3.13,0,0,1,.5,1,6.15,6.15,0,0,1,.1,1.4v4.5Zm8.4,0c0,.1,0,.1-.1.2s-.1.1-.3.1h-1a.35.35,0,0,1-.3-.3v-.6a7,7,0,0,1-1,.8,2.5,2.5,0,0,1-1.3.3,3.59,3.59,0,0,1-1.1-.2,4.05,4.05,0,0,1-.9-.5,5.55,5.55,0,0,1-.6-.8,1.64,1.64,0,0,1-.2-1,2,2,0,0,1,.3-1.1,2,2,0,0,1,.8-.8,4.33,4.33,0,0,1,1.2-.5,8.62,8.62,0,0,1,1.7-.1h.7v-.4a1.27,1.27,0,0,0-.1-.6.52.52,0,0,0-.2-.4c-.1-.1-.3-.2-.4-.3a1.48,1.48,0,0,0-.7-.1,2.48,2.48,0,0,0-.9.1,4.88,4.88,0,0,0-.7.3,2.19,2.19,0,0,0-.5.3.49.49,0,0,1-.3.1c-.1,0-.1,0-.2-.1a.35.35,0,0,1-.1-.2c0-.1-.1-.2-.1-.3v-.7c0-.1.1-.2.2-.3a1.38,1.38,0,0,1,.4-.3,4.88,4.88,0,0,1,.7-.3,2.39,2.39,0,0,1,.9-.2,3.08,3.08,0,0,1,1-.1,6.05,6.05,0,0,1,1.5.2,2.34,2.34,0,0,1,1,.5,1.46,1.46,0,0,1,.6.9,5.07,5.07,0,0,1,.2,1.3v5.1Zm-2-3.2h-.8a2.77,2.77,0,0,0-.9.1,1.42,1.42,0,0,0-.6.2c-.2.1-.3.2-.3.4a.75.75,0,0,0-.1.5.78.78,0,0,0,.3.7,1.14,1.14,0,0,0,.8.3,1.88,1.88,0,0,0,.8-.2,4.37,4.37,0,0,0,.8-.7v-1.3Zm14.8-.7a1.07,1.07,0,0,1-.2.6.76.76,0,0,1-.5.2h-4.5a2.77,2.77,0,0,0,.1.9,1.61,1.61,0,0,0,.4.7,2.09,2.09,0,0,0,.6.4,2.77,2.77,0,0,0,.9.1,3.08,3.08,0,0,0,1-.1,6.37,6.37,0,0,0,.7-.2c.2-.1.4-.1.5-.2a.37.37,0,0,1,.3-.1h.1l.1.1v1.2l-.1.1a1.24,1.24,0,0,1-.3.2c-.2.1-.4.1-.6.2a6.37,6.37,0,0,1-.9.2c-.3,0-.7.1-1,.1a7.93,7.93,0,0,1-1.7-.2,2.55,2.55,0,0,1-1.2-.8,2.73,2.73,0,0,1-.7-1.3,5,5,0,0,1-.2-1.8,4.84,4.84,0,0,1,.3-1.8,4,4,0,0,1,.7-1.3,2.55,2.55,0,0,1,1.2-.8,4.42,4.42,0,0,1,3.2,0,2.26,2.26,0,0,1,1.1.8,3,3,0,0,1,.6,1.1,5.9,5.9,0,0,1,.2,1.4v.3Zm-2.1-.6a2.12,2.12,0,0,0-.4-1.4,1.5,1.5,0,0,0-1.2-.5,1.48,1.48,0,0,0-.7.1,1,1,0,0,0-.5.4l-.3.6a1.7,1.7,0,0,0-.1.7h3.2Zm9,2.4a3.59,3.59,0,0,1-.2,1.1,2.7,2.7,0,0,1-.7.8,3.13,3.13,0,0,1-1,.5,5.07,5.07,0,0,1-1.3.2,2.2,2.2,0,0,1-.8-.1,1.45,1.45,0,0,1-.7-.2c-.2-.1-.4-.1-.5-.2s-.2-.1-.3-.2-.1-.1-.1-.3v-1.2c0-.1,0-.1.1-.1h.1a.37.37,0,0,1,.3.1c.1.1.3.1.4.2a1.42,1.42,0,0,0,.6.2,2,2,0,0,0,.8.1.75.75,0,0,0,.5-.1.76.76,0,0,0,.4-.2c.1-.1.2-.2.2-.3s.1-.2.1-.4a.52.52,0,0,0-.2-.4,1.38,1.38,0,0,0-.4-.3,1.42,1.42,0,0,0-.6-.2,21585360128511.11,21585360128511.11,0,0,0-1.4-.6c-.2-.1-.4-.3-.6-.4a2.09,2.09,0,0,1-.4-.6,2,2,0,0,1-.2-.9,3,3,0,0,1,.2-1,2.1,2.1,0,0,1,.6-.8,3.13,3.13,0,0,1,1-.5,5.07,5.07,0,0,1,1.3-.2h.7c.2,0,.4.1.6.1a.52.52,0,0,1,.4.2.37.37,0,0,0,.3.1.1.1,0,0,1,.1.1v1.2c0,.1,0,.1-.1.1h-.1a.31.31,0,0,1-.2-.1c-.1-.1-.2-.1-.4-.2s-.3-.1-.5-.2a1.48,1.48,0,0,0-.7-.1.75.75,0,0,0-.5.1c-.1,0-.3.1-.3.2s-.2.2-.2.3-.1.2-.1.3a.52.52,0,0,0,.2.4,1.38,1.38,0,0,0,.4.3,1.42,1.42,0,0,0,.6.2,4.88,4.88,0,0,0,.7.3c.3.1.4.2.7.3s.4.3.6.4a2.09,2.09,0,0,1,.4.6C174.3,165.8,174.4,166,174.4,166.4Zm7.2.9v.8a.35.35,0,0,0-.1.2c-.1.1-.2.1-.3.2s-.3.2-.5.2a6.37,6.37,0,0,1-.7.2c-.2,0-.5.1-.7.1a3.34,3.34,0,0,1-1.5-.3,2.84,2.84,0,0,1-1.1-.8,4,4,0,0,1-.7-1.3,4.68,4.68,0,0,1-.2-1.7,5.41,5.41,0,0,1,.3-1.9,2.87,2.87,0,0,1,.8-1.3,2.55,2.55,0,0,1,1.2-.8,4,4,0,0,1,1.5-.3,2,2,0,0,1,.7.1,1.42,1.42,0,0,1,.6.2c.2.1.4.1.5.2a1.44,1.44,0,0,0,.3.2c.1.1.1.1.1.2s0,.1.1.2v.6a1.48,1.48,0,0,1-.1.7c-.1.1-.1.2-.2.2a.37.37,0,0,1-.3-.1,1.38,1.38,0,0,0-.4-.3,2.19,2.19,0,0,0-.5-.3,1.48,1.48,0,0,0-.7-.1,1.31,1.31,0,0,0-1.2.6,3,3,0,0,0-.4,1.8,4.1,4.1,0,0,0,.1,1.1,6.89,6.89,0,0,0,.3.8,1.21,1.21,0,0,0,.5.5,1.85,1.85,0,0,0,.7.2,1.48,1.48,0,0,0,.7-.1,2.19,2.19,0,0,0,.5-.3,1.38,1.38,0,0,0,.4-.3.37.37,0,0,1,.3-.1h.1a.35.35,0,0,1,.1.2v.3C181.6,167,181.6,167.1,181.6,167.3Zm8.9-2.6a8.81,8.81,0,0,1-.2,1.7,2.87,2.87,0,0,1-.8,1.3,3,3,0,0,1-1.3.9,4.84,4.84,0,0,1-1.8.3,4.31,4.31,0,0,1-1.7-.3,2.55,2.55,0,0,1-1.2-.8,2.73,2.73,0,0,1-.7-1.3,5.91,5.91,0,0,1,.1-3.4,2.87,2.87,0,0,1,.8-1.3,3,3,0,0,1,1.3-.9,4.84,4.84,0,0,1,1.8-.3,4.31,4.31,0,0,1,1.7.3,2.55,2.55,0,0,1,1.2.8,2.73,2.73,0,0,1,.7,1.3C190.4,163.5,190.5,164,190.5,164.7Zm-2.2.1a3.08,3.08,0,0,0-.1-1,6.89,6.89,0,0,0-.3-.8,1,1,0,0,0-.6-.5,2,2,0,0,0-.9-.2,1.88,1.88,0,0,0-.8.2,2.65,2.65,0,0,0-.6.5,1.91,1.91,0,0,0-.3.8c0,.3-.1.7-.1,1.1a3.08,3.08,0,0,0,.1,1,6.89,6.89,0,0,0,.3.8,1,1,0,0,0,.6.5,2.39,2.39,0,0,0,.9.2,1.88,1.88,0,0,0,.8-.2,2.65,2.65,0,0,0,.6-.5,1.14,1.14,0,0,0,.3-.8A4.1,4.1,0,0,0,188.3,164.8Zm5.9,3.7v.1a.35.35,0,0,1-.2.1.37.37,0,0,0-.3.1h-1a.37.37,0,0,1-.3-.1c-.1,0-.1-.1-.2-.1s0-.1,0-.1v-11a.35.35,0,0,1,.2-.1c.1,0,.2-.1.3-.1h1a.37.37,0,0,1,.3.1c.1,0,.1.1.2.1v11Zm8.4,0c0,.1,0,.1-.1.2s-.1.1-.3.1h-1a.35.35,0,0,1-.3-.3v-.6a7,7,0,0,1-1,.8,2.5,2.5,0,0,1-1.3.3,3.59,3.59,0,0,1-1.1-.2,4.05,4.05,0,0,1-.9-.5,5.55,5.55,0,0,1-.6-.8,1.64,1.64,0,0,1-.2-1,2,2,0,0,1,.3-1.1,2,2,0,0,1,.8-.8,4.33,4.33,0,0,1,1.2-.5,8.62,8.62,0,0,1,1.7-.1h.7v-.4a1.27,1.27,0,0,0-.1-.6.52.52,0,0,0-.2-.4c-.1-.1-.3-.2-.4-.3a1.48,1.48,0,0,0-.7-.1,2.48,2.48,0,0,0-.9.1,4.88,4.88,0,0,0-.7.3,2.19,2.19,0,0,0-.5.3.49.49,0,0,1-.3.1c-.1,0-.1,0-.2-.1a.35.35,0,0,1-.1-.2c0-.1-.1-.2-.1-.3v-.7c0-.1.1-.2.2-.3a1.38,1.38,0,0,1,.4-.3,4.88,4.88,0,0,1,.7-.3,2.39,2.39,0,0,1,.9-.2,3.08,3.08,0,0,1,1-.1,6.05,6.05,0,0,1,1.5.2,2.34,2.34,0,0,1,1,.5,1.46,1.46,0,0,1,.6.9,5.07,5.07,0,0,1,.2,1.3v5.1Zm-2-3.2h-.8a2.77,2.77,0,0,0-.9.1,1.42,1.42,0,0,0-.6.2c-.2.1-.3.2-.3.4a.75.75,0,0,0-.1.5.78.78,0,0,0,.3.7,1.14,1.14,0,0,0,.8.3,1.88,1.88,0,0,0,.8-.2,4.37,4.37,0,0,0,.8-.7v-1.3Z"/><text class="cls-6" transform="translate(207.38 168.76)"> </text><path class="cls-2" d="M74.6,181.7a9,9,0,0,1-.2,1.8,2.62,2.62,0,0,1-.6,1.3,2.84,2.84,0,0,1-1,.9,3.19,3.19,0,0,1-1.4.3,1.27,1.27,0,0,1-.6-.1.76.76,0,0,1-.5-.2c-.2-.1-.3-.2-.5-.3s-.3-.3-.5-.4v3.6a.35.35,0,0,1-.2.1c-.1,0-.2.1-.3.1h-1a.37.37,0,0,1-.3-.1c-.1,0-.1-.1-.2-.1V178.1l.1-.1a.37.37,0,0,0,.3-.1h.8a.37.37,0,0,1,.3.1.1.1,0,0,1,.1.1v1l.6-.6a2.09,2.09,0,0,1,.6-.4,4.88,4.88,0,0,1,.7-.3,1.7,1.7,0,0,1,.7-.1,3.19,3.19,0,0,1,1.4.3,2,2,0,0,1,.9.9,5,5,0,0,1,.5,1.3A2.39,2.39,0,0,1,74.6,181.7Zm-2.1.1a2.77,2.77,0,0,0-.1-.9,2.35,2.35,0,0,0-.2-.8,2.18,2.18,0,0,0-.4-.5,1.45,1.45,0,0,0-.7-.2.6.6,0,0,0-.4.1.76.76,0,0,0-.4.2c-.1.1-.3.2-.4.4s-.3.3-.5.6v2.4a8.18,8.18,0,0,0,.8.9,1.33,1.33,0,0,0,.8.3,1.45,1.45,0,0,0,.7-.2c.2-.1.3-.3.5-.5a6.89,6.89,0,0,0,.3-.8A3.35,3.35,0,0,0,72.5,181.8Zm11.3-.1a8.81,8.81,0,0,1-.2,1.7,2.87,2.87,0,0,1-.8,1.3,3,3,0,0,1-1.3.9,4.84,4.84,0,0,1-1.8.3,4.31,4.31,0,0,1-1.7-.3,2.55,2.55,0,0,1-1.2-.8,2.73,2.73,0,0,1-.7-1.3,5.91,5.91,0,0,1,.1-3.4,2.87,2.87,0,0,1,.8-1.3,3,3,0,0,1,1.3-.9,4.84,4.84,0,0,1,1.8-.3,4.31,4.31,0,0,1,1.7.3,2.55,2.55,0,0,1,1.2.8,2.73,2.73,0,0,1,.7,1.3C83.7,180.5,83.8,181,83.8,181.7Zm-2.2.1a3.08,3.08,0,0,0-.1-1,6.89,6.89,0,0,0-.3-.8,1,1,0,0,0-.6-.5,2,2,0,0,0-.9-.2,1.88,1.88,0,0,0-.8.2,2.65,2.65,0,0,0-.6.5,1.91,1.91,0,0,0-.3.8c0,.3-.1.7-.1,1.1a3.08,3.08,0,0,0,.1,1,6.89,6.89,0,0,0,.3.8,1,1,0,0,0,.6.5,2.39,2.39,0,0,0,.9.2,1.88,1.88,0,0,0,.8-.2,2.65,2.65,0,0,0,.6-.5,1.14,1.14,0,0,0,.3-.8A4.1,4.1,0,0,0,81.6,181.8Zm10.9,3.7v.2l-.1.1a.49.49,0,0,0-.3.1h-.8a.37.37,0,0,1-.3-.1.1.1,0,0,1-.1-.1v-1a10.59,10.59,0,0,1-1.2,1,3.19,3.19,0,0,1-1.4.3,2.9,2.9,0,0,1-1.4-.3,2.84,2.84,0,0,1-1-.9,5,5,0,0,1-.5-1.3,7.77,7.77,0,0,1-.2-1.6,9,9,0,0,1,.2-1.8,2.62,2.62,0,0,1,.6-1.3,2.84,2.84,0,0,1,1-.9,3.19,3.19,0,0,1,1.4-.3,2,2,0,0,1,1.1.3,6.07,6.07,0,0,1,1,.7v-4.1a.35.35,0,0,1,.2-.1c.1,0,.2-.1.3-.1h1a.37.37,0,0,1,.3.1c.1,0,.1.1.2.1v11Zm-2.1-5a3.82,3.82,0,0,0-.9-.9,1.61,1.61,0,0,0-.9-.3,1.45,1.45,0,0,0-.7.2,1.21,1.21,0,0,0-.5.5,6.89,6.89,0,0,0-.3.8,4.1,4.1,0,0,0,0,1.8,1.88,1.88,0,0,0,.2.8,2.65,2.65,0,0,0,.5.6,1.45,1.45,0,0,0,.7.2.6.6,0,0,0,.4-.1.76.76,0,0,0,.4-.2c.1-.1.3-.2.4-.4s.3-.3.5-.6v-2.4Zm11,1.1a1.07,1.07,0,0,1-.2.6.76.76,0,0,1-.5.2H96.2a2.77,2.77,0,0,0,.1.9,1.61,1.61,0,0,0,.4.7,2.09,2.09,0,0,0,.6.4,2.77,2.77,0,0,0,.9.1,3.08,3.08,0,0,0,1-.1,6.37,6.37,0,0,0,.7-.2c.2-.1.4-.1.5-.2a.37.37,0,0,1,.3-.1h.1l.1.1v1.2l-.1.1a1.24,1.24,0,0,1-.3.2c-.2.1-.4.1-.6.2a6.37,6.37,0,0,1-.9.2c-.3,0-.7.1-1,.1a7.93,7.93,0,0,1-1.7-.2,2.55,2.55,0,0,1-1.2-.8,2.73,2.73,0,0,1-.7-1.3,5,5,0,0,1-.2-1.8,4.84,4.84,0,0,1,.3-1.8,4,4,0,0,1,.7-1.3,2.55,2.55,0,0,1,1.2-.8,4.42,4.42,0,0,1,3.2,0,2.26,2.26,0,0,1,1.1.8,3,3,0,0,1,.6,1.1,5.9,5.9,0,0,1,.2,1.4v.3Zm-2-.6a2.12,2.12,0,0,0-.4-1.4,1.5,1.5,0,0,0-1.2-.5,1.48,1.48,0,0,0-.7.1,1,1,0,0,0-.5.4l-.3.6a1.7,1.7,0,0,0-.1.7h3.2Zm14.4.6a1.07,1.07,0,0,1-.2.6.76.76,0,0,1-.5.2h-4.5a2.77,2.77,0,0,0,.1.9,1.61,1.61,0,0,0,.4.7,2.09,2.09,0,0,0,.6.4,2.77,2.77,0,0,0,.9.1,3.08,3.08,0,0,0,1-.1,6.37,6.37,0,0,0,.7-.2c.2-.1.4-.1.5-.2a.37.37,0,0,1,.3-.1h.1l.1.1v1.2l-.1.1a1.24,1.24,0,0,1-.3.2c-.2.1-.4.1-.6.2a6.37,6.37,0,0,1-.9.2c-.3,0-.7.1-1,.1a7.93,7.93,0,0,1-1.7-.2,2.55,2.55,0,0,1-1.2-.8,2.73,2.73,0,0,1-.7-1.3,5,5,0,0,1-.2-1.8,4.84,4.84,0,0,1,.3-1.8,4,4,0,0,1,.7-1.3,2.55,2.55,0,0,1,1.2-.8,4.42,4.42,0,0,1,3.2,0,2.26,2.26,0,0,1,1.1.8,3,3,0,0,1,.6,1.1,5.9,5.9,0,0,1,.2,1.4v.3Zm-2-.6a2.12,2.12,0,0,0-.4-1.4,1.5,1.5,0,0,0-1.2-.5,1.48,1.48,0,0,0-.7.1,1,1,0,0,0-.5.4l-.3.6a1.7,1.7,0,0,0-.1.7h3.2Zm10.5-2.9h0v.4c0,.1,0,.1-.1.2l-2.2,6.7a.35.35,0,0,1-.1.2c0,.1-.1.1-.2.1s-.3.1-.4.1h-1.4c-.2,0-.3,0-.4-.1a.35.35,0,0,1-.2-.1c0-.1-.1-.1-.1-.2l-2.2-6.7c0-.1-.1-.2-.1-.3V178a.35.35,0,0,1,.2-.1.37.37,0,0,0,.3-.1h1a.37.37,0,0,1,.3.1c.1,0,.1.1.2.1a.35.35,0,0,1,.1.2l1.7,5.4v0l1.7-5.4c0-.1,0-.1.1-.2a.35.35,0,0,1,.2-.1.37.37,0,0,0,.3-.1h1a.37.37,0,0,1,.3.1.1.1,0,0,1,.1.1C122.2,178,122.3,178,122.3,178.1Zm8.5,3.6a8.81,8.81,0,0,1-.2,1.7,2.87,2.87,0,0,1-.8,1.3,3,3,0,0,1-1.3.9,4.84,4.84,0,0,1-1.8.3,4.31,4.31,0,0,1-1.7-.3,2.55,2.55,0,0,1-1.2-.8,2.73,2.73,0,0,1-.7-1.3,5.91,5.91,0,0,1,.1-3.4,2.87,2.87,0,0,1,.8-1.3,3,3,0,0,1,1.3-.9,4.84,4.84,0,0,1,1.8-.3,4.31,4.31,0,0,1,1.7.3,2.55,2.55,0,0,1,1.2.8,2.73,2.73,0,0,1,.7,1.3C130.7,180.5,130.8,181,130.8,181.7Zm-2.1.1a3.08,3.08,0,0,0-.1-1,6.89,6.89,0,0,0-.3-.8,1,1,0,0,0-.6-.5,2,2,0,0,0-.9-.2,1.88,1.88,0,0,0-.8.2,2.65,2.65,0,0,0-.6.5,1.91,1.91,0,0,0-.3.8c0,.3-.1.7-.1,1.1a3.08,3.08,0,0,0,.1,1,6.89,6.89,0,0,0,.3.8,1,1,0,0,0,.6.5,2.39,2.39,0,0,0,.9.2,1.88,1.88,0,0,0,.8-.2,2.65,2.65,0,0,0,.6-.5,1.14,1.14,0,0,0,.3-.8C128.6,182.5,128.7,182.2,128.7,181.8Zm5.9,3.7v.1a.35.35,0,0,1-.2.1.37.37,0,0,0-.3.1h-1a.37.37,0,0,1-.3-.1c-.1,0-.1-.1-.2-.1s0-.1,0-.1v-11a.35.35,0,0,1,.2-.1c.1,0,.2-.1.3-.1h1a.37.37,0,0,1,.3.1c.1,0,.1.1.2.1v11Zm9.1,0v.1l-.1.1a.37.37,0,0,0-.3.1h-.8a.37.37,0,0,1-.3-.1.1.1,0,0,1-.1-.1v-1a5.3,5.3,0,0,1-1.2,1,3.08,3.08,0,0,1-1.3.3,5.07,5.07,0,0,1-1.3-.2,2.7,2.7,0,0,1-.8-.7,3.13,3.13,0,0,1-.5-1,6.15,6.15,0,0,1-.1-1.4V178a.35.35,0,0,1,.2-.1.37.37,0,0,0,.3-.1h1a.37.37,0,0,1,.3.1c.1,0,.1.1.2.1s0,.1,0,.1v4.2a2.22,2.22,0,0,0,.1.9.76.76,0,0,0,.2.5c.1.1.2.3.4.3a1.08,1.08,0,0,0,.6.1,1.33,1.33,0,0,0,.8-.3,6.47,6.47,0,0,0,.9-.8v-5a.35.35,0,0,1,.2-.1.37.37,0,0,0,.3-.1h1a.37.37,0,0,1,.3.1c.1,0,.1.1.2.1s0,.1,0,.1v7.4Zm4.3-9.9a1.22,1.22,0,0,1-.3.9c-.2.2-.5.2-1,.2a2.15,2.15,0,0,1-1-.2c-.2-.2-.2-.4-.2-.8a1.22,1.22,0,0,1,.3-.9c.2-.2.5-.2,1-.2a1.44,1.44,0,0,1,.9.2A1.21,1.21,0,0,1,148,175.6Zm-.1,9.9v.1a.35.35,0,0,1-.2.1.37.37,0,0,0-.3.1h-1a.37.37,0,0,1-.3-.1c-.1,0-.1-.1-.2-.1s0-.1,0-.1V178a.35.35,0,0,1,.2-.1c.1,0,.2-.1.3-.1h1a.37.37,0,0,1,.3.1c.1,0,.1.1.2.1s0,.1,0,.1Zm6.8-6.7v.8a.1.1,0,0,1-.1.1h-.2c-.1,0-.1,0-.2-.1s-.1,0-.2-.1h-.3a.37.37,0,0,0-.3.1c-.1,0-.2.1-.4.2a.78.78,0,0,0-.4.4c-.1.2-.3.4-.4.6v4.7a.35.35,0,0,1-.2.1.37.37,0,0,0-.3.1h-1a.37.37,0,0,1-.3-.1c-.1,0-.1-.1-.2-.1s0-.1,0-.1v-7.5l.1-.1a.37.37,0,0,0,.3-.1h.8a.37.37,0,0,1,.3.1.1.1,0,0,1,.1.1v1c.2-.3.4-.5.5-.7a1.76,1.76,0,0,1,.5-.4c.2-.1.3-.2.5-.2s.3-.1.5-.1h.5c.1,0,.2,0,.2.1a.1.1,0,0,0,.1.1l.1.1v1Zm7.4-1.2a3.73,3.73,0,0,1-.2,1.2,1.93,1.93,0,0,1-.5.9,1.56,1.56,0,0,1-.8.6,2,2,0,0,1-1.1.3l-.1,1.6a.22.22,0,0,1-.2.2c-.2,0-.4.1-.7.1h-.8c-.1,0-.1-.1-.2-.1l-.1-.1-.1-2v-.4c0-.1.1-.2.1-.3s.1-.1.2-.1h.4a2.2,2.2,0,0,0,.8-.1,1,1,0,0,0,.5-.4c.1-.2.2-.3.3-.5a2.5,2.5,0,0,0,0-1.4l-.3-.6a1.27,1.27,0,0,0-.6-.4,2,2,0,0,0-.8-.1,1.48,1.48,0,0,0-.7.1c-.2.1-.4.1-.6.2s-.3.1-.4.2a.31.31,0,0,1-.2.1h-.1l-.1-.1a.37.37,0,0,0-.1-.3v-.9a.35.35,0,0,1,.1-.2c.1-.1.2-.1.3-.2a4.17,4.17,0,0,1,.6-.2c.2-.1.5-.1.7-.2s.5-.1.8-.1a4.31,4.31,0,0,1,1.7.3,3,3,0,0,1,1.1.7,6.07,6.07,0,0,1,.7,1C162.1,176.7,162.1,177.1,162.1,177.6Zm-2.4,7.1a1.27,1.27,0,0,1-.1.6.71.71,0,0,1-.6.6c-.2,0-.3.1-.6.1a1.27,1.27,0,0,1-.6-.1c-.2-.1-.3-.1-.4-.2a.52.52,0,0,1-.2-.4c0-.2-.1-.3-.1-.6a1.27,1.27,0,0,1,.1-.6.71.71,0,0,1,.6-.6c.2,0,.3-.1.6-.1a1.27,1.27,0,0,1,.6.1.71.71,0,0,1,.6.6C159.7,184.2,159.7,184.4,159.7,184.7Z"/><path class="cls-2" d="M26.9,198.5A25.9,25.9,0,1,0,1,172.6a25.91,25.91,0,0,0,25.9,25.9"/><circle class="cls-3" cx="26.9" cy="172.6" r="25.9"/><path class="cls-4" d="M39.1,185.2h-.8V169.7a.79.79,0,0,0-.8-.8H34.4a.86.86,0,0,0-.8.8v15.5H32V174.9a.79.79,0,0,0-.8-.8H28.1a.86.86,0,0,0-.8.8v10.3H25.7v-7.4a.79.79,0,0,0-.8-.8H21.8a.86.86,0,0,0-.8.8v7.4H19.4v-5.5a.79.79,0,0,0-.8-.8H15.5a.86.86,0,0,0-.8.8v5.5H14a.8.8,0,1,0,0,1.6H39.1a.8.8,0,1,0,0-1.6"/><path class="cls-5" d="M14,176.8a27.12,27.12,0,0,0,14.9-5,28.53,28.53,0,0,0,8.7-9l.8,2.9a.82.82,0,0,0,1.6-.4l-1.3-4.8a.83.83,0,0,0-1-.6l-4.8,1.3a.82.82,0,0,0,.4,1.6l3.1-.8a27,27,0,0,1-8.3,8.6,25.77,25.77,0,0,1-14,4.7.86.86,0,0,0-.8.8c-.1.3.3.7.7.7"/><path class="cls-1" d="M33.1,223.4v43.9H286.2V235.4a12,12,0,0,0-12-12Z"/><path class="cls-2" d="M73.2,250.9v.4a.37.37,0,0,1-.1.3c0,.1-.1.1-.1.2s-.1,0-.1,0H68c-.2,0-.3-.1-.5-.2s-.2-.3-.2-.5v-9.8c0-.1,0-.1.1-.1a.35.35,0,0,1,.2-.1.37.37,0,0,0,.3-.1c.1-.1.3,0,.5,0h.5a.37.37,0,0,1,.3.1c.1,0,.1.1.2.1l.1.1v8.6H73l.1.1a.37.37,0,0,0,.1.3Zm3.4-9.3a1.22,1.22,0,0,1-.3.9c-.2.2-.5.2-1,.2a2.15,2.15,0,0,1-1-.2c-.2-.2-.2-.4-.2-.8a1.22,1.22,0,0,1,.3-.9c.2-.2.5-.2,1-.2a1.44,1.44,0,0,1,.9.2A1.21,1.21,0,0,1,76.6,241.6Zm-.1,9.9v.1a.35.35,0,0,1-.2.1.37.37,0,0,0-.3.1H75a.37.37,0,0,1-.3-.1c-.1,0-.1-.1-.2-.1s0-.1,0-.1V244a.35.35,0,0,1,.2-.1c.1,0,.2-.1.3-.1h1a.37.37,0,0,1,.3.1c.1,0,.1.1.2.1s0,.1,0,.1Zm9.1,0v.1a.35.35,0,0,1-.2.1.37.37,0,0,0-.3.1h-1a.37.37,0,0,1-.3-.1c-.1,0-.1-.1-.2-.1s0-.1,0-.1v-4.2a1.72,1.72,0,0,0-.1-.8c-.1-.2-.1-.4-.2-.5s-.2-.3-.4-.3a1.08,1.08,0,0,0-.6-.1,1.33,1.33,0,0,0-.8.3,3,3,0,0,0-.8.8v5a.35.35,0,0,1-.2.1.37.37,0,0,0-.3.1h-1a.37.37,0,0,1-.3-.1c-.1,0-.1-.1-.2-.1s0-.1,0-.1v-7.5l.1-.1a.37.37,0,0,0,.3-.1h.8a.37.37,0,0,1,.3.1.1.1,0,0,1,.1.1v1a5.3,5.3,0,0,1,1.2-1,3.08,3.08,0,0,1,1.3-.3,5.07,5.07,0,0,1,1.3.2,2.7,2.7,0,0,1,.8.7,3.13,3.13,0,0,1,.5,1,5.72,5.72,0,0,1,.1,1.4v4.4Zm9,0v.1a.35.35,0,0,1-.2.1.37.37,0,0,0-.3.1H93c-.1,0-.3,0-.3-.1s-.2-.1-.2-.1a.35.35,0,0,1-.1-.2l-2.5-3.9v4a.35.35,0,0,1-.2.1.37.37,0,0,0-.3.1h-1a.37.37,0,0,1-.3-.1c-.1,0-.1-.1-.2-.1s0-.1,0-.1v-11a.35.35,0,0,1,.2-.1c.1,0,.2-.1.3-.1h1a.37.37,0,0,1,.3.1c.1,0,.1.1.2.1V247l2.2-2.9c0-.1.1-.1.1-.2s.1-.1.2-.1a.37.37,0,0,0,.3-.1h1c.1,0,.3,0,.3.1s.1.1.2.1,0,.1,0,.2a.37.37,0,0,1-.1.3c0,.1-.1.2-.2.3l-2.2,2.5,2.5,3.9a.37.37,0,0,1,.1.3C94.6,251.4,94.6,251.4,94.6,251.5Zm6.3-2.1a3.59,3.59,0,0,1-.2,1.1,2.7,2.7,0,0,1-.7.8,3.13,3.13,0,0,1-1,.5,5.07,5.07,0,0,1-1.3.2,2.2,2.2,0,0,1-.8-.1,1.45,1.45,0,0,1-.7-.2c-.2-.1-.4-.1-.5-.2s-.2-.1-.3-.2-.1-.1-.1-.3v-1.2c0-.1,0-.1.1-.1h.1a.37.37,0,0,1,.3.1c.1.1.3.1.4.2a1.42,1.42,0,0,0,.6.2,2,2,0,0,0,.8.1.75.75,0,0,0,.5-.1.76.76,0,0,0,.4-.2c.1-.1.2-.2.2-.3s.1-.2.1-.4a.52.52,0,0,0-.2-.4,1.38,1.38,0,0,0-.4-.3,1.42,1.42,0,0,0-.6-.2,17268288102955.9,17268288102955.9,0,0,0-1.4-.6c-.2-.1-.4-.3-.6-.4a2.09,2.09,0,0,1-.4-.6,2,2,0,0,1-.2-.9,3,3,0,0,1,.2-1,2.1,2.1,0,0,1,.6-.8,3.13,3.13,0,0,1,1-.5,5.07,5.07,0,0,1,1.3-.2h.7c.2,0,.4.1.6.1a.52.52,0,0,1,.4.2.37.37,0,0,0,.3.1.1.1,0,0,1,.1.1v1.2c0,.1,0,.1-.1.1H100a.31.31,0,0,1-.2-.1c-.1-.1-.2-.1-.4-.2s-.3-.1-.5-.2a1.48,1.48,0,0,0-.7-.1.75.75,0,0,0-.5.1c-.1,0-.3.1-.3.2s-.2.2-.2.3-.1.2-.1.3a.52.52,0,0,0,.2.4,1.38,1.38,0,0,0,.4.3,1.42,1.42,0,0,0,.6.2,4.88,4.88,0,0,0,.7.3c.3.1.4.2.7.3s.4.3.6.4a2.09,2.09,0,0,1,.4.6C100.8,248.8,100.9,249.1,100.9,249.4Zm12.3-1.8a1.07,1.07,0,0,1-.2.6.76.76,0,0,1-.5.2H108a2.77,2.77,0,0,0,.1.9,1.61,1.61,0,0,0,.4.7,2.09,2.09,0,0,0,.6.4,2.77,2.77,0,0,0,.9.1,3.08,3.08,0,0,0,1-.1,6.37,6.37,0,0,0,.7-.2c.2-.1.4-.1.5-.2a.37.37,0,0,1,.3-.1h.1l.1.1v1.2l-.1.1a1.24,1.24,0,0,1-.3.2c-.2.1-.4.1-.6.2a6.37,6.37,0,0,1-.9.2c-.3,0-.7.1-1,.1a7.93,7.93,0,0,1-1.7-.2,2.55,2.55,0,0,1-1.2-.8,2.73,2.73,0,0,1-.7-1.3,5,5,0,0,1-.2-1.8,4.84,4.84,0,0,1,.3-1.8,4,4,0,0,1,.7-1.3,2.55,2.55,0,0,1,1.2-.8,4.42,4.42,0,0,1,3.2,0,2.26,2.26,0,0,1,1.1.8,3,3,0,0,1,.6,1.1,5.9,5.9,0,0,1,.2,1.4v.3Zm-2.1-.6a2.12,2.12,0,0,0-.4-1.4,1.5,1.5,0,0,0-1.2-.5,1.48,1.48,0,0,0-.7.1,1,1,0,0,0-.5.4l-.3.6a1.7,1.7,0,0,0-.1.7h3.2Zm9.9-5.4a1.22,1.22,0,0,1-.3.9c-.2.2-.5.2-1,.2a2.15,2.15,0,0,1-1-.2c-.2-.2-.2-.4-.2-.8a1.22,1.22,0,0,1,.3-.9c.2-.2.5-.2,1-.2a1.44,1.44,0,0,1,.9.2A1.21,1.21,0,0,1,121,241.6Zm-.2,9.9v.1a.35.35,0,0,1-.2.1.37.37,0,0,0-.3.1h-1a.37.37,0,0,1-.3-.1c-.1,0-.1-.1-.2-.1s0-.1,0-.1V244a.35.35,0,0,1,.2-.1c.1,0,.2-.1.3-.1h1a.37.37,0,0,1,.3.1c.1,0,.1.1.2.1s0,.1,0,.1Zm9.2,0v.1a.35.35,0,0,1-.2.1.37.37,0,0,0-.3.1h-1a.37.37,0,0,1-.3-.1c-.1,0-.1-.1-.2-.1s0-.1,0-.1v-4.2a1.72,1.72,0,0,0-.1-.8c-.1-.2-.1-.4-.2-.5s-.2-.3-.4-.3a1.08,1.08,0,0,0-.6-.1,1.33,1.33,0,0,0-.8.3,3,3,0,0,0-.8.8v5a.35.35,0,0,1-.2.1.37.37,0,0,0-.3.1h-1a.37.37,0,0,1-.3-.1c-.1,0-.1-.1-.2-.1s0-.1,0-.1v-7.5l.1-.1a.37.37,0,0,0,.3-.1h.8a.37.37,0,0,1,.3.1.1.1,0,0,1,.1.1v1a5.3,5.3,0,0,1,1.2-1,3.08,3.08,0,0,1,1.3-.3,5.07,5.07,0,0,1,1.3.2,2.7,2.7,0,0,1,.8.7,3.13,3.13,0,0,1,.5,1,5.72,5.72,0,0,1,.1,1.4v4.4Zm7.2-2.1a3.59,3.59,0,0,1-.2,1.1,2.7,2.7,0,0,1-.7.8,3.13,3.13,0,0,1-1,.5,5.07,5.07,0,0,1-1.3.2,2.2,2.2,0,0,1-.8-.1,1.45,1.45,0,0,1-.7-.2c-.2-.1-.4-.1-.5-.2s-.2-.1-.3-.2-.1-.1-.1-.3v-1.2c0-.1,0-.1.1-.1h.1a.37.37,0,0,1,.3.1c.1.1.3.1.4.2a1.42,1.42,0,0,0,.6.2,2,2,0,0,0,.8.1.75.75,0,0,0,.5-.1.76.76,0,0,0,.4-.2c.1-.1.2-.2.2-.3s.1-.2.1-.4a.52.52,0,0,0-.2-.4,1.38,1.38,0,0,0-.4-.3,1.42,1.42,0,0,0-.6-.2,21585360128829.78,21585360128829.78,0,0,0-1.4-.6c-.2-.1-.4-.3-.6-.4a2.09,2.09,0,0,1-.4-.6,2,2,0,0,1-.2-.9,3,3,0,0,1,.2-1,2.1,2.1,0,0,1,.6-.8,3.13,3.13,0,0,1,1-.5,5.07,5.07,0,0,1,1.3-.2h.7c.2,0,.4.1.6.1a.52.52,0,0,1,.4.2.37.37,0,0,0,.3.1.1.1,0,0,1,.1.1v1.2c0,.1,0,.1-.1.1h-.1a.31.31,0,0,1-.2-.1c-.1-.1-.2-.1-.4-.2s-.3-.1-.5-.2a1.48,1.48,0,0,0-.7-.1.75.75,0,0,0-.5.1c-.1,0-.3.1-.3.2s-.2.2-.2.3-.1.2-.1.3a.52.52,0,0,0,.2.4,1.38,1.38,0,0,0,.4.3,1.42,1.42,0,0,0,.6.2,4.88,4.88,0,0,0,.7.3c.3.1.4.2.7.3s.4.3.6.4a2.09,2.09,0,0,1,.4.6A4.86,4.86,0,0,1,137.2,249.4Zm9.1-1.7a9,9,0,0,1-.2,1.8,2.62,2.62,0,0,1-.6,1.3,2.84,2.84,0,0,1-1,.9,3.19,3.19,0,0,1-1.4.3,1.27,1.27,0,0,1-.6-.1.76.76,0,0,1-.5-.2c-.2-.1-.3-.2-.5-.3s-.3-.3-.5-.4v3.6a.35.35,0,0,1-.2.1c-.1,0-.2.1-.3.1h-1a.37.37,0,0,1-.3-.1c-.1,0-.1-.1-.2-.1V244.1l.1-.1a.37.37,0,0,0,.3-.1h.8a.37.37,0,0,1,.3.1.1.1,0,0,1,.1.1v1l.6-.6a2.09,2.09,0,0,1,.6-.4,4.88,4.88,0,0,1,.7-.3,1.7,1.7,0,0,1,.7-.1,3.19,3.19,0,0,1,1.4.3,2,2,0,0,1,.9.9,5,5,0,0,1,.5,1.3A3.34,3.34,0,0,1,146.3,247.7Zm-2.2.1a2.77,2.77,0,0,0-.1-.9,2.35,2.35,0,0,0-.2-.8,2.18,2.18,0,0,0-.4-.5,1.45,1.45,0,0,0-.7-.2.6.6,0,0,0-.4.1.76.76,0,0,0-.4.2c-.1.1-.3.2-.4.4s-.3.3-.5.6v2.4a8.18,8.18,0,0,0,.8.9,1.33,1.33,0,0,0,.8.3,1.45,1.45,0,0,0,.7-.2c.2-.1.3-.3.5-.5a6.89,6.89,0,0,0,.3-.8A3.35,3.35,0,0,0,144.1,247.8Zm6.1-6.2a1.22,1.22,0,0,1-.3.9c-.2.2-.5.2-1,.2a2.15,2.15,0,0,1-1-.2c-.2-.2-.2-.4-.2-.8a1.22,1.22,0,0,1,.3-.9c.2-.2.5-.2,1-.2a1.44,1.44,0,0,1,.9.2A1.21,1.21,0,0,1,150.2,241.6Zm-.2,9.9v.1a.35.35,0,0,1-.2.1.37.37,0,0,0-.3.1h-1a.37.37,0,0,1-.3-.1c-.1,0-.1-.1-.2-.1s0-.1,0-.1V244a.35.35,0,0,1,.2-.1c.1,0,.2-.1.3-.1h1a.37.37,0,0,1,.3.1c.1,0,.1.1.2.1s0,.1,0,.1Zm6.9-6.7v.8a.1.1,0,0,1-.1.1h-.2c-.1,0-.1,0-.2-.1s-.1,0-.2-.1h-.3a.37.37,0,0,0-.3.1c-.1,0-.2.1-.4.2a.78.78,0,0,0-.4.4c-.1.2-.3.4-.4.6v4.7a.35.35,0,0,1-.2.1.37.37,0,0,0-.3.1h-1a.37.37,0,0,1-.3-.1c-.1,0-.1-.1-.2-.1s0-.1,0-.1v-7.5l.1-.1a.37.37,0,0,0,.3-.1h.8a.37.37,0,0,1,.3.1.1.1,0,0,1,.1.1v1c.2-.3.4-.5.5-.7a1.76,1.76,0,0,1,.5-.4c.2-.1.3-.2.5-.2s.3-.1.5-.1h.5c.1,0,.2,0,.2.1a.1.1,0,0,0,.1.1l.1.1v1Zm7.2,6.7c0,.1,0,.1-.1.2s-.1.1-.3.1h-1a.35.35,0,0,1-.3-.3v-.6a7,7,0,0,1-1,.8,2.5,2.5,0,0,1-1.3.3,3.59,3.59,0,0,1-1.1-.2,4.05,4.05,0,0,1-.9-.5,5.55,5.55,0,0,1-.6-.8,1.64,1.64,0,0,1-.2-1,2,2,0,0,1,.3-1.1,2,2,0,0,1,.8-.8,4.33,4.33,0,0,1,1.2-.5,8.62,8.62,0,0,1,1.7-.1h.7v-.4a1.27,1.27,0,0,0-.1-.6.52.52,0,0,0-.2-.4c-.1-.1-.3-.2-.4-.3a1.48,1.48,0,0,0-.7-.1,2.48,2.48,0,0,0-.9.1,4.88,4.88,0,0,0-.7.3,2.19,2.19,0,0,0-.5.3.49.49,0,0,1-.3.1c-.1,0-.1,0-.2-.1a.35.35,0,0,1-.1-.2c0-.1-.1-.2-.1-.3v-.7c0-.1.1-.2.2-.3a1.38,1.38,0,0,1,.4-.3,4.88,4.88,0,0,1,.7-.3,2.39,2.39,0,0,1,.9-.2,3.08,3.08,0,0,1,1-.1,6.05,6.05,0,0,1,1.5.2,2.34,2.34,0,0,1,1,.5,1.46,1.46,0,0,1,.6.9,5.07,5.07,0,0,1,.2,1.3v5.1Zm-2.1-3.1h-.8a2.77,2.77,0,0,0-.9.1,1.42,1.42,0,0,0-.6.2c-.2.1-.3.2-.3.4a.75.75,0,0,0-.1.5.78.78,0,0,0,.3.7,1.14,1.14,0,0,0,.8.3,1.88,1.88,0,0,0,.8-.2,4.37,4.37,0,0,0,.8-.7v-1.3Zm9.8,1.9v.8a.35.35,0,0,0-.1.2c-.1.1-.2.1-.3.2l-.6.3c-.2.1-.5.1-.7.2l.2.4a1.42,1.42,0,0,1,.2.6c0,.2.1.3.1.5a1.48,1.48,0,0,1-.1.7.78.78,0,0,1-.4.4l-.6.3a1.48,1.48,0,0,1-.7.1h-.7a4.33,4.33,0,0,1-.5-.1c-.1,0-.2-.1-.3-.1a.1.1,0,0,1-.1-.1v-.5a.75.75,0,0,1,.1-.5c0-.1.1-.1.2-.1h1c.2,0,.3,0,.4-.1a.37.37,0,0,0,.1-.3V253c0-.1-.1-.2-.1-.3l-.3-.7a3.69,3.69,0,0,1-1.4-.7,2.87,2.87,0,0,1-.8-1.3,4.84,4.84,0,0,1-.3-1.8,5.41,5.41,0,0,1,.3-1.9,2.87,2.87,0,0,1,.8-1.3,2.55,2.55,0,0,1,1.2-.8,4,4,0,0,1,1.5-.3,2,2,0,0,1,.7.1,1.42,1.42,0,0,1,.6.2c.2.1.4.1.5.2a1.44,1.44,0,0,0,.3.2c.1.1.1.1.1.2s0,.1.1.2v.6a1.48,1.48,0,0,1-.1.7c-.1.1-.1.2-.2.2a.37.37,0,0,1-.3-.1,1.38,1.38,0,0,0-.4-.3,2.19,2.19,0,0,0-.5-.3,1.48,1.48,0,0,0-.7-.1,1.31,1.31,0,0,0-1.2.6,3,3,0,0,0-.4,1.8,4.1,4.1,0,0,0,.1,1.1,6.89,6.89,0,0,0,.3.8,1.21,1.21,0,0,0,.5.5,1.85,1.85,0,0,0,.7.2,1.48,1.48,0,0,0,.7-.1,2.19,2.19,0,0,0,.5-.3,1.38,1.38,0,0,0,.4-.3.37.37,0,0,1,.3-.1h.1a.35.35,0,0,1,.1.2v.3C171.8,250,171.8,250.1,171.8,250.3Zm8.9-2.6a8.81,8.81,0,0,1-.2,1.7,2.87,2.87,0,0,1-.8,1.3,3,3,0,0,1-1.3.9,4.84,4.84,0,0,1-1.8.3,4.31,4.31,0,0,1-1.7-.3,2.55,2.55,0,0,1-1.2-.8,2.73,2.73,0,0,1-.7-1.3,5.91,5.91,0,0,1,.1-3.4,2.87,2.87,0,0,1,.8-1.3,3,3,0,0,1,1.3-.9,4.84,4.84,0,0,1,1.8-.3,4.31,4.31,0,0,1,1.7.3,2.55,2.55,0,0,1,1.2.8,2.73,2.73,0,0,1,.7,1.3C180.6,246.5,180.7,247.1,180.7,247.7Zm-1-7a2.07,2.07,0,0,1-.5,1.5,1.54,1.54,0,0,1-1.3.5,1.27,1.27,0,0,1-.6-.1.52.52,0,0,1-.4-.2c-.1-.1-.3-.1-.4-.2s-.2-.2-.3-.2-.2-.1-.3-.2-.2-.1-.3-.1a.52.52,0,0,0-.4.2.75.75,0,0,0-.1.5v.1l-.1.1h-1l-.1-.1v-.2a2.46,2.46,0,0,1,.5-1.5,1.61,1.61,0,0,1,1.3-.6,2,2,0,0,1,.8.1l.6.3c.2.1.3.2.5.3a.6.6,0,0,0,.4.1.52.52,0,0,0,.4-.2.75.75,0,0,0,.1-.5c0-.1,0-.2.1-.2h.5a.75.75,0,0,1,.5.1C179.7,240.3,179.7,240.6,179.7,240.7Zm-1.2,7.1a3.08,3.08,0,0,0-.1-1,6.89,6.89,0,0,0-.3-.8,1,1,0,0,0-.6-.5,2,2,0,0,0-.9-.2,1.88,1.88,0,0,0-.8.2,2.65,2.65,0,0,0-.6.5,1.91,1.91,0,0,0-.3.8c0,.3-.1.7-.1,1.1a3.08,3.08,0,0,0,.1,1,6.89,6.89,0,0,0,.3.8,1,1,0,0,0,.6.5,2.39,2.39,0,0,0,.9.2,1.88,1.88,0,0,0,.8-.2,2.65,2.65,0,0,0,.6-.5,1.14,1.14,0,0,0,.3-.8A4.1,4.1,0,0,0,178.5,247.8Zm10.7-.2a1.07,1.07,0,0,1-.2.6.76.76,0,0,1-.5.2H184a2.77,2.77,0,0,0,.1.9,1.61,1.61,0,0,0,.4.7,2.09,2.09,0,0,0,.6.4,2.77,2.77,0,0,0,.9.1,3.08,3.08,0,0,0,1-.1,6.37,6.37,0,0,0,.7-.2c.2-.1.4-.1.5-.2a.37.37,0,0,1,.3-.1h.1l.1.1v1.2l-.1.1a1.24,1.24,0,0,1-.3.2c-.2.1-.4.1-.6.2a6.37,6.37,0,0,1-.9.2c-.3,0-.7.1-1,.1a7.93,7.93,0,0,1-1.7-.2,2.55,2.55,0,0,1-1.2-.8,2.73,2.73,0,0,1-.7-1.3,5,5,0,0,1-.2-1.8,4.84,4.84,0,0,1,.3-1.8,4,4,0,0,1,.7-1.3,2.55,2.55,0,0,1,1.2-.8,4.42,4.42,0,0,1,3.2,0,2.26,2.26,0,0,1,1.1.8,3,3,0,0,1,.6,1.1,5.9,5.9,0,0,1,.2,1.4v.3Zm-2.1-.6a2.12,2.12,0,0,0-.4-1.4,1.5,1.5,0,0,0-1.2-.5,1.48,1.48,0,0,0-.7.1,1,1,0,0,0-.5.4l-.3.6a1.7,1.7,0,0,0-.1.7h3.2Zm9,2.4a3.59,3.59,0,0,1-.2,1.1,2.7,2.7,0,0,1-.7.8,3.13,3.13,0,0,1-1,.5,5.07,5.07,0,0,1-1.3.2,2.2,2.2,0,0,1-.8-.1,1.45,1.45,0,0,1-.7-.2c-.2-.1-.4-.1-.5-.2s-.2-.1-.3-.2-.1-.1-.1-.3v-1.2c0-.1,0-.1.1-.1h.1a.37.37,0,0,1,.3.1c.1.1.3.1.4.2a1.42,1.42,0,0,0,.6.2,2,2,0,0,0,.8.1.75.75,0,0,0,.5-.1.76.76,0,0,0,.4-.2c.1-.1.2-.2.2-.3s.1-.2.1-.4a.52.52,0,0,0-.2-.4,1.38,1.38,0,0,0-.4-.3,1.42,1.42,0,0,0-.6-.2,21585360128897.17,21585360128897.17,0,0,0-1.4-.6c-.2-.1-.4-.3-.6-.4a2.09,2.09,0,0,1-.4-.6,2,2,0,0,1-.2-.9,3,3,0,0,1,.2-1,2.1,2.1,0,0,1,.6-.8,3.13,3.13,0,0,1,1-.5,5.07,5.07,0,0,1,1.3-.2h.7c.2,0,.4.1.6.1a.52.52,0,0,1,.4.2.37.37,0,0,0,.3.1.1.1,0,0,1,.1.1v1.2c0,.1,0,.1-.1.1h-.1a.31.31,0,0,1-.2-.1c-.1-.1-.2-.1-.4-.2s-.3-.1-.5-.2a1.48,1.48,0,0,0-.7-.1.75.75,0,0,0-.5.1c-.1,0-.3.1-.3.2s-.2.2-.2.3-.1.2-.1.3a.52.52,0,0,0,.2.4,1.38,1.38,0,0,0,.4.3,1.42,1.42,0,0,0,.6.2,4.88,4.88,0,0,0,.7.3c.3.1.4.2.7.3s.4.3.6.4a2.09,2.09,0,0,1,.4.6C196,248.8,196.1,249.1,196.1,249.4Z"/><path class="cls-2" d="M26.9,271.3A25.9,25.9,0,1,0,1,245.4a25.91,25.91,0,0,0,25.9,25.9"/><circle class="cls-3" cx="26.9" cy="245.4" r="25.9"/><path class="cls-5" d="M26.6,236.5a5.34,5.34,0,0,1,5.3,5.3.9.9,0,1,0,1.8,0,7.13,7.13,0,0,0-7.1-7.1.9.9,0,1,0,0,1.8"/><path class="cls-4" d="M19.9,247.8a8.94,8.94,0,0,1-2-7.9,8.67,8.67,0,0,1,6.8-6.7,8.89,8.89,0,0,1,10.8,8.7,9.17,9.17,0,0,1-2.2,5.9,9.14,9.14,0,0,0-2.2,4.9h-9a8.52,8.52,0,0,0-2.2-4.9M31,255.3a.9.9,0,0,1-.9.9H23a.9.9,0,0,1-.9-.9v-.9H31Zm-4.4,4.5a2.71,2.71,0,0,1-2.5-1.8h5a2.82,2.82,0,0,1-2.5,1.8m-4.4-2a4.45,4.45,0,0,0,8.8,0,2.58,2.58,0,0,0,1.8-2.5v-1.8a6.86,6.86,0,0,1,1.8-4.6,10.46,10.46,0,0,0,2.6-7,10.79,10.79,0,0,0-13-10.5,10.51,10.51,0,0,0-8.1,8.1,10.66,10.66,0,0,0,2.5,9.4,7.12,7.12,0,0,1,1.8,4.5v1.8a2.43,2.43,0,0,0,1.8,2.6"/><path class="cls-5" d="M12.3,243.6h1.8a.9.9,0,0,0,0-1.8H12.3a.9.9,0,1,0,0,1.8"/><path class="cls-5" d="M13.1,238.6a1,1,0,0,0,1.3,0,1,1,0,0,0,0-1.3L13.1,236a1,1,0,0,0-1.3,0,1,1,0,0,0,0,1.3Z"/><path class="cls-5" d="M13.1,246.8l-1.3,1.3a1,1,0,0,0,0,1.3,1,1,0,0,0,1.3,0l1.3-1.3a1,1,0,0,0,0-1.3,1,1,0,0,0-1.3,0"/><path class="cls-5" d="M40.9,241.8H39.1a.9.9,0,1,0,0,1.8h1.8a.9.9,0,1,0,0-1.8"/><path class="cls-5" d="M40,238.6l1.3-1.3A.92.92,0,0,0,40,236l-1.3,1.3a1,1,0,0,0,0,1.3.85.85,0,0,0,1.3,0"/><path class="cls-5" d="M41.3,249.3a1,1,0,0,0,0-1.3L40,246.7a.92.92,0,1,0-1.3,1.3l1.3,1.3a.85.85,0,0,0,1.3,0"/></g></g></svg>