<?xml version="1.0" encoding="utf-8"?>
<!-- Generator: Adobe Illustrator 26.5.1, SVG Export Plug-In . SVG Version: 6.00 Build 0)  -->
<svg version="1.1" id="Camada_1" xmlns="http://www.w3.org/2000/svg" xmlns:xlink="http://www.w3.org/1999/xlink" x="0px" y="0px"
	 viewBox="0 0 53.9 53.9" style="enable-background:new 0 0 53.9 53.9;" xml:space="preserve">
<style type="text/css">
	.st0{fill:#20273D;}
	.st1{fill:#FFFFFF;}
	.st2{fill:#008BBC;}
</style>
<g>
	<g>
		<path class="st0" d="M26.9,52.8c14.3,0,25.9-11.6,25.9-25.9S41.2,1.1,26.9,1.1C12.6,1.2,1.1,12.7,1.1,27S12.6,52.8,26.9,52.8"/>
	</g>
	<g>
		<path class="st1" d="M22.7,29.5c-3.1-3.1-3.1-8.2,0-11.3s8.2-3.1,11.3,0s3.1,8.2,0,11.3C30.9,32.6,25.9,32.6,22.7,29.5 M36,31.4
			c4.2-4.2,4.2-11.1,0-15.3s-11.1-4.2-15.3,0c-3.6,3.6-4.1,8.9-1.6,13c0,0,0.2,0.3-0.1,0.5l-5.5,5.7c-1.1,1.1-1.4,2.6-0.4,3.6
			l0.2,0.2c1,1,2.5,0.7,3.6-0.4l5.5-5.5c0.3-0.3,0.6-0.1,0.6-0.1C27.1,35.6,32.5,35,36,31.4"/>
	</g>
	<g>
		<path class="st2" d="M23.4,23.2c-0.1,0-0.3,0-0.4-0.1c-0.6-0.2-0.8-0.9-0.6-1.5c1.5-3.6,5.6-5.2,9.2-3.7c0.6,0.2,0.8,0.9,0.6,1.5
			C32,20,31.3,20.1,30.7,20c-2.4-1-5.3,0.1-6.3,2.5C24.3,22.9,23.9,23.2,23.4,23.2"/>
	</g>
</g>
</svg>
