<?xml version="1.0" encoding="utf-8"?>
<!-- Generator: Adobe Illustrator 26.5.1, SVG Export Plug-In . SVG Version: 6.00 Build 0)  -->
<svg version="1.1" id="Camada_1" xmlns="http://www.w3.org/2000/svg" xmlns:xlink="http://www.w3.org/1999/xlink" x="0px" y="0px"
	 viewBox="0 0 53.9 53.9" style="enable-background:new 0 0 53.9 53.9;" xml:space="preserve">
<style type="text/css">
	.st0{fill:#20273D;}
	.st1{fill:#FFFFFF;}
	.st2{fill:#008BBC;}
</style>
<g>
	<g>
		<path class="st0" d="M26.9,52.8c14.3,0,25.9-11.6,25.9-25.9S41.2,1.1,26.9,1.1C12.6,1.2,1.1,12.7,1.1,27S12.6,52.8,26.9,52.8"/>
	</g>
	<g>
		<path class="st1" d="M42.7,33c0-0.1,0-0.1,0-0.2c0-0.1,0-0.1,0-0.2v-0.1l0,0l0,0v-0.1l0,0l0,0v-0.1c0-0.1,0-0.2,0-0.3v-0.1v-0.1
			c0-0.1,0-0.2,0-0.2c0-0.1,0-0.2,0-0.2v-0.1v-0.1c0-0.3-0.1-0.5-0.1-0.8c0-0.1,0-0.3-0.1-0.4c0-0.1-0.1-0.2-0.1-0.4
			c0-0.2-0.1-0.5-0.2-0.7c0-0.1,0-0.1,0-0.1v-0.1c0-0.1,0-0.2-0.1-0.3c0-0.1,0-0.2-0.1-0.2c0-0.1,0-0.1-0.1-0.2
			c0-0.1-0.1-0.2-0.1-0.2c0-0.1-0.1-0.1-0.2-0.1l-5.3,1.5c-0.1,0-0.1,0.1-0.1,0.2v0.1v0.1c0,0,0,0.1,0,0.2s0,0.1,0,0.2v0.1v0.1
			c0,0.1,0,0.3,0,0.4s0,0.2,0,0.2c0,0.1,0,0.2,0,0.3c0,0.2,0,0.4,0,0.5v0.1v0.1v0.1V32v0.1v0.1c0,0.1,0,0.2,0,0.3v0.1l0,0l0,0v-0.1
			l0,0l0,0l0,0v0.1v0.1v0.1c0,0.1,0,0.2,0,0.3s0,0.2,0,0.2c0,0.1,0,0.2,0,0.2c0,0.1,0,0.2,0,0.2c0,0.1,0,0.1,0,0.2s0,0.1,0,0.2v0.1
			c0,0,0,0,0,0.1l0,0h6.3c0.1,0,0.2-0.1,0.2-0.2l0,0c0-0.1,0-0.2,0-0.4c0-0.1,0-0.3,0-0.4c0-0.1,0-0.3,0-0.4
			C42.7,33.2,42.7,33.1,42.7,33"/>
	</g>
	<g>
		<path class="st1" d="M41,26.2c0.1,0,0.1-0.1,0.1-0.2c0,0,0-0.1-0.1-0.1c0,0,0-0.1-0.1-0.2c0-0.1-0.1-0.1-0.1-0.2s-0.1-0.2-0.1-0.3
			c0,0,0-0.1-0.1-0.1c0,0,0-0.1-0.1-0.1c0-0.1-0.1-0.2-0.2-0.3c-0.1-0.1-0.1-0.2-0.2-0.3c0-0.1-0.1-0.1-0.1-0.2s-0.1-0.1-0.1-0.2
			c-0.1-0.1-0.1-0.2-0.2-0.3c-0.1-0.2-0.3-0.4-0.5-0.7c0-0.1-0.1-0.1-0.1-0.2L39,22.6l-0.1-0.1c-0.1-0.1-0.2-0.2-0.3-0.3
			c-0.1-0.1-0.2-0.2-0.3-0.3c0-0.1-0.1-0.1-0.1-0.2s-0.1-0.1-0.1-0.2c0,0-0.1-0.1-0.1-0.2s-0.1-0.1-0.1-0.1
			c-0.1-0.1-0.2-0.2-0.3-0.3c-0.1-0.1-0.2-0.2-0.3-0.3c-0.1-0.1-0.2-0.2-0.3-0.3c-0.1-0.1-0.2-0.2-0.2-0.2c-0.1-0.1-0.2-0.1-0.2-0.2
			c-0.1-0.1-0.2-0.1-0.2-0.2c-0.1-0.1-0.1-0.1-0.2-0.2c-0.1-0.1-0.1-0.1-0.2-0.1c-0.1,0-0.1-0.1-0.2-0.1c-0.1-0.1-0.1-0.1-0.2-0.1
			c-0.1-0.1-0.2,0-0.2,0l-2.9,3.5c-0.1,0.1,0,0.2,0,0.2l0.1,0.1l0.1,0.1l0.1,0.1l0.1,0.1c0,0,0.1,0.1,0.1,0.2s0.1,0.1,0.1,0.2
			s0.1,0.1,0.2,0.2c0.1,0.1,0.1,0.1,0.2,0.2c0.1,0.1,0.1,0.1,0.2,0.2c0.1,0.1,0.1,0.1,0.2,0.2l0.1,0.1l0.1,0.1l0.1,0.1l0.1,0.1
			c0,0.1,0.1,0.2,0.2,0.2c0,0.1,0.1,0.2,0.1,0.2v0.1v0.1c0,0,0,0.1,0.1,0.1c0.1,0.2,0.2,0.3,0.3,0.5c0,0.1,0.1,0.2,0.1,0.2
			s0,0.1,0.1,0.1v0.1c0,0.1,0.1,0.1,0.1,0.2s0.1,0.1,0.1,0.2v0.1v0.1c0,0.1,0,0.1,0.1,0.2v0.1c0,0.1,0,0.1,0.1,0.2
			c0,0.1,0,0.1,0,0.1c0,0.1,0.1,0.1,0.2,0.1L41,26.2z"/>
	</g>
	<g>
		<path class="st1" d="M26.4,20h0.1c0.1,0,0.1,0,0.2,0s0.1,0,0.2,0s0.1,0,0.2,0l1.8-3.7c-0.1,0-0.2,0-0.3,0c-0.1,0-0.1,0-0.2,0
			s-0.1,0-0.2,0s-0.2,0-0.3,0c-0.1,0-0.2,0-0.3,0c-0.1,0-0.2,0-0.3,0c-0.1,0-0.2,0-0.3,0c-0.1,0-0.2,0-0.2,0c-0.1,0-0.1,0-0.2,0
			s-0.2,0-0.2,0c-0.1,0-0.2,0.1-0.2,0.2L26,19.9c0,0.1,0.1,0.2,0.1,0.2C26.3,20,26.4,20,26.4,20"/>
	</g>
	<g>
		<path class="st1" d="M31.3,21.9l0.1,0.1l0.1,0.1c0,0,0,0,0.1,0c0,0,0,0,0.1,0l0.1,0.1c0.1,0.1,0.2,0,0.2,0l2.4-3.6
			c0.1-0.1,0-0.2-0.1-0.2c0,0-0.1,0-0.1-0.1c0,0,0,0-0.1,0H34c-0.1,0-0.1-0.1-0.2-0.1c-0.1,0-0.2-0.1-0.2-0.1
			c-0.1,0-0.2-0.1-0.3-0.1s-0.2-0.1-0.3-0.1s-0.2-0.1-0.3-0.1c-0.1-0.1-0.2-0.1-0.3-0.1s-0.2-0.1-0.3-0.1H32l-1,4.4
			c0.1,0,0.1,0.1,0.2,0.1C31.2,21.8,31.2,21.9,31.3,21.9"/>
	</g>
	<g>
		<path class="st1" d="M23.3,20h0.1h0.1c0.1,0,0.2,0,0.3,0c0.1,0,0.2,0,0.2,0h0.1h0.1c0.1,0,0.1,0,0.2,0s0.1,0,0.2,0s0.1,0,0.2,0
			s0.1,0,0.1,0c0.1,0,0.2-0.1,0.2-0.2l-0.2-3.2c0-0.1-0.1-0.2-0.2-0.2h-0.1c-0.1,0-0.1,0-0.2,0s-0.2,0-0.2,0c-0.1,0-0.2,0-0.3,0
			h-0.1h-0.1c-0.1,0-0.2,0-0.3,0.1c-0.1,0-0.2,0-0.3,0.1c-0.1,0-0.1,0-0.2,0s-0.1,0-0.2,0s-0.2,0.1-0.4,0.1c-0.1,0-0.2,0.1-0.4,0.1
			c-0.1,0-0.1,0-0.2,0.1c-0.1,0-0.1,0-0.2,0.1c-0.1,0-0.1,0-0.2,0.1c-0.1,0-0.1,0-0.2,0.1c-0.1,0-0.2,0.1-0.4,0.1
			c-0.1,0-0.2,0.1-0.4,0.1c-0.1,0-0.1,0-0.2,0.1c-0.1,0-0.1,0.1-0.2,0.1s-0.1,0.1-0.2,0.1s-0.1,0.1-0.2,0.1
			c-0.1,0.1-0.2,0.1-0.3,0.2c-0.1,0.1-0.2,0.1-0.3,0.2c-0.1,0.1-0.2,0.1-0.3,0.2c-0.1,0.1-0.2,0.1-0.3,0.2c-0.1,0.1-0.2,0.1-0.3,0.2
			c-0.1,0.1-0.2,0.1-0.2,0.1C17.7,19,17.7,19,17.6,19s-0.1,0.1-0.2,0.1c0.2-0.1,0.1,0,0.1,0c-0.1,0-0.1,0.1-0.2,0.1
			c-0.1,0.1-0.1,0.2,0,0.2l1.3,2c0,0.1,0.1,0.1,0.2,0.1c0,0,0.1,0,0.1-0.1c0,0,0.1,0,0.1-0.1c0,0,0.1-0.1,0.2-0.1s0.1-0.1,0.2-0.1
			s0.1-0.1,0.2-0.1s0.1-0.1,0.2-0.1s0.2-0.1,0.2-0.1c0.1,0,0.2-0.1,0.3-0.1c0.1,0,0.2-0.1,0.3-0.1c0.1,0,0.2-0.1,0.3-0.1H21h0.1h0.1
			h0.1c0.1,0,0.2-0.1,0.3-0.1c0.1,0,0.2-0.1,0.3-0.1H22h0.1h0.1h0.1c0.1,0,0.2,0,0.3,0C23.1,20,23.2,20,23.3,20"/>
	</g>
	<g>
		<path class="st1" d="M14.1,22.5c0,0.1-0.1,0.1-0.1,0.2s-0.1,0.1-0.1,0.2s-0.1,0.1-0.1,0.2c-0.1,0.1-0.1,0.2-0.2,0.3
			c-0.1,0.1-0.1,0.2-0.2,0.3v0.1v0.1c0,0.1-0.1,0.1-0.1,0.2c-0.1,0.2-0.2,0.4-0.3,0.6c-0.1,0.1-0.1,0.2-0.2,0.3c0,0,0,0.1-0.1,0.1
			c0,0,0,0.1-0.1,0.1c0,0.1-0.1,0.2-0.1,0.3c0,0.1-0.1,0.2-0.1,0.3S12.3,26,12.3,26c0,0.1-0.1,0.2-0.1,0.2c0,0.1-0.1,0.1-0.1,0.2
			s0,0.1-0.1,0.2c0,0.1,0,0.1-0.1,0.2c0,0.1,0,0.2,0.1,0.2l1.3,0.5c0.1,0,0.2,0,0.2-0.1c0,0,0-0.1,0.1-0.1c0,0,0-0.1,0.1-0.1
			c0-0.1,0.1-0.1,0.1-0.2s0.1-0.1,0.1-0.2s0.1-0.1,0.1-0.2s0.1-0.1,0.1-0.2s0.1-0.2,0.1-0.2s0-0.1,0.1-0.1l0.1-0.1
			c0.1-0.1,0.1-0.2,0.2-0.3c0.1-0.2,0.2-0.3,0.4-0.5l0.1-0.1V25v-0.1c0.1-0.1,0.1-0.2,0.2-0.3s0.1-0.2,0.2-0.2l0.1-0.1l0.1-0.1
			l0.1-0.1l0.1-0.1c0.1-0.1,0.1-0.1,0.2-0.2c0.1-0.1,0.1-0.1,0.2-0.2s0.1-0.1,0.2-0.2c0.1-0.1,0.1-0.1,0.2-0.2s0.1-0.1,0.2-0.2
			s0.1-0.1,0.2-0.1s0.1-0.1,0.2-0.1l0.1-0.1c0,0,0,0,0.1-0.1c0,0,0,0,0.1,0l0.1-0.1c0.1-0.1,0.1-0.2,0-0.2l-1.4-1.7
			c-0.1-0.1-0.2-0.1-0.2,0L16,20.6c0,0,0,0-0.1,0.1c0,0,0,0-0.1,0.1c0,0-0.1,0.1-0.2,0.2c-0.1,0.1-0.1,0.1-0.2,0.2
			c-0.1,0.1-0.1,0.1-0.2,0.2c-0.1,0.1-0.1,0.1-0.2,0.2c-0.1,0.1-0.1,0.2-0.2,0.2c-0.1,0.1-0.1,0.2-0.2,0.3c-0.1-0.3-0.1-0.2-0.2-0.1
			s-0.1,0.2-0.2,0.3L14.1,22.5"/>
	</g>
	<g>
		<path class="st1" d="M11.5,28.4v0.1c0,0,0,0.1,0,0.2s0,0.1,0,0.2s0,0.2,0,0.2v0.1v0.1c0,0.2-0.1,0.4-0.1,0.6c0,0.1,0,0.2,0,0.3
			c0,0.1,0,0.2,0,0.3c0,0.2,0,0.5,0,0.7v0.1v0.1c0,0.1,0,0.1,0,0.2s0,0.1,0,0.2v0.1V32c0,0.1,0,0.2,0,0.4v0.1l0,0v0.1
			c0,0.1,0,0.1,0,0.2c0,0.1,0,0.1,0,0.2s0,0.1,0,0.2c0,0.1,0,0.1,0,0.2v0.1v0.1c0,0.1,0,0.2,0,0.3s0,0.2,0,0.3s0,0.2,0.1,0.3l0,0
			c0,0.1,0.1,0.1,0.2,0.1h0.4c0.1,0,0.2-0.1,0.2-0.2v-0.1c0-0.1,0-0.2,0-0.3s0-0.2,0-0.3s0-0.2,0-0.3v-0.1v-0.1c0-0.1,0-0.1,0-0.2
			c0-0.1,0-0.1,0-0.2s0-0.1,0-0.2c0-0.1,0-0.1,0-0.2l0,0l0,0l0,0l0,0l0,0l0,0v-0.1c0-0.1,0-0.2,0-0.3v-0.1v-0.1c0-0.1,0-0.1,0-0.2
			s0-0.1,0-0.2v-0.1v-0.1c0-0.2,0.1-0.4,0.1-0.6c0-0.1,0-0.2,0.1-0.3c0-0.1,0-0.2,0.1-0.3c0-0.2,0.1-0.4,0.1-0.5v-0.1v-0.1
			c0-0.1,0-0.1,0.1-0.2c0-0.1,0-0.1,0.1-0.2c0-0.1,0-0.1,0.1-0.2c0-0.1,0-0.1,0-0.1c0-0.1,0-0.2-0.1-0.2l-1.1-0.3
			C11.6,28.3,11.5,28.3,11.5,28.4"/>
	</g>
	<g>
		<path class="st2" d="M25.2,30.5c0.7,0,1.2,0.6,1.2,1.2c0,0.6-0.6,1.2-1.2,1.2c-0.7,0-1.2-0.6-1.2-1.2C24,31,24.5,30.5,25.2,30.5
			 M24,34.1c0.4,0.2,0.7,0.3,1.1,0.3c0.9,0,1.8-0.5,2.3-1.4c0.1-0.2,0.2-0.4,0.2-0.5l2.6-11.2l1-4.3l0.6-2.6
			c0.1-0.3-0.2-0.5-0.4-0.5c-0.1,0-0.3,0.1-0.4,0.2l-1.2,2.5L28,20.2l-5.1,10.4C22.2,32,22.8,33.5,24,34.1"/>
	</g>
</g>
</svg>
