<?xml version="1.0" encoding="utf-8"?>
<!-- Generator: Adobe Illustrator 25.4.1, SVG Export Plug-In . SVG Version: 6.00 Build 0)  -->
<svg version="1.1" id="Camada_1" xmlns="http://www.w3.org/2000/svg" xmlns:xlink="http://www.w3.org/1999/xlink" x="0px" y="0px"
	 viewBox="0 0 55.3 47.2" style="enable-background:new 0 0 55.3 47.2;" xml:space="preserve">
<style type="text/css">
	.st0{fill:#FCD500;}
	.st1{fill:#E8C500;}
	.st2{fill:#E72371;}
	.st3{fill:#691033;}
	.st4{fill:#E6E6E6;fill-opacity:0;}
	.st5{opacity:2.000000e-02;fill:#E4E4E4;enable-background:new    ;}
	.st6{opacity:3.000000e-02;fill:#E2E2E2;enable-background:new    ;}
	.st7{opacity:5.000000e-02;fill:#E0E0E0;enable-background:new    ;}
	.st8{opacity:7.000000e-02;fill:#DEDEDE;enable-background:new    ;}
	.st9{opacity:8.000000e-02;fill:#DCDCDC;enable-background:new    ;}
	.st10{opacity:0.1;fill:#D9D9D9;enable-background:new    ;}
	.st11{opacity:0.11;fill:#D7D7D7;enable-background:new    ;}
	.st12{opacity:0.13;fill:#D5D5D5;enable-background:new    ;}
	.st13{opacity:0.15;fill:#D3D3D3;enable-background:new    ;}
	.st14{opacity:0.16;fill:#D1D1D1;enable-background:new    ;}
	.st15{opacity:0.18;fill:#CFCFCF;enable-background:new    ;}
	.st16{opacity:0.2;fill:#CDCDCD;enable-background:new    ;}
	.st17{opacity:0.21;fill:#CBCBCB;enable-background:new    ;}
	.st18{opacity:0.23;fill:#C9C9C9;enable-background:new    ;}
	.st19{opacity:0.25;fill:#C7C7C7;enable-background:new    ;}
	.st20{opacity:0.26;fill:#C4C4C4;enable-background:new    ;}
	.st21{opacity:0.28;fill:#C2C2C2;enable-background:new    ;}
	.st22{opacity:0.3;fill:#C0C0C0;enable-background:new    ;}
	.st23{opacity:0.31;fill:#BEBEBE;enable-background:new    ;}
	.st24{opacity:0.33;fill:#BCBCBC;enable-background:new    ;}
	.st25{opacity:0.34;fill:#BABABA;enable-background:new    ;}
	.st26{opacity:0.36;fill:#B8B8B8;enable-background:new    ;}
	.st27{opacity:0.38;fill:#B6B6B6;enable-background:new    ;}
	.st28{opacity:0.39;fill:#B4B4B4;enable-background:new    ;}
	.st29{opacity:0.41;fill:#B2B2B2;enable-background:new    ;}
	.st30{opacity:0.43;fill:#AFAFAF;enable-background:new    ;}
	.st31{opacity:0.44;fill:#ADADAD;enable-background:new    ;}
	.st32{opacity:0.46;fill:#ABABAB;enable-background:new    ;}
	.st33{opacity:0.48;fill:#A9A9A9;enable-background:new    ;}
	.st34{opacity:0.49;fill:#A7A7A7;enable-background:new    ;}
	.st35{opacity:0.51;fill:#A5A5A5;enable-background:new    ;}
	.st36{opacity:0.52;fill:#A3A3A3;enable-background:new    ;}
	.st37{opacity:0.54;fill:#A1A1A1;enable-background:new    ;}
	.st38{opacity:0.56;fill:#9F9F9F;enable-background:new    ;}
	.st39{opacity:0.57;fill:#9D9D9D;enable-background:new    ;}
	.st40{opacity:0.59;fill:#9A9A9A;enable-background:new    ;}
	.st41{opacity:0.61;fill:#989898;enable-background:new    ;}
	.st42{opacity:0.62;fill:#969696;enable-background:new    ;}
	.st43{opacity:0.64;fill:#949494;enable-background:new    ;}
	.st44{opacity:0.66;fill:#929292;enable-background:new    ;}
	.st45{opacity:0.67;fill:#909090;enable-background:new    ;}
	.st46{opacity:0.69;fill:#8E8E8E;enable-background:new    ;}
	.st47{opacity:0.7;fill:#8C8C8C;enable-background:new    ;}
	.st48{opacity:0.72;fill:#8A8A8A;enable-background:new    ;}
	.st49{opacity:0.74;fill:#888888;enable-background:new    ;}
	.st50{opacity:0.75;fill:#858585;enable-background:new    ;}
	.st51{opacity:0.77;fill:#838383;enable-background:new    ;}
	.st52{opacity:0.79;fill:#818181;enable-background:new    ;}
	.st53{opacity:0.8;fill:#7F7F7F;enable-background:new    ;}
	.st54{opacity:0.82;fill:#7D7D7D;enable-background:new    ;}
	.st55{opacity:0.84;fill:#7B7B7B;enable-background:new    ;}
	.st56{opacity:0.85;fill:#797979;enable-background:new    ;}
	.st57{opacity:0.87;fill:#777777;enable-background:new    ;}
	.st58{opacity:0.89;fill:#757575;enable-background:new    ;}
	.st59{opacity:0.9;fill:#737373;enable-background:new    ;}
	.st60{opacity:0.92;fill:#707070;enable-background:new    ;}
	.st61{opacity:0.93;fill:#6E6E6E;enable-background:new    ;}
	.st62{opacity:0.95;fill:#6C6C6C;enable-background:new    ;}
	.st63{opacity:0.97;fill:#6A6A6A;enable-background:new    ;}
	.st64{opacity:0.98;fill:#686868;enable-background:new    ;}
	.st65{fill:#666666;}
	.st66{fill:none;}
	.st67{fill:#CF1F65;}
	.st68{fill:none;stroke:#691033;stroke-width:0;stroke-linecap:round;stroke-linejoin:round;}
	.st69{opacity:0;fill:#E6E6E6;}
	.st70{opacity:1.639344e-02;fill:#E4E4E4;}
	.st71{opacity:3.278688e-02;fill:#E2E2E2;}
	.st72{opacity:4.918033e-02;fill:#E0E0E0;}
	.st73{opacity:6.557377e-02;fill:#DEDEDE;}
	.st74{opacity:8.196721e-02;fill:#DCDCDC;}
	.st75{opacity:9.836066e-02;fill:#D9D9D9;}
	.st76{opacity:0.1148;fill:#D7D7D7;}
	.st77{opacity:0.1311;fill:#D5D5D5;}
	.st78{opacity:0.1475;fill:#D3D3D3;}
	.st79{opacity:0.1639;fill:#D1D1D1;}
	.st80{opacity:0.1803;fill:#CFCFCF;}
	.st81{opacity:0.1967;fill:#CDCDCD;}
	.st82{opacity:0.2131;fill:#CBCBCB;}
	.st83{opacity:0.2295;fill:#C9C9C9;}
	.st84{opacity:0.2459;fill:#C7C7C7;}
	.st85{opacity:0.2623;fill:#C4C4C4;}
	.st86{opacity:0.2787;fill:#C2C2C2;}
	.st87{opacity:0.2951;fill:#C0C0C0;}
	.st88{opacity:0.3115;fill:#BEBEBE;}
	.st89{opacity:0.3279;fill:#BCBCBC;}
	.st90{opacity:0.3443;fill:#BABABA;}
	.st91{opacity:0.3607;fill:#B8B8B8;}
	.st92{opacity:0.377;fill:#B6B6B6;}
	.st93{opacity:0.3934;fill:#B4B4B4;}
	.st94{opacity:0.4098;fill:#B2B2B2;}
	.st95{opacity:0.4262;fill:#AFAFAF;}
	.st96{opacity:0.4426;fill:#ADADAD;}
	.st97{opacity:0.459;fill:#ABABAB;}
	.st98{opacity:0.4754;fill:#A9A9A9;}
	.st99{opacity:0.4918;fill:#A7A7A7;}
	.st100{opacity:0.5082;fill:#A5A5A5;}
	.st101{opacity:0.5246;fill:#A3A3A3;}
	.st102{opacity:0.541;fill:#A1A1A1;}
	.st103{opacity:0.5574;fill:#9F9F9F;}
	.st104{opacity:0.5738;fill:#9D9D9D;}
	.st105{opacity:0.5902;fill:#9A9A9A;}
	.st106{opacity:0.6066;fill:#989898;}
	.st107{opacity:0.623;fill:#969696;}
	.st108{opacity:0.6393;fill:#949494;}
	.st109{opacity:0.6557;fill:#929292;}
	.st110{opacity:0.6721;fill:#909090;}
	.st111{opacity:0.6885;fill:#8E8E8E;}
	.st112{opacity:0.7049;fill:#8C8C8C;}
	.st113{opacity:0.7213;fill:#8A8A8A;}
	.st114{opacity:0.7377;fill:#888888;}
	.st115{opacity:0.7541;fill:#858585;}
	.st116{opacity:0.7705;fill:#838383;}
	.st117{opacity:0.7869;fill:#818181;}
	.st118{opacity:0.8033;fill:#7F7F7F;}
	.st119{opacity:0.8197;fill:#7D7D7D;}
	.st120{opacity:0.8361;fill:#7B7B7B;}
	.st121{opacity:0.8525;fill:#797979;}
	.st122{opacity:0.8689;fill:#777777;}
	.st123{opacity:0.8852;fill:#757575;}
	.st124{opacity:0.9016;fill:#737373;}
	.st125{opacity:0.918;fill:#707070;}
	.st126{opacity:0.9344;fill:#6E6E6E;}
	.st127{opacity:0.9508;fill:#6C6C6C;}
	.st128{opacity:0.9672;fill:#6A6A6A;}
	.st129{opacity:0.9836;fill:#686868;}
</style>
<g>
	<g id="Camada_1_00000030482448915022303300000008367470260907061639_">
		<path class="st0" d="M-158.8,31.4"/>
		<path class="st1" d="M-124.3,31.7"/>
		<path class="st2" d="M50.9,15.1"/>
		<path class="st3" d="M-5.6,21.8"/>
		<path class="st3" d="M4.7,14.1"/>
		<g>
			<path class="st4" d="M38.7,49.1c-4.1-1.5-4.1-12.1,0.1-23.8s9.3-9.8,11.4-9.1c2.3,0.8,7.7,2.8,3.5,14.5S42.9,50.5,38.7,49.1z"/>
			<path class="st5" d="M38.9,48.7c-4.1-1.5-4-12,0.1-23.5s9.1-9.7,11.3-9c2.1,0.7,7.5,2.7,3.4,14.3S42.9,50.2,38.9,48.7z"/>
			<path class="st6" d="M39,48.3c-4-1.4-3.9-11.8,0.1-23.2s9-9.6,11.1-8.9c2.2,0.7,7.4,2.7,3.3,14.1S43,49.8,39,48.3z"/>
			<path class="st7" d="M39.1,48c-3.9-1.4-3.9-11.6,0.1-22.8s8.9-9.5,11-8.8s7.3,2.7,3.2,13.9S43.1,49.4,39.1,48z"/>
			<path class="st8" d="M39.3,47.6c-3.9-1.4-3.8-11.5,0.2-22.5s8.8-9.4,10.8-8.8c2,0.7,7.2,2.7,3.2,13.8S43.1,49,39.3,47.6z"/>
			<path class="st9" d="M39.4,47.3c-3.8-1.4-3.7-11.3,0.2-22.2s8.6-9.3,10.6-8.6c2,0.7,7,2.7,3.1,13.6S43.2,48.6,39.4,47.3z"/>
			<path class="st10" d="M39.6,46.9c-3.7-1.3-3.7-11.1,0.2-21.8s8.5-9.2,10.5-8.6c2,0.6,6.9,2.7,3.1,13.4S43.3,48.3,39.6,46.9z"/>
			<path class="st11" d="M39.6,46.6c-3.7-1.3-3.6-11,0.2-21.5s8.4-9.1,10.3-8.5c2,0.6,6.8,2.6,3,13.2S43.3,47.9,39.6,46.6z"/>
			<path class="st12" d="M39.8,46.2C36.2,44.9,36.2,35.4,40,25s8.2-9,10.2-8.4s6.7,2.6,2.9,13S43.4,47.5,39.8,46.2z"/>
			<path class="st13" d="M39.9,45.9c-3.5-1.3-3.5-10.6,0.2-20.9s8.1-8.9,10-8.3c1.9,0.6,6.5,2.6,2.9,12.9S43.5,47.1,39.9,45.9z"/>
			<path class="st14" d="M40,45.5c-3.5-1.2-3.4-10.4,0.2-20.5s8-8.8,9.9-8.2s6.4,2.6,2.8,12.7S43.6,46.7,40,45.5z"/>
			<path class="st15" d="M40.2,45.1c-3.4-1.2-3.3-10.3,0.2-20.2s7.9-8.7,9.7-8.1s6.3,2.6,2.7,12.5S43.6,46.4,40.2,45.1z"/>
			<path class="st16" d="M40.3,44.8c-3.4-1.2-3.3-10.1,0.2-19.9s7.7-8.6,9.5-8s6.1,2.6,2.7,12.4S43.7,46,40.3,44.8z"/>
			<path class="st17" d="M40.4,44.4c-3.3-1.2-3.2-9.9,0.2-19.5s7.6-8.5,9.4-7.9s6,2.5,2.6,12.2S43.7,45.6,40.4,44.4z"/>
			<path class="st18" d="M40.6,44.1c-3.2-1.2-3.1-9.8,0.2-19.2s7.5-8.4,9.2-7.8s5.9,2.5,2.5,12S43.8,45.2,40.6,44.1z"/>
			<path class="st19" d="M40.7,43.7c-3.2-1.1-3.1-9.6,0.3-18.9s7.4-8.3,9.1-7.7s5.8,2.5,2.4,11.8S43.9,44.8,40.7,43.7z"/>
			<path class="st20" d="M40.8,43.3c-3.1-1.1-3-9.4,0.3-18.5s7.2-8.2,8.9-7.6s5.6,2.5,2.4,11.6S43.9,44.5,40.8,43.3z"/>
			<path class="st21" d="M41,43c-3-1.1-2.9-9.2,0.3-18.2s7.1-8,8.7-7.5s5.5,2.5,2.3,11.5S44,44.1,41,43z"/>
			<path class="st22" d="M41.1,42.6c-3-1.1-2.8-9.1,0.3-17.9s7-8,8.6-7.4s5.4,2.5,2.2,11.3S44.1,43.7,41.1,42.6z"/>
			<path class="st23" d="M41.2,42.3c-2.9-1-2.8-8.9,0.3-17.6s6.8-7.8,8.4-7.3s5.3,2.5,2.2,11.1S44.1,43.3,41.2,42.3z"/>
			<path class="st24" d="M41.3,41.9c-2.9-1-2.7-8.7,0.3-17.2s6.7-7.7,8.3-7.2S55,19.9,52,28.4S44.2,43,41.3,41.9z"/>
			<path class="st25" d="M41.5,41.6c-2.8-1-2.7-8.6,0.3-16.9s6.6-7.6,8.1-7.1s5,2.4,2,10.8S44.3,42.6,41.5,41.6z"/>
			<path class="st26" d="M41.6,41.2c-2.7-1-2.6-8.4,0.3-16.6s6.5-7.5,8-7s4.9,2.4,2,10.6S44.3,42.2,41.6,41.2z"/>
			<path class="st27" d="M41.7,40.9c-2.7-1-2.5-8.2,0.3-16.2s6.3-7.4,7.8-6.9s4.8,2.4,1.9,10.4S44.4,41.8,41.7,40.9z"/>
			<path class="st28" d="M41.9,40.5c-2.6-0.9-2.5-8.1,0.4-15.9s6.2-7.3,7.6-6.8s4.6,2.4,1.8,10.2S44.5,41.4,41.9,40.5z"/>
			<path class="st29" d="M42,40.1c-2.5-0.9-2.4-7.9,0.4-15.6s6.1-7.2,7.5-6.8s4.5,2.3,1.8,10S44.6,41.1,42,40.1z"/>
			<path class="st30" d="M42.1,39.8c-2.5-0.9-2.3-7.7,0.4-15.2s6-7.1,7.3-6.7s4.4,2.3,1.7,9.9S44.6,40.7,42.1,39.8z"/>
			<path class="st31" d="M42.3,39.4c-2.4-0.9-2.2-7.5,0.4-14.9s5.8-7,7.2-6.6s4.2,2.4,1.6,9.7S44.7,40.3,42.3,39.4z"/>
			<path class="st32" d="M42.4,39.1c-2.4-0.8-2.2-7.4,0.4-14.6s5.7-6.9,7-6.5s4.1,2.3,1.5,9.5S44.7,39.9,42.4,39.1z"/>
			<path class="st33" d="M42.6,38.7c-2.3-0.8-2.1-7.2,0.4-14.2s5.6-6.8,6.8-6.4s4,2.3,1.5,9.3S44.8,39.5,42.6,38.7z"/>
			<path class="st34" d="M42.7,38.4c-2.2-0.8-2-7,0.4-13.9s5.5-6.7,6.7-6.3s3.9,2.3,1.4,9.2S44.9,39.2,42.7,38.4z"/>
			<path class="st35" d="M42.8,38c-2.2-0.8-2-6.9,0.4-13.6s5.3-6.6,6.5-6.2s3.7,2.2,1.3,9S45,38.8,42.8,38z"/>
			<path class="st36" d="M42.9,37.6c-2.1-0.8-1.9-6.7,0.5-13.3s5.2-6.5,6.3-6.1s3.6,2.2,1.3,8.8S45,38.4,42.9,37.6z"/>
			<path class="st37" d="M43,37.3c-2-0.7-1.8-6.5,0.5-12.9s5-6.4,6.2-6s3.5,2.2,1.2,8.6S45.1,38,43,37.3z"/>
			<path class="st38" d="M43.2,36.9c-2-0.7-1.8-6.3,0.5-12.6s4.9-6.3,6-5.9s3.4,2.2,1.1,8.5S45.2,37.6,43.2,36.9z"/>
			<path class="st39" d="M43.3,36.6c-1.9-0.7-1.7-6.2,0.5-12.3s4.8-6.2,5.9-5.8s3.2,2.2,1.1,8.3S45.2,37.3,43.3,36.6z"/>
			<path class="st40" d="M43.4,36.2c-1.8-0.7-1.6-6,0.5-12s4.7-6.1,5.7-5.7s3.1,2.2,1,8.1S45.3,36.9,43.4,36.2z"/>
			<path class="st41" d="M43.6,35.9c-1.8-0.6-1.6-5.8,0.5-11.6s4.5-6,5.6-5.6s3,2.2,0.9,7.9S45.4,36.5,43.6,35.9z"/>
			<path class="st42" d="M43.7,35.5c-1.7-0.6-1.5-5.7,0.5-11.3s4.4-5.8,5.4-5.5s2.8,2.1,0.8,7.8S45.4,36.1,43.7,35.5z"/>
			<path class="st43" d="M43.8,35.2c-1.7-0.6-1.4-5.5,0.5-11s4.3-5.7,5.2-5.4s2.7,2.1,0.8,7.6S45.5,35.7,43.8,35.2z"/>
			<path class="st44" d="M44,34.8c-1.6-0.6-1.4-5.3,0.5-10.6s4.2-5.6,5.1-5.3s2.6,2.1,0.7,7.4S45.6,35.4,44,34.8z"/>
			<path class="st45" d="M44.1,34.4c-1.5-0.5-1.3-5.2,0.5-10.3s4-5.5,4.9-5.2s2.5,2.1,0.6,7.2S45.6,35,44.1,34.4z"/>
			<path class="st46" d="M44.2,34.1c-1.5-0.5-1.2-5,0.5-10s3.9-5.4,4.8-5.1s2.3,2.1,0.6,7S45.7,34.6,44.2,34.1z"/>
			<path class="st47" d="M44.4,33.7c-1.4-0.5-1.2-4.8,0.6-9.6s3.8-5.3,4.6-5s2.2,2,0.5,6.9S45.8,34.2,44.4,33.7z"/>
			<path class="st48" d="M44.5,33.4c-1.3-0.5-1.1-4.6,0.6-9.3s3.7-5.2,4.5-5s2.1,2,0.4,6.7S45.8,33.9,44.5,33.4z"/>
			<path class="st49" d="M44.6,33c-1.3-0.5-1-4.5,0.6-9s3.5-5.1,4.3-4.8s2,2,0.4,6.5S45.9,33.5,44.6,33z"/>
			<path class="st50" d="M44.7,32.7c-1.2-0.4-1-4.3,0.6-8.6s3.4-5,4.1-4.8s1.8,2,0.3,6.3S46,33.1,44.7,32.7z"/>
			<path class="st51" d="M44.9,32.3c-1.2-0.4-0.9-4.1,0.6-8.3s3.3-4.9,4-4.7s1.7,2,0.2,6.2S46,32.7,44.9,32.3z"/>
			<path class="st52" d="M45,31.9c-1.1-0.4-0.8-4,0.6-8s3.2-4.8,3.8-4.6s1.6,2,0.2,6S46.1,32.3,45,31.9z"/>
			<path class="st53" d="M45.1,31.6c-1-0.4-0.8-3.8,0.6-7.7s3-4.7,3.7-4.5s1.5,2,0.1,5.8S46.2,32,45.1,31.6z"/>
			<path class="st54" d="M45.3,31.2c-1-0.3-0.7-3.6,0.6-7.3s2.9-4.6,3.5-4.4s1.3,1.9,0,5.6S46.2,31.6,45.3,31.2z"/>
			<path class="st55" d="M45.4,30.9c-0.9-0.3-0.6-3.5,0.7-7s2.8-4.5,3.3-4.3s1.2,1.9,0,5.5S46.3,31.2,45.4,30.9z"/>
			<path class="st56" d="M45.6,30.5c-0.8-0.3-0.5-3.3,0.7-6.7s2.6-4.4,3.2-4.2s1.1,1.9-0.1,5.3S46.4,30.8,45.6,30.5z"/>
			<path class="st57" d="M45.7,30.2c-0.8-0.3-0.5-3.1,0.7-6.3s2.5-4.3,3-4.1s1,1.9-0.2,5.1S46.4,30.4,45.7,30.2z"/>
			<path class="st58" d="M45.8,29.8c-0.7-0.3-0.4-3,0.7-6s2.4-4.2,2.9-4s0.8,1.9-0.3,4.9S46.6,30.1,45.8,29.8z"/>
			<path class="st59" d="M45.9,29.4c-0.7-0.2-0.3-2.8,0.7-5.7s2.2-4.1,2.7-3.9s0.7,1.8-0.3,4.8S46.6,29.7,45.9,29.4z"/>
			<path class="st60" d="M46.1,29.1c-0.6-0.2-0.3-2.6,0.7-5.3s2.1-4,2.6-3.8s0.6,1.8-0.4,4.6S46.6,29.3,46.1,29.1z"/>
			<path class="st61" d="M46.2,28.7c-0.5-0.2-0.2-2.4,0.7-5s2-3.8,2.4-3.7s0.5,1.8-0.5,4.4S46.7,28.9,46.2,28.7z"/>
			<path class="st62" d="M46.3,28.4c-0.5-0.2-0.2-2.3,0.7-4.7s1.9-3.8,2.2-3.6s0.3,1.8-0.5,4.2S46.8,28.5,46.3,28.4z"/>
			<path class="st63" d="M46.4,28c-0.4-0.1-0.1-2.1,0.7-4.3s1.7-3.6,2.1-3.5s0.2,1.8-0.6,4S46.8,28.2,46.4,28z"/>
			<path class="st64" d="M46.6,27.7c-0.3-0.1,0-1.9,0.7-4s1.6-3.5,1.9-3.4s0.1,1.8-0.7,3.9S46.9,27.8,46.6,27.7z"/>
			<path class="st65" d="M46.7,27.3c-0.3-0.1,0.1-1.8,0.8-3.7s1.5-3.4,1.8-3.3S49.2,22,48.5,24S47,27.4,46.7,27.3z"/>
		</g>
		<path class="st66" d="M49.5,27.2"/>
		<path class="st66" d="M49.5,27.2L49.5,27.2"/>
		<path class="st3" d="M53.2,14.5c-0.3-1.2-0.6-2.3-0.9-3.5c-0.6-2.2-1.1-4.5-1.7-6.7c0-0.1-0.1-0.7-0.2-0.8c-0.6,1.8-1.1,4-1.7,5.8
			c-0.6,2-1.3,4-1.9,5.9l0,0c-0.5,0.3-1,0.5-1.5,0.6s-1.1,0-1.5-0.3L43.4,15c-0.1-0.1-0.2-0.2-0.3-0.2c-0.1-0.1-0.2-0.1-0.3-0.2
			c-0.2-0.1-0.5-0.2-0.7-0.3c-1.1-0.4-2.3-0.5-3.4-0.3c-2.1,0.3-4.7,1.2-5.7,3.2c-0.4,0.7-1,1.5-0.9,2.4c0.3,0.8,0.9,1.6,1.1,2.5
			c3.2,1.4,6.5,2.6,9.9,3.6l-1.9,5.7l0,0c0.2,1.8,0.2,2.8,0.7,4.6l2.1,7.2l1.9-5.3c0.7-1.9,1.3-3.9,1.9-5.8c0-0.1,0-0.2,0-0.3
			c-0.1-0.3-0.2-0.7-0.3-1c-0.3-1.2-0.6-2.4-0.9-3.5c0,0,1.4,0.7,1.9,0.6c0.3-0.1,0.7-0.2,1-0.4l0,0c0.1-0.1,0.2-0.1,0.2-0.2l0,0
			c0.6-1.8,1.2-3.5,1.7-5.3c0.6-2,1.3-4,1.9-5.9C53.5,15.3,53.6,15.9,53.2,14.5z"/>
		<path class="st3" d="M9.9,14.1C9,14.6,7.7,15.4,7,14.7c0.4,1.8,2.6,9.5,3.1,11.6v0.1c0,0.1,0.4,0.3,0.5,0.4
			c0.2,0.1,0.4,0.2,0.7,0.3c0.4,0.1,0.9,0.1,1.3-0.1c0.1,0,0.4-0.1,0.4-0.2c0.2-0.1,0.5-0.2,0.7-0.3l0,0l0,0c1.5-0.8,3.3-1.2,5-1
			c1.5,0.2,3.3,0.9,3.8,2.5c-0.5-1.8-0.9-3.6-1.4-5.3l-1.5-6.3c0-0.1-0.1-0.3-0.1-0.4l0,0c-0.5-1-1.4-1.8-2.5-2.1
			c-1.2-0.4-2.8-1.1-3.6-0.3L9.9,14.1z"/>
		<path class="st2" d="M50.4,3.5H10.6l0,0c-0.2,0.7-2.3,7.1-3.1,9.6c0,0.1-0.2,0.7-0.5,1.6c0,0.1,0.3,0.3,0.4,0.4
			c0.2,0.1,0.5,0.2,0.7,0.3c0.6,0.2,1.1,0.1,1.6-0.2c0.2-0.1,0.5-0.3,0.7-0.4c0.5-0.3,1-0.5,1.5-0.6c1.2-0.4,2.5-0.5,3.7-0.4
			c1.6,0.2,3.6,1.2,3.7,3.1s-1.7,3.3-3.2,4.1c-2,1-4.3,1.2-6.4,0.4c-0.4-0.1-0.8-0.4-1.1-0.6c-0.2-0.2-0.4-0.4-0.6-0.6
			c-0.4-0.3-1-0.2-1.5-0.1c-0.2,0-0.5,0.1-0.7,0.2c-0.1,0-0.3,0.2-0.4,0.2c-0.1,0-0.3,0.1-0.3,0.2c-0.7,2.2-1.3,4.1-1.5,4.5
			c-0.7,2.2-2.3,6.7-2.3,6.7l40,0c0.1-0.2,2.9-8.5,3.5-10.5c0-0.1-0.4-0.3-0.4-0.3c-0.2-0.1-0.5-0.2-0.7-0.3
			c-0.6-0.1-1.1-0.1-1.7,0.2c-0.2,0.1-0.5,0.3-0.7,0.4c-0.5,0.3-1,0.5-1.5,0.6c-1.2,0.4-2.5,0.5-3.7,0.4c-1.6-0.2-3.6-1.2-3.7-3.1
			s1.7-3.3,3.2-4.1c2-1,4.3-1.2,6.4-0.4c0.4,0.2,0.8,0.4,1.1,0.7c0.2,0.2,0.4,0.4,0.6,0.6c0.5,0.2,1,0.2,1.5,0.1
			c0.2-0.1,0.5-0.1,0.7-0.2c0.1-0.1,0.3-0.1,0.4-0.2c0.1-0.1,0.3-0.1,0.4-0.2C47.1,14.3,49.5,7.7,50.4,3.5z"/>
		<path class="st2" d="M34.9,32.3"/>
		<path class="st67" d="M1.3,31.9c0.5,1.8,3.2,11.3,3.2,11.3H44c-0.5-1.8-0.7-3-1.2-4.8c-0.6-2.2-1.5-6.5-1.5-6.5
			C41.4,31.9,2.6,31.9,1.3,31.9z"/>
	</g>
</g>
<path class="st2" d="M-68.1,15.2"/>
<path class="st3" d="M-123.7-1.4"/>
<g>
	<path class="st66" d="M-69.5,27.3C-69.5,27.3-69.5,27.3-69.5,27.3C-69.5,27.2-69.4,27.2-69.5,27.3z"/>
	<line class="st68" x1="-69.5" y1="27.3" x2="-69.5" y2="27.3"/>
</g>
<g>
	<path class="st3" d="M-108.8,14.3"/>
	<g>
		<g>
			<path class="st69" d="M-74.7,49.2c-4.1-1.5-4.1-12.1,0.1-23.8c4.2-11.7,9.3-9.8,11.4-9.1c2.3,0.8,7.7,2.8,3.5,14.5
				C-63.9,42.4-70.6,50.7-74.7,49.2z"/>
			<path class="st70" d="M-74.6,48.9c-4.1-1.4-4-12,0.1-23.5c4.1-11.5,9.1-9.7,11.3-9c2.3,0.8,7.5,2.7,3.4,14.3
				C-63.9,42.1-70.6,50.3-74.6,48.9z"/>
			<path class="st71" d="M-74.5,48.5c-4-1.4-3.9-11.8,0.1-23.2c4.1-11.4,9-9.6,11.1-8.9c2.2,0.7,7.4,2.7,3.3,14.1
				C-64,41.9-70.5,49.9-74.5,48.5z"/>
			<path class="st72" d="M-74.4,48.2c-3.9-1.4-3.9-11.6,0.1-22.8c4-11.2,8.9-9.5,11-8.8c2.2,0.7,7.3,2.7,3.3,13.9
				C-64,41.6-70.4,49.6-74.4,48.2z"/>
			<path class="st73" d="M-74.2,47.8c-3.9-1.4-3.8-11.5,0.2-22.5c4-11.1,8.8-9.4,10.8-8.7c2.2,0.7,7.2,2.7,3.2,13.8
				C-64,41.3-70.4,49.2-74.2,47.8z"/>
			<path class="st74" d="M-74.1,47.4c-3.8-1.4-3.7-11.3,0.2-22.2c3.9-10.9,8.6-9.3,10.6-8.7c2.1,0.7,7,2.7,3.1,13.6
				C-64.1,41.1-70.3,48.8-74.1,47.4z"/>
			<path class="st75" d="M-74,47.1c-3.7-1.3-3.7-11.1,0.2-21.9c3.8-10.7,8.5-9.2,10.5-8.6c2.1,0.7,6.9,2.7,3.1,13.4
				C-64.1,40.8-70.2,48.4-74,47.1z"/>
			<path class="st76" d="M-73.8,46.7c-3.7-1.3-3.6-11,0.2-21.5c3.8-10.6,8.4-9.1,10.3-8.5c2.1,0.7,6.8,2.6,3,13.2
				C-64.1,40.5-70.2,48-73.8,46.7z"/>
			<path class="st77" d="M-73.7,46.4c-3.6-1.3-3.5-10.8,0.2-21.2c3.7-10.4,8.3-9,10.2-8.4c2,0.7,6.6,2.6,2.9,13
				C-64.1,40.3-70.1,47.7-73.7,46.4z"/>
			<path class="st78" d="M-73.6,46c-3.6-1.3-3.5-10.6,0.2-20.9c3.7-10.3,8.1-8.9,10-8.3c2,0.7,6.5,2.6,2.9,12.9
				C-64.2,40-70,47.3-73.6,46z"/>
			<path class="st79" d="M-73.4,45.7c-3.5-1.2-3.4-10.4,0.2-20.5c3.6-10.1,8-8.8,9.8-8.2c2,0.7,6.4,2.6,2.8,12.7
				C-64.2,39.7-70,46.9-73.4,45.7z"/>
			<path class="st80" d="M-73.3,45.3c-3.4-1.2-3.3-10.3,0.2-20.2c3.6-9.9,7.9-8.7,9.7-8.1c1.9,0.6,6.3,2.6,2.7,12.5
				C-64.2,39.5-69.9,46.5-73.3,45.3z"/>
			<path class="st81" d="M-73.2,44.9c-3.4-1.2-3.3-10.1,0.2-19.9c3.5-9.8,7.7-8.6,9.5-8c1.9,0.6,6.1,2.6,2.7,12.3
				C-64.3,39.2-69.8,46.1-73.2,44.9z"/>
			<path class="st82" d="M-73,44.6c-3.3-1.2-3.2-9.9,0.2-19.5c3.4-9.6,7.6-8.5,9.4-7.9c1.9,0.6,6,2.5,2.6,12.2
				C-64.3,38.9-69.7,45.8-73,44.6z"/>
			<path class="st83" d="M-72.9,44.2c-3.2-1.2-3.1-9.8,0.3-19.2c3.4-9.5,7.5-8.4,9.2-7.8c1.8,0.6,5.9,2.5,2.5,12
				C-64.3,38.7-69.7,45.4-72.9,44.2z"/>
			<path class="st84" d="M-72.8,43.9c-3.2-1.1-3.1-9.6,0.3-18.9c3.3-9.3,7.4-8.3,9.1-7.7c1.8,0.6,5.8,2.5,2.4,11.8
				C-64.3,38.4-69.6,45-72.8,43.9z"/>
			<path class="st85" d="M-72.7,43.5c-3.1-1.1-3-9.4,0.3-18.6c3.3-9.1,7.2-8.2,8.9-7.6c1.8,0.6,5.6,2.5,2.4,11.6
				C-64.4,38.1-69.5,44.6-72.7,43.5z"/>
			<path class="st86" d="M-72.5,43.2c-3-1.1-2.9-9.2,0.3-18.2c3.2-9,7.1-8.1,8.7-7.5c1.7,0.6,5.5,2.5,2.3,11.5
				C-64.4,37.9-69.5,44.3-72.5,43.2z"/>
			<path class="st87" d="M-72.4,42.8c-3-1.1-2.9-9.1,0.3-17.9c3.2-8.8,7-7.9,8.6-7.4c1.7,0.6,5.4,2.5,2.2,11.3
				C-64.4,37.6-69.4,43.9-72.4,42.8z"/>
			<path class="st88" d="M-72.3,42.4c-2.9-1-2.8-8.9,0.3-17.6c3.1-8.7,6.8-7.8,8.4-7.3c1.7,0.6,5.3,2.4,2.2,11.1
				C-64.5,37.3-69.3,43.5-72.3,42.4z"/>
			<path class="st89" d="M-72.1,42.1c-2.9-1-2.7-8.7,0.3-17.2c3-8.5,6.7-7.7,8.3-7.2c1.6,0.5,5.1,2.4,2.1,10.9
				C-64.5,37.1-69.3,43.1-72.1,42.1z"/>
			<path class="st90" d="M-72,41.7c-2.8-1-2.6-8.6,0.3-16.9c3-8.3,6.6-7.6,8.1-7.1c1.6,0.5,5,2.4,2,10.7
				C-64.5,36.8-69.2,42.7-72,41.7z"/>
			<path class="st91" d="M-71.9,41.4c-2.7-1-2.6-8.4,0.3-16.6c2.9-8.2,6.5-7.5,7.9-7c1.6,0.5,4.9,2.4,2,10.6
				C-64.6,36.5-69.1,42.4-71.9,41.4z"/>
			<path class="st92" d="M-71.7,41c-2.7-1-2.5-8.2,0.4-16.2c2.9-8,6.3-7.4,7.8-6.9c1.5,0.5,4.8,2.4,1.9,10.4
				C-64.6,36.3-69.1,42-71.7,41z"/>
			<path class="st93" d="M-71.6,40.7c-2.6-0.9-2.4-8.1,0.4-15.9c2.8-7.9,6.2-7.3,7.6-6.8c1.5,0.5,4.6,2.4,1.8,10.2
				C-64.6,36-69,41.6-71.6,40.7z"/>
			<path class="st94" d="M-71.5,40.3c-2.5-0.9-2.4-7.9,0.4-15.6c2.8-7.7,6.1-7.2,7.5-6.8c1.5,0.5,4.5,2.3,1.7,10
				C-64.6,35.7-68.9,41.2-71.5,40.3z"/>
			<path class="st95" d="M-71.3,40c-2.5-0.9-2.3-7.7,0.4-15.2c2.7-7.5,6-7.1,7.3-6.7c1.4,0.5,4.4,2.3,1.7,9.9
				C-64.7,35.4-68.9,40.8-71.3,40z"/>
			<path class="st96" d="M-71.2,39.6c-2.4-0.9-2.2-7.5,0.4-14.9c2.6-7.4,5.8-7,7.2-6.6c1.4,0.5,4.2,2.3,1.6,9.7
				C-64.7,35.2-68.8,40.5-71.2,39.6z"/>
			<path class="st97" d="M-71.1,39.2c-2.4-0.8-2.2-7.4,0.4-14.6c2.6-7.2,5.7-6.9,7-6.5c1.4,0.5,4.1,2.3,1.5,9.5
				C-64.7,34.9-68.7,40.1-71.1,39.2z"/>
			<path class="st98" d="M-71,38.9c-2.3-0.8-2.1-7.2,0.4-14.3c2.5-7.1,5.6-6.8,6.8-6.4c1.3,0.4,4,2.3,1.5,9.3
				C-64.8,34.6-68.7,39.7-71,38.9z"/>
			<path class="st99" d="M-70.8,38.5c-2.2-0.8-2-7,0.4-13.9c2.5-6.9,5.4-6.7,6.7-6.3c1.3,0.4,3.9,2.3,1.4,9.2
				C-64.8,34.4-68.6,39.3-70.8,38.5z"/>
			<path class="st100" d="M-70.7,38.2c-2.2-0.8-2-6.9,0.4-13.6c2.4-6.7,5.3-6.6,6.5-6.2c1.3,0.4,3.7,2.2,1.3,9
				C-64.8,34.1-68.5,38.9-70.7,38.2z"/>
			<path class="st101" d="M-70.6,37.8c-2.1-0.8-1.9-6.7,0.4-13.3c2.4-6.6,5.2-6.5,6.4-6.1c1.2,0.4,3.6,2.2,1.3,8.8
				C-64.9,33.8-68.5,38.6-70.6,37.8z"/>
			<path class="st102" d="M-70.4,37.5c-2-0.7-1.8-6.5,0.5-12.9c2.3-6.4,5.1-6.4,6.2-6c1.2,0.4,3.5,2.2,1.2,8.6
				C-64.9,33.6-68.4,38.2-70.4,37.5z"/>
			<path class="st103" d="M-70.3,37.1c-2-0.7-1.8-6.4,0.5-12.6c2.2-6.3,4.9-6.3,6-5.9c1.2,0.4,3.4,2.2,1.1,8.5
				C-64.9,33.3-68.3,37.8-70.3,37.1z"/>
			<path class="st104" d="M-70.2,36.7c-1.9-0.7-1.7-6.2,0.5-12.3c2.2-6.1,4.8-6.2,5.9-5.8c1.1,0.4,3.2,2.2,1.1,8.3
				C-64.9,33-68.3,37.4-70.2,36.7z"/>
			<path class="st105" d="M-70,36.4c-1.9-0.7-1.6-6,0.5-11.9c2.1-5.9,4.7-6.1,5.7-5.7c1.1,0.4,3.1,2.2,1,8.1
				C-65,32.8-68.2,37-70,36.4z"/>
			<path class="st106" d="M-69.9,36c-1.8-0.6-1.6-5.8,0.5-11.6c2.1-5.8,4.5-6,5.6-5.6c1.1,0.4,3,2.1,0.9,7.9
				C-65,32.5-68.1,36.7-69.9,36z"/>
			<path class="st107" d="M-69.8,35.7c-1.7-0.6-1.5-5.7,0.5-11.3c2-5.6,4.4-5.8,5.4-5.5c1,0.4,2.9,2.1,0.8,7.7
				C-65,32.2-68.1,36.3-69.8,35.7z"/>
			<path class="st108" d="M-69.7,35.3c-1.7-0.6-1.4-5.5,0.5-11c2-5.5,4.3-5.7,5.2-5.4c1,0.3,2.7,2.1,0.8,7.6
				C-65.1,32-68,35.9-69.7,35.3z"/>
			<path class="st109" d="M-69.5,35c-1.6-0.6-1.4-5.3,0.5-10.6c1.9-5.3,4.2-5.6,5.1-5.3c1,0.3,2.6,2.1,0.7,7.4
				C-65.1,31.7-67.9,35.5-69.5,35z"/>
			<path class="st110" d="M-69.4,34.6c-1.5-0.5-1.3-5.2,0.5-10.3c1.8-5.1,4-5.5,4.9-5.2c0.9,0.3,2.5,2.1,0.6,7.2
				C-65.1,31.4-67.9,35.2-69.4,34.6z"/>
			<path class="st111" d="M-69.3,34.2c-1.5-0.5-1.2-5,0.5-10c1.8-5,3.9-5.4,4.8-5.1c0.9,0.3,2.3,2.1,0.6,7
				C-65.1,31.2-67.8,34.8-69.3,34.2z"/>
			<path class="st112" d="M-69.1,33.9c-1.4-0.5-1.2-4.8,0.6-9.6c1.7-4.8,3.8-5.3,4.6-5c0.9,0.3,2.2,2.1,0.5,6.9
				C-65.2,30.9-67.7,34.4-69.1,33.9z"/>
			<path class="st113" d="M-69,33.5c-1.3-0.5-1.1-4.6,0.6-9.3c1.7-4.7,3.7-5.2,4.5-4.9c0.8,0.3,2.1,2,0.4,6.7
				C-65.2,30.6-67.6,34-69,33.5z"/>
			<path class="st114" d="M-68.9,33.2c-1.3-0.5-1-4.5,0.6-9c1.6-4.5,3.5-5.1,4.3-4.8c0.8,0.3,2,2,0.4,6.5
				C-65.2,30.4-67.6,33.6-68.9,33.2z"/>
			<path class="st115" d="M-68.7,32.8c-1.2-0.4-1-4.3,0.6-8.6c1.6-4.3,3.4-5,4.1-4.8c0.8,0.3,1.8,2,0.3,6.3
				C-65.3,30.1-67.5,33.3-68.7,32.8z"/>
			<path class="st116" d="M-68.6,32.5c-1.2-0.4-0.9-4.1,0.6-8.3c1.5-4.2,3.3-4.9,4-4.7c0.7,0.3,1.7,2,0.2,6.2
				C-65.3,29.8-67.4,32.9-68.6,32.5z"/>
			<path class="st117" d="M-68.5,32.1c-1.1-0.4-0.8-4,0.6-8c1.4-4,3.1-4.8,3.8-4.6c0.7,0.2,1.6,2,0.2,6
				C-65.3,29.6-67.4,32.5-68.5,32.1z"/>
			<path class="st118" d="M-68.3,31.7c-1-0.4-0.8-3.8,0.6-7.7c1.4-3.9,3-4.7,3.7-4.5c0.7,0.2,1.5,2,0.1,5.8
				C-65.4,29.3-67.3,32.1-68.3,31.7z"/>
			<path class="st119" d="M-68.2,31.4c-1-0.3-0.7-3.6,0.6-7.3c1.3-3.7,2.9-4.6,3.5-4.4c0.6,0.2,1.3,1.9,0,5.6
				C-65.4,29-67.2,31.7-68.2,31.4z"/>
			<path class="st120" d="M-68.1,31c-0.9-0.3-0.6-3.5,0.6-7c1.3-3.5,2.8-4.5,3.3-4.3c0.6,0.2,1.2,1.9-0.1,5.5
				C-65.4,28.8-67.2,31.4-68.1,31z"/>
			<path class="st121" d="M-68,30.7c-0.8-0.3-0.6-3.3,0.7-6.7c1.2-3.4,2.6-4.4,3.2-4.2c0.6,0.2,1.1,1.9-0.1,5.3
				C-65.4,28.5-67.1,31-68,30.7z"/>
			<path class="st122" d="M-67.8,30.3c-0.8-0.3-0.5-3.1,0.7-6.3c1.2-3.2,2.5-4.3,3-4.1c0.5,0.2,1,1.9-0.2,5.1
				C-65.5,28.2-67,30.6-67.8,30.3z"/>
			<path class="st123" d="M-67.7,30c-0.7-0.3-0.4-2.9,0.7-6c1.1-3.1,2.4-4.2,2.9-4c0.5,0.2,0.8,1.9-0.3,4.9
				C-65.5,27.9-67,30.2-67.7,30z"/>
			<path class="st124" d="M-67.6,29.6c-0.7-0.2-0.3-2.8,0.7-5.7c1-2.9,2.2-4.1,2.7-3.9c0.5,0.2,0.7,1.9-0.3,4.7
				C-65.5,27.7-66.9,29.8-67.6,29.6z"/>
			<path class="st125" d="M-67.4,29.2c-0.6-0.2-0.3-2.6,0.7-5.3c1-2.7,2.1-4,2.6-3.8c0.4,0.2,0.6,1.8-0.4,4.6
				C-65.6,27.4-66.8,29.5-67.4,29.2z"/>
			<path class="st126" d="M-67.3,28.9c-0.5-0.2-0.2-2.4,0.7-5c0.9-2.6,2-3.8,2.4-3.7c0.4,0.1,0.4,1.8-0.5,4.4
				C-65.6,27.1-66.8,29.1-67.3,28.9z"/>
			<path class="st127" d="M-67.2,28.5c-0.5-0.2-0.1-2.3,0.7-4.7c0.9-2.4,1.9-3.7,2.2-3.6c0.4,0.1,0.3,1.8-0.5,4.2
				C-65.6,26.9-66.7,28.7-67.2,28.5z"/>
			<path class="st128" d="M-67,28.2c-0.4-0.1-0.1-2.1,0.7-4.4c0.8-2.3,1.7-3.6,2.1-3.5c0.3,0.1,0.2,1.8-0.6,4
				C-65.6,26.6-66.6,28.3-67,28.2z"/>
			<path class="st129" d="M-66.9,27.8c-0.3-0.1,0-1.9,0.7-4c0.8-2.1,1.6-3.5,1.9-3.4c0.3,0.1,0.1,1.8-0.7,3.9
				C-65.7,26.3-66.6,27.9-66.9,27.8z"/>
			<path class="st65" d="M-66.8,27.5c-0.3-0.1,0.1-1.8,0.7-3.7c0.7-1.9,1.5-3.4,1.8-3.3c0.3,0.1-0.1,1.8-0.7,3.7
				C-65.7,26.1-66.5,27.6-66.8,27.5z"/>
		</g>
	</g>
	<path class="st3" d="M-60.1,15.7c-0.1-0.3-0.2-0.6-0.2-1c-0.3-1.2-0.6-2.3-0.9-3.5c-0.6-2.3-1.1-4.5-1.7-6.8c0-0.1-0.1-0.7-0.2-0.8
		c-0.6,1.8-1.1,4-1.7,5.8c-0.6,2-1.3,4-1.9,5.9c0,0,0,0,0,0c-0.5,0.3-1,0.5-1.5,0.6c-0.5,0.1-1.2,0.1-1.5-0.3
		c-0.1-0.1-0.4-0.4-0.4-0.4c-0.1-0.1-0.2-0.2-0.3-0.2c-0.1-0.1-0.2-0.1-0.3-0.2c-0.2-0.1-0.5-0.2-0.7-0.3c-1.1-0.4-2.3-0.4-3.4-0.3
		c-2.1,0.3-4.7,1.2-5.7,3.2c-0.3,0.7-0.6,1.6-0.4,2.4c0.1,0.2,0.1,0.1,0.7,2.5c0,0.2,7.1,2.9,9.9,3.6c-0.6,1.9-1.2,3.8-1.9,5.7
		c0,0,0,0,0,0c0.5,1.8,0.9,3.6,1.4,5.4c0.5,2.1,1.1,4.2,1.6,6.3c0,0,0,0.1,0,0.1c0.6-1.8,1.2-3.6,1.7-5.3c0.6-1.9,1.3-3.9,1.9-5.8
		c0-0.1,0-0.2-0.1-0.3c-0.1-0.3-0.2-0.7-0.3-1c-0.3-1.2-0.6-2.4-0.9-3.5c0.1,0,0.1,0.1,0.2,0.1c0,0,0,0,0-0.1c0,0.1,0.1,0.1,0.1,0.2
		c0.5,0.3,1.1,0.3,1.6,0.1c0.4-0.1,0.7-0.2,1-0.4c0.1,0,0,0,0,0c0.1-0.1,0.2-0.1,0.3-0.2c0,0,0,0,0,0c0.6-1.8,1.2-3.5,1.7-5.3
		c0.6-2,1.3-4,1.9-5.9C-60,15.9-60.1,15.8-60.1,15.7z"/>
	<path class="st3" d="M-103.5,14.9c-0.9,0.5-2.3,0.7-3,0c0.5,1.8,2.7,9.5,3.2,11.6c0,0,0,0.1,0,0.1c0,0.1,0.4,0.3,0.5,0.4
		c0.2,0.1,0.5,0.2,0.7,0.3c0.4,0.1,0.9,0.1,1.3-0.1c0.1,0,0.4-0.1,0.4-0.2c0,0,0.5-0.2,0.7-0.3c0,0,0,0,0,0c0,0,0,0,0,0
		c1.5-0.8,3.3-1.2,5-1c1.5,0.2,3.3,0.9,3.7,2.6c-0.5-1.8-0.9-3.6-1.4-5.4c-0.5-2.1-1.1-4.2-1.6-6.3c0-0.1-0.1-0.3-0.1-0.4
		c0,0,0,0.1,0,0c-0.4-1.1-1.5-1.8-2.5-2.1c-1.1-0.3-2.5-0.5-3.6-0.3"/>
	<path class="st2" d="M-63.1,3.6c0,0-39.7,0-39.7,0c0,0-0.1,0-0.1,0c0,0,0,0,0,0c-0.2,0.7-2.3,7.1-3.1,9.6c0,0.1-0.2,0.7-0.5,1.6
		c0,0.1,0.4,0.3,0.4,0.3c0.2,0.1,0.5,0.2,0.7,0.3c0.5,0.1,1.2,0.1,1.7-0.2c0.2-0.1,0.5-0.3,0.7-0.4c0.5-0.3,1-0.5,1.5-0.6
		c1.2-0.4,2.5-0.5,3.7-0.4c1.6,0.2,3.6,1.2,3.7,3.1c0.1,1.9-1.7,3.3-3.2,4.1c-1.9,0.9-4.4,1.3-6.4,0.4c-0.4-0.2-0.8-0.4-1.1-0.7
		c-0.2-0.2-0.4-0.5-0.6-0.6c-0.4-0.2-1-0.2-1.5-0.1c-0.2,0-0.5,0.1-0.7,0.2c-0.1,0.1-0.3,0.1-0.4,0.2c0,0-0.3,0.1-0.3,0.2
		c-0.7,2.2-1.3,4.1-1.5,4.5c-0.7,2.2-2.2,6.9-2.3,6.9c15.7,0,19.6,0,40,0c0.1-0.2,2.9-8.7,3.5-10.7c0-0.1-0.4-0.3-0.4-0.3
		c-0.2-0.1-0.5-0.2-0.7-0.3c-0.5-0.1-1.2-0.1-1.7,0.2c-0.2,0.1-0.5,0.3-0.7,0.4c-0.5,0.3-1,0.5-1.5,0.6c-1.2,0.4-2.5,0.5-3.7,0.4
		c-1.6-0.2-3.6-1.2-3.7-3.1c-0.1-1.9,1.7-3.3,3.2-4.1c1.9-0.9,4.4-1.3,6.4-0.4c0.4,0.2,0.8,0.4,1.1,0.7c0.2,0.2,0.4,0.5,0.6,0.6
		c0.4,0.2,1,0.2,1.5,0.1c0.2,0,0.5-0.1,0.7-0.2c0.1-0.1,0.3-0.1,0.4-0.2c0,0,0.4-0.2,0.4-0.2C-66.4,14.5-64,7.8-63.1,3.6z"/>
	<path class="st2" d="M-78.6,32.5"/>
	<path class="st67" d="M-72.2,32c-0.2,0-38.7,0-40,0c0.5,1.8,3.2,11.3,3.2,11.3c0.2,0,38.2,0,39.6,0c-0.5-1.8-0.7-3-1.2-4.8
		c-0.6-2.2-1.9-7.9-1.6-6.4C-72.2,32.3-72.2,32-72.2,32z"/>
</g>
</svg>
