<?xml version="1.0" encoding="utf-8"?>
<!-- Generator: Adobe Illustrator 25.4.1, SVG Export Plug-In . SVG Version: 6.00 Build 0)  -->
<svg version="1.1" id="Camada_1" xmlns="http://www.w3.org/2000/svg" xmlns:xlink="http://www.w3.org/1999/xlink" x="0px" y="0px"
	 viewBox="0 0 76.5 82.7" style="enable-background:new 0 0 76.5 82.7;" xml:space="preserve">
<style type="text/css">
	.st0{fill:#FCD500;}
	.st1{fill:#E8C500;}
	.st2{fill:#E72371;}
	.st3{fill:#691033;}
	.st4{fill:none;}
	.st5{fill:none;stroke:#691033;stroke-width:0;stroke-linecap:round;stroke-linejoin:round;}
	.st6{fill:#4D6B28;}
	.st7{fill:#A8EB57;}
	.st8{opacity:0;fill:#E6E6E6;}
	.st9{opacity:1.639344e-02;fill:#E4E4E4;}
	.st10{opacity:3.278688e-02;fill:#E2E2E2;}
	.st11{opacity:4.918033e-02;fill:#E0E0E0;}
	.st12{opacity:6.557377e-02;fill:#DEDEDE;}
	.st13{opacity:8.196721e-02;fill:#DCDCDC;}
	.st14{opacity:9.836066e-02;fill:#D9D9D9;}
	.st15{opacity:0.1148;fill:#D7D7D7;}
	.st16{opacity:0.1311;fill:#D5D5D5;}
	.st17{opacity:0.1475;fill:#D3D3D3;}
	.st18{opacity:0.1639;fill:#D1D1D1;}
	.st19{opacity:0.1803;fill:#CFCFCF;}
	.st20{opacity:0.1967;fill:#CDCDCD;}
	.st21{opacity:0.2131;fill:#CBCBCB;}
	.st22{opacity:0.2295;fill:#C9C9C9;}
	.st23{opacity:0.2459;fill:#C7C7C7;}
	.st24{opacity:0.2623;fill:#C4C4C4;}
	.st25{opacity:0.2787;fill:#C2C2C2;}
	.st26{opacity:0.2951;fill:#C0C0C0;}
	.st27{opacity:0.3115;fill:#BEBEBE;}
	.st28{opacity:0.3279;fill:#BCBCBC;}
	.st29{opacity:0.3443;fill:#BABABA;}
	.st30{opacity:0.3607;fill:#B8B8B8;}
	.st31{opacity:0.377;fill:#B6B6B6;}
	.st32{opacity:0.3934;fill:#B4B4B4;}
	.st33{opacity:0.4098;fill:#B2B2B2;}
	.st34{opacity:0.4262;fill:#AFAFAF;}
	.st35{opacity:0.4426;fill:#ADADAD;}
	.st36{opacity:0.459;fill:#ABABAB;}
	.st37{opacity:0.4754;fill:#A9A9A9;}
	.st38{opacity:0.4918;fill:#A7A7A7;}
	.st39{opacity:0.5082;fill:#A5A5A5;}
	.st40{opacity:0.5246;fill:#A3A3A3;}
	.st41{opacity:0.541;fill:#A1A1A1;}
	.st42{opacity:0.5574;fill:#9F9F9F;}
	.st43{opacity:0.5738;fill:#9D9D9D;}
	.st44{opacity:0.5902;fill:#9A9A9A;}
	.st45{opacity:0.6066;fill:#989898;}
	.st46{opacity:0.623;fill:#969696;}
	.st47{opacity:0.6393;fill:#949494;}
	.st48{opacity:0.6557;fill:#929292;}
	.st49{opacity:0.6721;fill:#909090;}
	.st50{opacity:0.6885;fill:#8E8E8E;}
	.st51{opacity:0.7049;fill:#8C8C8C;}
	.st52{opacity:0.7213;fill:#8A8A8A;}
	.st53{opacity:0.7377;fill:#888888;}
	.st54{opacity:0.7541;fill:#858585;}
	.st55{opacity:0.7705;fill:#838383;}
	.st56{opacity:0.7869;fill:#818181;}
	.st57{opacity:0.8033;fill:#7F7F7F;}
	.st58{opacity:0.8197;fill:#7D7D7D;}
	.st59{opacity:0.8361;fill:#7B7B7B;}
	.st60{opacity:0.8525;fill:#797979;}
	.st61{opacity:0.8689;fill:#777777;}
	.st62{opacity:0.8852;fill:#757575;}
	.st63{opacity:0.9016;fill:#737373;}
	.st64{opacity:0.918;fill:#707070;}
	.st65{opacity:0.9344;fill:#6E6E6E;}
	.st66{opacity:0.9508;fill:#6C6C6C;}
	.st67{opacity:0.9672;fill:#6A6A6A;}
	.st68{opacity:0.9836;fill:#686868;}
	.st69{fill:#666666;}
	.st70{fill:#86BD45;}
</style>
<path class="st0" d="M-150.4,46.1"/>
<path class="st1" d="M-115.9,46.4"/>
<path class="st2" d="M59.4,29.8"/>
<path class="st3" d="M3.7,13.2"/>
<g>
	<path class="st4" d="M57.9,41.9C57.9,41.9,57.9,41.9,57.9,41.9C58,41.9,58,41.8,57.9,41.9z"/>
	<line class="st5" x1="57.9" y1="41.9" x2="57.9" y2="41.9"/>
</g>
<path class="st6" d="M100.1,30.1"/>
<path class="st7" d="M70.5,46.4"/>
<g>
	<g>
		<path class="st8" d="M53.9,59.3c-4.1-1.5-4-12.2,0.2-23.8c4.2-11.7,9.3-9.8,11.5-9.1c2.3,0.8,7.7,2.8,3.4,14.5
			C64.7,52.5,58,60.8,53.9,59.3z"/>
		<path class="st9" d="M54,59c-4.1-1.5-4-12,0.2-23.5c4.1-11.5,9.2-9.7,11.3-9c2.3,0.8,7.5,2.8,3.4,14.3C64.7,52.3,58.1,60.4,54,59z
			"/>
		<path class="st10" d="M54.1,58.6c-4-1.4-3.9-11.8,0.2-23.2c4.1-11.4,9-9.6,11.1-8.9c2.2,0.7,7.4,2.7,3.3,14.1
			C64.7,52,58.1,60.1,54.1,58.6z"/>
		<path class="st11" d="M54.3,58.3c-3.9-1.4-3.8-11.6,0.2-22.8c4-11.2,8.9-9.5,11-8.8c2.2,0.7,7.3,2.7,3.2,13.9
			C64.7,51.8,58.2,59.7,54.3,58.3z"/>
		<path class="st12" d="M54.4,57.9c-3.9-1.4-3.8-11.5,0.2-22.5c4-11,8.8-9.4,10.8-8.7c2.2,0.7,7.1,2.7,3.2,13.8
			C64.6,51.5,58.3,59.3,54.4,57.9z"/>
		<path class="st13" d="M54.5,57.6c-3.8-1.4-3.7-11.3,0.2-22.2c3.9-10.9,8.7-9.3,10.7-8.6c2.1,0.7,7,2.7,3.1,13.6
			C64.6,51.3,58.3,59,54.5,57.6z"/>
		<path class="st14" d="M54.7,57.3c-3.7-1.3-3.6-11.1,0.2-21.9c3.9-10.7,8.5-9.2,10.5-8.5c2.1,0.7,6.9,2.7,3,13.4
			C64.6,51,58.4,58.6,54.7,57.3z"/>
		<path class="st15" d="M54.8,56.9c-3.7-1.3-3.6-11,0.2-21.5c3.8-10.6,8.4-9.1,10.3-8.4c2.1,0.7,6.8,2.7,3,13.2
			C64.5,50.8,58.5,58.2,54.8,56.9z"/>
		<path class="st16" d="M54.9,56.6c-3.6-1.3-3.5-10.8,0.2-21.2c3.7-10.4,8.3-9,10.2-8.3c2,0.7,6.6,2.6,2.9,13.1
			C64.5,50.5,58.5,57.9,54.9,56.6z"/>
		<path class="st17" d="M55.1,56.2c-3.5-1.3-3.4-10.6,0.3-20.9c3.7-10.2,8.1-8.9,10-8.2c2,0.7,6.5,2.6,2.8,12.9
			C64.5,50.3,58.6,57.5,55.1,56.2z"/>
		<path class="st18" d="M55.2,55.9c-3.5-1.3-3.4-10.4,0.3-20.5c3.6-10.1,8-8.8,9.9-8.2c2,0.7,6.4,2.6,2.8,12.7
			C64.5,50,58.7,57.2,55.2,55.9z"/>
		<path class="st19" d="M55.3,55.6c-3.4-1.2-3.3-10.3,0.3-20.2c3.6-9.9,7.9-8.7,9.7-8.1c1.9,0.6,6.3,2.6,2.7,12.5
			C64.4,49.7,58.8,56.8,55.3,55.6z"/>
		<path class="st20" d="M55.5,55.2c-3.4-1.2-3.2-10.1,0.3-19.9c3.5-9.8,7.8-8.6,9.5-8c1.9,0.6,6.1,2.6,2.6,12.3
			C64.4,49.5,58.8,56.4,55.5,55.2z"/>
		<path class="st21" d="M55.6,54.9c-3.3-1.2-3.2-9.9,0.3-19.5c3.5-9.6,7.6-8.5,9.4-7.9c1.9,0.6,6,2.6,2.6,12.2
			C64.4,49.2,58.9,56.1,55.6,54.9z"/>
		<path class="st22" d="M55.7,54.5c-3.2-1.2-3.1-9.8,0.3-19.2c3.4-9.4,7.5-8.3,9.2-7.8c1.8,0.6,5.9,2.5,2.5,12
			C64.3,49,59,55.7,55.7,54.5z"/>
		<path class="st23" d="M55.9,54.2c-3.2-1.1-3-9.6,0.3-18.9c3.3-9.3,7.4-8.2,9.1-7.7c1.8,0.6,5.8,2.5,2.4,11.8
			C64.3,48.7,59,55.3,55.9,54.2z"/>
		<path class="st24" d="M56,53.9c-3.1-1.1-3-9.4,0.3-18.6c3.3-9.1,7.2-8.1,8.9-7.6c1.8,0.6,5.6,2.5,2.3,11.6
			C64.3,48.5,59.1,55,56,53.9z"/>
		<path class="st25" d="M56.1,53.5c-3-1.1-2.9-9.3,0.3-18.2c3.2-9,7.1-8,8.8-7.5c1.7,0.6,5.5,2.5,2.3,11.5
			C64.2,48.2,59.2,54.6,56.1,53.5z"/>
		<path class="st26" d="M56.2,53.2c-3-1.1-2.8-9.1,0.3-17.9c3.2-8.8,7-7.9,8.6-7.4c1.7,0.6,5.4,2.5,2.2,11.3
			C64.2,48,59.2,54.3,56.2,53.2z"/>
		<path class="st27" d="M56.4,52.8c-2.9-1.1-2.8-8.9,0.4-17.6c3.1-8.6,6.9-7.8,8.4-7.3c1.7,0.6,5.3,2.5,2.1,11.1
			C64.2,47.7,59.3,53.9,56.4,52.8z"/>
		<path class="st28" d="M56.5,52.5c-2.9-1-2.7-8.7,0.4-17.2c3.1-8.5,6.7-7.7,8.3-7.2c1.6,0.6,5.1,2.4,2.1,10.9
			C64.2,47.5,59.4,53.5,56.5,52.5z"/>
		<path class="st29" d="M56.6,52.2c-2.8-1-2.6-8.6,0.4-16.9c3-8.3,6.6-7.6,8.1-7.1c1.6,0.5,5,2.4,2,10.8
			C64.1,47.2,59.4,53.2,56.6,52.2z"/>
		<path class="st30" d="M56.8,51.8c-2.7-1-2.6-8.4,0.4-16.6c2.9-8.2,6.5-7.5,8-7c1.6,0.5,4.9,2.4,1.9,10.6
			C64.1,47,59.5,52.8,56.8,51.8z"/>
		<path class="st31" d="M56.9,51.5c-2.7-1-2.5-8.2,0.4-16.2c2.9-8,6.4-7.4,7.8-6.9c1.5,0.5,4.7,2.4,1.9,10.4
			C64.1,46.7,59.6,52.4,56.9,51.5z"/>
		<path class="st32" d="M57,51.1c-2.6-0.9-2.4-8.1,0.4-15.9c2.8-7.8,6.2-7.3,7.6-6.8c1.5,0.5,4.6,2.4,1.8,10.2
			C64,46.5,59.6,52.1,57,51.1z"/>
		<path class="st33" d="M57.2,50.8c-2.5-0.9-2.4-7.9,0.4-15.6c2.8-7.7,6.1-7.2,7.5-6.7c1.5,0.5,4.5,2.4,1.7,10
			C64,46.2,59.7,51.7,57.2,50.8z"/>
		<path class="st34" d="M57.3,50.5c-2.5-0.9-2.3-7.7,0.4-15.2c2.7-7.5,6-7.1,7.3-6.6c1.4,0.5,4.4,2.3,1.7,9.9
			C64,46,59.8,51.4,57.3,50.5z"/>
		<path class="st35" d="M57.4,50.1c-2.4-0.9-2.2-7.5,0.4-14.9c2.7-7.4,5.8-7,7.2-6.5c1.4,0.5,4.2,2.3,1.6,9.7
			C64,45.7,59.8,51,57.4,50.1z"/>
		<path class="st36" d="M57.6,49.8c-2.4-0.8-2.2-7.4,0.4-14.6c2.6-7.2,5.7-6.9,7-6.4c1.4,0.5,4.1,2.3,1.5,9.5
			C63.9,45.5,59.9,50.6,57.6,49.8z"/>
		<path class="st37" d="M57.7,49.4c-2.3-0.8-2.1-7.2,0.4-14.3c2.5-7,5.6-6.8,6.8-6.4c1.3,0.5,4,2.3,1.4,9.3
			C63.9,45.2,60,50.3,57.7,49.4z"/>
		<path class="st38" d="M57.8,49.1c-2.2-0.8-2-7,0.5-13.9c2.5-6.9,5.5-6.7,6.7-6.3c1.3,0.4,3.9,2.3,1.4,9.2
			C63.9,45,60.1,49.9,57.8,49.1z"/>
		<path class="st39" d="M58,48.8c-2.2-0.8-2-6.9,0.5-13.6c2.4-6.7,5.3-6.6,6.5-6.2c1.3,0.4,3.7,2.3,1.3,9
			C63.8,44.7,60.1,49.5,58,48.8z"/>
		<path class="st40" d="M58.1,48.4c-2.1-0.8-1.9-6.7,0.5-13.3c2.4-6.6,5.2-6.5,6.4-6.1c1.2,0.4,3.6,2.2,1.2,8.8
			C63.8,44.5,60.2,49.2,58.1,48.4z"/>
		<path class="st41" d="M58.2,48.1c-2-0.7-1.8-6.5,0.5-12.9c2.3-6.4,5.1-6.4,6.2-6c1.2,0.4,3.5,2.2,1.2,8.6
			C63.8,44.2,60.3,48.8,58.2,48.1z"/>
		<path class="st42" d="M58.4,47.7c-2-0.7-1.8-6.4,0.5-12.6c2.3-6.3,4.9-6.3,6.1-5.9c1.2,0.4,3.4,2.2,1.1,8.5
			C63.8,44,60.3,48.5,58.4,47.7z"/>
		<path class="st43" d="M58.5,47.4c-1.9-0.7-1.7-6.2,0.5-12.3c2.2-6.1,4.8-6.1,5.9-5.8c1.1,0.4,3.2,2.2,1,8.3
			C63.7,43.7,60.4,48.1,58.5,47.4z"/>
		<path class="st44" d="M58.6,47.1c-1.9-0.7-1.6-6,0.5-11.9c2.1-5.9,4.7-6,5.7-5.7c1.1,0.4,3.1,2.2,1,8.1
			C63.7,43.5,60.5,47.7,58.6,47.1z"/>
		<path class="st45" d="M58.7,46.7c-1.8-0.6-1.6-5.8,0.5-11.6c2.1-5.8,4.6-5.9,5.6-5.6c1.1,0.4,3,2.2,0.9,7.9
			C63.7,43.2,60.5,47.4,58.7,46.7z"/>
		<path class="st46" d="M58.9,46.4c-1.7-0.6-1.5-5.7,0.5-11.3c2-5.6,4.4-5.8,5.4-5.5c1,0.4,2.8,2.1,0.8,7.8
			C63.6,43,60.6,47,58.9,46.4z"/>
		<path class="st47" d="M59,46c-1.7-0.6-1.4-5.5,0.5-11c2-5.5,4.3-5.7,5.3-5.4c1,0.3,2.7,2.1,0.8,7.6C63.6,42.7,60.7,46.6,59,46z"/>
		<path class="st48" d="M59.1,45.7c-1.6-0.6-1.4-5.3,0.6-10.6c1.9-5.3,4.2-5.6,5.1-5.3c1,0.3,2.6,2.1,0.7,7.4
			C63.6,42.5,60.7,46.3,59.1,45.7z"/>
		<path class="st49" d="M59.3,45.4c-1.5-0.6-1.3-5.2,0.6-10.3c1.8-5.1,4-5.5,4.9-5.2c0.9,0.3,2.5,2.1,0.6,7.2
			C63.6,42.2,60.8,45.9,59.3,45.4z"/>
		<path class="st50" d="M59.4,45c-1.5-0.5-1.2-5,0.6-10c1.8-5,3.9-5.4,4.8-5.1c0.9,0.3,2.3,2.1,0.6,7C63.5,41.9,60.9,45.6,59.4,45z"
			/>
		<path class="st51" d="M59.5,44.7c-1.4-0.5-1.1-4.8,0.6-9.6c1.7-4.8,3.8-5.3,4.6-5c0.9,0.3,2.2,2.1,0.5,6.9
			C63.5,41.7,60.9,45.2,59.5,44.7z"/>
		<path class="st52" d="M59.7,44.3c-1.3-0.5-1.1-4.7,0.6-9.3c1.7-4.7,3.7-5.2,4.5-4.9c0.8,0.3,2.1,2,0.4,6.7
			C63.5,41.4,61,44.8,59.7,44.3z"/>
		<path class="st53" d="M59.8,44c-1.3-0.5-1-4.5,0.6-9c1.6-4.5,3.5-5.1,4.3-4.8c0.8,0.3,2,2,0.3,6.5C63.4,41.2,61.1,44.5,59.8,44z"
			/>
		<path class="st54" d="M59.9,43.7c-1.2-0.4-0.9-4.3,0.6-8.6c1.6-4.3,3.4-5,4.1-4.7c0.8,0.3,1.8,2,0.3,6.3
			C63.4,40.9,61.2,44.1,59.9,43.7z"/>
		<path class="st55" d="M60.1,43.3c-1.2-0.4-0.9-4.1,0.6-8.3c1.5-4.2,3.3-4.9,4-4.6c0.7,0.3,1.7,2,0.2,6.2
			C63.4,40.7,61.2,43.7,60.1,43.3z"/>
		<path class="st56" d="M60.2,43c-1.1-0.4-0.8-4,0.6-8c1.4-4,3.2-4.8,3.8-4.6c0.7,0.2,1.6,2,0.1,6C63.3,40.4,61.3,43.4,60.2,43z"/>
		<path class="st57" d="M60.3,42.6c-1-0.4-0.7-3.8,0.6-7.7c1.4-3.9,3-4.7,3.7-4.5c0.7,0.2,1.5,2,0.1,5.8
			C63.3,40.2,61.4,43,60.3,42.6z"/>
		<path class="st58" d="M60.5,42.3c-1-0.3-0.7-3.6,0.7-7.3c1.3-3.7,2.9-4.6,3.5-4.4c0.6,0.2,1.3,1.9,0,5.6
			C63.3,39.9,61.4,42.6,60.5,42.3z"/>
		<path class="st59" d="M60.6,42c-0.9-0.3-0.6-3.5,0.7-7c1.3-3.5,2.8-4.5,3.4-4.3c0.6,0.2,1.2,1.9-0.1,5.5
			C63.3,39.7,61.5,42.3,60.6,42z"/>
		<path class="st60" d="M60.7,41.6c-0.8-0.3-0.5-3.3,0.7-6.7c1.2-3.4,2.6-4.4,3.2-4.2c0.6,0.2,1.1,1.9-0.1,5.3
			C63.2,39.4,61.6,41.9,60.7,41.6z"/>
		<path class="st61" d="M60.9,41.3c-0.8-0.3-0.5-3.1,0.7-6.3c1.2-3.2,2.5-4.3,3-4.1c0.5,0.2,1,1.9-0.2,5.1
			C63.2,39.2,61.6,41.6,60.9,41.3z"/>
		<path class="st62" d="M61,40.9c-0.7-0.3-0.4-2.9,0.7-6c1.1-3.1,2.4-4.2,2.9-4c0.5,0.2,0.8,1.9-0.3,4.9
			C63.2,38.9,61.7,41.2,61,40.9z"/>
		<path class="st63" d="M61.1,40.6c-0.7-0.2-0.3-2.8,0.7-5.7c1-2.9,2.3-4.1,2.7-3.9c0.5,0.2,0.7,1.9-0.3,4.7
			C63.1,38.7,61.8,40.8,61.1,40.6z"/>
		<path class="st64" d="M61.2,40.3C60.7,40,61,37.7,62,34.9c1-2.7,2.1-3.9,2.6-3.8c0.4,0.2,0.6,1.8-0.4,4.6
			C63.1,38.4,61.8,40.5,61.2,40.3z"/>
		<path class="st65" d="M61.4,39.9c-0.5-0.2-0.2-2.4,0.7-5c0.9-2.6,2-3.8,2.4-3.7c0.4,0.1,0.4,1.8-0.5,4.4
			C63.1,38.2,61.9,40.1,61.4,39.9z"/>
		<path class="st66" d="M61.5,39.6c-0.5-0.2-0.1-2.3,0.7-4.7c0.9-2.4,1.9-3.7,2.2-3.6c0.4,0.1,0.3,1.8-0.6,4.2
			C63.1,37.9,62,39.7,61.5,39.6z"/>
		<path class="st67" d="M61.6,39.2c-0.4-0.1-0.1-2.1,0.7-4.3c0.8-2.3,1.7-3.6,2.1-3.5c0.3,0.1,0.2,1.8-0.6,4
			C63,37.7,62,39.4,61.6,39.2z"/>
		<path class="st68" d="M61.8,38.9c-0.3-0.1,0-1.9,0.7-4c0.8-2.1,1.6-3.5,1.9-3.4c0.3,0.1,0.1,1.8-0.7,3.9
			C63,37.4,62.1,39,61.8,38.9z"/>
		<path class="st69" d="M61.9,38.6c-0.3-0.1,0.1-1.8,0.8-3.7c0.7-1.9,1.5-3.4,1.8-3.3c0.3,0.1-0.1,1.8-0.8,3.7
			C63,37.2,62.2,38.7,61.9,38.6z"/>
	</g>
</g>
<g>
	<g>
		<polygon class="st6" points="23.4,29.9 23.4,29.9 23.4,29.9 		"/>
		<path class="st6" d="M32.8,30.7C32.8,30.8,32.7,30.7,32.8,30.7L32.8,30.7z"/>
		<path class="st6" d="M30.2,28.7c-1.2-0.3-2.4-0.3-3.6-0.1c-0.6,0.1-1.1,0.3-1.6,0.5c-0.1,0-0.8,0.3-0.8,0.4
			c0.1,0.2,0.1,0.4,0.2,0.7c0.3,1.1,0.6,2.2,0.8,3.3c-0.3-1.2-0.6-2.3-0.9-3.5c0-0.2-0.1-0.3-0.1-0.5c-0.2,0.1-0.5,0.3-0.7,0.4
			c0.2,0.8,0.4,1.7,0.6,2.5c-0.2-0.8-0.4-1.5-0.6-2.3c0-0.1,0-0.2-0.1-0.3c0,0-0.1,0-0.1,0c0,0,0,0,0,0c0,0,0,0,0,0
			c-0.9,0.5-2.1,0.3-2.8-0.4c0.4,1.8,0.9,3.6,1.3,5.4c0.5,2.1,1.1,4.2,1.6,6.3c0.1,0.3,0.3,0.4,0.5,0.5c0.6,0.3,1.3,0.4,1.9,0.2
			c0.1,0,0.5-0.1,0.4-0.2c0,0,0,0,0-0.1c0,0,0,0.1,0,0.1c0.2-0.1,0.4-0.3,0.7-0.4c0,0,0,0,0,0c0,0,0,0,0,0c1.5-0.8,3.3-1.2,5.1-1
			c1.5,0.2,3.2,0.9,3.6,2.6c-0.5-2-1-4-1.5-6.1c-0.2-1-0.5-2-0.7-3c-0.1-0.5-0.2-1-0.4-1.5c-0.1-0.5-0.2-1-0.4-1.5
			C32.3,29.6,31.2,29,30.2,28.7z M27.1,41.1c-0.1-0.2-0.1-0.5-0.2-0.7C26.9,40.6,27,40.9,27.1,41.1C27.1,41.1,27.1,41.1,27.1,41.1z"
			/>
	</g>
	<path class="st6" d="M60.3,30.2C60.3,30.2,60.3,30.2,60.3,30.2c0,0-1.9,5.9-1.9,5.8c-0.6,1.8-1.2,3.6-1.8,5.3c-0.6,1.9-2,5.6-2,5.6
		c0.4,1.8,1,3.8,1.4,5.6c0.5,2.1,1.4,5.4,1.4,5.4c0.6-1.8,9.4-25.9,10-27.9c0-0.1-2.9-11.7-2.9-11.8C63.9,20,61,28.2,60.3,30.2z"/>
	<path class="st7" d="M54.9,46.7c0,0-32.3,0-39.7,0c2.3,9.1,2.9,11.2,2.9,11.2c0.2,0,38.2,0,39.4,0C56.6,54.1,55.5,49.3,54.9,46.7z"
		/>
	<path class="st70" d="M64.5,18.2c-1.5,0-40.3,0-40.3,0.1c-0.1,0.2-3.6,11-3.7,11.2c0,0.1,0.4,0.3,0.4,0.3c0.2,0.1,0.4,0.2,0.7,0.3
		c0.5,0.1,1.2,0.1,1.7-0.2c0.2-0.1,0.5-0.3,0.7-0.4c0.5-0.3,1-0.5,1.5-0.6c1.2-0.4,2.5-0.5,3.7-0.4c1.6,0.2,3.6,1.2,3.7,3.1
		c0.1,1.9-1.7,3.3-3.2,4.1c-1.9,0.9-4.4,1.3-6.4,0.4c-0.4-0.2-0.8-0.4-1.1-0.7c-0.2-0.2-0.4-0.5-0.6-0.6c-0.4-0.2-1-0.2-1.5-0.1
		c-0.2,0-0.5,0.1-0.7,0.2C19.2,34.9,19.1,35,19,35c0,0-0.3,0.1-0.3,0.2c-0.6,1.8-3.6,11.5-3.6,11.5c1.6,0,39.7,0,39.7,0
		C54.9,46.5,64.2,19.2,64.5,18.2z"/>
</g>
</svg>
