<?xml version="1.0" encoding="utf-8"?>
<!-- Generator: Adobe Illustrator 25.4.1, SVG Export Plug-In . SVG Version: 6.00 Build 0)  -->
<svg version="1.1" id="Camada_1" xmlns="http://www.w3.org/2000/svg" xmlns:xlink="http://www.w3.org/1999/xlink" x="0px" y="0px"
	 viewBox="0 0 70 51.6" style="enable-background:new 0 0 70 51.6;" xml:space="preserve">
<style type="text/css">
	.st0{fill:#FCD500;}
	.st1{fill:#E8C500;}
	.st2{fill:#E72371;}
	.st3{fill:#691033;}
	.st4{fill:none;}
	.st5{fill:#E6E6E6;fill-opacity:0;}
	.st6{opacity:2.000000e-02;fill:#E4E4E4;enable-background:new    ;}
	.st7{opacity:3.000000e-02;fill:#E2E2E2;enable-background:new    ;}
	.st8{opacity:5.000000e-02;fill:#E0E0E0;enable-background:new    ;}
	.st9{opacity:7.000000e-02;fill:#DEDEDE;enable-background:new    ;}
	.st10{opacity:8.000000e-02;fill:#DCDCDC;enable-background:new    ;}
	.st11{opacity:0.1;fill:#D9D9D9;enable-background:new    ;}
	.st12{opacity:0.11;fill:#D7D7D7;enable-background:new    ;}
	.st13{opacity:0.13;fill:#D5D5D5;enable-background:new    ;}
	.st14{opacity:0.15;fill:#D3D3D3;enable-background:new    ;}
	.st15{opacity:0.16;fill:#D1D1D1;enable-background:new    ;}
	.st16{opacity:0.18;fill:#CFCFCF;enable-background:new    ;}
	.st17{opacity:0.2;fill:#CDCDCD;enable-background:new    ;}
	.st18{opacity:0.21;fill:#CBCBCB;enable-background:new    ;}
	.st19{opacity:0.23;fill:#C9C9C9;enable-background:new    ;}
	.st20{opacity:0.25;fill:#C7C7C7;enable-background:new    ;}
	.st21{opacity:0.26;fill:#C4C4C4;enable-background:new    ;}
	.st22{opacity:0.28;fill:#C2C2C2;enable-background:new    ;}
	.st23{opacity:0.3;fill:#C0C0C0;enable-background:new    ;}
	.st24{opacity:0.31;fill:#BEBEBE;enable-background:new    ;}
	.st25{opacity:0.33;fill:#BCBCBC;enable-background:new    ;}
	.st26{opacity:0.34;fill:#BABABA;enable-background:new    ;}
	.st27{opacity:0.36;fill:#B8B8B8;enable-background:new    ;}
	.st28{opacity:0.38;fill:#B6B6B6;enable-background:new    ;}
	.st29{opacity:0.39;fill:#B4B4B4;enable-background:new    ;}
	.st30{opacity:0.41;fill:#B2B2B2;enable-background:new    ;}
	.st31{opacity:0.43;fill:#AFAFAF;enable-background:new    ;}
	.st32{opacity:0.44;fill:#ADADAD;enable-background:new    ;}
	.st33{opacity:0.46;fill:#ABABAB;enable-background:new    ;}
	.st34{opacity:0.48;fill:#A9A9A9;enable-background:new    ;}
	.st35{opacity:0.49;fill:#A7A7A7;enable-background:new    ;}
	.st36{opacity:0.51;fill:#A5A5A5;enable-background:new    ;}
	.st37{opacity:0.52;fill:#A3A3A3;enable-background:new    ;}
	.st38{opacity:0.54;fill:#A1A1A1;enable-background:new    ;}
	.st39{opacity:0.56;fill:#9F9F9F;enable-background:new    ;}
	.st40{opacity:0.57;fill:#9D9D9D;enable-background:new    ;}
	.st41{opacity:0.59;fill:#9A9A9A;enable-background:new    ;}
	.st42{opacity:0.61;fill:#989898;enable-background:new    ;}
	.st43{opacity:0.62;fill:#969696;enable-background:new    ;}
	.st44{opacity:0.64;fill:#949494;enable-background:new    ;}
	.st45{opacity:0.66;fill:#929292;enable-background:new    ;}
	.st46{opacity:0.67;fill:#909090;enable-background:new    ;}
	.st47{opacity:0.69;fill:#8E8E8E;enable-background:new    ;}
	.st48{opacity:0.7;fill:#8C8C8C;enable-background:new    ;}
	.st49{opacity:0.72;fill:#8A8A8A;enable-background:new    ;}
	.st50{opacity:0.74;fill:#888888;enable-background:new    ;}
	.st51{opacity:0.75;fill:#858585;enable-background:new    ;}
	.st52{opacity:0.77;fill:#838383;enable-background:new    ;}
	.st53{opacity:0.79;fill:#818181;enable-background:new    ;}
	.st54{opacity:0.8;fill:#7F7F7F;enable-background:new    ;}
	.st55{opacity:0.82;fill:#7D7D7D;enable-background:new    ;}
	.st56{opacity:0.84;fill:#7B7B7B;enable-background:new    ;}
	.st57{opacity:0.85;fill:#797979;enable-background:new    ;}
	.st58{opacity:0.87;fill:#777777;enable-background:new    ;}
	.st59{opacity:0.89;fill:#757575;enable-background:new    ;}
	.st60{opacity:0.9;fill:#737373;enable-background:new    ;}
	.st61{opacity:0.92;fill:#707070;enable-background:new    ;}
	.st62{opacity:0.93;fill:#6E6E6E;enable-background:new    ;}
	.st63{opacity:0.95;fill:#6C6C6C;enable-background:new    ;}
	.st64{opacity:0.97;fill:#6A6A6A;enable-background:new    ;}
	.st65{opacity:0.98;fill:#686868;enable-background:new    ;}
	.st66{fill:#666666;}
	.st67{fill:#004D69;}
	.st68{fill:#008BBC;}
	.st69{fill:#00AAE8;}
</style>
<g>
	<g id="Camada_1_00000143584489999849792410000013892281016883465888_">
		<path class="st0" d="M-156.1,32.2"/>
		<path class="st1" d="M-121.6,32.5"/>
		<path class="st2" d="M53.6,15.9"/>
		<path class="st3" d="M-2-0.7"/>
		<path class="st4" d="M52.2,28"/>
		<path class="st4" d="M52.2,28L52.2,28"/>
		<g>
			<path class="st5" d="M48.8,50.4c-4.1-1.5-4.1-12.1,0.1-23.8s9.2-9.9,11.4-9.1c2.3,0.7,7.6,2.7,3.5,14.4S52.9,51.9,48.8,50.4z"/>
			<path class="st6" d="M48.9,50.1c-4.1-1.5-4-12,0.1-23.5s9.1-9.8,11.3-9c2.3,0.8,7.5,2.7,3.4,14.3S53,51.5,48.9,50.1z"/>
			<path class="st7" d="M49,49.7c-4-1.4-4-11.8,0.1-23.2s9-9.6,11.1-9s7.4,2.7,3.4,14.1S53,51.1,49,49.7z"/>
			<path class="st8" d="M49.2,49.4c-3.9-1.4-3.9-11.6,0.1-22.8s8.9-9.5,10.9-8.9c2.1,0.7,7.3,2.7,3.3,13.9S53.1,50.8,49.2,49.4z"/>
			<path class="st9" d="M49.3,49c-3.9-1.4-3.8-11.5,0.1-22.5s8.8-9.4,10.8-8.8c2,0.6,7.2,2.7,3.2,13.7S53.2,50.4,49.3,49z"/>
			<path class="st10" d="M49.4,48.7c-3.8-1.3-3.7-11.3,0.1-22.2s8.6-9.4,10.6-8.7s7,2.7,3.2,13.6S53.3,50,49.4,48.7z"/>
			<path class="st11" d="M49.5,48.3c-3.7-1.3-3.7-11.1,0.1-21.8s8.5-9.2,10.5-8.6c2.1,0.7,6.9,2.7,3.1,13.4S53.3,49.7,49.5,48.3z"/>
			<path class="st12" d="M49.7,48c-3.7-1.3-3.6-10.9,0.2-21.5s8.4-9.1,10.3-8.5c2.1,0.7,6.8,2.6,3,13.2C59.4,41.8,53.4,49.3,49.7,48
				z"/>
			<path class="st13" d="M49.8,47.7c-3.6-1.3-3.5-10.8,0.2-21.2s8.2-9,10.2-8.4c1.9,0.6,6.6,2.6,2.9,13C59.4,41.5,53.4,49,49.8,47.7
				z"/>
			<path class="st14" d="M49.9,47.3c-3.6-1.3-3.5-10.6,0.2-20.9s8.2-8.9,10-8.3c1.8,0.6,6.5,2.6,2.9,12.9
				C59.3,41.3,53.5,48.6,49.9,47.3z"/>
			<path class="st15" d="M50.1,47c-3.5-1.2-3.4-10.4,0.2-20.5s8-8.8,9.8-8.2c1.8,0.6,6.4,2.6,2.8,12.7C59.3,41,53.6,48.2,50.1,47z"
				/>
			<path class="st16" d="M50.2,46.6c-3.4-1.2-3.3-10.3,0.2-20.2s7.8-8.7,9.7-8.1c1.8,0.6,6.3,2.6,2.7,12.5
				C59.3,40.8,53.6,47.9,50.2,46.6z"/>
			<path class="st17" d="M50.3,46.3c-3.4-1.2-3.3-10.1,0.2-19.9s7.7-8.6,9.5-8c1.8,0.6,6.1,2.6,2.7,12.3
				C59.2,40.5,53.7,47.5,50.3,46.3z"/>
			<path class="st18" d="M50.5,46c-3.3-1.2-3.2-9.9,0.2-19.5s7.6-8.5,9.4-7.9c1.8,0.6,6,2.5,2.6,12.2C59.2,40.3,53.8,47.1,50.5,46z"
				/>
			<path class="st19" d="M50.6,45.6c-3.2-1.2-3.1-9.8,0.2-19.2s7.5-8.4,9.2-7.8s5.9,2.5,2.5,12C59.2,40.1,53.8,46.8,50.6,45.6z"/>
			<path class="st20" d="M50.7,45.3c-3.2-1.1-3.1-9.6,0.2-18.9s7.3-8.3,9.1-7.7s5.8,2.5,2.5,11.8C59.2,39.8,53.9,46.4,50.7,45.3z"/>
			<path class="st21" d="M50.9,44.9c-3.1-1.1-3-9.4,0.2-18.6s7.2-8.2,8.9-7.6s5.6,2.5,2.4,11.6C59.1,39.5,54,46,50.9,44.9z"/>
			<path class="st22" d="M51,44.6c-3-1.1-2.9-9.2,0.3-18.2s7.1-8.1,8.7-7.5s5.5,2.5,2.3,11.4C59.1,39.3,54,45.7,51,44.6z"/>
			<path class="st23" d="M51.1,44.3c-3-1.1-2.9-9.1,0.3-17.9s7-8,8.6-7.4s5.4,2.5,2.3,11.3C59.1,39,54.1,45.3,51.1,44.3z"/>
			<path class="st24" d="M51.3,43.9c-2.9-1-2.8-8.9,0.3-17.6s6.8-7.8,8.4-7.3s5.3,2.4,2.2,11.1C59.1,38.8,54.2,45,51.3,43.9z"/>
			<path class="st25" d="M51.4,43.6c-2.9-1-2.7-8.7,0.3-17.2s6.7-7.8,8.2-7.2S65,21.6,62,30.1C59,38.6,54.3,44.6,51.4,43.6z"/>
			<path class="st26" d="M51.5,43.2c-2.8-1-2.7-8.6,0.3-16.9s6.6-7.6,8.1-7.1s5,2.4,2,10.8C58.9,38.3,54.3,44.2,51.5,43.2z"/>
			<path class="st27" d="M51.6,42.9c-2.7-1-2.6-8.4,0.3-16.6s6.5-7.5,7.9-7s4.9,2.4,2,10.6C59,38.1,54.4,43.9,51.6,42.9z"/>
			<path class="st28" d="M51.8,42.6c-2.7-1-2.5-8.2,0.3-16.2s6.3-7.4,7.8-7s4.7,2.4,1.9,10.4C58.9,37.7,54.4,43.5,51.8,42.6z"/>
			<path class="st29" d="M51.9,42.2c-2.6-0.9-2.5-8.1,0.4-15.9s6.2-7.3,7.6-6.9s4.6,2.4,1.8,10.2C58.9,37.5,54.5,43.1,51.9,42.2z"/>
			<path class="st30" d="M52,41.9c-2.5-0.9-2.4-7.9,0.3-15.6s6.1-7.2,7.4-6.8s4.5,2.3,1.8,10C58.9,37.2,54.6,42.8,52,41.9z"/>
			<path class="st31" d="M52.2,41.5c-2.5-0.9-2.3-7.7,0.4-15.2s5.9-7.1,7.3-6.7s4.4,2.3,1.7,9.9C58.8,37,54.6,42.4,52.2,41.5z"/>
			<path class="st32" d="M52.3,41.2c-2.4-0.9-2.3-7.5,0.4-14.9s5.8-7,7.1-6.6s4.2,2.3,1.6,9.7C58.8,36.8,54.7,42.1,52.3,41.2z"/>
			<path class="st33" d="M52.4,40.9c-2.4-0.8-2.2-7.4,0.4-14.6s5.7-6.9,7-6.5s4.1,2.3,1.6,9.5S54.8,41.7,52.4,40.9z"/>
			<path class="st34" d="M52.5,40.5c-2.3-0.8-2.1-7.2,0.4-14.3s5.6-6.8,6.8-6.4s4,2.3,1.5,9.3S54.8,41.3,52.5,40.5z"/>
			<path class="st35" d="M52.7,40.1c-2.2-0.8-2-7,0.4-13.9s5.4-6.7,6.7-6.3s3.9,2.3,1.4,9.2S54.9,41,52.7,40.1z"/>
			<path class="st36" d="M52.8,39.8c-2.2-0.8-2-6.9,0.4-13.6s5.3-6.6,6.5-6.2s3.7,2.2,1.3,9S55,40.6,52.8,39.8z"/>
			<path class="st37" d="M52.9,39.5c-2.1-0.8-1.9-6.7,0.4-13.3s5.2-6.5,6.4-6.1s3.6,2.2,1.3,8.8S55,40.2,52.9,39.5z"/>
			<path class="st38" d="M53.1,39.1c-2-0.7-1.8-6.5,0.4-12.9s5-6.4,6.2-6s3.5,2.2,1.2,8.6S55.1,39.9,53.1,39.1z"/>
			<path class="st39" d="M53.2,38.8c-2-0.7-1.8-6.3,0.5-12.6s4.9-6.3,6-5.9s3.4,2.2,1.1,8.5S55.2,39.5,53.2,38.8z"/>
			<path class="st40" d="M53.3,38.5c-1.9-0.7-1.7-6.2,0.5-12.3s4.8-6.2,5.9-5.8s3.2,2.2,1.1,8.3S55.3,39.1,53.3,38.5z"/>
			<path class="st41" d="M53.5,38.1c-1.8-0.7-1.6-6,0.5-11.9s4.7-6.1,5.7-5.7s3.1,2.2,1,8.1S55.3,38.8,53.5,38.1z"/>
			<path class="st42" d="M53.6,37.8c-1.8-0.6-1.6-5.8,0.5-11.6s4.5-6,5.6-5.6s3,2.1,0.9,7.9S55.4,38.4,53.6,37.8z"/>
			<path class="st43" d="M53.7,37.4c-1.7-0.6-1.5-5.7,0.5-11.3s4.4-5.9,5.4-5.5s2.9,2.1,0.9,7.8S55.4,38.1,53.7,37.4z"/>
			<path class="st44" d="M53.8,37.1c-1.7-0.6-1.4-5.5,0.5-11s4.3-5.8,5.2-5.4s2.7,2.1,0.8,7.6S55.5,37.7,53.8,37.1z"/>
			<path class="st45" d="M54,36.8c-1.6-0.6-1.4-5.3,0.5-10.6s4.2-5.7,5.1-5.3s2.6,2.1,0.7,7.4S55.6,37.3,54,36.8z"/>
			<path class="st46" d="M54.1,36.4c-1.5-0.5-1.3-5.2,0.5-10.3s4-5.5,4.9-5.2s2.5,2.1,0.7,7.2S55.6,37,54.1,36.4z"/>
			<path class="st47" d="M54.3,36.1c-1.5-0.5-1.2-5,0.5-10s3.9-5.4,4.8-5.2s2.3,2.1,0.6,7S55.7,36.6,54.3,36.1z"/>
			<path class="st48" d="M54.4,35.7c-1.4-0.5-1.2-4.8,0.5-9.6s3.8-5.3,4.6-5s2.2,2,0.5,6.9S55.8,36.2,54.4,35.7z"/>
			<path class="st49" d="M54.5,35.4c-1.3-0.5-1.1-4.7,0.6-9.3s3.6-5.2,4.5-5s2.1,2,0.4,6.7S55.8,35.9,54.5,35.4z"/>
			<path class="st50" d="M54.6,35.1c-1.3-0.5-1-4.5,0.6-9s3.5-5.1,4.3-4.8s2,2,0.4,6.5S55.9,35.5,54.6,35.1z"/>
			<path class="st51" d="M54.8,34.7c-1.2-0.4-1-4.3,0.6-8.6s3.4-5,4.1-4.8s1.8,2,0.3,6.3S56,35.1,54.8,34.7z"/>
			<path class="st52" d="M54.9,34.4c-1.2-0.4-0.9-4.1,0.6-8.3s3.3-4.9,4-4.7s1.7,2,0.2,6.2S56,34.8,54.9,34.4z"/>
			<path class="st53" d="M55,34c-1.1-0.4-0.8-4,0.6-8s3.1-4.8,3.8-4.6s1.6,2,0.2,6S56.1,34.4,55,34z"/>
			<path class="st54" d="M55.1,33.7c-1-0.4-0.8-3.8,0.6-7.7s3-4.7,3.7-4.5s1.5,2,0.1,5.8S56.2,34.1,55.1,33.7z"/>
			<path class="st55" d="M55.3,33.4c-1-0.3-0.7-3.6,0.6-7.3s2.9-4.6,3.5-4.4s1.3,1.9,0,5.6S56.3,33.7,55.3,33.4z"/>
			<path class="st56" d="M55.4,33c-0.9-0.3-0.6-3.5,0.6-7s2.8-4.5,3.3-4.3s1.2,1.9,0,5.5S56.3,33.3,55.4,33z"/>
			<path class="st57" d="M55.5,32.7c-0.8-0.3-0.5-3.3,0.7-6.7s2.6-4.4,3.2-4.2s1.1,1.9-0.1,5.3S56.4,33,55.5,32.7z"/>
			<path class="st58" d="M55.7,32.3c-0.8-0.3-0.5-3.1,0.7-6.3s2.5-4.3,3-4.1s1,1.9-0.2,5.1S56.5,32.6,55.7,32.3z"/>
			<path class="st59" d="M55.8,32c-0.7-0.2-0.4-2.9,0.7-6s2.4-4.2,2.9-4s0.8,1.9-0.2,4.9S56.5,32.3,55.8,32z"/>
			<path class="st60" d="M55.9,31.7c-0.7-0.2-0.3-2.8,0.7-5.7s2.2-4.1,2.7-3.8s0.7,1.8-0.3,4.8S56.6,31.9,55.9,31.7z"/>
			<path class="st61" d="M56.1,31.3c-0.6-0.2-0.3-2.6,0.7-5.3s2.1-4,2.5-3.8s0.6,1.8-0.4,4.6S56.7,31.5,56.1,31.3z"/>
			<path class="st62" d="M56.2,31c-0.5-0.2-0.2-2.4,0.7-5s2-3.8,2.4-3.7s0.4,1.8-0.5,4.4S56.7,31.1,56.2,31z"/>
			<path class="st63" d="M56.3,30.6c-0.5-0.2-0.1-2.3,0.7-4.7s1.9-3.8,2.3-3.6s0.3,1.8-0.5,4.2S56.8,30.8,56.3,30.6z"/>
			<path class="st64" d="M56.4,30.3c-0.4-0.1-0.1-2.1,0.7-4.3s1.7-3.6,2.1-3.5s0.2,1.8-0.6,4S56.9,30.4,56.4,30.3z"/>
			<path class="st65" d="M56.6,30c-0.3-0.1,0-1.9,0.7-4s1.6-3.5,1.9-3.4s0.1,1.8-0.7,3.9S56.9,30.1,56.6,30z"/>
			<path class="st66" d="M56.7,29.6c-0.3-0.1,0-1.8,0.7-3.7s1.5-3.4,1.8-3.3s-0.1,1.8-0.7,3.7S57,29.7,56.7,29.6z"/>
		</g>
		<path class="st67" d="M61.2,16.3c0-0.1,0-0.2,0-0.2l-0.2-0.8l-0.8-3.3c-0.6-2.4-1.2-4.7-1.8-7c0-0.2-0.1-0.4-0.1-0.5
			c-0.5,1.7-3.9,11.5-3.9,11.6C54.3,16,60.5,18.4,61.2,16.3z"/>
		<path class="st67" d="M65.2,19.9c-0.9,0.9-2,1.5-3.2,1.8c-1.9,0.5-4.7,0.6-6.1-1.1c-0.6-0.7-1.9-0.5-2.7-0.2
			c-0.1,0-0.6,0.2-0.6,0.3l0.1,0.2c0,0.1-0.5,0.1-0.5,0.2c-0.5,1.7-1.1,3.5-1.7,5.2c-0.7,2.1-2.1,6.4-2.1,6.4
			c0.5,1.8,3.3,11.2,3.3,11.3c0.6-1.8,3.3-9,4-11.1c0-0.1,0-0.2,0-0.2l-0.1-0.4c0.5-0.3,1.1-0.4,1.7-0.5c0.5-0.1,1,0,1.4,0.3
			c0.2,0.2,0.3,0.4,0.5,0.5c0.2,0.2,0.4,0.3,0.6,0.4c0.5,0.3,1,0.4,1.6,0.5c2.4,0.4,4.8-0.3,6.6-1.8c1-0.8,1.5-2,1.2-3.3
			c-0.4-1.8-0.9-3.6-1.4-5.3c-0.5-2.1-1.1-4.4-1.6-6.5C66.3,16.7,66,19.1,65.2,19.9z"/>
		<path class="st67" d="M10.5,19.8c-0.8,0.9-1.9,1.5-3,1.8c-1.9,0.5-6,0.7-6.7-1.5s3.3,12.2,3.7,12.5C4.7,33,5,33.3,5.4,33.6
			c0.5,0.3,1,0.4,1.6,0.5c2.4,0.4,4.8-0.3,6.6-1.8c1-0.8,1.5-2,1.3-3.3c-0.5-1.8-0.9-3.6-1.4-5.3c-0.5-2.1-1.1-4.4-1.6-6.5
			C11.6,18.1,11.1,19,10.5,19.8z"/>
		<path class="st68" d="M61.9,14.6c-1.3,0.1-2.5,0.4-3.7,1c-0.5,0.3-1,0.6-1.6,0.7c-0.6,0.1-1.2,0-1.7-0.2c-0.1,0-0.6-0.2-0.5-0.4
			l0,0l0.1-0.3l0-0.1c0.1-0.3,0.2-0.6,0.3-0.9c0.3-1,0.6-2,1-2.9C57,7.8,58,4.9,58.2,4.3c-1.5,0-39.9,0-39.9,0
			c-0.2,0.7-3.5,10.9-3.7,11.5c0,0.1-0.1,0.3-0.1,0.4l0,0c0,0.1-0.2,0.1-0.3,0.1c-0.2,0.1-0.3,0.1-0.5,0.2c-0.5,0.2-1.1,0.2-1.6,0.1
			c-0.2,0-0.4-0.1-0.6-0.2c-0.2-0.1-0.3-0.3-0.4-0.4c-0.3-0.3-0.7-0.6-1.2-0.7c-2.1-0.8-4.4-0.5-6.4,0.6C2,16.6,0.3,18.2,0.8,20
			s2.8,2.5,4.6,2.5c1.3,0,2.5-0.4,3.7-1c0.5-0.3,1-0.6,1.6-0.8c0.6-0.1,1.2-0.1,1.7,0.2c0.1,0,0.5,0.2,0.5,0.4l0,0l-0.1,0.3l0,0.2
			C12.6,22,9.2,32.2,9,32.8h40c0.2-0.7,0.5-1.8,0.7-2.5l2.4-7.5c0.2-0.5,0.3-1.1,0.5-1.6c0-0.1,0.1-0.3,0.1-0.4l0,0
			c0-0.1,0.2-0.1,0.3-0.2c0.2-0.1,0.3-0.1,0.5-0.2c0.6-0.2,1.1-0.2,1.7-0.1c0.2,0,0.4,0.1,0.6,0.2c0.1,0.1,0.3,0.3,0.4,0.4
			c0.3,0.3,0.7,0.6,1.2,0.7c2.1,0.8,4.4,0.5,6.4-0.6c1.5-0.8,3.1-2.4,2.6-4.2S63.6,14.6,61.9,14.6z"/>
		<path class="st69" d="M49,32.8c-0.2,0-38.7,0-40,0C9.4,34.5,12.2,44,12.2,44c0.2,0,38.2,0,39.5,0c-0.5-1.8-0.7-3-1.2-4.8
			C49.9,37,49,32.8,49,32.8z"/>
	</g>
</g>
</svg>
