<?xml version="1.0" encoding="utf-8"?>
<!-- Generator: Adobe Illustrator 25.4.1, SVG Export Plug-In . SVG Version: 6.00 Build 0)  -->
<svg version="1.1" id="Camada_1" xmlns="http://www.w3.org/2000/svg" xmlns:xlink="http://www.w3.org/1999/xlink" x="0px" y="0px"
	 viewBox="0 0 62.8 46" style="enable-background:new 0 0 62.8 46;" xml:space="preserve">
<style type="text/css">
	.st0{fill:#E6E6E6;fill-opacity:0;}
	.st1{opacity:2.000000e-02;fill:#E4E4E4;enable-background:new    ;}
	.st2{opacity:3.000000e-02;fill:#E2E2E2;enable-background:new    ;}
	.st3{opacity:5.000000e-02;fill:#E0E0E0;enable-background:new    ;}
	.st4{opacity:7.000000e-02;fill:#DEDEDE;enable-background:new    ;}
	.st5{opacity:8.000000e-02;fill:#DCDCDC;enable-background:new    ;}
	.st6{opacity:0.1;fill:#D9D9D9;enable-background:new    ;}
	.st7{opacity:0.11;fill:#D7D7D7;enable-background:new    ;}
	.st8{opacity:0.13;fill:#D5D5D5;enable-background:new    ;}
	.st9{opacity:0.15;fill:#D3D3D3;enable-background:new    ;}
	.st10{opacity:0.16;fill:#D1D1D1;enable-background:new    ;}
	.st11{opacity:0.18;fill:#CFCFCF;enable-background:new    ;}
	.st12{opacity:0.2;fill:#CDCDCD;enable-background:new    ;}
	.st13{opacity:0.21;fill:#CBCBCB;enable-background:new    ;}
	.st14{opacity:0.23;fill:#C9C9C9;enable-background:new    ;}
	.st15{opacity:0.25;fill:#C7C7C7;enable-background:new    ;}
	.st16{opacity:0.26;fill:#C4C4C4;enable-background:new    ;}
	.st17{opacity:0.28;fill:#C2C2C2;enable-background:new    ;}
	.st18{opacity:0.3;fill:#C0C0C0;enable-background:new    ;}
	.st19{opacity:0.31;fill:#BEBEBE;enable-background:new    ;}
	.st20{opacity:0.33;fill:#BCBCBC;enable-background:new    ;}
	.st21{opacity:0.34;fill:#BABABA;enable-background:new    ;}
	.st22{opacity:0.36;fill:#B8B8B8;enable-background:new    ;}
	.st23{opacity:0.38;fill:#B6B6B6;enable-background:new    ;}
	.st24{opacity:0.39;fill:#B4B4B4;enable-background:new    ;}
	.st25{opacity:0.41;fill:#B2B2B2;enable-background:new    ;}
	.st26{opacity:0.43;fill:#AFAFAF;enable-background:new    ;}
	.st27{opacity:0.44;fill:#ADADAD;enable-background:new    ;}
	.st28{opacity:0.46;fill:#ABABAB;enable-background:new    ;}
	.st29{opacity:0.48;fill:#A9A9A9;enable-background:new    ;}
	.st30{opacity:0.49;fill:#A7A7A7;enable-background:new    ;}
	.st31{opacity:0.51;fill:#A5A5A5;enable-background:new    ;}
	.st32{opacity:0.52;fill:#A3A3A3;enable-background:new    ;}
	.st33{opacity:0.54;fill:#A1A1A1;enable-background:new    ;}
	.st34{opacity:0.56;fill:#9F9F9F;enable-background:new    ;}
	.st35{opacity:0.57;fill:#9D9D9D;enable-background:new    ;}
	.st36{opacity:0.59;fill:#9A9A9A;enable-background:new    ;}
	.st37{opacity:0.61;fill:#989898;enable-background:new    ;}
	.st38{opacity:0.62;fill:#969696;enable-background:new    ;}
	.st39{opacity:0.64;fill:#949494;enable-background:new    ;}
	.st40{opacity:0.66;fill:#929292;enable-background:new    ;}
	.st41{opacity:0.67;fill:#909090;enable-background:new    ;}
	.st42{opacity:0.69;fill:#8E8E8E;enable-background:new    ;}
	.st43{opacity:0.7;fill:#8C8C8C;enable-background:new    ;}
	.st44{opacity:0.72;fill:#8A8A8A;enable-background:new    ;}
	.st45{opacity:0.74;fill:#888888;enable-background:new    ;}
	.st46{opacity:0.75;fill:#858585;enable-background:new    ;}
	.st47{opacity:0.77;fill:#838383;enable-background:new    ;}
	.st48{opacity:0.79;fill:#818181;enable-background:new    ;}
	.st49{opacity:0.8;fill:#7F7F7F;enable-background:new    ;}
	.st50{opacity:0.82;fill:#7D7D7D;enable-background:new    ;}
	.st51{opacity:0.84;fill:#7B7B7B;enable-background:new    ;}
	.st52{opacity:0.85;fill:#797979;enable-background:new    ;}
	.st53{opacity:0.87;fill:#777777;enable-background:new    ;}
	.st54{opacity:0.89;fill:#757575;enable-background:new    ;}
	.st55{opacity:0.9;fill:#737373;enable-background:new    ;}
	.st56{opacity:0.92;fill:#707070;enable-background:new    ;}
	.st57{opacity:0.93;fill:#6E6E6E;enable-background:new    ;}
	.st58{opacity:0.95;fill:#6C6C6C;enable-background:new    ;}
	.st59{opacity:0.97;fill:#6A6A6A;enable-background:new    ;}
	.st60{opacity:0.98;fill:#686868;enable-background:new    ;}
	.st61{fill:#666666;}
	.st62{fill:#695900;}
	.st63{fill:#E8C500;}
	.st64{fill:#FCD500;}
</style>
<g>
	<g id="Camada_1_00000133492351664292232190000002527993647746210693_">
		<g>
			<path class="st0" d="M42.2,45.8C38,44.4,38,33.7,42.2,22s9.2-9.9,11.4-9.2c2.3,0.8,7.7,2.7,3.6,14.4S46.3,47.3,42.2,45.8z"/>
			<path class="st1" d="M42.3,45.5c-4.1-1.4-4.1-12,0-23.5s9.1-9.8,11.2-9.1s7.6,2.7,3.5,14.3S46.4,46.9,42.3,45.5z"/>
			<path class="st2" d="M42.4,45.1c-4-1.4-4-11.8,0-23.2s9-9.7,11.1-9c2.2,0.7,7.4,2.7,3.4,14.1S46.4,46.5,42.4,45.1z"/>
			<path class="st3" d="M42.6,44.8c-3.9-1.4-3.9-11.6,0-22.9s8.8-9.6,10.9-8.9c2.2,0.7,7.3,2.7,3.4,13.9S46.5,46.2,42.6,44.8z"/>
			<path class="st4" d="M42.7,44.5c-3.9-1.4-3.9-11.4,0-22.5s8.7-9.5,10.8-8.8c2.1,0.7,7.2,2.7,3.3,13.7S46.6,45.8,42.7,44.5z"/>
			<path class="st5" d="M42.8,44.1c-3.8-1.3-3.8-11.3,0-22.2s8.6-9.4,10.6-8.7s7,2.6,3.2,13.6S46.6,45.4,42.8,44.1z"/>
			<path class="st6" d="M42.9,43.8c-3.8-1.3-3.7-11.1,0-21.9s8.5-9.3,10.5-8.6s6.9,2.6,3.1,13.3S46.7,45.1,42.9,43.8z"/>
			<path class="st7" d="M43.1,43.4c-3.7-1.3-3.7-10.9,0-21.5s8.3-9.2,10.3-8.5c2.1,0.7,6.8,2.6,3.1,13.2S46.8,44.7,43.1,43.4z"/>
			<path class="st8" d="M43.2,43.1c-3.6-1.3-3.6-10.8,0.1-21.2s8.2-9,10.1-8.4c1.9,0.6,6.7,2.6,3,13S46.8,44.4,43.2,43.1z"/>
			<path class="st9" d="M43.3,42.7c-3.6-1.2-3.5-10.6,0.1-20.9s8.1-8.9,10-8.3c1.9,0.6,6.5,2.6,2.9,12.9S46.9,44,43.3,42.7z"/>
			<path class="st10" d="M43.5,42.4C40,41.2,40,32,43.6,21.9s7.9-8.8,9.8-8.2c1.9,0.6,6.4,2.6,2.9,12.7S46.9,43.6,43.5,42.4z"/>
			<path class="st11" d="M43.6,42.1c-3.4-1.2-3.4-10.2,0.1-20.2s7.8-8.7,9.6-8.1c1.8,0.6,6.3,2.6,2.8,12.5S47,43.3,43.6,42.1z"/>
			<path class="st12" d="M43.7,41.7c-3.4-1.2-3.3-10.1,0.1-19.9s7.7-8.6,9.5-8c1.8,0.6,6.2,2.5,2.7,12.3S47.1,42.9,43.7,41.7z"/>
			<path class="st13" d="M43.8,41.4c-3.3-1.2-3.2-9.9,0.1-19.5s7.6-8.5,9.3-8c1.8,0.5,6,2.5,2.7,12.1S47.2,42.5,43.8,41.4z"/>
			<path class="st14" d="M43.9,41c-3.2-1.1-3.2-9.7,0.1-19.2s7.4-8.4,9.2-7.9c1.7,0.6,5.9,2.5,2.6,12S47.2,42.2,43.9,41z"/>
			<path class="st15" d="M44.1,40.7c-3.2-1.1-3.1-9.6,0.2-18.9s7.3-8.3,9-7.8c1.7,0.6,5.8,2.5,2.5,11.8S47.3,41.8,44.1,40.7z"/>
			<path class="st16" d="M44.2,40.4c-3.1-1.1-3-9.4,0.2-18.5s7.2-8.2,8.8-7.7s5.7,2.5,2.5,11.6S47.4,41.5,44.2,40.4z"/>
			<path class="st17" d="M44.4,40c-3.1-1.1-3-9.2,0.2-18.2s7.1-8.1,8.7-7.6c1.6,0.5,5.5,2.4,2.4,11.4S47.4,41.1,44.4,40z"/>
			<path class="st18" d="M44.5,39.6c-3-1-2.9-9.1,0.2-17.9s6.9-8,8.5-7.5s5.4,2.4,2.3,11.3S47.5,40.7,44.5,39.6z"/>
			<path class="st19" d="M44.6,39.3c-2.9-1-2.8-8.9,0.2-17.6s6.8-7.9,8.4-7.4c1.6,0.5,5.3,2.4,2.2,11.1S47.5,40.4,44.6,39.3z"/>
			<path class="st20" d="M44.7,39c-2.8-1-2.8-8.7,0.2-17.2s6.7-7.8,8.2-7.3s5.1,2.4,2.2,10.9S47.6,40,44.7,39z"/>
			<path class="st21" d="M44.9,38.6c-2.8-1-2.7-8.5,0.2-16.9s6.5-7.7,8.1-7.2s5,2.4,2.1,10.7S47.7,39.6,44.9,38.6z"/>
			<path class="st22" d="M45,38.3c-2.7-1-2.6-8.4,0.2-16.6s6.4-7.6,7.9-7.1s4.9,2.4,2,10.6S47.7,39.3,45,38.3z"/>
			<path class="st23" d="M45.1,38c-2.7-0.9-2.6-8.2,0.2-16.2s6.3-7.5,7.7-7c1.5,0.5,4.8,2.4,1.9,10.4S47.8,38.9,45.1,38z"/>
			<path class="st24" d="M45.3,37.6c-2.6-0.9-2.5-8,0.3-15.9s6.2-7.4,7.6-6.9S57.8,17.2,55,25S47.9,38.5,45.3,37.6z"/>
			<path class="st25" d="M45.4,37.3c-2.5-0.9-2.4-7.9,0.3-15.6s6-7.3,7.4-6.8c1.4,0.5,4.5,2.3,1.8,10S47.9,38.2,45.4,37.3z"/>
			<path class="st26" d="M45.5,36.9c-2.5-0.9-2.3-7.7,0.3-15.2s5.9-7.1,7.3-6.7c1.4,0.4,4.4,2.3,1.7,9.9S48,37.8,45.5,36.9z"/>
			<path class="st27" d="M45.6,36.6c-2.4-0.8-2.3-7.5,0.3-14.9s5.8-7,7.1-6.6c1.3,0.4,4.3,2.3,1.7,9.7S48.1,37.5,45.6,36.6z"/>
			<path class="st28" d="M45.8,36.3c-2.4-0.8-2.2-7.4,0.3-14.6s5.7-6.9,7-6.5c1.4,0.4,4.1,2.3,1.6,9.5S48.1,37.1,45.8,36.3z"/>
			<path class="st29" d="M45.9,35.9c-2.3-0.8-2.2-7.2,0.3-14.3s5.5-6.8,6.8-6.4c1.3,0.4,4,2.3,1.5,9.3S48.2,36.7,45.9,35.9z"/>
			<path class="st30" d="M46,35.6c-2.2-0.8-2.1-7,0.3-13.9s5.4-6.7,6.6-6.3c1.2,0.4,3.9,2.2,1.4,9.2S48.3,36.4,46,35.6z"/>
			<path class="st31" d="M46.2,35.2c-2.2-0.8-2-6.8,0.3-13.6s5.3-6.6,6.5-6.2s3.8,2.2,1.4,9S48.3,36,46.2,35.2z"/>
			<path class="st32" d="M46.3,34.9c-2.1-0.7-2-6.7,0.4-13.3s5.2-6.5,6.3-6.1s3.6,2.2,1.3,8.8S48.4,35.6,46.3,34.9z"/>
			<path class="st33" d="M46.4,34.6c-2-0.7-1.9-6.5,0.4-12.9s5-6.4,6.2-6c1.2,0.4,3.5,2.2,1.2,8.6S48.5,35.3,46.4,34.6z"/>
			<path class="st34" d="M46.5,34.2c-2-0.7-1.8-6.3,0.4-12.6s4.9-6.3,6-5.9c1.1,0.4,3.4,2.2,1.2,8.5S48.5,34.9,46.5,34.2z"/>
			<path class="st35" d="M46.7,33.9c-1.9-0.7-1.7-6.2,0.4-12.3s4.8-6.2,5.8-5.8c1.1,0.4,3.3,2.2,1.1,8.3S48.6,34.5,46.7,33.9z"/>
			<path class="st36" d="M46.8,33.5c-1.8-0.7-1.7-6,0.4-11.9s4.6-6.1,5.7-5.7c1.1,0.3,3.1,2.2,1,8.1S48.7,34.2,46.8,33.5z"/>
			<path class="st37" d="M46.9,33.2c-1.8-0.6-1.6-5.8,0.4-11.6s4.5-5.9,5.6-5.6c1.1,0.3,3,2.1,1,7.9S48.7,33.8,46.9,33.2z"/>
			<path class="st38" d="M47.1,32.9c-1.7-0.6-1.5-5.7,0.4-11.3s4.4-5.9,5.4-5.5c1,0.3,2.9,2.1,0.9,7.7S48.8,33.5,47.1,32.9z"/>
			<path class="st39" d="M47.2,32.5c-1.7-0.6-1.5-5.5,0.5-11s4.3-5.8,5.2-5.5c1,0.3,2.7,2.1,0.8,7.6S48.9,33.1,47.2,32.5z"/>
			<path class="st40" d="M47.3,32.2c-1.6-0.6-1.4-5.3,0.5-10.6s4.1-5.7,5.1-5.4c0.9,0.3,2.6,2.1,0.8,7.4S48.9,32.7,47.3,32.2z"/>
			<path class="st41" d="M47.4,31.8c-1.5-0.5-1.3-5.2,0.5-10.3s4-5.6,4.9-5.2c0.9,0.3,2.5,2.1,0.7,7.2S49,32.4,47.4,31.8z"/>
			<path class="st42" d="M47.6,31.5c-1.5-0.5-1.2-5,0.5-10s3.9-5.4,4.7-5.2s2.4,2,0.6,7S49.1,32,47.6,31.5z"/>
			<path class="st43" d="M47.7,31.1c-1.4-0.5-1.2-4.8,0.5-9.6s3.7-5.3,4.6-5.1c0.8,0.3,2.2,2,0.5,6.9S49.1,31.6,47.7,31.1z"/>
			<path class="st44" d="M47.8,30.8c-1.3-0.5-1.1-4.6,0.5-9.3s3.6-5.2,4.4-5s2.1,2,0.5,6.7S49.2,31.3,47.8,30.8z"/>
			<path class="st45" d="M47.9,30.5c-1.3-0.5-1-4.5,0.5-9s3.5-5.1,4.3-4.9c0.8,0.3,2,2,0.4,6.5S49.3,30.9,47.9,30.5z"/>
			<path class="st46" d="M48.1,30.1c-1.2-0.4-1-4.3,0.5-8.6s3.4-5,4.1-4.8c0.7,0.2,1.9,2,0.3,6.3S49.3,30.6,48.1,30.1z"/>
			<path class="st47" d="M48.2,29.8c-1.2-0.4-0.9-4.1,0.5-8.3s3.2-4.9,4-4.7s1.7,2,0.3,6.2S49.4,30.2,48.2,29.8z"/>
			<path class="st48" d="M48.4,29.4c-1.1-0.4-0.8-4,0.6-8s3.1-4.8,3.8-4.6c0.7,0.2,1.6,2,0.2,6S49.5,29.8,48.4,29.4z"/>
			<path class="st49" d="M48.5,29.1c-1-0.4-0.8-3.8,0.6-7.7s3-4.7,3.6-4.5s1.5,1.9,0.1,5.8S49.5,29.5,48.5,29.1z"/>
			<path class="st50" d="M48.6,28.8c-1-0.3-0.7-3.6,0.6-7.3s2.9-4.6,3.5-4.4c0.6,0.2,1.3,1.9,0,5.6S49.6,29.1,48.6,28.8z"/>
			<path class="st51" d="M48.7,28.4c-0.9-0.3-0.6-3.5,0.6-7s2.7-4.5,3.3-4.3s1.2,1.9,0,5.5S49.6,28.7,48.7,28.4z"/>
			<path class="st52" d="M48.9,28.1c-0.8-0.3-0.6-3.3,0.6-6.7s2.6-4.4,3.2-4.2c0.6,0.2,1.1,1.9-0.1,5.3S49.7,28.4,48.9,28.1z"/>
			<path class="st53" d="M49,27.7c-0.8-0.3-0.5-3.1,0.6-6.3s2.5-4.3,3-4.1s1,1.9-0.2,5.1S49.8,28,49,27.7z"/>
			<path class="st54" d="M49.1,27.4c-0.7-0.2-0.4-2.9,0.6-6s2.3-4.2,2.8-4c0.5,0.2,0.8,1.9-0.2,4.9S49.8,27.6,49.1,27.4z"/>
			<path class="st55" d="M49.3,27.1c-0.7-0.2-0.4-2.8,0.7-5.7s2.2-4.1,2.7-3.9s0.7,1.8-0.3,4.8S49.9,27.3,49.3,27.1z"/>
			<path class="st56" d="M49.4,26.7c-0.6-0.2-0.3-2.6,0.7-5.3s2.1-4,2.5-3.8c0.4,0.2,0.6,1.8-0.4,4.6S49.9,26.9,49.4,26.7z"/>
			<path class="st57" d="M49.5,26.4c-0.5-0.2-0.2-2.4,0.7-5s2-3.9,2.4-3.7s0.5,1.8-0.4,4.4S50,26.6,49.5,26.4z"/>
			<path class="st58" d="M49.6,26c-0.5-0.2-0.2-2.3,0.7-4.7s1.8-3.7,2.2-3.6s0.3,1.8-0.5,4.2S50.1,26.2,49.6,26z"/>
			<path class="st59" d="M49.8,25.7c-0.4-0.1-0.1-2.1,0.7-4.3s1.7-3.7,2.1-3.5s0.2,1.8-0.6,4S50.2,25.8,49.8,25.7z"/>
			<path class="st60" d="M49.9,25.3c-0.3-0.1,0-1.9,0.7-4s1.6-3.5,1.9-3.4s0.1,1.8-0.7,3.9S50.2,25.5,49.9,25.3z"/>
			<path class="st61" d="M50,25c-0.3-0.1,0-1.8,0.7-3.7s1.5-3.4,1.7-3.3s0,1.8-0.7,3.7S50.3,25.1,50,25z"/>
		</g>
		<path class="st62" d="M46.7,13.4c0.5,1.8,0.9,3.6,1.4,5.3c0.5,2.1,1.1,4.2,1.6,6.3v0.1l1.7-5.2c0.7-2.1,1.3-4.2,2-6.3
			c0-0.1,0-0.2,0-0.2c-0.1-0.3-0.1-0.5-0.2-0.8c-0.3-1.1-0.6-2.2-0.9-3.3l-1.8-7c0-0.2-0.1-0.4-0.1-0.5l-1.7,5.2
			c-0.7,2.1-1.3,4.2-2,6.2C46.7,13.4,46.7,13.4,46.7,13.4L46.7,13.4z"/>
		<path class="st63" d="M41.3,30.1H1.5c0.5,1.8,3.2,11.4,3.2,11.4h39.5c-0.5-1.8-0.8-3.2-1.2-5c-0.5-2.1-1.1-4.2-1.6-6.3
			C41.4,30.1,41.4,30.1,41.3,30.1z"/>
		<path class="st62" d="M61.8,26.4c-0.5-1.8-0.9-3.6-1.4-5.3l-1.6-6.3c0,0,0-0.1,0-0.1c0.2,1.1-0.2,2.3-1.1,3.1
			c-0.9,0.9-2,1.5-3.2,1.8c-1.9,0.6-4.7,0.6-6.1-1.1c-0.6-0.7-1.9-0.5-2.7-0.2c-0.1,0-0.6,0.2-0.6,0.3v0.2l-0.1-0.2l-1.7,5.2l-2,6.2
			c0,0,0,0.1,0,0.1l1.4,5.3c0.5,2.1,1.5,6,1.5,6c0.6-1.8,3.1-9,3.8-11.1c0-0.1,0-0.2,0-0.2l-0.1-0.5c0,0.2,0.1,0.4,0.2,0.6
			c0.5-0.3,1-0.4,1.6-0.5c0.5-0.1,1,0,1.5,0.3c0.2,0.2,0.3,0.4,0.5,0.5c0.2,0.2,0.4,0.3,0.6,0.4c0.5,0.3,1.1,0.4,1.6,0.5
			c2.4,0.4,4.7-0.3,6.5-1.9C61.5,28.9,62,27.6,61.8,26.4z"/>
		<path class="st64" d="M54.4,12.3c-1.3,0-2.6,0.3-3.7,0.8c-0.5,0.3-1,0.6-1.5,0.8c-0.6,0.2-1.2,0.2-1.8,0c-0.1,0-0.8-0.3-0.8-0.4
			s0-0.1,0.1-0.2c0.1-0.3,0.2-0.7,0.3-1l2.4-7.4c0.3-1,0.6-2,1-3c-1.6,0-39.9,0-39.9,0l-9,28.3c1.6,0,39.9,0,39.9,0l0.2-0.6
			c0.3-1,0.6-2,1-3c0.8-2.4,1.5-4.8,2.3-7.2l0.2-0.7v0c0-0.1,0.4-0.2,0.5-0.2c0.5-0.2,1.1-0.3,1.7-0.3c0.2,0,0.5,0.1,0.7,0.2
			c0.2,0.1,0.3,0.2,0.5,0.4c0.3,0.3,0.7,0.6,1.1,0.8c1,0.4,2.1,0.6,3.2,0.5c2.1-0.1,4-1.1,5.4-2.7c0.5-0.7,0.8-1.5,0.6-2.3
			c-0.2-0.8-0.7-1.5-1.4-1.9C56.5,12.5,55.5,12.2,54.4,12.3L54.4,12.3z"/>
		<path class="st64" d="M16.1,29.8"/>
		<path class="st63" d="M41.4,30.2"/>
		<path class="st64" d="M3.2,29.7"/>
		<path class="st63" d="M37.7,30"/>
	</g>
</g>
</svg>
