<?xml version="1.0" encoding="iso-8859-1"?>
<!-- Generator: Adobe Illustrator 16.0.0, SVG Export Plug-In . SVG Version: 6.00 Build 0)  -->
<!DOCTYPE svg PUBLIC "-//W3C//DTD SVG 1.1//EN" "http://www.w3.org/Graphics/SVG/1.1/DTD/svg11.dtd">
<svg version="1.1" id="Camada_1" xmlns="http://www.w3.org/2000/svg" xmlns:xlink="http://www.w3.org/1999/xlink" x="0px" y="0px"
	 width="532px" height="264px" viewBox="0 0 532 264" style="enable-background:new 0 0 532 264;" xml:space="preserve">
<g>
	<g>
		<path style="fill-rule:evenodd;clip-rule:evenodd;fill:#939598;" d="M421.933,40.876c3.957,0,7.185-3.228,7.185-7.185
			s-3.228-7.186-7.185-7.186c-3.958,0-7.186,3.228-7.186,7.186S417.975,40.876,421.933,40.876z"/>
		<path style="fill-rule:evenodd;clip-rule:evenodd;fill:#939598;" d="M434.822,60.211c3.957,0,7.186-3.228,7.186-7.185
			s-3.229-7.185-7.186-7.185c-3.958,0-7.186,3.228-7.186,7.185S430.864,60.211,434.822,60.211z"/>
		<path style="fill-rule:evenodd;clip-rule:evenodd;fill:#939598;" d="M454.126,60.211c3.958,0,7.186-3.228,7.186-7.185
			s-3.228-7.185-7.186-7.185c-3.957,0-7.185,3.228-7.185,7.185S450.169,60.211,454.126,60.211z"/>
		<path style="fill-rule:evenodd;clip-rule:evenodd;fill:#939598;" d="M447.712,79.545c3.957,0,7.186-3.228,7.186-7.185
			s-3.229-7.185-7.186-7.185c-3.958,0-7.185,3.228-7.185,7.185S443.754,79.545,447.712,79.545z"/>
		<path style="fill-rule:evenodd;clip-rule:evenodd;fill:#939598;" d="M421.933,98.88c3.957,0,7.185-3.228,7.185-7.185
			s-3.228-7.185-7.185-7.185c-3.958,0-7.186,3.228-7.186,7.185S417.975,98.88,421.933,98.88z"/>
		<path style="fill-rule:evenodd;clip-rule:evenodd;fill:#939598;" d="M434.822,118.214c3.957,0,7.186-3.228,7.186-7.185
			c0-3.957-3.229-7.185-7.186-7.185c-3.958,0-7.186,3.228-7.186,7.185C427.637,114.987,430.864,118.214,434.822,118.214z"/>
		<path style="fill-rule:evenodd;clip-rule:evenodd;fill:#939598;" d="M409.043,137.549c3.957,0,7.185-3.228,7.185-7.185
			c0-3.958-3.228-7.186-7.185-7.186c-3.958,0-7.186,3.228-7.186,7.186C401.857,134.321,405.085,137.549,409.043,137.549z"/>
		<path style="fill-rule:evenodd;clip-rule:evenodd;fill:#939598;" d="M421.933,156.884c3.957,0,7.185-3.229,7.185-7.186
			s-3.228-7.185-7.185-7.185c-3.958,0-7.186,3.228-7.186,7.185S417.975,156.884,421.933,156.884z"/>
		<path style="fill-rule:evenodd;clip-rule:evenodd;fill:#939598;" d="M442.604,176.218c3.958,0,7.186-3.228,7.186-7.185
			c0-3.958-3.228-7.186-7.186-7.186c-3.957,0-7.185,3.228-7.185,7.186C435.419,172.99,438.646,176.218,442.604,176.218z"/>
		<path style="fill-rule:evenodd;clip-rule:evenodd;fill:#939598;" d="M428.377,195.553c3.958,0,7.186-3.228,7.186-7.186
			c0-3.957-3.228-7.185-7.186-7.185c-3.957,0-7.185,3.228-7.185,7.185C421.192,192.325,424.42,195.553,428.377,195.553z"/>
		<path style="fill-rule:evenodd;clip-rule:evenodd;fill:#939598;" d="M434.822,214.888c3.957,0,7.186-3.228,7.186-7.186
			c0-3.957-3.229-7.186-7.186-7.186c-3.958,0-7.186,3.229-7.186,7.186C427.637,211.66,430.864,214.888,434.822,214.888z"/>
		<path style="fill-rule:evenodd;clip-rule:evenodd;fill:#939598;" d="M421.933,234.222c3.957,0,7.185-3.228,7.185-7.185
			c0-3.958-3.228-7.186-7.185-7.186c-3.958,0-7.186,3.228-7.186,7.186C414.747,230.994,417.975,234.222,421.933,234.222z"/>
		<path style="fill-rule:evenodd;clip-rule:evenodd;fill:#939598;" d="M392.826,253.557c3.957,0,7.186-3.228,7.186-7.186
			c0-3.957-3.229-7.185-7.186-7.185c-3.958,0-7.186,3.228-7.186,7.185C385.641,250.329,388.868,253.557,392.826,253.557z"/>
		<path style="fill-rule:evenodd;clip-rule:evenodd;fill:#939598;" d="M412.16,253.557c3.958,0,7.186-3.228,7.186-7.186
			c0-3.957-3.228-7.185-7.186-7.185c-3.957,0-7.185,3.228-7.185,7.185C404.976,250.329,408.203,253.557,412.16,253.557z"/>
		<path style="fill-rule:evenodd;clip-rule:evenodd;fill:#939598;" d="M467.047,79.545c3.957,0,7.185-3.228,7.185-7.185
			s-3.228-7.185-7.185-7.185c-3.958,0-7.186,3.228-7.186,7.185S463.089,79.545,467.047,79.545z"/>
		<path style="fill-rule:evenodd;clip-rule:evenodd;fill:#939598;" d="M441.267,98.88c3.958,0,7.186-3.228,7.186-7.185
			s-3.228-7.185-7.186-7.185c-3.957,0-7.185,3.228-7.185,7.185S437.31,98.88,441.267,98.88z"/>
		<path style="fill-rule:evenodd;clip-rule:evenodd;fill:#939598;" d="M454.156,118.214c3.958,0,7.186-3.228,7.186-7.185
			c0-3.957-3.228-7.185-7.186-7.185c-3.957,0-7.185,3.228-7.185,7.185C446.972,114.987,450.199,118.214,454.156,118.214z"/>
		<path style="fill-rule:evenodd;clip-rule:evenodd;fill:#939598;" d="M428.377,137.549c3.958,0,7.186-3.228,7.186-7.185
			c0-3.958-3.228-7.186-7.186-7.186c-3.957,0-7.185,3.228-7.185,7.186C421.192,134.321,424.42,137.549,428.377,137.549z"/>
		<path style="fill-rule:evenodd;clip-rule:evenodd;fill:#939598;" d="M441.267,156.884c3.958,0,7.186-3.229,7.186-7.186
			s-3.228-7.185-7.186-7.185c-3.957,0-7.185,3.228-7.185,7.185S437.31,156.884,441.267,156.884z"/>
		<path style="fill-rule:evenodd;clip-rule:evenodd;fill:#939598;" d="M461.938,176.218c3.958,0,7.186-3.228,7.186-7.185
			c0-3.958-3.228-7.186-7.186-7.186c-3.957,0-7.186,3.228-7.186,7.186C454.753,172.99,457.981,176.218,461.938,176.218z"/>
		<path style="fill-rule:evenodd;clip-rule:evenodd;fill:#939598;" d="M447.712,195.553c3.957,0,7.186-3.228,7.186-7.186
			c0-3.957-3.229-7.185-7.186-7.185c-3.958,0-7.185,3.228-7.185,7.185C440.527,192.325,443.754,195.553,447.712,195.553z"/>
		<path style="fill-rule:evenodd;clip-rule:evenodd;fill:#939598;" d="M486.381,79.545c3.957,0,7.186-3.228,7.186-7.185
			s-3.229-7.185-7.186-7.185s-7.185,3.228-7.185,7.185S482.424,79.545,486.381,79.545z"/>
		<path style="fill-rule:evenodd;clip-rule:evenodd;fill:#939598;" d="M460.602,98.88c3.957,0,7.186-3.228,7.186-7.185
			s-3.229-7.185-7.186-7.185s-7.185,3.228-7.185,7.185S456.645,98.88,460.602,98.88z"/>
		<path style="fill-rule:evenodd;clip-rule:evenodd;fill:#939598;" d="M473.491,118.214c3.957,0,7.186-3.228,7.186-7.185
			c0-3.957-3.229-7.185-7.186-7.185s-7.185,3.228-7.185,7.185C466.307,114.987,469.534,118.214,473.491,118.214z"/>
		<path style="fill-rule:evenodd;clip-rule:evenodd;fill:#939598;" d="M447.712,137.549c3.957,0,7.186-3.228,7.186-7.185
			c0-3.958-3.229-7.186-7.186-7.186c-3.958,0-7.185,3.228-7.185,7.186C440.527,134.321,443.754,137.549,447.712,137.549z"/>
		<path style="fill-rule:evenodd;clip-rule:evenodd;fill:#939598;" d="M460.602,156.884c3.957,0,7.186-3.229,7.186-7.186
			s-3.229-7.185-7.186-7.185s-7.185,3.228-7.185,7.185S456.645,156.884,460.602,156.884z"/>
		<path style="fill-rule:evenodd;clip-rule:evenodd;fill:#939598;" d="M481.273,176.218c3.957,0,7.186-3.228,7.186-7.185
			c0-3.958-3.229-7.186-7.186-7.186c-3.958,0-7.186,3.228-7.186,7.186C474.088,172.99,477.315,176.218,481.273,176.218z"/>
		<path style="fill-rule:evenodd;clip-rule:evenodd;fill:#939598;" d="M505.716,79.545c3.957,0,7.185-3.228,7.185-7.185
			s-3.228-7.185-7.185-7.185c-3.958,0-7.186,3.228-7.186,7.185S501.758,79.545,505.716,79.545z"/>
		<path style="fill-rule:evenodd;clip-rule:evenodd;fill:#939598;" d="M479.937,98.88c3.957,0,7.185-3.228,7.185-7.185
			s-3.228-7.185-7.185-7.185c-3.958,0-7.186,3.228-7.186,7.185S475.979,98.88,479.937,98.88z"/>
		<path style="fill-rule:evenodd;clip-rule:evenodd;fill:#939598;" d="M492.826,118.214c3.957,0,7.185-3.228,7.185-7.185
			c0-3.957-3.228-7.185-7.185-7.185c-3.958,0-7.186,3.228-7.186,7.185C485.641,114.987,488.868,118.214,492.826,118.214z"/>
		<path style="fill-rule:evenodd;clip-rule:evenodd;fill:#939598;" d="M467.047,137.549c3.957,0,7.185-3.228,7.185-7.185
			c0-3.958-3.228-7.186-7.185-7.186c-3.958,0-7.186,3.228-7.186,7.186C459.861,134.321,463.089,137.549,467.047,137.549z"/>
		<path style="fill-rule:evenodd;clip-rule:evenodd;fill:#939598;" d="M479.937,156.884c3.957,0,7.185-3.229,7.185-7.186
			s-3.228-7.185-7.185-7.185c-3.958,0-7.186,3.228-7.186,7.185S475.979,156.884,479.937,156.884z"/>
		<path style="fill-rule:evenodd;clip-rule:evenodd;fill:#939598;" d="M499.271,98.88c3.958,0,7.186-3.228,7.186-7.185
			s-3.228-7.185-7.186-7.185c-3.957,0-7.185,3.228-7.185,7.185S495.313,98.88,499.271,98.88z"/>
		<path style="fill-rule:evenodd;clip-rule:evenodd;fill:#939598;" d="M512.16,118.214c3.958,0,7.186-3.228,7.186-7.185
			c0-3.957-3.228-7.185-7.186-7.185c-3.957,0-7.185,3.228-7.185,7.185C504.976,114.987,508.203,118.214,512.16,118.214z"/>
		<path style="fill-rule:evenodd;clip-rule:evenodd;fill:#939598;" d="M486.381,137.549c3.957,0,7.186-3.228,7.186-7.185
			c0-3.958-3.229-7.186-7.186-7.186s-7.185,3.228-7.185,7.186C479.196,134.321,482.424,137.549,486.381,137.549z"/>
		<path style="fill-rule:evenodd;clip-rule:evenodd;fill:#939598;" d="M518.605,98.88c3.957,0,7.185-3.228,7.185-7.185
			s-3.228-7.185-7.185-7.185c-3.958,0-7.186,3.228-7.186,7.185S514.647,98.88,518.605,98.88z"/>
		<path style="fill-rule:evenodd;clip-rule:evenodd;fill:#939598;" d="M402.598,40.876c3.958,0,7.186-3.228,7.186-7.185
			s-3.228-7.186-7.186-7.186c-3.957,0-7.185,3.228-7.185,7.186S398.641,40.876,402.598,40.876z"/>
		<path style="fill-rule:evenodd;clip-rule:evenodd;fill:#939598;" d="M415.487,60.211c3.958,0,7.186-3.228,7.186-7.185
			s-3.228-7.185-7.186-7.185c-3.957,0-7.185,3.228-7.185,7.185S411.53,60.211,415.487,60.211z"/>
		<path style="fill-rule:evenodd;clip-rule:evenodd;fill:#939598;" d="M428.377,79.545c3.958,0,7.186-3.228,7.186-7.185
			s-3.228-7.185-7.186-7.185c-3.957,0-7.185,3.228-7.185,7.185S424.42,79.545,428.377,79.545z"/>
		<path style="fill-rule:evenodd;clip-rule:evenodd;fill:#939598;" d="M402.598,98.88c3.958,0,7.186-3.228,7.186-7.185
			s-3.228-7.185-7.186-7.185c-3.957,0-7.185,3.228-7.185,7.185S398.641,98.88,402.598,98.88z"/>
		<path style="fill-rule:evenodd;clip-rule:evenodd;fill:#939598;" d="M415.487,118.214c3.958,0,7.186-3.228,7.186-7.185
			c0-3.957-3.228-7.185-7.186-7.185c-3.957,0-7.185,3.228-7.185,7.185C408.303,114.987,411.53,118.214,415.487,118.214z"/>
		<path style="fill-rule:evenodd;clip-rule:evenodd;fill:#939598;" d="M389.708,137.549c3.958,0,7.186-3.228,7.186-7.185
			c0-3.958-3.228-7.186-7.186-7.186c-3.957,0-7.185,3.228-7.185,7.186C382.523,134.321,385.751,137.549,389.708,137.549z"/>
		<path style="fill-rule:evenodd;clip-rule:evenodd;fill:#939598;" d="M402.598,156.884c3.958,0,7.186-3.229,7.186-7.186
			s-3.228-7.185-7.186-7.185c-3.957,0-7.185,3.228-7.185,7.185S398.641,156.884,402.598,156.884z"/>
		<path style="fill-rule:evenodd;clip-rule:evenodd;fill:#939598;" d="M423.27,176.218c3.957,0,7.186-3.228,7.186-7.185
			c0-3.958-3.229-7.186-7.186-7.186c-3.958,0-7.186,3.228-7.186,7.186C416.084,172.99,419.312,176.218,423.27,176.218z"/>
		<path style="fill-rule:evenodd;clip-rule:evenodd;fill:#939598;" d="M409.043,195.553c3.957,0,7.185-3.228,7.185-7.186
			c0-3.957-3.228-7.185-7.185-7.185c-3.958,0-7.186,3.228-7.186,7.185C401.857,192.325,405.085,195.553,409.043,195.553z"/>
		<path style="fill-rule:evenodd;clip-rule:evenodd;fill:#939598;" d="M389.975,195.553c3.958,0,7.186-3.228,7.186-7.186
			c0-3.957-3.228-7.185-7.186-7.185c-3.957,0-7.185,3.228-7.185,7.185C382.79,192.325,386.018,195.553,389.975,195.553z"/>
		<path style="fill-rule:evenodd;clip-rule:evenodd;fill:#939598;" d="M415.487,214.888c3.958,0,7.186-3.228,7.186-7.186
			c0-3.957-3.228-7.186-7.186-7.186c-3.957,0-7.185,3.229-7.185,7.186C408.303,211.66,411.53,214.888,415.487,214.888z"/>
		<path style="fill-rule:evenodd;clip-rule:evenodd;fill:#939598;" d="M402.598,234.222c3.958,0,7.186-3.228,7.186-7.185
			c0-3.958-3.228-7.186-7.186-7.186c-3.957,0-7.185,3.228-7.185,7.186C395.413,230.994,398.641,234.222,402.598,234.222z"/>
		<path style="fill-rule:evenodd;clip-rule:evenodd;fill:#939598;" d="M383.264,40.876c3.957,0,7.185-3.228,7.185-7.185
			s-3.228-7.186-7.185-7.186c-3.958,0-7.186,3.228-7.186,7.186S379.306,40.876,383.264,40.876z"/>
		<path style="fill-rule:evenodd;clip-rule:evenodd;fill:#939598;" d="M396.153,60.211c3.957,0,7.185-3.228,7.185-7.185
			s-3.228-7.185-7.185-7.185c-3.958,0-7.186,3.228-7.186,7.185S392.195,60.211,396.153,60.211z"/>
		<path style="fill-rule:evenodd;clip-rule:evenodd;fill:#939598;" d="M409.043,79.545c3.957,0,7.185-3.228,7.185-7.185
			s-3.228-7.185-7.185-7.185c-3.958,0-7.186,3.228-7.186,7.185S405.085,79.545,409.043,79.545z"/>
		<path style="fill-rule:evenodd;clip-rule:evenodd;fill:#939598;" d="M383.264,98.88c3.957,0,7.185-3.228,7.185-7.185
			s-3.228-7.185-7.185-7.185c-3.958,0-7.186,3.228-7.186,7.185S379.306,98.88,383.264,98.88z"/>
		<path style="fill-rule:evenodd;clip-rule:evenodd;fill:#939598;" d="M396.153,118.214c3.957,0,7.185-3.228,7.185-7.185
			c0-3.957-3.228-7.185-7.185-7.185c-3.958,0-7.186,3.228-7.186,7.185C388.968,114.987,392.195,118.214,396.153,118.214z"/>
		<path style="fill-rule:evenodd;clip-rule:evenodd;fill:#939598;" d="M370.373,137.549c3.958,0,7.186-3.228,7.186-7.185
			c0-3.958-3.228-7.186-7.186-7.186c-3.957,0-7.185,3.228-7.185,7.186C363.188,134.321,366.416,137.549,370.373,137.549z"/>
		<path style="fill-rule:evenodd;clip-rule:evenodd;fill:#939598;" d="M351.039,137.549c3.957,0,7.185-3.228,7.185-7.185
			c0-3.958-3.228-7.186-7.185-7.186c-3.958,0-7.186,3.228-7.186,7.186C343.854,134.321,347.081,137.549,351.039,137.549z"/>
		<path style="fill-rule:evenodd;clip-rule:evenodd;fill:#939598;" d="M383.264,156.884c3.957,0,7.185-3.229,7.185-7.186
			s-3.228-7.185-7.185-7.185c-3.958,0-7.186,3.228-7.186,7.185S379.306,156.884,383.264,156.884z"/>
		<path style="fill-rule:evenodd;clip-rule:evenodd;fill:#939598;" d="M403.935,176.218c3.958,0,7.186-3.228,7.186-7.185
			c0-3.958-3.228-7.186-7.186-7.186c-3.957,0-7.185,3.228-7.185,7.186C396.75,172.99,399.978,176.218,403.935,176.218z"/>
		<path style="fill-rule:evenodd;clip-rule:evenodd;fill:#939598;" d="M384.732,178.082c3.957,0,7.185-3.229,7.185-7.186
			c0-3.958-3.228-7.186-7.185-7.186c-3.958,0-7.186,3.228-7.186,7.186C377.547,174.854,380.774,178.082,384.732,178.082z"/>
		<path style="fill-rule:evenodd;clip-rule:evenodd;fill:#939598;" d="M363.929,40.876c3.957,0,7.185-3.228,7.185-7.185
			s-3.228-7.186-7.185-7.186c-3.958,0-7.186,3.228-7.186,7.186S359.971,40.876,363.929,40.876z"/>
		<path style="fill-rule:evenodd;clip-rule:evenodd;fill:#939598;" d="M376.818,60.211c3.957,0,7.186-3.228,7.186-7.185
			s-3.229-7.185-7.186-7.185c-3.958,0-7.186,3.228-7.186,7.185S372.86,60.211,376.818,60.211z"/>
		<path style="fill-rule:evenodd;clip-rule:evenodd;fill:#939598;" d="M389.708,79.545c3.958,0,7.186-3.228,7.186-7.185
			s-3.228-7.185-7.186-7.185c-3.957,0-7.185,3.228-7.185,7.185S385.751,79.545,389.708,79.545z"/>
		<path style="fill-rule:evenodd;clip-rule:evenodd;fill:#939598;" d="M363.929,98.88c3.957,0,7.185-3.228,7.185-7.185
			s-3.228-7.185-7.185-7.185c-3.958,0-7.186,3.228-7.186,7.185S359.971,98.88,363.929,98.88z"/>
		<path style="fill-rule:evenodd;clip-rule:evenodd;fill:#939598;" d="M376.818,118.214c3.957,0,7.186-3.228,7.186-7.185
			c0-3.957-3.229-7.185-7.186-7.185c-3.958,0-7.186,3.228-7.186,7.185C369.633,114.987,372.86,118.214,376.818,118.214z"/>
		<path style="fill-rule:evenodd;clip-rule:evenodd;fill:#939598;" d="M344.594,40.876c3.958,0,7.186-3.228,7.186-7.185
			s-3.228-7.186-7.186-7.186c-3.957,0-7.185,3.228-7.185,7.186S340.637,40.876,344.594,40.876z"/>
		<path style="fill-rule:evenodd;clip-rule:evenodd;fill:#939598;" d="M357.483,60.211c3.958,0,7.186-3.228,7.186-7.185
			s-3.228-7.185-7.186-7.185c-3.957,0-7.185,3.228-7.185,7.185S353.526,60.211,357.483,60.211z"/>
		<path style="fill-rule:evenodd;clip-rule:evenodd;fill:#939598;" d="M370.373,79.545c3.958,0,7.186-3.228,7.186-7.185
			s-3.228-7.185-7.186-7.185c-3.957,0-7.185,3.228-7.185,7.185S366.416,79.545,370.373,79.545z"/>
		<path style="fill-rule:evenodd;clip-rule:evenodd;fill:#939598;" d="M344.594,98.88c3.958,0,7.186-3.228,7.186-7.185
			s-3.228-7.185-7.186-7.185c-3.957,0-7.185,3.228-7.185,7.185S340.637,98.88,344.594,98.88z"/>
		<path style="fill-rule:evenodd;clip-rule:evenodd;fill:#939598;" d="M357.483,118.214c3.958,0,7.186-3.228,7.186-7.185
			c0-3.957-3.228-7.185-7.186-7.185c-3.957,0-7.185,3.228-7.185,7.185C350.299,114.987,353.526,118.214,357.483,118.214z"/>
		<path style="fill-rule:evenodd;clip-rule:evenodd;fill:#939598;" d="M338.149,60.211c3.957,0,7.185-3.228,7.185-7.185
			s-3.228-7.185-7.185-7.185c-3.958,0-7.186,3.228-7.186,7.185S334.191,60.211,338.149,60.211z"/>
		<path style="fill-rule:evenodd;clip-rule:evenodd;fill:#939598;" d="M351.039,79.545c3.957,0,7.185-3.228,7.185-7.185
			s-3.228-7.185-7.185-7.185c-3.958,0-7.186,3.228-7.186,7.185S347.081,79.545,351.039,79.545z"/>
		<path style="fill-rule:evenodd;clip-rule:evenodd;fill:#939598;" d="M325.26,98.88c3.957,0,7.185-3.228,7.185-7.185
			s-3.228-7.185-7.185-7.185c-3.958,0-7.186,3.228-7.186,7.185S321.302,98.88,325.26,98.88z"/>
		<path style="fill-rule:evenodd;clip-rule:evenodd;fill:#939598;" d="M338.149,118.214c3.957,0,7.185-3.228,7.185-7.185
			c0-3.957-3.228-7.185-7.185-7.185c-3.958,0-7.186,3.228-7.186,7.185C330.964,114.987,334.191,118.214,338.149,118.214z"/>
		<path style="fill-rule:evenodd;clip-rule:evenodd;fill:#939598;" d="M318.814,60.211c3.957,0,7.186-3.228,7.186-7.185
			s-3.229-7.185-7.186-7.185s-7.185,3.228-7.185,7.185S314.857,60.211,318.814,60.211z"/>
		<path style="fill-rule:evenodd;clip-rule:evenodd;fill:#939598;" d="M331.704,79.545c3.958,0,7.186-3.228,7.186-7.185
			s-3.228-7.185-7.186-7.185c-3.957,0-7.185,3.228-7.185,7.185S327.747,79.545,331.704,79.545z"/>
		<path style="fill-rule:evenodd;clip-rule:evenodd;fill:#939598;" d="M305.925,98.88c3.957,0,7.186-3.228,7.186-7.185
			s-3.229-7.185-7.186-7.185s-7.185,3.228-7.185,7.185S301.968,98.88,305.925,98.88z"/>
		<path style="fill-rule:evenodd;clip-rule:evenodd;fill:#939598;" d="M318.814,118.214c3.957,0,7.186-3.228,7.186-7.185
			c0-3.957-3.229-7.185-7.186-7.185s-7.185,3.228-7.185,7.185C311.63,114.987,314.857,118.214,318.814,118.214z"/>
		<path style="fill-rule:evenodd;clip-rule:evenodd;fill:#939598;" d="M312.37,79.545c3.957,0,7.185-3.228,7.185-7.185
			s-3.228-7.185-7.185-7.185c-3.958,0-7.186,3.228-7.186,7.185S308.412,79.545,312.37,79.545z"/>
		<path style="fill-rule:evenodd;clip-rule:evenodd;fill:#939598;" d="M286.59,98.88c3.958,0,7.186-3.228,7.186-7.185
			s-3.228-7.185-7.186-7.185c-3.957,0-7.185,3.228-7.185,7.185S282.633,98.88,286.59,98.88z"/>
		<path style="fill-rule:evenodd;clip-rule:evenodd;fill:#939598;" d="M299.48,118.214c3.957,0,7.185-3.228,7.185-7.185
			c0-3.957-3.228-7.185-7.185-7.185c-3.958,0-7.186,3.228-7.186,7.185C292.295,114.987,295.522,118.214,299.48,118.214z"/>
		<path style="fill-rule:evenodd;clip-rule:evenodd;fill:#939598;" d="M363.929,21.542c3.957,0,7.185-3.228,7.185-7.185
			s-3.228-7.186-7.185-7.186c-3.958,0-7.186,3.228-7.186,7.186S359.971,21.542,363.929,21.542z"/>
	</g>
	<g>
		<path style="fill-rule:evenodd;clip-rule:evenodd;" d="M18.262,248.57h1.654c-0.02,1.881-0.416,3.317-1.183,4.311
			c-0.767,0.992-1.876,1.489-3.324,1.489c-1.544,0-2.686-0.631-3.427-1.894c-0.744-1.26-1.116-3.209-1.116-5.84
			c0-2.748,0.369-4.737,1.106-5.968c0.733-1.229,1.922-1.845,3.566-1.845c1.368,0,2.424,0.395,3.165,1.181
			c0.744,0.786,1.116,1.907,1.116,3.357v0.184h-1.614c0-1.016-0.239-1.812-0.721-2.39c-0.481-0.579-1.136-0.869-1.966-0.869
			c-1.02,0-1.753,0.49-2.202,1.471c-0.448,0.979-0.67,2.604-0.67,4.879c0,2.223,0.229,3.805,0.69,4.744
			c0.462,0.941,1.219,1.411,2.278,1.411c0.85,0,1.504-0.346,1.959-1.036c0.458-0.69,0.688-1.677,0.688-2.955V248.57L18.262,248.57z
			 M21.968,248.475c0-1.989,0.322-3.465,0.967-4.426c0.647-0.96,1.634-1.439,2.966-1.439c1.348,0,2.341,0.477,2.978,1.427
			c0.641,0.95,0.96,2.43,0.96,4.438c0,2.013-0.319,3.488-0.953,4.429s-1.63,1.411-2.985,1.411c-1.365,0-2.358-0.468-2.989-1.401
			C22.284,251.977,21.968,250.5,21.968,248.475L21.968,248.475z M23.642,248.478c0,1.657,0.173,2.824,0.515,3.502
			c0.345,0.678,0.923,1.017,1.74,1.017c0.807,0,1.381-0.346,1.726-1.036c0.349-0.69,0.521-1.851,0.521-3.482
			c0-1.646-0.172-2.808-0.521-3.484c-0.345-0.678-0.919-1.017-1.726-1.017c-0.811,0-1.388,0.336-1.733,1.006
			C23.814,245.653,23.642,246.821,23.642,248.478L23.642,248.478z M31.907,254.015v-11.087h1.471v1.378
			c0.272-0.539,0.641-0.943,1.109-1.213c0.464-0.27,1.033-0.404,1.7-0.404c0.987,0,1.688,0.246,2.105,0.742
			c0.418,0.493,0.628,1.345,0.628,2.552v8.032h-1.578v-8.147c0-0.604-0.129-1.052-0.389-1.348c-0.259-0.296-0.654-0.444-1.185-0.444
			c-0.701,0-1.255,0.218-1.667,0.654c-0.412,0.438-0.618,1.029-0.618,1.772v7.513H31.907L31.907,254.015z M40.977,250.681h1.557
			c0,0.014-0.003,0.033-0.01,0.06c-0.02,0.142-0.03,0.247-0.03,0.315c0,0.605,0.173,1.065,0.521,1.378
			c0.345,0.315,0.85,0.474,1.511,0.474c0.601,0,1.076-0.161,1.421-0.483c0.349-0.319,0.521-0.757,0.521-1.309
			c0-0.875-0.677-1.542-2.032-2.006c-0.02-0.007-0.033-0.01-0.04-0.01c-1.355-0.467-2.231-0.934-2.634-1.395
			c-0.401-0.463-0.604-1.134-0.604-2.016c0-0.97,0.285-1.726,0.86-2.269c0.574-0.542,1.375-0.812,2.397-0.812
			c1.089,0,1.91,0.26,2.461,0.779c0.551,0.519,0.827,1.288,0.827,2.301v0.155h-1.487c-0.033-0.668-0.186-1.154-0.458-1.46
			c-0.272-0.306-0.697-0.457-1.271-0.457c-0.611,0-1.07,0.141-1.378,0.428c-0.309,0.285-0.462,0.713-0.462,1.278
			c0,0.25,0.04,0.474,0.123,0.675c0.08,0.197,0.199,0.357,0.355,0.479c0.282,0.243,0.85,0.503,1.7,0.772
			c0.455,0.142,0.804,0.26,1.053,0.355c0.77,0.296,1.322,0.671,1.654,1.121c0.329,0.454,0.495,1.052,0.495,1.799
			c0,1.111-0.322,1.969-0.966,2.574c-0.647,0.602-1.564,0.904-2.76,0.904c-1.092,0-1.922-0.286-2.483-0.861
			c-0.562-0.576-0.84-1.424-0.84-2.542V250.681L40.977,250.681z M51.414,247.271h3.806v-0.299c0-1.02-0.149-1.789-0.452-2.306
			c-0.302-0.516-0.754-0.775-1.358-0.775c-0.674,0-1.175,0.275-1.504,0.832C51.576,245.279,51.414,246.127,51.414,247.271
			L51.414,247.271z M55.239,250.267h1.534c-0.013,1.312-0.315,2.312-0.91,3.006c-0.591,0.693-1.438,1.042-2.534,1.042
			c-1.205,0-2.095-0.468-2.67-1.397c-0.574-0.931-0.86-2.374-0.86-4.324c0-2.067,0.286-3.583,0.86-4.544
			c0.575-0.96,1.478-1.439,2.709-1.439c1.163,0,2.026,0.407,2.594,1.223s0.85,2.059,0.85,3.729c0,0.264,0,0.464-0.003,0.599
			c-0.003,0.135-0.01,0.257-0.016,0.365l-5.38,0.01v0.489c0,1.388,0.163,2.4,0.488,3.035c0.322,0.635,0.84,0.954,1.547,0.954
			c0.551,0,0.986-0.24,1.308-0.717c0.322-0.48,0.481-1.132,0.481-1.954V250.267L55.239,250.267z M58.869,254.015V239.18h1.558
			v14.835H58.869L58.869,254.015z M62.787,254.015V239.18h1.577v4.955c0.292-0.49,0.661-0.852,1.103-1.092
			c0.445-0.236,0.98-0.354,1.601-0.354c0.864,0,1.534,0.22,2.013,0.66c0.481,0.44,0.721,1.059,0.721,1.854v8.812h-1.578v-8.071
			c0-0.654-0.126-1.128-0.375-1.424c-0.249-0.296-0.647-0.444-1.198-0.444c-0.694,0-1.249,0.218-1.664,0.654
			c-0.415,0.438-0.621,1.029-0.621,1.772v7.513H62.787L62.787,254.015z M71.836,248.475c0-1.989,0.322-3.465,0.966-4.426
			c0.647-0.96,1.634-1.439,2.965-1.439c1.348,0,2.341,0.477,2.979,1.427c0.641,0.95,0.96,2.43,0.96,4.438
			c0,2.013-0.319,3.488-0.953,4.429s-1.63,1.411-2.985,1.411c-1.365,0-2.358-0.468-2.989-1.401
			C72.152,251.977,71.836,250.5,71.836,248.475L71.836,248.475z M73.51,248.478c0,1.657,0.173,2.824,0.515,3.502
			c0.345,0.678,0.923,1.017,1.74,1.017c0.807,0,1.382-0.346,1.727-1.036c0.349-0.69,0.521-1.851,0.521-3.482
			c0-1.646-0.172-2.808-0.521-3.484c-0.345-0.678-0.92-1.017-1.727-1.017c-0.81,0-1.388,0.336-1.733,1.006
			C73.683,245.653,73.51,246.821,73.51,248.478L73.51,248.478z M86.873,254.015V239.18h2.239l5.196,12.725l-0.156-12.725h1.614
			v14.835h-2.139l-5.276-13.103l0.136,13.103H86.873L86.873,254.015z M103.091,248.034c-0.246,0.27-0.791,0.556-1.634,0.854
			c-0.073,0.026-0.123,0.046-0.156,0.06c-0.727,0.25-1.199,0.532-1.418,0.849c-0.222,0.315-0.332,0.779-0.332,1.397
			c0,0.552,0.123,0.977,0.369,1.278c0.246,0.303,0.594,0.454,1.043,0.454c0.647,0,1.166-0.243,1.551-0.733
			c0.385-0.486,0.578-1.141,0.578-1.963V248.034L103.091,248.034z M105.572,254.034c-0.203,0.033-0.376,0.057-0.521,0.073
			c-0.146,0.016-0.279,0.022-0.402,0.022c-0.442,0-0.791-0.138-1.043-0.414s-0.389-0.668-0.409-1.174
			c-0.239,0.565-0.587,0.996-1.039,1.299c-0.455,0.303-0.993,0.454-1.617,0.454c-0.81,0-1.441-0.27-1.89-0.81
			c-0.451-0.539-0.677-1.299-0.677-2.275c0-0.957,0.209-1.683,0.627-2.187c0.418-0.499,1.322-0.979,2.71-1.443l0.03-0.01
			c1.139-0.378,1.71-0.821,1.71-1.331v-1.02c0-0.457-0.129-0.786-0.392-0.996c-0.266-0.207-0.684-0.313-1.262-0.313
			c-0.558,0-0.973,0.145-1.246,0.434c-0.272,0.286-0.408,0.73-0.408,1.325v0.194h-1.468c0.021-1.131,0.292-1.957,0.817-2.476
			c0.524-0.52,1.354-0.779,2.491-0.779c1.063,0,1.839,0.239,2.331,0.717c0.489,0.479,0.734,1.236,0.734,2.269v6.483
			c0,0.29,0.053,0.497,0.156,0.621c0.103,0.125,0.272,0.188,0.505,0.188c0.046,0,0.116-0.01,0.212-0.029
			c0.014,0,0.027-0.003,0.04-0.01L105.572,254.034L105.572,254.034z M112.596,250.105h1.537c0,1.342-0.312,2.377-0.933,3.11
			c-0.624,0.733-1.501,1.099-2.637,1.099c-1.245,0-2.168-0.483-2.77-1.453c-0.601-0.971-0.9-2.463-0.9-4.472
			c0-1.934,0.312-3.377,0.933-4.33c0.625-0.954,1.568-1.431,2.833-1.431c1.046,0,1.869,0.315,2.477,0.95
			c0.607,0.632,0.91,1.493,0.91,2.588v0.229h-1.527c-0.033-0.775-0.203-1.367-0.504-1.771c-0.306-0.405-0.737-0.608-1.295-0.608
			c-0.767,0-1.312,0.335-1.641,1.006s-0.491,1.812-0.491,3.426c0,1.631,0.166,2.785,0.495,3.462
			c0.332,0.678,0.883,1.017,1.654,1.017c0.584,0,1.036-0.24,1.355-0.724C112.406,251.723,112.576,251.023,112.596,250.105
			L112.596,250.105z M116.325,241.195v-2.016h1.614v2.016H116.325L116.325,241.195z M116.325,254.015v-11.087h1.614v11.087H116.325
			L116.325,254.015z M119.991,248.475c0-1.989,0.322-3.465,0.966-4.426c0.647-0.96,1.634-1.439,2.966-1.439
			c1.348,0,2.341,0.477,2.978,1.427c0.642,0.95,0.96,2.43,0.96,4.438c0,2.013-0.318,3.488-0.953,4.429
			c-0.634,0.94-1.63,1.411-2.985,1.411c-1.365,0-2.358-0.468-2.989-1.401C120.306,251.977,119.991,250.5,119.991,248.475
			L119.991,248.475z M121.665,248.478c0,1.657,0.173,2.824,0.515,3.502c0.345,0.678,0.923,1.017,1.74,1.017
			c0.807,0,1.381-0.346,1.727-1.036c0.349-0.69,0.521-1.851,0.521-3.482c0-1.646-0.172-2.808-0.521-3.484
			c-0.345-0.678-0.92-1.017-1.727-1.017c-0.811,0-1.388,0.336-1.733,1.006C121.837,245.653,121.665,246.821,121.665,248.478
			L121.665,248.478z M129.93,254.015v-11.087h1.471v1.378c0.272-0.539,0.641-0.943,1.109-1.213c0.465-0.27,1.033-0.404,1.7-0.404
			c0.986,0,1.687,0.246,2.105,0.742c0.418,0.493,0.627,1.345,0.627,2.552v8.032h-1.577v-8.147c0-0.604-0.13-1.052-0.389-1.348
			s-0.654-0.444-1.186-0.444c-0.701,0-1.255,0.218-1.667,0.654c-0.412,0.438-0.618,1.029-0.618,1.772v7.513H129.93L129.93,254.015z
			 M144.096,248.034c-0.245,0.27-0.79,0.556-1.633,0.854c-0.073,0.026-0.123,0.046-0.156,0.06c-0.728,0.25-1.199,0.532-1.418,0.849
			c-0.222,0.315-0.332,0.779-0.332,1.397c0,0.552,0.123,0.977,0.369,1.278c0.246,0.303,0.594,0.454,1.042,0.454
			c0.648,0,1.166-0.243,1.551-0.733c0.385-0.486,0.578-1.141,0.578-1.963V248.034L144.096,248.034z M146.577,254.034
			c-0.203,0.033-0.375,0.057-0.521,0.073c-0.146,0.016-0.279,0.022-0.402,0.022c-0.442,0-0.791-0.138-1.042-0.414
			c-0.253-0.276-0.389-0.668-0.409-1.174c-0.239,0.565-0.587,0.996-1.04,1.299c-0.455,0.303-0.993,0.454-1.617,0.454
			c-0.81,0-1.441-0.27-1.89-0.81c-0.451-0.539-0.677-1.299-0.677-2.275c0-0.957,0.209-1.683,0.628-2.187
			c0.418-0.499,1.321-0.979,2.709-1.443l0.03-0.01c1.139-0.378,1.71-0.821,1.71-1.331v-1.02c0-0.457-0.13-0.786-0.392-0.996
			c-0.266-0.207-0.684-0.313-1.262-0.313c-0.558,0-0.973,0.145-1.246,0.434c-0.272,0.286-0.408,0.73-0.408,1.325v0.194h-1.468
			c0.02-1.131,0.292-1.957,0.817-2.476c0.524-0.52,1.354-0.779,2.49-0.779c1.063,0,1.84,0.239,2.332,0.717
			c0.488,0.479,0.734,1.236,0.734,2.269v6.483c0,0.29,0.053,0.497,0.156,0.621c0.103,0.125,0.272,0.188,0.504,0.188
			c0.046,0,0.117-0.01,0.213-0.029c0.013,0,0.026-0.003,0.04-0.01L146.577,254.034L146.577,254.034z M148.165,254.015V239.18h1.557
			v14.835H148.165z"/>
		<path style="fill-rule:evenodd;clip-rule:evenodd;" d="M162.706,248.39c0-1.618-0.159-2.746-0.481-3.38
			c-0.319-0.635-0.867-0.954-1.637-0.954c-0.734,0-1.275,0.342-1.624,1.029s-0.525,1.749-0.525,3.189
			c0,1.604,0.166,2.769,0.502,3.491c0.332,0.721,0.863,1.082,1.587,1.082c0.773,0,1.328-0.339,1.67-1.02
			C162.537,251.147,162.706,250,162.706,248.39L162.706,248.39z M164.177,254.015h-1.471v-1.397
			c-0.143,0.487-0.435,0.878-0.873,1.174c-0.441,0.296-0.959,0.444-1.558,0.444c-1.156,0-2.035-0.522-2.64-1.565
			c-0.607-1.042-0.91-2.561-0.91-4.55c0-1.727,0.306-3.068,0.914-4.021c0.611-0.953,1.461-1.431,2.55-1.431
			c0.588,0,1.109,0.132,1.561,0.396c0.448,0.263,0.734,0.601,0.85,1.012v-4.896h1.577V254.015L164.177,254.015z M167.823,247.271
			h3.806v-0.299c0-1.02-0.149-1.789-0.452-2.306c-0.302-0.516-0.754-0.775-1.358-0.775c-0.674,0-1.176,0.275-1.504,0.832
			C167.986,245.279,167.823,246.127,167.823,247.271L167.823,247.271z M171.649,250.267h1.534c-0.013,1.312-0.315,2.312-0.91,3.006
			c-0.591,0.693-1.438,1.042-2.534,1.042c-1.205,0-2.095-0.468-2.67-1.397c-0.574-0.931-0.86-2.374-0.86-4.324
			c0-2.067,0.286-3.583,0.86-4.544c0.575-0.96,1.478-1.439,2.71-1.439c1.162,0,2.026,0.407,2.594,1.223
			c0.567,0.815,0.85,2.059,0.85,3.729c0,0.264,0,0.464-0.003,0.599c-0.003,0.135-0.01,0.257-0.017,0.365l-5.38,0.01v0.489
			c0,1.388,0.163,2.4,0.488,3.035c0.322,0.635,0.84,0.954,1.547,0.954c0.551,0,0.986-0.24,1.308-0.717
			c0.322-0.48,0.482-1.132,0.482-1.954V250.267L171.649,250.267z M180.073,249.307h1.594v0.529c0,1.01,0.236,1.769,0.704,2.285
			c0.472,0.513,1.169,0.77,2.089,0.77c0.83,0,1.481-0.247,1.956-0.743c0.475-0.493,0.711-1.174,0.711-2.042
			c0-0.693-0.143-1.229-0.432-1.604s-0.94-0.753-1.953-1.131c-0.242-0.092-0.577-0.217-1.012-0.375
			c-1.212-0.438-1.946-0.766-2.199-0.983c-0.415-0.368-0.724-0.802-0.93-1.305c-0.203-0.507-0.306-1.092-0.306-1.76
			c0-1.292,0.359-2.301,1.08-3.028c0.72-0.729,1.723-1.095,3.005-1.095c1.218,0,2.175,0.336,2.866,1.01s1.036,1.608,1.036,2.795
			c0,0.036-0.003,0.102-0.01,0.188c-0.007,0.085-0.01,0.148-0.01,0.188h-1.538v-0.155c0-0.831-0.206-1.476-0.618-1.93
			c-0.412-0.45-0.993-0.677-1.747-0.677c-0.777,0-1.388,0.217-1.836,0.65c-0.449,0.431-0.671,1.02-0.671,1.756
			c0,0.7,0.152,1.243,0.458,1.628c0.302,0.385,0.967,0.766,1.993,1.137c0.123,0.044,0.306,0.112,0.544,0.201
			c1.564,0.572,2.498,0.999,2.803,1.282c0.369,0.342,0.644,0.757,0.82,1.243c0.18,0.49,0.269,1.071,0.269,1.752
			c0,1.407-0.392,2.503-1.175,3.288c-0.787,0.782-1.88,1.174-3.281,1.174c-1.395,0-2.447-0.385-3.161-1.157
			c-0.714-0.77-1.069-1.903-1.069-3.399c0-0.05,0.003-0.132,0.01-0.244C180.07,249.441,180.073,249.359,180.073,249.307
			L180.073,249.307z M192.234,247.271h3.806v-0.299c0-1.02-0.149-1.789-0.452-2.306c-0.302-0.516-0.754-0.775-1.358-0.775
			c-0.674,0-1.176,0.275-1.504,0.832C192.397,245.279,192.234,246.127,192.234,247.271L192.234,247.271z M196.06,250.267h1.534
			c-0.013,1.312-0.315,2.312-0.91,3.006c-0.591,0.693-1.438,1.042-2.534,1.042c-1.206,0-2.096-0.468-2.67-1.397
			c-0.574-0.931-0.86-2.374-0.86-4.324c0-2.067,0.286-3.583,0.86-4.544c0.574-0.96,1.478-1.439,2.709-1.439
			c1.163,0,2.026,0.407,2.594,1.223s0.85,2.059,0.85,3.729c0,0.264,0,0.464-0.003,0.599s-0.01,0.257-0.017,0.365l-5.38,0.01v0.489
			c0,1.388,0.163,2.4,0.488,3.035c0.322,0.635,0.84,0.954,1.548,0.954c0.551,0,0.986-0.24,1.308-0.717
			c0.322-0.48,0.481-1.132,0.481-1.954V250.267L196.06,250.267z M205.125,250.105h1.537c0,1.342-0.312,2.377-0.933,3.11
			c-0.624,0.733-1.501,1.099-2.637,1.099c-1.245,0-2.168-0.483-2.769-1.453c-0.602-0.971-0.9-2.463-0.9-4.472
			c0-1.934,0.312-3.377,0.933-4.33c0.625-0.954,1.568-1.431,2.833-1.431c1.046,0,1.869,0.315,2.477,0.95
			c0.608,0.632,0.91,1.493,0.91,2.588v0.229h-1.528c-0.033-0.775-0.202-1.367-0.504-1.771c-0.306-0.405-0.737-0.608-1.295-0.608
			c-0.767,0-1.312,0.335-1.641,1.006c-0.329,0.671-0.491,1.812-0.491,3.426c0,1.631,0.166,2.785,0.495,3.462
			c0.333,0.678,0.883,1.017,1.654,1.017c0.584,0,1.036-0.24,1.354-0.724C204.936,251.723,205.105,251.023,205.125,250.105
			L205.125,250.105z M208.871,254.015v-11.087h1.451v1.812c0.226-0.647,0.568-1.157,1.026-1.521c0.455-0.365,0.98-0.55,1.571-0.55
			c0.176,0,0.309,0.004,0.401,0.01c0.097,0.007,0.187,0.017,0.27,0.03v1.657c-0.083-0.047-0.176-0.079-0.276-0.103
			c-0.103-0.022-0.212-0.032-0.339-0.032c-0.804,0-1.428,0.263-1.876,0.789c-0.449,0.525-0.671,1.263-0.671,2.206v6.789H208.871
			L208.871,254.015z M215.964,247.271h3.806v-0.299c0-1.02-0.149-1.789-0.452-2.306c-0.302-0.516-0.754-0.775-1.358-0.775
			c-0.674,0-1.175,0.275-1.504,0.832C216.127,245.279,215.964,246.127,215.964,247.271L215.964,247.271z M219.79,250.267h1.534
			c-0.013,1.312-0.315,2.312-0.91,3.006c-0.591,0.693-1.438,1.042-2.534,1.042c-1.205,0-2.095-0.468-2.67-1.397
			c-0.574-0.931-0.86-2.374-0.86-4.324c0-2.067,0.286-3.583,0.86-4.544c0.575-0.96,1.478-1.439,2.71-1.439
			c1.162,0,2.026,0.407,2.593,1.223c0.568,0.815,0.85,2.059,0.85,3.729c0,0.264,0,0.464-0.003,0.599
			c-0.003,0.135-0.009,0.257-0.016,0.365l-5.38,0.01v0.489c0,1.388,0.163,2.4,0.488,3.035c0.322,0.635,0.84,0.954,1.547,0.954
			c0.551,0,0.986-0.24,1.308-0.717c0.322-0.48,0.482-1.132,0.482-1.954V250.267L219.79,250.267z M225.229,251.72
			c0,0.464,0.083,0.767,0.252,0.911c0.169,0.145,0.571,0.217,1.209,0.217c0.083,0,0.153,0,0.209-0.003
			c0.053-0.004,0.1-0.01,0.139-0.017l0.01,1.357c-0.097,0.007-0.226,0.014-0.389,0.021c-0.395,0.02-0.654,0.029-0.771,0.029
			c-0.737,0-1.289-0.145-1.647-0.438c-0.362-0.293-0.542-0.736-0.542-1.325v-8.262h-1.557v-1.283h1.557v-2.956h1.528v2.956h1.82
			v1.283h-1.82V251.72L225.229,251.72z M233.14,248.034c-0.246,0.27-0.791,0.556-1.634,0.854c-0.073,0.026-0.123,0.046-0.156,0.06
			c-0.728,0.25-1.199,0.532-1.418,0.849c-0.223,0.315-0.332,0.779-0.332,1.397c0,0.552,0.123,0.977,0.369,1.278
			c0.246,0.303,0.594,0.454,1.042,0.454c0.648,0,1.166-0.243,1.551-0.733c0.385-0.486,0.578-1.141,0.578-1.963V248.034
			L233.14,248.034z M235.62,254.034c-0.203,0.033-0.375,0.057-0.521,0.073c-0.146,0.016-0.279,0.022-0.402,0.022
			c-0.441,0-0.79-0.138-1.042-0.414c-0.253-0.276-0.389-0.668-0.409-1.174c-0.239,0.565-0.587,0.996-1.04,1.299
			c-0.455,0.303-0.993,0.454-1.617,0.454c-0.811,0-1.441-0.27-1.89-0.81c-0.452-0.539-0.678-1.299-0.678-2.275
			c0-0.957,0.209-1.683,0.628-2.187c0.418-0.499,1.321-0.979,2.709-1.443l0.03-0.01c1.139-0.378,1.71-0.821,1.71-1.331v-1.02
			c0-0.457-0.13-0.786-0.392-0.996c-0.266-0.207-0.684-0.313-1.262-0.313c-0.558,0-0.973,0.145-1.245,0.434
			c-0.272,0.286-0.408,0.73-0.408,1.325v0.194h-1.468c0.02-1.131,0.292-1.957,0.817-2.476c0.524-0.52,1.354-0.779,2.49-0.779
			c1.063,0,1.84,0.239,2.331,0.717c0.488,0.479,0.734,1.236,0.734,2.269v6.483c0,0.29,0.053,0.497,0.156,0.621
			c0.103,0.125,0.272,0.188,0.505,0.188c0.046,0,0.116-0.01,0.212-0.029c0.013,0,0.026-0.003,0.04-0.01L235.62,254.034
			L235.62,254.034z M230.573,241.744l1.654-2.62h1.733l-2.404,2.62H230.573L230.573,241.744z M237.224,254.015v-11.087h1.451v1.812
			c0.226-0.647,0.568-1.157,1.026-1.521c0.455-0.365,0.98-0.55,1.571-0.55c0.176,0,0.309,0.004,0.402,0.01
			c0.096,0.007,0.186,0.017,0.269,0.03v1.657c-0.083-0.047-0.176-0.079-0.276-0.103c-0.103-0.022-0.212-0.032-0.338-0.032
			c-0.804,0-1.428,0.263-1.876,0.789c-0.448,0.525-0.671,1.263-0.671,2.206v6.789H237.224L237.224,254.015z M243.005,241.195v-2.016
			h1.614v2.016H243.005L243.005,241.195z M243.005,254.015v-11.087h1.614v11.087H243.005L243.005,254.015z M246.671,248.475
			c0-1.989,0.322-3.465,0.967-4.426c0.647-0.96,1.633-1.439,2.965-1.439c1.348,0,2.341,0.477,2.979,1.427
			c0.641,0.95,0.96,2.43,0.96,4.438c0,2.013-0.319,3.488-0.953,4.429c-0.634,0.94-1.63,1.411-2.985,1.411
			c-1.365,0-2.358-0.468-2.989-1.401C246.987,251.977,246.671,250.5,246.671,248.475L246.671,248.475z M248.345,248.478
			c0,1.657,0.173,2.824,0.515,3.502c0.345,0.678,0.923,1.017,1.74,1.017c0.807,0,1.381-0.346,1.727-1.036
			c0.349-0.69,0.521-1.851,0.521-3.482c0-1.646-0.173-2.808-0.521-3.484c-0.345-0.678-0.919-1.017-1.727-1.017
			c-0.81,0-1.388,0.336-1.733,1.006C248.518,245.653,248.345,246.821,248.345,248.478L248.345,248.478z M256.312,250.681h1.557
			c0,0.014-0.003,0.033-0.01,0.06c-0.02,0.142-0.03,0.247-0.03,0.315c0,0.605,0.173,1.065,0.521,1.378
			c0.345,0.315,0.85,0.474,1.511,0.474c0.601,0,1.076-0.161,1.421-0.483c0.349-0.319,0.521-0.757,0.521-1.309
			c0-0.875-0.678-1.542-2.033-2.006c-0.02-0.007-0.033-0.01-0.04-0.01c-1.355-0.467-2.231-0.934-2.633-1.395
			c-0.402-0.463-0.604-1.134-0.604-2.016c0-0.97,0.286-1.726,0.86-2.269c0.574-0.542,1.375-0.812,2.397-0.812
			c1.089,0,1.91,0.26,2.461,0.779c0.551,0.519,0.827,1.288,0.827,2.301v0.155h-1.488c-0.033-0.668-0.186-1.154-0.458-1.46
			c-0.272-0.306-0.697-0.457-1.272-0.457c-0.611,0-1.069,0.141-1.378,0.428c-0.309,0.285-0.461,0.713-0.461,1.278
			c0,0.25,0.04,0.474,0.123,0.675c0.08,0.197,0.2,0.357,0.355,0.479c0.282,0.243,0.85,0.503,1.7,0.772
			c0.455,0.142,0.804,0.26,1.053,0.355c0.77,0.296,1.322,0.671,1.654,1.121c0.329,0.454,0.495,1.052,0.495,1.799
			c0,1.111-0.322,1.969-0.966,2.574c-0.647,0.602-1.564,0.904-2.76,0.904c-1.092,0-1.922-0.286-2.484-0.861
			c-0.561-0.576-0.84-1.424-0.84-2.542V250.681L256.312,250.681z M276.077,248.39c0-1.618-0.159-2.746-0.481-3.38
			c-0.319-0.635-0.867-0.954-1.637-0.954c-0.734,0-1.275,0.342-1.624,1.029s-0.525,1.749-0.525,3.189
			c0,1.604,0.166,2.769,0.502,3.491c0.332,0.721,0.863,1.082,1.587,1.082c0.773,0,1.328-0.339,1.671-1.02
			C275.907,251.147,276.077,250,276.077,248.39L276.077,248.39z M277.548,254.015h-1.471v-1.397
			c-0.143,0.487-0.435,0.878-0.874,1.174c-0.441,0.296-0.959,0.444-1.557,0.444c-1.156,0-2.036-0.522-2.641-1.565
			c-0.607-1.042-0.909-2.561-0.909-4.55c0-1.727,0.306-3.068,0.913-4.021c0.61-0.953,1.461-1.431,2.55-1.431
			c0.588,0,1.109,0.132,1.561,0.396c0.449,0.263,0.734,0.601,0.851,1.012v-4.896h1.577V254.015L277.548,254.015z M281.194,247.271
			H285v-0.299c0-1.02-0.149-1.789-0.451-2.306c-0.303-0.516-0.754-0.775-1.358-0.775c-0.675,0-1.176,0.275-1.504,0.832
			C281.357,245.279,281.194,246.127,281.194,247.271L281.194,247.271z M285.02,250.267h1.534c-0.013,1.312-0.314,2.312-0.909,3.006
			c-0.592,0.693-1.438,1.042-2.534,1.042c-1.205,0-2.096-0.468-2.67-1.397c-0.574-0.931-0.86-2.374-0.86-4.324
			c0-2.067,0.286-3.583,0.86-4.544c0.574-0.96,1.479-1.439,2.71-1.439c1.162,0,2.025,0.407,2.594,1.223
			c0.567,0.815,0.85,2.059,0.85,3.729c0,0.264,0,0.464-0.003,0.599s-0.01,0.257-0.017,0.365l-5.38,0.01v0.489
			c0,1.388,0.163,2.4,0.488,3.035c0.322,0.635,0.84,0.954,1.548,0.954c0.551,0,0.985-0.24,1.308-0.717
			c0.322-0.48,0.481-1.132,0.481-1.954V250.267L285.02,250.267z M293.764,254.015V239.18h7.432v1.542h-5.778v4.768h5.399v1.503
			h-5.399v5.461h5.838v1.562H293.764L293.764,254.015z M309.056,248.39c0-1.618-0.159-2.746-0.481-3.38
			c-0.319-0.635-0.867-0.954-1.638-0.954c-0.733,0-1.274,0.342-1.623,1.029c-0.35,0.688-0.525,1.749-0.525,3.189
			c0,1.604,0.166,2.769,0.502,3.491c0.332,0.721,0.863,1.082,1.587,1.082c0.773,0,1.328-0.339,1.671-1.02
			C308.886,251.147,309.056,250,309.056,248.39L309.056,248.39z M310.526,254.015h-1.471v-1.397
			c-0.143,0.487-0.436,0.878-0.874,1.174c-0.441,0.296-0.959,0.444-1.557,0.444c-1.156,0-2.036-0.522-2.641-1.565
			c-0.607-1.042-0.91-2.561-0.91-4.55c0-1.727,0.306-3.068,0.914-4.021c0.61-0.953,1.461-1.431,2.55-1.431
			c0.588,0,1.109,0.132,1.561,0.396c0.449,0.263,0.734,0.601,0.851,1.012v-4.896h1.577V254.015L310.526,254.015z M318.317,254.015
			v-1.443c-0.22,0.56-0.571,0.986-1.057,1.289c-0.481,0.303-1.059,0.454-1.736,0.454c-0.934,0-1.614-0.228-2.042-0.685
			c-0.429-0.457-0.641-1.18-0.641-2.177v-8.525h1.634v8.563c0,0.457,0.115,0.812,0.345,1.062s0.551,0.375,0.966,0.375
			c0.755,0,1.342-0.23,1.765-0.694c0.421-0.463,0.631-1.11,0.631-1.946v-7.358h1.587v11.087H318.317L318.317,254.015z
			 M327.665,250.105h1.538c0,1.342-0.313,2.377-0.934,3.11c-0.624,0.733-1.501,1.099-2.637,1.099c-1.245,0-2.168-0.483-2.77-1.453
			c-0.601-0.971-0.899-2.463-0.899-4.472c0-1.934,0.312-3.377,0.933-4.33c0.624-0.954,1.567-1.431,2.833-1.431
			c1.046,0,1.869,0.315,2.478,0.95c0.607,0.632,0.909,1.493,0.909,2.588v0.229h-1.527c-0.033-0.775-0.202-1.367-0.505-1.771
			c-0.306-0.405-0.737-0.608-1.295-0.608c-0.768,0-1.312,0.335-1.641,1.006c-0.328,0.671-0.491,1.812-0.491,3.426
			c0,1.631,0.166,2.785,0.495,3.462c0.332,0.678,0.883,1.017,1.653,1.017c0.584,0,1.036-0.24,1.354-0.724
			C327.476,251.723,327.646,251.023,327.665,250.105L327.665,250.105z M336.21,248.034c-0.246,0.27-0.791,0.556-1.634,0.854
			c-0.073,0.026-0.123,0.046-0.156,0.06c-0.728,0.25-1.199,0.532-1.418,0.849c-0.223,0.315-0.332,0.779-0.332,1.397
			c0,0.552,0.123,0.977,0.369,1.278c0.245,0.303,0.594,0.454,1.042,0.454c0.647,0,1.166-0.243,1.551-0.733
			c0.386-0.486,0.578-1.141,0.578-1.963V248.034L336.21,248.034z M338.69,254.034c-0.202,0.033-0.375,0.057-0.521,0.073
			c-0.146,0.016-0.279,0.022-0.401,0.022c-0.441,0-0.791-0.138-1.043-0.414c-0.253-0.276-0.389-0.668-0.408-1.174
			c-0.239,0.565-0.588,0.996-1.04,1.299c-0.455,0.303-0.993,0.454-1.617,0.454c-0.81,0-1.441-0.27-1.89-0.81
			c-0.451-0.539-0.678-1.299-0.678-2.275c0-0.957,0.21-1.683,0.628-2.187c0.419-0.499,1.322-0.979,2.71-1.443l0.03-0.01
			c1.139-0.378,1.71-0.821,1.71-1.331v-1.02c0-0.457-0.13-0.786-0.392-0.996c-0.266-0.207-0.685-0.313-1.262-0.313
			c-0.559,0-0.974,0.145-1.245,0.434c-0.272,0.286-0.409,0.73-0.409,1.325v0.194h-1.468c0.021-1.131,0.292-1.957,0.817-2.476
			c0.524-0.52,1.354-0.779,2.49-0.779c1.063,0,1.84,0.239,2.331,0.717c0.488,0.479,0.734,1.236,0.734,2.269v6.483
			c0,0.29,0.053,0.497,0.155,0.621c0.104,0.125,0.272,0.188,0.505,0.188c0.047,0,0.116-0.01,0.213-0.029
			c0.014,0,0.026-0.003,0.04-0.01L338.69,254.034L338.69,254.034z M345.714,250.105h1.537c0,1.342-0.312,2.377-0.933,3.11
			c-0.625,0.733-1.501,1.099-2.637,1.099c-1.245,0-2.169-0.483-2.77-1.453c-0.602-0.971-0.9-2.463-0.9-4.472
			c0-1.934,0.313-3.377,0.934-4.33c0.624-0.954,1.567-1.431,2.833-1.431c1.046,0,1.869,0.315,2.477,0.95
			c0.608,0.632,0.91,1.493,0.91,2.588v0.229h-1.527c-0.033-0.775-0.203-1.367-0.505-1.771c-0.306-0.405-0.737-0.608-1.295-0.608
			c-0.768,0-1.313,0.335-1.641,1.006c-0.329,0.671-0.492,1.812-0.492,3.426c0,1.631,0.166,2.785,0.495,3.462
			c0.332,0.678,0.884,1.017,1.654,1.017c0.584,0,1.036-0.24,1.354-0.724C345.524,251.723,345.693,251.023,345.714,250.105
			L345.714,250.105z M341.871,257.31v0.983c0.346,0.089,0.665,0.154,0.96,0.197c0.293,0.042,0.564,0.063,0.811,0.063
			c0.794,0,1.388-0.158,1.79-0.474c0.401-0.313,0.604-0.783,0.604-1.404c0-0.52-0.18-0.93-0.535-1.229
			c-0.358-0.299-0.85-0.447-1.478-0.447h-0.06v-0.983h-0.741v1.917c0.104-0.02,0.18-0.033,0.223-0.036
			c0.047-0.003,0.094-0.003,0.14-0.003c0.343,0,0.611,0.072,0.801,0.22c0.192,0.148,0.288,0.359,0.288,0.629
			c0,0.263-0.089,0.463-0.271,0.602c-0.184,0.138-0.449,0.207-0.797,0.207c-0.229,0-0.754-0.069-1.578-0.211
			C341.955,257.326,341.905,257.315,341.871,257.31L341.871,257.31z M354.258,248.034c-0.245,0.27-0.79,0.556-1.634,0.854
			c-0.072,0.026-0.122,0.046-0.155,0.06c-0.728,0.25-1.199,0.532-1.419,0.849c-0.222,0.315-0.332,0.779-0.332,1.397
			c0,0.552,0.123,0.977,0.369,1.278c0.245,0.303,0.595,0.454,1.043,0.454c0.647,0,1.165-0.243,1.551-0.733
			c0.385-0.486,0.577-1.141,0.577-1.963V248.034L354.258,248.034z M356.739,254.034c-0.203,0.033-0.376,0.057-0.521,0.073
			c-0.146,0.016-0.279,0.022-0.402,0.022c-0.441,0-0.79-0.138-1.043-0.414c-0.252-0.276-0.388-0.668-0.408-1.174
			c-0.239,0.565-0.588,0.996-1.039,1.299c-0.455,0.303-0.993,0.454-1.617,0.454c-0.811,0-1.441-0.27-1.89-0.81
			c-0.451-0.539-0.678-1.299-0.678-2.275c0-0.957,0.21-1.683,0.628-2.187c0.418-0.499,1.321-0.979,2.71-1.443l0.029-0.01
			c1.14-0.378,1.71-0.821,1.71-1.331v-1.02c0-0.457-0.129-0.786-0.392-0.996c-0.266-0.207-0.684-0.313-1.262-0.313
			c-0.558,0-0.973,0.145-1.245,0.434c-0.272,0.286-0.408,0.73-0.408,1.325v0.194h-1.468c0.02-1.131,0.292-1.957,0.816-2.476
			c0.524-0.52,1.355-0.779,2.491-0.779c1.063,0,1.84,0.239,2.331,0.717c0.488,0.479,0.733,1.236,0.733,2.269v6.483
			c0,0.29,0.054,0.497,0.156,0.621c0.103,0.125,0.272,0.188,0.505,0.188c0.047,0,0.116-0.01,0.212-0.029
			c0.014,0,0.027-0.003,0.04-0.01L356.739,254.034L356.739,254.034z M355.258,239.394c-0.09,0.635-0.275,1.118-0.548,1.443
			c-0.275,0.328-0.631,0.493-1.066,0.493c-0.093,0-0.183-0.01-0.272-0.026c-0.093-0.017-0.192-0.039-0.302-0.072l-0.847-0.299
			c-0.033-0.011-0.069-0.021-0.113-0.026c-0.04-0.007-0.112-0.011-0.216-0.011c-0.149,0-0.289,0.057-0.415,0.168
			c-0.126,0.112-0.223,0.267-0.285,0.467h-0.741c0.143-0.621,0.355-1.091,0.642-1.403c0.285-0.315,0.645-0.474,1.072-0.474
			c0.076,0,0.146,0.007,0.209,0.013c0.061,0.01,0.123,0.026,0.189,0.047l1.039,0.315c0.007,0,0.021,0.003,0.04,0.01
			c0.104,0.02,0.18,0.029,0.232,0.029c0.177,0,0.319-0.059,0.432-0.174c0.116-0.115,0.192-0.283,0.229-0.5H355.258L355.258,239.394z
			 M358.024,248.475c0-1.989,0.322-3.465,0.966-4.426c0.647-0.96,1.634-1.439,2.966-1.439c1.348,0,2.341,0.477,2.979,1.427
			c0.641,0.95,0.96,2.43,0.96,4.438c0,2.013-0.319,3.488-0.953,4.429c-0.635,0.94-1.631,1.411-2.985,1.411
			c-1.365,0-2.358-0.468-2.989-1.401C358.34,251.977,358.024,250.5,358.024,248.475L358.024,248.475z M359.697,248.478
			c0,1.657,0.173,2.824,0.516,3.502c0.345,0.678,0.923,1.017,1.739,1.017c0.807,0,1.382-0.346,1.728-1.036
			c0.349-0.69,0.521-1.851,0.521-3.482c0-1.646-0.173-2.808-0.521-3.484c-0.346-0.678-0.921-1.017-1.728-1.017
			c-0.81,0-1.388,0.336-1.733,1.006C359.87,245.653,359.697,246.821,359.697,248.478z"/>
	</g>
	<g>
		<path style="fill-rule:evenodd;clip-rule:evenodd;fill:#939598;" d="M54.581,208.967h7.571c-0.694,6.46-3.47,11.563-8.307,15.29
			c-4.858,3.728-11.167,5.592-18.927,5.592c-8.875,0-15.857-2.624-20.968-7.854c-5.11-5.229-7.676-12.341-7.676-21.353
			c0-9.337,2.608-16.665,7.802-22.003c5.195-5.339,12.303-7.999,21.346-7.999c7.34,0,13.396,1.773,18.128,5.32
			c4.753,3.565,7.298,8.233,7.677,14.023H53.95c-0.61-4.107-2.608-7.383-6.015-9.861c-3.386-2.479-7.55-3.71-12.534-3.71
			c-6.52,0-11.714,2.117-15.542,6.352c-3.849,4.252-5.763,10.007-5.763,17.281c0,7.455,1.935,13.372,5.826,17.715
			c3.87,4.343,9.085,6.515,15.625,6.515c5.089,0,9.338-1.357,12.745-4.071C51.699,217.472,53.802,213.726,54.581,208.967
			L54.581,208.967z M72.501,200.317c0,7.563,1.935,13.444,5.826,17.606c3.87,4.18,9.338,6.261,16.362,6.261
			c7.087,0,12.577-2.063,16.446-6.206c3.849-4.126,5.783-10.025,5.783-17.661c0-7.618-1.935-13.518-5.783-17.68
			c-3.87-4.144-9.359-6.225-16.446-6.225c-7.024,0-12.492,2.081-16.362,6.261C74.437,186.836,72.501,192.717,72.501,200.317
			L72.501,200.317z M64.678,200.317c0-9.428,2.608-16.738,7.844-21.913c5.237-5.176,12.64-7.764,22.167-7.764
			c9.569,0,16.993,2.588,22.272,7.764c5.278,5.175,7.907,12.485,7.907,21.913c0,9.373-2.629,16.629-7.886,21.786
			c-5.258,5.157-12.682,7.745-22.293,7.745c-9.527,0-16.929-2.569-22.167-7.709C67.286,217.001,64.678,209.727,64.678,200.317
			L64.678,200.317z M129.12,228.419V172.07h7.319v9.012c2.481-3.456,5.51-6.063,9.127-7.817c3.618-1.755,7.802-2.624,12.577-2.624
			c4.5,0,8.475,0.688,11.882,2.063c3.407,1.375,6.015,3.348,7.823,5.881c0.946,1.32,1.62,2.896,2.04,4.759
			c0.4,1.846,0.61,4.886,0.61,9.138v1.647v34.29h-7.823v-34.941c0-6.605-1.178-11.075-3.533-13.427
			c-2.376-2.353-6.52-3.528-12.492-3.528c-6.12,0-10.957,1.664-14.511,5.012c-3.554,3.33-5.321,7.89-5.321,13.644v33.241H129.12
			L129.12,228.419z M185.127,210.866h7.571c0.21,3.891,1.914,7.039,5.153,9.464c3.218,2.425,7.36,3.638,12.408,3.638
			c5.468,0,9.758-0.923,12.913-2.787c3.133-1.846,4.711-4.379,4.711-7.546c0-4.56-5.805-8.052-17.435-10.459
			c-0.168-0.036-0.273-0.054-0.315-0.054c-9.359-1.937-15.647-4.071-18.823-6.405c-3.175-2.335-4.773-5.592-4.773-9.754
			c0-4.831,2.082-8.776,6.246-11.798c4.186-3.022,9.611-4.524,16.299-4.524c7.36,0,13.207,1.574,17.561,4.741
			c4.353,3.167,6.771,7.563,7.213,13.174h-7.697c-0.337-3.818-1.998-6.805-4.984-8.939c-3.007-2.136-7.066-3.203-12.219-3.203
			c-4.479,0-8.054,0.887-10.725,2.643c-2.671,1.773-3.996,4.107-3.996,7.003c0,5.012,5.952,8.739,17.876,11.128
			c1.557,0.326,2.734,0.561,3.512,0.688c7.466,1.593,12.661,3.583,15.584,5.953c2.923,2.353,4.374,5.683,4.374,9.953
			c0,4.776-2.292,8.667-6.876,11.671c-4.564,3.004-10.6,4.506-18.065,4.506c-7.613,0-13.712-1.737-18.297-5.193
			C187.736,221.289,185.338,216.657,185.127,210.866z"/>
		<path style="fill-rule:evenodd;clip-rule:evenodd;fill:#1E97A0;" d="M299.481,203.123h-46.393
			c0.126,5.338,1.64,9.445,4.563,12.305c2.923,2.877,7.024,4.307,12.324,4.307c3.786,0,6.961-0.814,9.548-2.461
			s4.312-3.945,5.174-6.876h14.048c-1.262,5.971-4.626,10.784-10.073,14.422c-5.447,3.637-11.966,5.464-19.559,5.464
			c-9.527,0-17.035-2.714-22.481-8.16c-5.468-5.447-8.202-12.938-8.202-22.492c0-9.428,2.755-16.847,8.265-22.221
			c5.489-5.375,13.102-8.053,22.797-8.053c9.4,0,16.782,2.624,22.166,7.871c5.384,5.248,8.075,12.468,8.075,21.66
			c0,0.814-0.063,2.1-0.188,3.854C299.503,202.924,299.481,203.051,299.481,203.123L299.481,203.123z M284.949,194.329
			c-0.042-4.669-1.43-8.288-4.185-10.839c-2.755-2.57-6.646-3.854-11.651-3.854c-4.773,0-8.517,1.248-11.272,3.764
			c-2.755,2.516-4.354,6.152-4.816,10.93H284.949L284.949,194.329z M333.992,180.016c-5.51,0-9.779,1.773-12.849,5.302
			c-3.05,3.528-4.585,8.505-4.585,14.893c0,6.079,1.535,10.839,4.627,14.276c3.07,3.42,7.339,5.14,12.807,5.14
			c5.7,0,10.074-1.72,13.123-5.176c3.029-3.438,4.564-8.45,4.564-15.019c0-6.37-1.515-11.201-4.501-14.476
			C344.172,181.662,339.775,180.016,333.992,180.016L333.992,180.016z M351.364,150.34h13.67v78.08h-13.48v-7.474
			c-2.882,3.222-5.974,5.573-9.317,7.075c-3.322,1.502-7.108,2.262-11.398,2.262c-8.496,0-15.373-2.769-20.631-8.305
			c-5.257-5.52-7.887-12.83-7.887-21.914c0-9.192,2.63-16.611,7.887-22.257c5.258-5.627,12.093-8.45,20.526-8.45
			c4.458,0,8.412,0.742,11.86,2.208c3.429,1.466,6.352,3.691,8.771,6.695V150.34z"/>
	</g>
</g>
</svg>
