<svg xmlns="http://www.w3.org/2000/svg" viewBox="0 0 141.73 105.74"><defs><style>.a{fill:#86bd47;}.b{fill:#709b3a;}.c{fill:#aace7d;}.d{fill:#b4d071;}.e{fill:#b0cb41;}.f{fill:#c2d780;}.g{fill:#484545;}.h{fill:#2d2b2b;}.i{fill:#1c1c1c;}.j{font-size:7.14px;}.aa,.ab,.ac,.ad,.ae,.af,.ag,.ah,.ai,.aj,.ak,.al,.am,.an,.ao,.ap,.aq,.ar,.as,.at,.au,.av,.aw,.ax,.ay,.az,.ba,.bb,.bc,.bd,.be,.bf,.bg,.bh,.bi,.bj,.bk,.j,.k,.l,.m,.n,.o,.p,.q,.r,.s,.t,.u,.v,.w,.x,.y,.z{fill:#fff;}.ah,.ai,.aj,.ak,.al,.am,.an,.ao,.ap,.aq,.j,.k,.l,.m,.n,.o,.p,.q,.r,.s,.t{font-family:Calibri;}.k{font-size:7.14px;}.bg,.l{font-size:7.14px;}.m{font-size:7.14px;}.n{font-size:7.14px;}.bb,.o{font-size:7.14px;}.p,.y{font-size:7.14px;}.q{font-size:7.14px;}.r{font-size:7.14px;}.s{font-size:7.14px;}.be,.t{font-size:7.14px;}.u{font-size:7.14px;}.aa,.ab,.ac,.ad,.ae,.af,.ag,.ar,.as,.at,.au,.av,.aw,.ax,.ay,.az,.ba,.bb,.bc,.bd,.be,.bf,.bg,.bh,.bi,.bj,.bk,.u,.v,.w,.x,.y,.z{font-family:Calibri-Bold, Calibri;font-weight:700;}.v{font-size:7.14px;}.w{font-size:7.14px;}.x{font-size:7.14px;}.z{font-size:7.14px;}.aa{font-size:7.14px;}.ab{font-size:7.14px;}.ac{font-size:7.14px;}.ad{font-size:7.14px;}.ae{font-size:7.14px;}.af{font-size:7.14px;}.ag{font-size:7.14px;}.ah{font-size:7.14px;}.ai{font-size:7.14px;}.aj{font-size:7.14px;}.ak{font-size:7.14px;}.al{font-size:7.14px;}.am{font-size:7.14px;}.an{font-size:7.14px;}.ao{font-size:7.14px;}.ap{font-size:7.14px;}.aq{font-size:7.14px;}.ar{font-size:7.14px;}.as{font-size:7.14px;}.at{font-size:7.14px;}.au{font-size:7.14px;}.av{font-size:7.14px;}.aw{font-size:7.14px;}.ax{font-size:7.14px;}.ay{font-size:7.14px;}.az{font-size:7.14px;}.ba{font-size:7.14px;}.bc{font-size:7.14px;}.bd{font-size:7.14px;}.bf{font-size:7.14px;}.bh{font-size:7.14px;}.bi{font-size:7.14px;}.bj{font-size:7.14px;}.bk{font-size:7.14px;}</style></defs><path class="a" d="M91.32,70.85A20.35,20.35,0,1,1,71,50.5,20.31,20.31,0,0,1,91.32,70.85"/><path class="b" d="M91.31,70.85A20.31,20.31,0,0,1,54.82,83.11,20.05,20.05,0,0,0,67,87.21,20.36,20.36,0,0,0,87.38,66.89a19.81,19.81,0,0,0-4.2-12.27,20.17,20.17,0,0,1,8.13,16.23"/><path class="c" d="M71,54.35a16.9,16.9,0,0,0-2.68.22,1.68,1.68,0,0,0,.27,3.34l.27,0A12.7,12.7,0,0,1,71,57.71a1.68,1.68,0,1,0,0-3.36"/><path class="c" d="M63.64,56.3a1.66,1.66,0,0,0-.83.22,16.55,16.55,0,0,0-8.32,14.32,1.68,1.68,0,1,0,3.36,0,13.17,13.17,0,0,1,6.63-11.4,1.68,1.68,0,0,0-.84-3.14"/><path class="d" d="M61.78.57c-1.11.14-2.22.3-3.33.54a58.85,58.85,0,0,0-8.36,2c-1.08.31-2.15.68-3.19,1A69,69,0,0,0,36.38,9a74.12,74.12,0,0,0-7.93,5.14c-.9.67-1.81,1.34-2.65,2.08a70.37,70.37,0,0,0-7.16,6.75c-.77.81-1.47,1.65-2.18,2.52a67.56,67.56,0,0,0-6.32,8.84L31.58,47.07a46.07,46.07,0,0,1,17.8-16.8,45.35,45.35,0,0,1,21.47-5.34V0a72.88,72.88,0,0,0-9.07.57"/><path class="e" d="M125.27,25.46q-1-1.3-2.22-2.52a69.23,69.23,0,0,0-7.15-6.75c-.88-.74-1.75-1.44-2.66-2.08A67.94,67.94,0,0,0,105.35,9,69.76,69.76,0,0,0,94.8,4.17c-1-.37-2.12-.74-3.19-1a58.66,58.66,0,0,0-8.37-2C82.14.87,81,.71,79.92.57A73,73,0,0,0,70.85,0V24.93a45.26,45.26,0,0,1,21.47,5.34,45.87,45.87,0,0,1,17.8,16.8L131.59,34.3a70.5,70.5,0,0,0-6.32-8.84"/><path class="a" d="M141.73,70.82c0-.1,0-.2,0-.3v0h0a71.73,71.73,0,0,0-.93-11.13q-.25-1.66-.6-3.33a72.36,72.36,0,0,0-2.32-8.33c-.37-1-.77-2.11-1.18-3.12a73.39,73.39,0,0,0-5.1-10.28L110.12,47.06a45.29,45.29,0,0,1,1.52,44.53A3.31,3.31,0,0,0,113,95.92l15.68,9.34a3.34,3.34,0,0,0,4.65-1.22,66.6,66.6,0,0,0,3.4-7.31c.44-1,.81-2.12,1.18-3.16a68.18,68.18,0,0,0,2.31-8.29c.24-1.11.44-2.19.61-3.33h0a71.74,71.74,0,0,0,.9-11.13Z"/><path class="f" d="M25,70.61a45.73,45.73,0,0,1,6.61-23.55L10.14,34.3A66.46,66.46,0,0,0,5,44.58c-.44,1-.84,2.08-1.18,3.16A71.72,71.72,0,0,0,1.54,56Q1.2,57.7.94,59.36A71.73,71.73,0,0,0,0,70.49H0v.33H0A71.73,71.73,0,0,0,.94,82c.17,1.14.37,2.22.6,3.33a69.55,69.55,0,0,0,2.32,8.29c.34,1,.74,2.12,1.18,3.16A66.6,66.6,0,0,0,8.44,104a3.34,3.34,0,0,0,4.65,1.22l15.68-9.34a3.32,3.32,0,0,0,1.31-4.34,45.82,45.82,0,0,1-5.11-21"/><path class="g" d="M30.9,66.88C42,65.61,68,62.76,71.52,63.06a8.19,8.19,0,0,1-1.4,16.33c-3.53-.28-28.69-7.46-39.39-10.57a1,1,0,0,1,.17-1.94"/><path class="h" d="M74.93,70.83a4,4,0,1,1-4-4,4,4,0,0,1,4,4"/><path class="i" d="M74.28,68.7a3.89,3.89,0,0,0-2.12-.64,4,4,0,0,0-3.93,4,3.75,3.75,0,0,0,.64,2.11A3.87,3.87,0,0,1,67,70.82a4,4,0,0,1,4-3.94,3.89,3.89,0,0,1,3.3,1.82"/><text class="j" transform="matrix(0.15, 0.99, -0.99, 0.15, 129.94, 59.02)">N</text><text class="k" transform="translate(130.61 63.71) rotate(84.44)">Í</text><text class="l" transform="matrix(0.05, 1, -1, 0.05, 130.83, 65.62)">V</text><text class="m" transform="matrix(-0.04, 1, -1, -0.04, 131.02, 69.89)">E</text><text class="n" transform="translate(130.86 73.53) rotate(96.31)">L</text><text class="o" transform="translate(130.26 78.3) rotate(100.9)">4</text><text class="p" transform="matrix(0.94, 0.35, -0.35, 0.94, 89.93, 13.45)">N</text><text class="q" transform="translate(94.36 15.15) rotate(23.79)">Í</text><text class="p" transform="matrix(0.89, 0.45, -0.45, 0.89, 96.15, 15.9)">V</text><text class="r" transform="matrix(0.86, 0.51, -0.51, 0.86, 99.89, 17.82)">E</text><text class="s" transform="matrix(0.83, 0.56, -0.56, 0.83, 103.02, 19.67)">L</text><text class="t" transform="matrix(0.78, 0.62, -0.62, 0.78, 106.99, 22.4)">3</text><text class="u" transform="translate(75.47 18.53) rotate(5.83)">I</text><text class="v" transform="matrix(0.99, 0.16, -0.16, 0.99, 77.07, 18.64)">N</text><text class="w" transform="translate(81.33 19.33) rotate(13.05)">T</text><text class="x" transform="translate(84.46 20.04) rotate(16.56)">E</text><text class="y" transform="matrix(0.94, 0.35, -0.35, 0.94, 87.46, 20.91)">R</text><text class="z" transform="translate(90.78 22.07) rotate(25.86)">M</text><text class="aa" transform="translate(95.98 24.63) rotate(30.57)">E</text><text class="ab" transform="matrix(0.82, 0.57, -0.57, 0.82, 98.67, 26.18)">D</text><text class="ac" transform="translate(102.12 28.59) rotate(37.73)">I</text><text class="ad" transform="matrix(0.76, 0.65, -0.65, 0.76, 103.41, 29.54)">Á</text><text class="ae" transform="translate(106.4 32.11) rotate(44.97)">R</text><text class="af" transform="matrix(0.67, 0.74, -0.74, 0.67, 109.04, 34.77)">I</text><text class="ag" transform="matrix(0.63, 0.78, -0.78, 0.63, 110.14, 35.91)">O</text><text class="ah" transform="matrix(0.78, -0.62, 0.62, 0.78, 31.79, 24.73)">N</text><text class="ai" transform="translate(35.55 21.82) rotate(-35.1)">Í</text><text class="aj" transform="matrix(0.85, -0.53, 0.53, 0.85, 37.11, 20.69)">V</text><text class="ak" transform="translate(40.68 18.46) rotate(-28.47)">E</text><text class="al" transform="translate(43.86 16.74) rotate(-25.2)">L</text><text class="ai" transform="translate(48.26 14.75) rotate(-20.03)">2</text><text class="am" transform="translate(11.81 80.34) rotate(-99.21)">N</text><text class="an" transform="translate(11.09 75.64) rotate(-95.97)">Í</text><text class="ao" transform="translate(10.85 73.7) rotate(-92.19)">V</text><text class="ap" transform="translate(10.73 69.45) rotate(-87.35)">E</text><text class="ah" transform="translate(10.91 65.82) rotate(-84.16)">L</text><text class="aq" transform="translate(11.46 61.03) rotate(-79.31)">1</text><text class="ar" transform="translate(21.23 85.67) rotate(-105.24)">E</text><text class="as" transform="translate(20.35 82.63) rotate(-101.76)">M</text><text class="at" transform="translate(19.19 76.92) rotate(-97.48)">E</text><text class="au" transform="matrix(-0.05, -1, 1, -0.05, 18.75, 73.88)">R</text><text class="av" transform="translate(18.55 70.45) rotate(-87.47)">G</text><text class="aw" transform="matrix(0.11, -0.99, 0.99, 0.11, 18.74, 66.28)">E</text><text class="ax" transform="translate(19.06 63.19) rotate(-79.49)">N</text><text class="ay" transform="translate(19.85 58.96) rotate(-75.42)">T</text><text class="az" transform="translate(20.65 55.84) rotate(-71.91)">E</text><text class="ba" transform="matrix(0.78, -0.62, 0.62, 0.78, 36.73, 30.85)">B</text><text class="ba" transform="matrix(0.82, -0.57, 0.57, 0.82, 39.49, 28.63)">Á</text><text class="ag" transform="translate(42.76 26.39) rotate(-30.66)">S</text><text class="bb" transform="translate(45.48 24.79) rotate(-28.22)">I</text><text class="v" transform="translate(46.88 24) rotate(-25.18)">C</text><text class="bc" transform="translate(49.86 22.56) rotate(-20.68)">O</text><text class="bd" transform="translate(120.82 54.91) rotate(75.11)">A</text><text class="be" transform="translate(121.77 58.38) rotate(79.01)">V</text><text class="bf" transform="translate(122.45 61.78) rotate(82.86)">A</text><text class="bg" transform="matrix(0.05, 1, -1, 0.05, 122.96, 65.66)">N</text><text class="bh" transform="translate(123.18 69.83) rotate(92.92)">Ç</text><text class="bi" transform="matrix(-0.13, 0.99, -0.99, -0.13, 123.03, 73.16)">A</text><text class="bj" transform="matrix(-0.2, 0.98, -0.98, -0.2, 122.51, 77.1)">D</text><text class="bk" transform="matrix(-0.26, 0.97, -0.97, -0.26, 121.69, 81.19)">O</text></svg>