<svg xmlns="http://www.w3.org/2000/svg" xmlns:xlink="http://www.w3.org/1999/xlink" viewBox="0 0 842.25 594.32"><defs><style>.cls-1{fill:none;}.cls-2{clip-path:url(#clip-path);}.cls-3{fill:#e5e4e4;}.cls-4{clip-path:url(#clip-path-2);}.cls-5{fill:#e6f0da;}.cls-6{fill:#accf80;}.cls-7{fill:#87be44;}</style><clipPath id="clip-path"><rect class="cls-1" x="-862.25" y="72.54" width="842.25" height="521.78"/></clipPath><clipPath id="clip-path-2"><rect class="cls-1" y="72.54" width="842.25" height="521.78"/></clipPath></defs><title>bg-capa</title><g id="Camada_2" data-name="Camada 2"><g class="cls-2"><path class="cls-3" d="M115.52,281.84a2.19,2.19,0,1,1,2.4-1.94,2.2,2.2,0,0,1-2.4,1.94"/><path class="cls-3" d="M134.43,237.84a2.19,2.19,0,0,1,.45-4.35,2.19,2.19,0,1,1-.45,4.35"/><path class="cls-3" d="M116.73,196.52a2.19,2.19,0,1,1,2.4-1.94,2.2,2.2,0,0,1-2.4,1.94"/><path class="cls-3" d="M85.65,207a2.18,2.18,0,1,1,2.4-1.94,2.19,2.19,0,0,1-2.4,1.94"/><path class="cls-3" d="M48.28,191.17a2.18,2.18,0,1,1,2.4-1.94,2.17,2.17,0,0,1-2.4,1.94"/><path class="cls-3" d="M37.56,234.28a2.19,2.19,0,1,1,2.4-1.94,2.19,2.19,0,0,1-2.4,1.94"/><path class="cls-3" d="M78.81,240a4.59,4.59,0,1,1,5-4.08,4.58,4.58,0,0,1-5,4.08"/><rect class="cls-3" x="105.74" y="207.05" width="1.13" height="56.85" transform="translate(-131.9 335.49) rotate(-88.48)"/><polygon class="cls-3" points="115.61 280.1 79.29 234.86 79.03 235.14 78.72 234.85 78.69 235.27 37.74 232.53 37.8 231.68 77.88 234.36 48.16 189.09 48.87 188.62 78.53 233.79 85.57 204.67 86.4 204.87 79.51 233.38 116.84 193.92 117.46 194.51 79.89 234.23 116.27 279.56 115.61 280.1"/><path class="cls-3" d="M197,566.76a2.18,2.18,0,1,1,1.6,2.65,2.19,2.19,0,0,1-1.6-2.65"/><polygon class="cls-3" points="225.41 651.32 191.25 608.66 141.4 638.49 140.96 637.75 190.71 607.98 190.46 607.67 190.8 607.41 190.38 607.32 198.7 567.14 199.54 567.32 191.39 606.65 240.27 583.41 240.64 584.19 191.87 607.37 219.73 618.34 219.41 619.13 192.14 608.39 226.07 650.78 225.41 651.32"/><path class="cls-3" d="M102.52,321,78,234.68l.84-.24,24.54,86.35Zm2.63,6.74L34.09,300l.31-.82L105.47,327ZM-60,435.22l-41.76-17.64.37-.79,41.76,17.63Zm-65.57,137.65-87.4-34.38.32-.81,86.34,34-29.16-62.41.79-.39,29.2,62.51,27-59.2.83.3L-125,572.61l-.41-.14ZM65.27,533.25l.51.38.07-.33Zm1.3,1,.83.61-.37-.33.3-.32,0-.44,2.51-.09-3.1-.26Zm-.18.95-.26,1.43.68-1.12Zm-58,96.93-31.6,79.82L122.06,671.2,67.61,536.07l-.09-.08Zm61.4,91.3-.61-.63,52.42-50.53L-23.8,713l-.12-.42L-24,713l-141.57-30.81.19-.85,139.94,30.45-69.51-62,.59-.66,70.27,62.74L7.61,631.74l.41.16-.37-.23,57.9-94.15-.47-.09.53-2.84-2-1.48-115.91-10,.08-.87,114.48,9.85-58.37-43,.52-.7,59.52,43.87,2.09.18L87.56,416.16l.86.16L66.88,532.51l4.08.35-.06.75,106-3.67,0,.88L68.42,534.57,134,593.67l-.59.65L68.43,535.75,122.9,671l.16,0,.12.42.3.31-.21.21,1,2.54-.81.32-.89-2.21Z"/><path class="cls-3" d="M115.52,322.67a11.44,11.44,0,1,1-11.27-11.6,11.43,11.43,0,0,1,11.27,11.6"/><path class="cls-3" d="M57.83,533a9.82,9.82,0,1,0,9.71-9.94A9.82,9.82,0,0,0,57.83,533"/><path class="cls-3" d="M38.86,299.64A4.59,4.59,0,1,1,34.34,295a4.59,4.59,0,0,1,4.52,4.65"/><path class="cls-3" d="M92.59,416.28a4.59,4.59,0,1,1-4.52-4.65,4.59,4.59,0,0,1,4.52,4.65"/><path class="cls-3" d="M3.33,548.41A3.25,3.25,0,0,1,0,551.62a3.25,3.25,0,0,1-3.21-3.3,3.27,3.27,0,0,1,3.3-3.21,3.26,3.26,0,0,1,3.21,3.3"/><path class="cls-3" d="M48.35,457.56a2.44,2.44,0,1,1-2.4-2.47,2.43,2.43,0,0,1,2.4,2.47"/><path class="cls-3" d="M142,437.65a2.44,2.44,0,1,1-2.41-2.47,2.44,2.44,0,0,1,2.41,2.47"/><path class="cls-3" d="M165.64,359.44a4.59,4.59,0,1,1-4.52-4.65,4.59,4.59,0,0,1,4.52,4.65"/><path class="cls-3" d="M8.78,487.86a4.59,4.59,0,1,1-4.52-4.65,4.57,4.57,0,0,1,4.52,4.65"/><path class="cls-3" d="M154.76,480.76a4.59,4.59,0,1,1-4.52-4.65,4.59,4.59,0,0,1,4.52,4.65"/><path class="cls-3" d="M138.26,593.93a4.59,4.59,0,1,1-4.52-4.65,4.58,4.58,0,0,1,4.52,4.65"/><path class="cls-3" d="M169.56,405.33a9.16,9.16,0,1,1-9-9.28,9.15,9.15,0,0,1,9,9.28"/><path class="cls-3" d="M25.07,366.61a7.73,7.73,0,1,1-7.62-7.84,7.73,7.73,0,0,1,7.62,7.84"/><path class="cls-3" d="M186.11,530.42a9.16,9.16,0,1,1-9-9.29,9.16,9.16,0,0,1,9,9.29"/><path class="cls-3" d="M-24,713l-99.51-21.65.18-.85,99.52,21.64ZM18.73,366.24l52.32,14.23L34.38,300.88,18,365.62l.76.57Zm-.83.68,17.43,55.52,52-6.55L71.53,381.51Zm-.37,1.73-6.16,56.8,23.08-2.9ZM35.6,423.29l10.61,33.78,66.85-14.22-25.2-26.13Zm-94.92,11.92L-54,497.73,3.75,487.68l6.63-61.23ZM-96.2,512.43l43.44,9.64-2-23.32Zm62,97.28L7,630.83-6.12,607.15ZM69.17,723.27,7.73,632.21l-43.43-22.3-58.73,39.85-.25-.37.19.4-70.84,32.34-.37-.8L-94.89,649l58.22-39.5-88.95-36.65.33-.81.05,0v0L-35.66,609l29.07-2.65L-51.66,524.7l.17,2-.87.07-.32-3.71-45.44-10.3-57-3.25.18-.86,57,3.24,43.17-14-5.39-63,.43,0-.05-.43,70.32-8.84,6.4-59.08.43,0-.42-.1L17,366l-61.13-45L-72.4,360.71l-.71-.51,28.44-39.91-79-41.74.87-.07,78.94,40.77,38.4-49.61.34.27.28-.35,37.41,29.37L80.7,235.24l.69.53-48.4,64-.35-.27-.27.34L-5,270.52l-38.55,49.8,60.84,44.74,16.6-65.59.42.1.4-.18,37.49,81.38L160,404.68l.64-45L104,322.53l.48-.73L161.35,359l-.24.36h.43l-.64,45.84h-.44l-.12.42L72.63,381.81,88.39,416l25.68,26.63,25.39-5.4.18.85-24.86,5.29,35.75,37.07-.62.61-36.14-37.47L46,458l-.09-.43-.42.13L34.72,423.39l-23.45,2.95L4.64,487.52l.45-.08.15.86-59.13,10.3,2,23.81L.25,548.07l-.39.78L-51.21,523.7l45.58,82.53,139.1-12.67,43.18-63.43.72.49L134.43,593.7l54,13.88-.22.84-54.54-14L-5.17,607.06,8.41,631.64,69.9,722.79Z"/></g></g><g id="Camada_1" data-name="Camada 1"><g class="cls-4"><path class="cls-3" d="M964.77,321l-24.54-86.35.84-.24,24.54,86.35Zm2.63,6.74L896.34,300l.31-.82L967.72,327ZM802.28,435.22l-41.76-17.64.37-.79,41.76,17.63ZM736.71,572.87l-87.4-34.38.32-.81,86.34,34-29.16-62.41.79-.39,29.2,62.51,27-59.2.83.3-27.39,60.16-.41-.14Zm190.81-39.62.51.38.07-.33Zm1.3,1,.83.61-.37-.33.3-.32,0-.44,2.51-.09-3.1-.26Zm-.18.95-.26,1.43.68-1.12Zm-58,96.93-31.6,79.82L984.31,671.2,929.86,536.07l-.09-.08Zm61.4,91.3-.61-.63,52.42-50.53L838.45,713l-.12-.42-.09.43L696.67,682.19l.19-.85L836.8,711.79l-69.51-62,.59-.66,70.27,62.74,31.71-80.09.41.16-.37-.23,57.9-94.15-.47-.09.53-2.84-2-1.48-115.91-10,.08-.87,114.48,9.85-58.37-43,.52-.7,59.52,43.87,2.09.18,21.55-116.28.86.16L929.13,532.51l4.08.35-.06.75,106-3.67,0,.88-108.55,3.75,65.55,59.1-.59.65-65-58.57L985.15,671l.16,0,.12.42.3.31-.21.21,1,2.54-.81.32-.89-2.21Z"/><path class="cls-3" d="M745.06,278.62a6,6,0,1,1-5.91-6.08,6,6,0,0,1,5.91,6.08"/><path class="cls-3" d="M821.34,320.45a3.26,3.26,0,1,1-3.21-3.3,3.27,3.27,0,0,1,3.21,3.3"/><path class="cls-3" d="M710.55,509a3.26,3.26,0,1,1-3.21-3.3,3.26,3.26,0,0,1,3.21,3.3"/><path class="cls-3" d="M764.05,417.22a3.26,3.26,0,1,1-3.21-3.3,3.27,3.27,0,0,1,3.21,3.3"/><path class="cls-3" d="M767.58,512.27a3.26,3.26,0,1,1-3.21-3.3,3.25,3.25,0,0,1,3.21,3.3"/><path class="cls-3" d="M740.2,572.4a3.26,3.26,0,1,1-3.21-3.3,3.25,3.25,0,0,1,3.21,3.3"/><path class="cls-3" d="M794.14,360.49a4.59,4.59,0,1,1-4.52-4.65,4.58,4.58,0,0,1,4.52,4.65"/><path class="cls-3" d="M807.11,434.85a4.59,4.59,0,1,1-4.52-4.65,4.59,4.59,0,0,1,4.52,4.65"/><path class="cls-3" d="M817.69,522.72a7.26,7.26,0,1,1-7.15-7.36,7.26,7.26,0,0,1,7.15,7.36"/><path class="cls-3" d="M838.24,713l-99.51-21.65.18-.85,99.52,21.64ZM881,366.24l52.32,14.23-36.67-79.59-16.38,64.74.76.57Zm-.83.68,17.43,55.52,52-6.55-15.84-34.38Zm-.37,1.73-6.16,56.8,23.08-2.9Zm18.07,54.64,10.61,33.78,66.85-14.22-25.2-26.13Zm-94.92,11.92,5.35,62.52L866,487.68l6.63-61.23Zm-36.88,77.22,43.44,9.64-2-23.32Zm62,97.28,41.14,21.12-13.07-23.68ZM931.42,723.27,870,632.21l-43.43-22.3-58.73,39.85-.25-.37.19.4-70.84,32.34-.37-.8L767.36,649l58.22-39.5-89-36.65.33-.81,0,0v0L826.59,609l29.07-2.65L810.59,524.7l.17,2-.87.07-.32-3.71-45.44-10.3-57-3.25.18-.86,57,3.24,43.17-14-5.39-63,.43,0-.05-.43,70.32-8.84,6.4-59.08.43,0-.42-.1.12-.44-61.13-45-28.28,39.68-.71-.51,28.44-39.91-79-41.74.87-.07,78.94,40.77,38.4-49.61.34.27.28-.35,37.41,29.37L943,235.24l.69.53-48.4,64-.35-.27-.27.34L857.2,270.52l-38.55,49.8,60.84,44.74,16.6-65.59.42.1.4-.18,37.49,81.38,87.88,23.91.64-45L966.2,322.53l.48-.73L1023.6,359l-.24.36h.43l-.64,45.84h-.44l-.12.42-87.71-23.86L950.64,416l25.68,26.63,25.39-5.4.18.85L977,443.38l35.75,37.07-.62.61L976,443.59,908.25,458l-.09-.43-.42.13L897,423.39l-23.45,2.95-6.63,61.18.45-.08.15.86-59.13,10.3,2,23.81,52.11,25.66-.39.78L811,523.7l45.58,82.53,139.1-12.67,43.18-63.43.72.49L996.68,593.7l54,13.88-.22.84-54.54-14L857.08,607.06l13.58,24.58,61.49,91.15Z"/><path class="cls-3" d="M686.76,523.09a2.18,2.18,0,1,1-1.06-2.9,2.18,2.18,0,0,1,1.06,2.9"/><path class="cls-3" d="M663.19,506.2a2.19,2.19,0,1,1-1.07-2.91,2.18,2.18,0,0,1,1.07,2.91"/><path class="cls-3" d="M625.14,522.77a2.19,2.19,0,1,1-4-1.83,2.19,2.19,0,1,1,4,1.83"/><path class="cls-3" d="M626.33,573.72a2.19,2.19,0,1,1-1.07-2.89,2.18,2.18,0,0,1,1.07,2.89"/><path class="cls-3" d="M653.42,540.23a4.58,4.58,0,1,1-2.24-6.08,4.58,4.58,0,0,1,2.24,6.08"/><rect class="cls-3" x="637.21" y="521.61" width="35.64" height="1.1" transform="translate(-61.83 955.56) rotate(-69.72)"/><polygon class="cls-3" points="624.56 573.21 623.87 572.71 648.56 538.37 622.78 521.99 623.24 521.26 648.27 537.17 684.71 521.56 685.05 522.35 649.15 537.73 649.4 537.89 649.17 538.25 649.52 538.5 624.56 573.21"/><path class="cls-3" d="M29.07,313.14A1.89,1.89,0,1,1,31,311.3a1.89,1.89,0,0,1-1.94,1.84"/><path class="cls-3" d="M42.35,273.86A1.89,1.89,0,1,1,44.29,272a1.89,1.89,0,0,1-1.94,1.84"/><path class="cls-3" d="M24.22,239.42a1.9,1.9,0,1,1,1.94-1.85,1.9,1.9,0,0,1-1.94,1.85"/><path class="cls-3" d="M-1.88,250.64a1.89,1.89,0,0,1-1.85-1.93,1.9,1.9,0,0,1,1.94-1.85A1.9,1.9,0,0,1,.06,248.8a1.9,1.9,0,0,1-1.94,1.84"/><rect class="cls-3" x="-6.7" y="273.27" width="49.23" height="0.98" transform="translate(-14.6 1.35) rotate(-3.06)"/><polygon class="cls-3" points="29.03 311.64 -5.44 275.1 -5.65 275.36 -5.94 275.13 -5.94 275.5 -41.47 275.97 -41.47 275.23 -6.69 274.77 -35.48 237.75 -34.9 237.29 -6.18 274.23 -2.11 248.61 -1.38 248.72 -5.36 273.81 24.13 237.17 24.71 237.63 -4.97 274.52 29.57 311.13 29.03 311.64"/><path class="cls-3" d="M119.11,553.43a1.89,1.89,0,1,1,1.56,2.17,1.88,1.88,0,0,1-1.56-2.17"/><path class="cls-3" d="M112.63,588.3a4,4,0,1,1,3.27,4.56,4,4,0,0,1-3.27-4.56"/><rect class="cls-3" x="90.13" y="612.55" width="48.85" height="0.72" transform="translate(-505.62 677.39) rotate(-85.35)"/><polygon class="cls-3" points="149.48 624.45 117.05 589.99 76.08 619.18 75.65 618.58 116.53 589.44 116.3 589.19 116.57 588.94 116.2 588.89 120.61 553.64 121.34 553.73 117.03 588.25 157.62 564.81 157.99 565.45 117.5 588.83 142.3 596.37 142.08 597.08 117.8 589.7 150.02 623.94 149.48 624.45"/><path class="cls-3" d="M20.57,347.87-6.59,275l.71-.27,27.16,72.84Zm2.73,5.64L-40,334.4l.22-.72,63.26,19.1ZM-111.78,457.67l-95.67-35.3.26-.71,95.67,35.3ZM-158.85,581l-77.82-23.63.22-.73L-159.58,580l-39.12-64.9.64-.39,39.18,65L-143.4,522l.73.2-15.71,58.54-.36-.1Zm162-47.4.47.29,0-.29Zm1.18.73.76.47-.34-.25.24-.3-.05-.38,2.16-.25-2.69,0Zm-.08.84-.13,1.25.51-1Zm-43.34,87.67L-60.9,693.94,61.65,648.75,5.31,535.88l-.08,0Zm59.31,74.55-.57-.5,41.75-47.24-122.7,45.25-.13-.36-.05.38-124.32-16.8.1-.75L-62.86,694l-64.28-48.74.46-.6,65,49.28,21.83-71.32.36.11-.34-.17L3.64,537.28l-.42,0,.26-2.49-1.83-1.14L-99.09,533v-.76l99.49.59-53.35-33.1.4-.64L1.87,532.85H3.68L14.23,431l.75.08L4.44,532.87l3.55,0v.64L73.1,546.8l.09.75-67.28-13,48.46,51.59-.46.6L6,535.56,62.37,648.49l.13,0,.13.36.28.25-.17.19,1.06,2.12-.68.34-.92-1.85Z"/><path class="cls-3" d="M31.9,348.39a9.9,9.9,0,1,1-10.53-9.24,9.89,9.89,0,0,1,10.53,9.24"/><path class="cls-3" d="M-3.34,533.91a8.5,8.5,0,1,0,7.69-9.24,8.5,8.5,0,0,0-7.69,9.24"/><path class="cls-3" d="M18.58,430.77a4,4,0,1,1-4.22-3.71,4,4,0,0,1,4.22,3.71"/><path class="cls-3" d="M45.8,456a2.14,2.14,0,1,1-2.25-2,2.11,2.11,0,0,1,2.25,2"/><path class="cls-3" d="M37.19,384.57a4,4,0,1,1-4.22-3.7,4,4,0,0,1,4.22,3.7"/><path class="cls-3" d="M45,480.32a4,4,0,1,1-4.22-3.7,4,4,0,0,1,4.22,3.7"/><path class="cls-3" d="M58.1,586.05a4,4,0,1,1-4.23-3.71,4,4,0,0,1,4.23,3.71"/><path class="cls-3" d="M68.84,401a7.93,7.93,0,1,1-8.44-7.39A7.93,7.93,0,0,1,68.84,401"/><path class="cls-3" d="M81,546.57a7.93,7.93,0,1,1-8.43-7.39A7.93,7.93,0,0,1,81,546.57"/><path class="cls-3" d="M-61.53,694.9l-87.39-11.8.1-.75,87.39,11.8Zm12.9-302.22,46.15,8.67-37.16-66.16-9.66,57,.7.43Zm-.67.65L-30.41,440l44.47-9.24L-2,402.21Zm-.2,1.52-1.38,49.45,19.72-4.1Zm19.38,45.91,11.5,28.42,47.84-8.69-14.69-29Zm-81.1,16.86,8.94,53.58,49.12-12.66,1.49-53.3Zm-30.26,64.48,41.93,10-3.34-20Zm64,84.39,37,15.38-12.92-19.53Zm97.07,90.87L-39.72,623l-39-16.24-47.93,38.45-.24-.29.18.33-58.9,32.81-.37-.66,58.88-32.8,47.51-38.12L-158.92,581l.23-.72h0v0L-78.78,606l24.91-4.3-44.55-67.32.28,1.67-.75.13-.53-3.19-43.69-10.46-55.34-7.19.1-.75,55.28,7.19L-103,511.39l-9-54,.37-.06-.08-.37,60.09-12.49L-50.2,393h.37l-.37-.06.07-.39L-106,358l-21.67,36.2-.65-.38,21.8-36.42-11.81-74.3.75-.12,11.67,73.47L-76.2,311l.32.21.21-.32,34.33,22.76,37.14-58.3.63.41-37.34,58.63-.32-.21-.21.32-34.33-22.76-29.83,45.65L-50,391.78-40.21,334l.38.06.33-.18,38,67.64,62.07-.4L32.91,385.08l-11-36,.36-.67,11.19,36.11-.18.33.37,0,27.7,16.74-.38,0-.07.37L-1,402.39l16,28.43,15.14,29.41,13.54-4.41.22.72-13.09,4.29,10.58,19.52-.5.57L29.89,461.08-18.74,470l-.11-.36-.35.14-11.67-28.88-20,4.17-1.5,53.26.39-.1.19.74-50.33,13,3.4,20.41L-52,550.9l-.28.71L-98.1,533.43-53,601.51l107-15.46L72.86,547l.66.37L54.77,586.12l59.78,3.13-.13.75-60.25-3.22L-52.6,602.2l13.42,20.27L20.2,696.89Z"/><path class="cls-3" d="M156.12,564.92a1.89,1.89,0,1,1,1.56,2.17,1.89,1.89,0,0,1-1.56-2.17"/></g><polygon class="cls-5" points="842.25 20 -0.07 40.71 -0.07 20 842.25 20 842.25 20"/><polygon class="cls-6" points="842.25 20.71 -0.07 30.71 -0.07 10 842.25 20.71 842.25 20.71"/><rect class="cls-7" x="-0.07" width="842.32" height="20.71"/></g></svg>