<?xml version="1.0" encoding="utf-8"?>
<!-- Generator: Adobe Illustrator 23.0.2, SVG Export Plug-In . SVG Version: 6.00 Build 0)  -->
<svg version="1.1" id="Camada_1" xmlns="http://www.w3.org/2000/svg" xmlns:xlink="http://www.w3.org/1999/xlink" x="0px" y="0px"
	 viewBox="0 0 97.3 92" style="enable-background:new 0 0 97.3 92;" xml:space="preserve">
<style type="text/css">
	.st0{fill:#068587;}
</style>
<title>icone-cidadania</title>
<path class="st0" d="M96.5,15.6h-40h-0.1v-4.7c0-6-4.9-10.9-10.9-10.9H10.9C4.9,0,0,4.9,0,10.9v70.2C0,87.1,4.9,92,10.9,92h34.6
	c5.2,0,9.7-3.7,10.7-8.8c0.1,0,0.2,0.1,0.3,0.1h27.9c0.5-0.1,0.8-0.5,0.8-0.9c0-0.4-0.4-0.7-0.8-0.8H56.5c0,0-0.1,0-0.1,0
	c0-0.2,0-0.3,0-0.5V65.2h36.7c1.8,0,3.3-1.5,3.3-3.3V27.7c0-1.8-1.5-3.3-3.3-3.3H56.4v-7.1h0.1h40c0.5,0,0.8-0.4,0.8-0.8
	C97.4,15.9,97,15.6,96.5,15.6L96.5,15.6L96.5,15.6z M93.1,26.1c0.9,0,1.6,0.7,1.6,1.6v34.2c0,0.9-0.7,1.6-1.6,1.6H56.4v-3h35.6v-4.7
	H56.4V26.1H93.1z M49.6,27.8v23.4H28.1V27.8H49.6z M50.5,24.4H28.1c-1.8,0-3.3,1.5-3.3,3.3v34.2c0,1.8,1.5,3.3,3.3,3.3h22.4v7.1
	c0,5.1-4.1,9.2-9.2,9.2H15c-5.1,0-9.2-4.1-9.2-9.2V14.9c0-5.1,4.1-9.2,9.2-9.2h26.3c5.1,0,9.2,4.1,9.2,9.2V24.4z M52.2,59.7h2.5v-3
	h-2.5V26.1h2.5v29.7l0,0v4.7l0,0v3h-2.5V59.7z M56.4,57.5h33.9v1.4H56.4V57.5z M52.2,24.4v-9.5c0-6-4.9-10.9-10.9-10.9H15
	C9,4,4,8.8,4,14.9c0,0,0,0,0,0.1v57.4c0,6,4.9,10.9,10.9,10.9c0,0,0,0,0.1,0h26.3c6,0,10.9-4.9,10.9-10.9v-7.1h2.5v15.9
	c0,5.1-4.1,9.2-9.2,9.2H10.9c-5.1,0-9.2-4.1-9.2-9.2V10.9c0-5.1,4.1-9.2,9.2-9.2h34.6c5.1,0,9.2,4.1,9.2,9.2v13.5H52.2z"/>
<path class="st0" d="M69.3,12h5.9c0.5-0.1,0.8-0.5,0.8-0.9c0-0.4-0.4-0.7-0.8-0.8h-5.9c-0.5-0.1-0.9,0.3-0.9,0.8s0.3,0.9,0.8,0.9
	C69.1,12,69.2,12,69.3,12z"/>
<path class="st0" d="M28.1,90.2c1.8,0,3.3-1.5,3.3-3.3c0-1.8-1.5-3.3-3.3-3.3s-3.3,1.5-3.3,3.3C24.9,88.7,26.3,90.2,28.1,90.2z
	 M28.1,85.3c0.9,0,1.6,0.7,1.6,1.6s-0.7,1.6-1.6,1.6c-0.9,0-1.6-0.7-1.6-1.6l0,0C26.6,86,27.3,85.3,28.1,85.3z"/>
<path class="st0" d="M92.1,28.3H57.2V33h34.9V28.3z M90.4,31.3H58.9V30h31.5V31.3z"/>
<path class="st0" d="M89.6,34H57.2v4.7h32.4V34z M87.9,37h-29v-1.4h29V37z"/>
<path class="st0" d="M92.1,39.6H57.2v4.7h34.9V39.6z M90.4,42.6H58.9v-1.3h31.5V42.6z"/>
<path class="st0" d="M74.3,51.2v-4.7H57.2v4.7L74.3,51.2z M58.9,48.1h13.8v1.4H58.9V48.1z"/>
<path class="st0" d="M47.9,29.5H29.8v20h18.1V29.5z M38.9,31.6c1.9,0,3.5,1.6,3.5,3.5c0,1.9-1.6,3.5-3.5,3.5c-1.9,0-3.5-1.6-3.5-3.5
	c0,0,0,0,0,0C35.4,33.1,36.9,31.6,38.9,31.6L38.9,31.6z M33,45c0.1-3.2,2.9-5.7,6.1-5.6c3,0.1,5.5,2.6,5.6,5.6
	C44.7,48.2,33,48.2,33,45z"/>
</svg>
