<?xml version="1.0" encoding="utf-8"?>
<!-- Generator: Adobe Illustrator 23.0.1, SVG Export Plug-In . SVG Version: 6.00 Build 0)  -->
<svg version="1.0" id="Camada_1" xmlns="http://www.w3.org/2000/svg" xmlns:xlink="http://www.w3.org/1999/xlink" x="0px" y="0px"
	 viewBox="0 0 300 249.7" style="enable-background:new 0 0 300 249.7;" xml:space="preserve">
<style type="text/css">
	.st0{fill:#00958F;}
	.st1{fill:#0073AE;}
	.st2{fill:#191E37;}
	.st3{fill:#85BC44;}
	.st4{fill:#FFC20E;}
	.st5{fill:#00B7FF;}
</style>
<g>
	<g>
		<g>
			<path class="st0" d="M147.1,77h2.3v0.5h-1.8v1.5h1.5v0.5h-1.5v1.8h1.8V82h-2.3V77z"/>
			<path class="st0" d="M150.8,77.8h1.5c0.4,0,0.6,0.1,0.9,0.2c0.3,0.1,0.5,0.3,0.7,0.5c0.2,0.2,0.4,0.4,0.5,0.6s0.2,0.5,0.2,0.8
				c0,0.3-0.1,0.5-0.2,0.8c-0.1,0.3-0.3,0.5-0.5,0.6c-0.2,0.2-0.5,0.4-0.7,0.5c-0.3,0.1-0.6,0.2-0.9,0.2h-1.4L150.8,77.8L150.8,77.8
				z M154,79.9c0-0.2,0-0.5-0.1-0.6c-0.1-0.2-0.2-0.4-0.4-0.5c-0.2-0.2-0.4-0.3-0.5-0.4c-0.2-0.1-0.5-0.1-0.6-0.1h-1.1v3.1h0.8
				c0.3,0,0.5,0,0.7-0.1c0.2-0.1,0.5-0.2,0.5-0.4c0.2-0.2,0.3-0.3,0.4-0.5C153.9,80.3,154,80,154,79.9z"/>
			<path class="st0" d="M159,77.8v2.5c0,0.3,0,0.5-0.1,0.6s-0.2,0.4-0.3,0.5c-0.1,0.2-0.3,0.3-0.5,0.4c-0.2,0.1-0.5,0.2-0.8,0.2
				c-0.4,0-0.6,0-0.8-0.1c-0.2-0.1-0.4-0.2-0.5-0.4c-0.2-0.2-0.3-0.4-0.3-0.5c-0.1-0.2-0.1-0.5-0.1-0.6v-2.5h0.5v2.5
				c0,0.2,0,0.3,0.1,0.5c0,0.2,0.1,0.3,0.2,0.4c0.1,0.1,0.2,0.2,0.4,0.3c0.2,0.1,0.4,0.1,0.6,0.1c0.3,0,0.5,0,0.5-0.1
				c0.2-0.1,0.3-0.2,0.4-0.3s0.2-0.3,0.2-0.4c0-0.2,0-0.3,0-0.5v-2.5H159z"/>
			<path class="st0" d="M160,79.9c0-0.3,0.1-0.5,0.2-0.8c0.1-0.3,0.3-0.5,0.5-0.6c0.2-0.2,0.5-0.4,0.7-0.5c0.3-0.1,0.5-0.2,0.9-0.2
				c0.4,0,0.6,0,0.9,0.1c0.3,0.1,0.5,0.2,0.7,0.4l-0.4,0.4c-0.2-0.1-0.4-0.2-0.6-0.3c-0.3-0.1-0.5-0.1-0.7-0.1c-0.3,0-0.5,0-0.6,0.1
				s-0.4,0.2-0.5,0.4c-0.2,0.2-0.3,0.4-0.4,0.5c-0.1,0.2-0.1,0.5-0.1,0.6c0,0.3,0,0.5,0.1,0.6c0.1,0.2,0.2,0.4,0.4,0.5
				c0.2,0.2,0.4,0.3,0.5,0.4c0.2,0.1,0.5,0.1,0.6,0.1c0.3,0,0.5,0,0.7-0.1c0.3-0.1,0.5-0.2,0.6-0.3l0.4,0.4
				c-0.2,0.2-0.5,0.3-0.7,0.4c-0.3,0.1-0.6,0.2-0.9,0.2c-0.3,0-0.6-0.1-0.9-0.2c-0.3-0.1-0.5-0.3-0.7-0.5c-0.2-0.2-0.4-0.5-0.5-0.7
				C160,80.4,160,80.1,160,79.9z"/>
			<path class="st0" d="M167,80.7h-1.6l-0.5,1.3h-0.5l1.6-4.1h0.5l1.6,4.1h-0.5L167,80.7z M165.6,80.1h1.3l-0.6-1.6L165.6,80.1z"/>
			<path class="st0" d="M168.4,79.9c0-0.3,0.1-0.5,0.2-0.8c0.1-0.3,0.3-0.5,0.5-0.6c0.2-0.2,0.5-0.4,0.7-0.5
				c0.3-0.1,0.5-0.2,0.9-0.2c0.4,0,0.6,0,0.9,0.1c0.3,0.1,0.5,0.2,0.7,0.4l-0.4,0.4c-0.2-0.1-0.4-0.2-0.6-0.3
				c-0.3-0.1-0.5-0.1-0.7-0.1c-0.3,0-0.5,0-0.6,0.1s-0.4,0.2-0.5,0.4c-0.2,0.2-0.3,0.4-0.4,0.5c-0.1,0.2-0.1,0.5-0.1,0.6
				c0,0.3,0,0.5,0.1,0.6c0.1,0.2,0.2,0.4,0.4,0.5c0.2,0.2,0.4,0.3,0.5,0.4c0.2,0.1,0.5,0.1,0.6,0.1c0.3,0,0.5,0,0.7-0.1
				c0.3-0.1,0.5-0.2,0.6-0.3l0.4,0.4c-0.2,0.2-0.5,0.3-0.7,0.4c-0.3,0.1-0.6,0.2-0.9,0.2c-0.3,0-0.6-0.1-0.9-0.2
				c-0.3-0.1-0.5-0.3-0.7-0.5c-0.2-0.2-0.4-0.5-0.5-0.7C168.5,80.4,168.4,80.1,168.4,79.9z"/>
			<path class="st0" d="M173.6,77.8h0.5v4.1h-0.5V77.8z"/>
			<path class="st0" d="M175.4,79.9c0-0.3,0.1-0.5,0.2-0.8c0.1-0.3,0.3-0.5,0.5-0.6c0.2-0.2,0.5-0.4,0.7-0.5
				c0.3-0.1,0.5-0.2,0.9-0.2c0.4,0,0.6,0.1,0.9,0.2c0.3,0.1,0.5,0.3,0.7,0.5s0.4,0.5,0.5,0.6c0.1,0.3,0.2,0.5,0.2,0.8
				c0,0.3-0.1,0.5-0.2,0.8c-0.1,0.3-0.3,0.5-0.5,0.7c-0.2,0.2-0.5,0.4-0.7,0.5c-0.3,0.1-0.5,0.2-0.9,0.2c-0.4,0-0.6-0.1-0.9-0.2
				c-0.3-0.1-0.5-0.3-0.7-0.5c-0.2-0.2-0.4-0.5-0.5-0.7C175.4,80.4,175.4,80.1,175.4,79.9z M176,79.9c0,0.3,0,0.5,0.1,0.6
				c0.1,0.2,0.2,0.4,0.4,0.5c0.2,0.2,0.4,0.3,0.5,0.4c0.2,0.1,0.5,0.1,0.6,0.1c0.3,0,0.5,0,0.6-0.1c0.2-0.1,0.4-0.2,0.5-0.4
				c0.2-0.2,0.3-0.4,0.4-0.5c0.1-0.2,0.1-0.5,0.1-0.6s0-0.5-0.1-0.6c-0.1-0.2-0.2-0.4-0.4-0.5c-0.2-0.2-0.4-0.3-0.5-0.4
				c-0.2-0.1-0.5-0.1-0.6-0.1c-0.3,0-0.5,0-0.6,0.1c-0.2,0.1-0.4,0.2-0.5,0.4c-0.2,0.2-0.3,0.4-0.4,0.5C176,79.4,176,79.6,176,79.9z
				 M177,77l1.3-0.6l0.3,0.5l-1.4,0.5L177,77z"/>
			<path class="st0" d="M181.7,78.6v3.3h-0.5v-4.1h0.5l2.8,3.3v-3.3h0.5v4.1h-0.5L181.7,78.6z"/>
			<path class="st0" d="M186.4,81.9c-0.1,0-0.1-0.1-0.2-0.1c0-0.1-0.1-0.1-0.1-0.2c0-0.1,0-0.2,0.1-0.3c0.1-0.1,0.2-0.1,0.3-0.1
				s0.2,0,0.3,0.1c0.1,0.1,0.1,0.2,0.1,0.3c0,0.1,0,0.2-0.1,0.3l-0.5,0.8l-0.4-0.2L186.4,81.9z"/>
			<path class="st0" d="M192.9,77.6h-1.6v4.4h-0.5v-4.4h-1.5V77h3.7V77.6z"/>
			<path class="st0" d="M194.1,77.8h2.1v0.5h-1.5v1.2h1.4V80h-1.4v1.4h1.5v0.5h-2.1V77.8z"/>
			<path class="st0" d="M196.9,79.9c0-0.3,0.1-0.5,0.2-0.8c0.1-0.3,0.3-0.5,0.5-0.6c0.2-0.2,0.5-0.4,0.7-0.5
				c0.3-0.1,0.5-0.2,0.9-0.2s0.6,0,0.9,0.1c0.3,0.1,0.5,0.2,0.7,0.4l-0.4,0.4c-0.2-0.1-0.4-0.2-0.6-0.3c-0.3-0.1-0.5-0.1-0.7-0.1
				c-0.3,0-0.5,0-0.6,0.1c-0.2,0.1-0.4,0.2-0.5,0.4c-0.2,0.2-0.3,0.4-0.4,0.5c-0.1,0.2-0.1,0.5-0.1,0.6c0,0.3,0,0.5,0.1,0.6
				c0.1,0.2,0.2,0.4,0.4,0.5c0.2,0.2,0.4,0.3,0.5,0.4c0.2,0.1,0.5,0.1,0.6,0.1c0.3,0,0.5,0,0.7-0.1c0.3-0.1,0.5-0.2,0.6-0.3l0.4,0.4
				c-0.2,0.2-0.5,0.3-0.7,0.4c-0.3,0.1-0.6,0.2-0.9,0.2c-0.3,0-0.6-0.1-0.9-0.2c-0.3-0.1-0.5-0.3-0.7-0.5c-0.2-0.2-0.4-0.5-0.5-0.7
				C197,80.4,196.9,80.1,196.9,79.9z"/>
			<path class="st0" d="M202.7,78.6v3.3h-0.5v-4.1h0.5l2.8,3.3v-3.3h0.5v4.1h-0.5L202.7,78.6z"/>
			<path class="st0" d="M207.3,79.9c0-0.3,0.1-0.5,0.2-0.8c0.1-0.3,0.3-0.5,0.5-0.6c0.2-0.2,0.5-0.4,0.7-0.5
				c0.3-0.1,0.5-0.2,0.9-0.2c0.4,0,0.6,0.1,0.9,0.2c0.3,0.1,0.5,0.3,0.7,0.5s0.4,0.5,0.5,0.6c0.1,0.3,0.2,0.5,0.2,0.8
				c0,0.3-0.1,0.5-0.2,0.8c-0.1,0.3-0.3,0.5-0.5,0.7c-0.2,0.2-0.5,0.4-0.7,0.5c-0.3,0.1-0.5,0.2-0.9,0.2c-0.4,0-0.6-0.1-0.9-0.2
				c-0.3-0.1-0.5-0.3-0.7-0.5c-0.2-0.2-0.4-0.5-0.5-0.7C207.3,80.4,207.3,80.1,207.3,79.9z M207.9,79.9c0,0.3,0,0.5,0.1,0.6
				c0.1,0.2,0.2,0.4,0.4,0.5c0.2,0.2,0.4,0.3,0.5,0.4c0.2,0.1,0.5,0.1,0.6,0.1c0.3,0,0.5,0,0.6-0.1c0.2-0.1,0.4-0.2,0.5-0.4
				c0.2-0.2,0.3-0.4,0.4-0.5c0.1-0.2,0.1-0.5,0.1-0.6s0-0.5-0.1-0.6c-0.1-0.2-0.2-0.4-0.4-0.5c-0.2-0.2-0.4-0.3-0.5-0.4
				c-0.2-0.1-0.5-0.1-0.6-0.1c-0.3,0-0.5,0-0.6,0.1c-0.2,0.1-0.4,0.2-0.5,0.4c-0.2,0.2-0.3,0.4-0.4,0.5
				C207.9,79.4,207.9,79.6,207.9,79.9z"/>
			<path class="st0" d="M213,77.8h0.5v3.6h1.7v0.5H213V77.8z"/>
			<path class="st0" d="M215.9,79.9c0-0.3,0.1-0.5,0.2-0.8c0.1-0.3,0.3-0.5,0.5-0.6c0.2-0.2,0.5-0.4,0.7-0.5
				c0.3-0.1,0.5-0.2,0.9-0.2s0.6,0.1,0.9,0.2c0.3,0.1,0.5,0.3,0.7,0.5s0.4,0.5,0.5,0.6c0.1,0.3,0.2,0.5,0.2,0.8
				c0,0.3-0.1,0.5-0.2,0.8c-0.1,0.3-0.3,0.5-0.5,0.7c-0.2,0.2-0.5,0.4-0.7,0.5c-0.3,0.1-0.5,0.2-0.9,0.2s-0.6-0.1-0.9-0.2
				c-0.3-0.1-0.5-0.3-0.7-0.5c-0.2-0.2-0.4-0.5-0.5-0.7C215.9,80.4,215.9,80.1,215.9,79.9z M216.4,79.9c0,0.3,0,0.5,0.1,0.6
				c0.1,0.2,0.2,0.4,0.4,0.5c0.2,0.2,0.4,0.3,0.5,0.4c0.2,0.1,0.5,0.1,0.6,0.1c0.3,0,0.5,0,0.6-0.1c0.2-0.1,0.4-0.2,0.5-0.4
				c0.2-0.2,0.3-0.4,0.4-0.5c0.1-0.2,0.1-0.5,0.1-0.6s0-0.5-0.1-0.6c-0.1-0.2-0.2-0.4-0.4-0.5c-0.2-0.2-0.4-0.3-0.5-0.4
				c-0.2-0.1-0.5-0.1-0.6-0.1c-0.3,0-0.5,0-0.6,0.1c-0.2,0.1-0.4,0.2-0.5,0.4c-0.2,0.2-0.3,0.4-0.4,0.5
				C216.5,79.4,216.4,79.6,216.4,79.9z"/>
			<path class="st0" d="M224.9,81.6c-0.2,0.2-0.5,0.3-0.7,0.4c-0.3,0.1-0.5,0.1-0.9,0.1c-0.3,0-0.6-0.1-0.9-0.2
				c-0.3-0.1-0.5-0.3-0.7-0.5c-0.2-0.2-0.4-0.5-0.5-0.7c-0.1-0.3-0.2-0.5-0.2-0.8c0-0.3,0.1-0.5,0.2-0.8c0.1-0.3,0.3-0.5,0.5-0.6
				s0.5-0.4,0.7-0.5c0.3-0.1,0.5-0.2,0.9-0.2s0.6,0,0.9,0.1c0.3,0.1,0.5,0.2,0.7,0.4l-0.4,0.4c-0.2-0.1-0.4-0.2-0.6-0.3
				c-0.3-0.1-0.5-0.1-0.7-0.1s-0.5,0-0.6,0.1c-0.2,0.1-0.4,0.2-0.5,0.4c-0.2,0.2-0.3,0.4-0.4,0.5c-0.1,0.2-0.1,0.5-0.1,0.6
				c0,0.3,0,0.5,0.1,0.6c0.1,0.2,0.2,0.4,0.4,0.5c0.2,0.2,0.4,0.3,0.5,0.4c0.2,0.1,0.5,0.1,0.6,0.1s0.5,0,0.6-0.1
				c0.2,0,0.4-0.1,0.5-0.2v-1.5h0.5V81.6L224.9,81.6z"/>
			<path class="st0" d="M226.2,77l1.3-0.6l0.3,0.5l-1.4,0.5L226.2,77z M226.5,77.8h0.5v4.1h-0.5V77.8z"/>
			<path class="st0" d="M230.8,80.7h-1.6l-0.5,1.3h-0.5l1.6-4.1h0.5l1.6,4.1h-0.7L230.8,80.7z M229.3,80.1h1.3l-0.6-1.6L229.3,80.1z
				"/>
			<path class="st0" d="M235.3,80.2l-1.5-2.5h0.6l1.2,1.9l1.2-1.9h0.6l-1.5,2.5v1.7h-0.5V80.2z"/>
			<path class="st0" d="M240.3,77h1.7c0.4,0,0.6,0.1,1,0.2c0.3,0.1,0.5,0.3,0.8,0.5c0.2,0.2,0.4,0.5,0.5,0.7c0.1,0.3,0.2,0.6,0.2,1
				c0,0.4-0.1,0.6-0.2,1c-0.1,0.3-0.4,0.5-0.5,0.7c-0.3,0.2-0.5,0.4-0.8,0.5c-0.4,0.1-0.6,0.2-1.1,0.2h-1.6V77z M243.9,79.5
				c0-0.3-0.1-0.5-0.2-0.7c-0.1-0.3-0.3-0.5-0.4-0.6c-0.2-0.2-0.4-0.3-0.6-0.4c-0.3-0.1-0.5-0.2-0.7-0.2h-1.2v3.8h1
				c0.3,0,0.5-0.1,0.8-0.2c0.3-0.1,0.5-0.3,0.6-0.4c0.2-0.2,0.4-0.4,0.5-0.6C243.8,80,243.9,79.8,243.9,79.5z"/>
			<path class="st0" d="M245.8,77.8h2.1v0.5h-1.5v1.2h1.4V80h-1.4v1.4h1.5v0.5h-2.1V77.8z"/>
			<path class="st0" d="M250.9,78.5c-0.1-0.1-0.3-0.2-0.4-0.2c-0.1-0.1-0.3-0.1-0.5-0.1s-0.4,0.1-0.5,0.2c-0.1,0.1-0.2,0.3-0.2,0.5
				c0,0.1,0,0.2,0.1,0.2c0,0.1,0.1,0.1,0.2,0.2c0.1,0.1,0.2,0.1,0.2,0.2c0.1,0.1,0.2,0.1,0.3,0.2c0.1,0.1,0.3,0.2,0.4,0.3
				c0.1,0.1,0.3,0.2,0.4,0.3c0.1,0.1,0.2,0.2,0.3,0.4c0.1,0.1,0.1,0.3,0.1,0.5c0,0.1,0,0.3-0.1,0.4c-0.1,0.2-0.1,0.3-0.3,0.4
				c-0.1,0.1-0.3,0.2-0.5,0.3c-0.2,0.1-0.4,0.1-0.6,0.1c-0.4,0-0.6-0.1-0.8-0.2c-0.2-0.1-0.4-0.3-0.5-0.5l0.4-0.4
				c0.1,0.2,0.3,0.3,0.5,0.4c0.2,0.1,0.4,0.1,0.5,0.1c0.1,0,0.3,0,0.4-0.1c0.1,0,0.2-0.1,0.3-0.2c0.1-0.1,0.1-0.1,0.1-0.2
				c0-0.1,0-0.2,0-0.3s0-0.2-0.1-0.3c0-0.1-0.1-0.2-0.2-0.2c-0.1-0.1-0.2-0.1-0.3-0.2c-0.1-0.1-0.2-0.1-0.3-0.2
				c-0.1-0.1-0.3-0.2-0.4-0.2c-0.1-0.1-0.3-0.2-0.4-0.3c-0.1-0.1-0.2-0.2-0.3-0.4c-0.1-0.1-0.1-0.3-0.1-0.4c0-0.2,0-0.3,0.1-0.5
				c0.1-0.1,0.2-0.3,0.3-0.4c0.1-0.1,0.3-0.2,0.4-0.3c0.2-0.1,0.4-0.1,0.5-0.1c0.3,0,0.5,0.1,0.6,0.2c0.2,0.1,0.4,0.2,0.5,0.3
				L250.9,78.5z"/>
			<path class="st0" d="M254.5,80.7h-1.6l-0.5,1.3h-0.5l1.6-4.1h0.5l1.6,4.1h-0.5L254.5,80.7z M253,80.1h1.3l-0.6-1.6L253,80.1z"/>
			<path class="st0" d="M257.1,80.3v1.6h-0.5v-4.2h0.9c0.3,0,0.5,0,0.6,0.1c0.2,0.1,0.4,0.1,0.5,0.2c0.2,0.1,0.3,0.2,0.4,0.4
				c0.1,0.2,0.1,0.4,0.1,0.5c0,0.3-0.1,0.5-0.2,0.7c-0.1,0.2-0.3,0.3-0.5,0.4c0.2,0.2,0.4,0.3,0.5,0.5c0.1,0.2,0.3,0.5,0.4,0.6
				c0.1,0.1,0.1,0.3,0.2,0.4c0.1,0.1,0.2,0.3,0.3,0.4H259c-0.1-0.1-0.2-0.2-0.2-0.3c-0.1-0.1-0.1-0.2-0.2-0.3
				c-0.1-0.1-0.1-0.3-0.2-0.4c-0.1-0.1-0.2-0.3-0.3-0.4c-0.1-0.1-0.2-0.2-0.3-0.3c-0.1-0.1-0.3-0.1-0.4-0.1L257.1,80.3L257.1,80.3z
				 M257.1,78.3v1.5h0.5c0.1,0,0.3,0,0.4,0c0.1,0,0.2-0.1,0.3-0.1c0.1-0.1,0.2-0.2,0.2-0.3c0-0.1,0.1-0.2,0.1-0.4
				c0-0.3-0.1-0.5-0.3-0.5c-0.2-0.1-0.5-0.2-0.7-0.2H257.1z"/>
			<path class="st0" d="M261.3,80.3v1.6h-0.5v-4.2h0.9c0.3,0,0.5,0,0.6,0.1s0.4,0.1,0.5,0.2c0.2,0.1,0.3,0.2,0.4,0.4
				c0.1,0.2,0.1,0.4,0.1,0.5c0,0.3-0.1,0.5-0.2,0.7c-0.1,0.2-0.3,0.3-0.5,0.4c0.2,0.2,0.4,0.3,0.5,0.5c0.1,0.2,0.3,0.5,0.4,0.6
				c0.1,0.1,0.1,0.3,0.2,0.4c0.1,0.1,0.2,0.3,0.3,0.4h-0.6c-0.1-0.1-0.2-0.2-0.2-0.3c-0.1-0.1-0.1-0.2-0.2-0.3
				c-0.1-0.1-0.1-0.3-0.2-0.4c-0.1-0.1-0.2-0.3-0.3-0.4c-0.1-0.1-0.2-0.2-0.3-0.3c-0.1-0.1-0.3-0.1-0.4-0.1L261.3,80.3L261.3,80.3z
				 M261.3,78.3v1.5h0.5c0.1,0,0.3,0,0.4,0c0.1,0,0.2-0.1,0.3-0.1c0.1-0.1,0.2-0.2,0.2-0.3c0-0.1,0.1-0.2,0.1-0.4
				c0-0.3-0.1-0.5-0.3-0.5c-0.2-0.1-0.5-0.2-0.7-0.2H261.3z"/>
			<path class="st0" d="M264.3,79.9c0-0.3,0.1-0.5,0.2-0.8c0.1-0.3,0.3-0.5,0.5-0.6s0.5-0.4,0.7-0.5c0.3-0.1,0.5-0.2,0.9-0.2
				c0.4,0,0.6,0.1,0.9,0.2c0.3,0.1,0.5,0.3,0.7,0.5c0.2,0.2,0.4,0.5,0.5,0.6c0.1,0.3,0.2,0.5,0.2,0.8c0,0.3-0.1,0.5-0.2,0.8
				c-0.1,0.3-0.3,0.5-0.5,0.7c-0.2,0.2-0.5,0.4-0.7,0.5c-0.3,0.1-0.5,0.2-0.9,0.2c-0.4,0-0.6-0.1-0.9-0.2c-0.3-0.1-0.5-0.3-0.7-0.5
				c-0.2-0.2-0.4-0.5-0.5-0.7C264.3,80.4,264.3,80.1,264.3,79.9z M264.8,79.9c0,0.3,0,0.5,0.1,0.6c0.1,0.2,0.2,0.4,0.4,0.5
				c0.2,0.2,0.4,0.3,0.5,0.4c0.2,0.1,0.5,0.1,0.6,0.1s0.5,0,0.6-0.1c0.2-0.1,0.4-0.2,0.5-0.4c0.2-0.2,0.3-0.4,0.4-0.5
				c0.1-0.2,0.1-0.5,0.1-0.6s0-0.5-0.1-0.6c-0.1-0.2-0.2-0.4-0.4-0.5c-0.2-0.2-0.4-0.3-0.5-0.4c-0.2-0.1-0.5-0.1-0.6-0.1
				s-0.5,0-0.6,0.1s-0.4,0.2-0.5,0.4c-0.2,0.2-0.3,0.4-0.4,0.5C264.8,79.4,264.8,79.6,264.8,79.9z"/>
			<path class="st0" d="M270,77.8h0.5v3.6h1.7v0.5H270V77.8z"/>
			<path class="st0" d="M273.4,77.8h0.5v3.6h1.7v0.5h-2.3V77.8z"/>
			<path class="st0" d="M276.2,79.9c0-0.3,0.1-0.5,0.2-0.8c0.1-0.3,0.3-0.5,0.5-0.6s0.5-0.4,0.7-0.5c0.3-0.1,0.5-0.2,0.9-0.2
				s0.6,0.1,0.9,0.2c0.3,0.1,0.5,0.3,0.7,0.5s0.4,0.5,0.5,0.6c0.1,0.3,0.2,0.5,0.2,0.8c0,0.3-0.1,0.5-0.2,0.8
				c-0.1,0.3-0.3,0.5-0.5,0.7c-0.2,0.2-0.5,0.4-0.7,0.5s-0.5,0.2-0.9,0.2s-0.6-0.1-0.9-0.2c-0.3-0.1-0.5-0.3-0.7-0.5
				c-0.2-0.2-0.4-0.5-0.5-0.7C276.3,80.4,276.2,80.1,276.2,79.9z M276.8,79.9c0,0.3,0,0.5,0.1,0.6c0.1,0.2,0.2,0.4,0.4,0.5
				c0.2,0.2,0.4,0.3,0.5,0.4c0.2,0.1,0.5,0.1,0.6,0.1c0.3,0,0.5,0,0.6-0.1c0.2-0.1,0.4-0.2,0.5-0.4s0.3-0.4,0.4-0.5
				c0.1-0.2,0.1-0.5,0.1-0.6s0-0.5-0.1-0.6c-0.1-0.2-0.2-0.4-0.4-0.5c-0.2-0.2-0.4-0.3-0.5-0.4c-0.2-0.1-0.5-0.1-0.6-0.1
				c-0.3,0-0.5,0-0.6,0.1s-0.4,0.2-0.5,0.4c-0.2,0.2-0.3,0.4-0.4,0.5C276.8,79.4,276.8,79.6,276.8,79.9z"/>
		</g>
		<rect x="19.3" y="82.4" class="st0" width="124.3" height="0.4"/>
		<g>
			<path class="st0" d="M74,26.2h4.6v0.6h-4V31h3.5v0.6h-3.5V37H74V26.2z"/>
			<path class="st0" d="M88.4,27.8v5.5c0,0.5-0.1,1-0.2,1.5c-0.1,0.5-0.3,0.9-0.5,1.3c-0.3,0.4-0.6,0.6-1.1,0.8
				c-0.5,0.2-1,0.3-1.7,0.3c-0.7,0-1.3-0.1-1.8-0.3c-0.5-0.2-0.8-0.5-1.2-0.8c-0.3-0.4-0.5-0.7-0.6-1.2c-0.1-0.5-0.2-1-0.2-1.5v-5.6
				h0.7v5.5c0,0.4,0,0.8,0.1,1.2c0.1,0.4,0.3,0.7,0.5,1c0.2,0.3,0.5,0.5,0.9,0.7c0.4,0.2,0.9,0.3,1.5,0.3c0.5,0,1.1-0.1,1.5-0.3
				c0.4-0.2,0.6-0.5,0.8-0.7s0.4-0.6,0.4-1.1c0.1-0.4,0.1-0.8,0.1-1.2v-5.5L88.4,27.8L88.4,27.8z"/>
			<path class="st0" d="M93.1,28.9v8h-0.7v-9.1h0.7l6.9,8v-8h0.7V37H100L93.1,28.9z"/>
			<path class="st0" d="M105.2,27.8h3.2c0.7,0,1.4,0.1,2,0.4c0.6,0.3,1.2,0.5,1.6,0.9s0.8,0.9,1.1,1.5c0.3,0.5,0.4,1.2,0.4,1.8
				c0,0.6-0.2,1.3-0.5,1.8s-0.6,1.1-1.2,1.5c-0.5,0.5-1.1,0.7-1.7,1c-0.6,0.3-1.4,0.4-2.2,0.4h-2.8L105.2,27.8L105.2,27.8z
				 M112.7,32.3c0-0.5-0.1-1.1-0.4-1.5c-0.2-0.5-0.5-0.9-0.9-1.3c-0.4-0.4-0.8-0.6-1.4-0.8s-1.1-0.3-1.7-0.3h-2.5v7.9h2.1
				c0.6,0,1.3-0.1,1.8-0.3c0.5-0.2,1.1-0.5,1.5-0.8c0.5-0.4,0.7-0.7,1-1.3C112.6,33.4,112.7,32.9,112.7,32.3z"/>
			<path class="st0" d="M120.1,33.4h-3.5l-1.3,3.5h-0.7l3.5-9.2h0.7l3.5,9.2h-0.7L120.1,33.4z M116.8,32.8h3l-1.5-4L116.8,32.8z"/>
			<path class="st0" d="M123.1,32.3c0-0.6,0.1-1.3,0.4-1.8c0.3-0.5,0.6-1.1,1-1.5c0.5-0.5,1-0.7,1.5-1c0.6-0.3,1.3-0.4,1.9-0.4
				c0.7,0,1.5,0.1,2.1,0.3c0.6,0.2,1.2,0.5,1.6,0.8l-0.5,0.5c-0.4-0.3-0.8-0.5-1.5-0.7c-0.5-0.2-1.2-0.3-1.8-0.3
				c-0.6,0-1.2,0.1-1.6,0.4c-0.5,0.2-0.9,0.5-1.3,0.9c-0.4,0.4-0.6,0.8-0.9,1.3c-0.2,0.5-0.3,1-0.3,1.6c0,0.5,0.1,1.1,0.3,1.6
				s0.5,0.9,0.9,1.4c0.4,0.4,0.8,0.6,1.3,0.9c0.5,0.2,1.1,0.4,1.6,0.4c0.6,0,1.3-0.1,1.8-0.3c0.5-0.2,1-0.4,1.5-0.7l0.5,0.5
				c-0.5,0.4-1,0.6-1.6,0.8c-0.6,0.2-1.3,0.3-2.1,0.3c-0.7,0-1.4-0.1-1.9-0.4c-0.6-0.3-1.1-0.6-1.5-1c-0.5-0.5-0.8-0.9-1-1.5
				C123.3,33.6,123.1,33,123.1,32.3z"/>
			<path class="st0" d="M134.8,27.8h0.7V37h-0.7V27.8z"/>
			<path class="st0" d="M138.6,32.3c0-0.6,0.1-1.3,0.4-1.8c0.3-0.5,0.6-1.1,1-1.5c0.5-0.5,1-0.7,1.5-1c0.6-0.3,1.3-0.4,1.9-0.4
				c0.7,0,1.4,0.1,1.9,0.4c0.6,0.3,1.1,0.5,1.5,1s0.8,0.9,1,1.5c0.3,0.5,0.4,1.2,0.4,1.8c0,0.6-0.1,1.3-0.4,1.8
				c-0.3,0.5-0.6,1.1-1,1.5c-0.5,0.5-1,0.8-1.5,1c-0.6,0.3-1.3,0.4-1.9,0.4c-0.7,0-1.4-0.1-1.9-0.4c-0.6-0.3-1.1-0.6-1.5-1
				c-0.5-0.5-0.8-0.9-1-1.5C138.8,33.6,138.6,33,138.6,32.3z M139.3,32.3c0,0.5,0.1,1.1,0.3,1.6c0.2,0.5,0.5,0.9,0.9,1.4
				c0.4,0.4,0.8,0.6,1.3,0.9c0.5,0.2,1.1,0.4,1.6,0.4c0.6,0,1.2-0.1,1.6-0.4c0.5-0.2,0.9-0.5,1.3-0.9c0.4-0.4,0.6-0.8,0.9-1.4
				c0.2-0.5,0.3-1,0.3-1.6c0-0.6-0.1-1.1-0.3-1.6c-0.2-0.5-0.5-0.9-0.9-1.3s-0.8-0.6-1.3-0.9c-0.5-0.2-1.1-0.4-1.6-0.4
				c-0.6,0-1.2,0.1-1.6,0.4c-0.5,0.2-0.9,0.5-1.3,0.9s-0.6,0.8-0.9,1.3C139.5,31.2,139.3,31.8,139.3,32.3z M142.4,26.3L145,25
				l0.4,0.7l-2.7,1.2L142.4,26.3z"/>
			<path class="st0" d="M152.2,28.9v8h-0.7v-9.1h0.7l6.9,8v-8h0.7V37h-0.7L152.2,28.9z"/>
		</g>
		<g>
			<path class="st1" d="M73.3,52.9c0-1.5,0.3-3.1,0.8-4.5c0.5-1.4,1.4-2.5,2.4-3.6c1-1,2.2-1.8,3.5-2.5c1.4-0.6,2.8-0.9,4.4-0.9
				c1.5,0,3,0.3,4.4,0.9c1.4,0.6,2.5,1.4,3.5,2.5c1,1,1.8,2.3,2.4,3.6c0.5,1.4,0.8,2.8,0.8,4.5c0,1.5-0.3,3.1-0.8,4.5
				s-1.4,2.6-2.4,3.6c-1,1-2.2,1.9-3.5,2.5c-1.4,0.6-2.8,0.9-4.4,0.9c-1.5,0-3-0.3-4.4-0.9c-1.4-0.6-2.5-1.5-3.5-2.5
				c-1-1-1.8-2.3-2.4-3.6C73.6,55.9,73.3,54.5,73.3,52.9z M74.9,52.9c0,1.4,0.3,2.7,0.7,3.9c0.5,1.3,1.2,2.3,2,3.3
				c0.8,0.9,1.9,1.6,3.1,2.2c1.2,0.5,2.5,0.8,3.8,0.8c1.4,0,2.6-0.3,3.8-0.8c1.2-0.5,2.2-1.3,3.1-2.2c0.8-0.9,1.5-2,2-3.3
				c0.5-1.3,0.7-2.5,0.7-3.9s-0.3-2.7-0.7-3.9s-1.2-2.3-2-3.2c-0.8-0.9-1.9-1.6-3.1-2.2c-1.2-0.5-2.5-0.8-3.8-0.8
				c-1.4,0-2.6,0.3-3.8,0.8c-1.2,0.5-2.2,1.3-3.1,2.2c-0.8,0.9-1.5,2-2,3.2C75.1,50.2,74.9,51.5,74.9,52.9z"/>
			<path class="st1" d="M102.2,45.2h1.5l7.3,16.8l7.4-16.8h1.5l1.3,18.6h-1.5l-1.1-15.6l-6.9,15.6h-1.6l-6.7-15.6
				c-0.2,2.6-0.4,5.3-0.5,7.8s-0.4,5.2-0.5,7.8h-1.5L102.2,45.2z"/>
			<path class="st1" d="M136.9,56.8h-7.2l-2.6,7.1h-1.5l7.1-18.6h1.4l7.1,18.6h-1.5L136.9,56.8z M130.2,55.5h6.2l-3.1-8.2
				L130.2,55.5z"/>
			<path class="st1" d="M148.2,55.9v8h-1.5V45.2h3.4c1.1,0,2,0.1,2.9,0.3c0.9,0.2,1.6,0.5,2.2,0.9c0.6,0.4,1.1,0.9,1.4,1.5
				c0.4,0.6,0.5,1.5,0.5,2.4c0,1.5-0.4,2.5-1,3.4c-0.6,0.8-1.5,1.4-2.5,1.7c0.8,0.5,1.5,1.2,1.9,2c0.5,0.8,1,1.6,1.5,2.5
				c0.4,0.6,0.8,1.4,1.2,2c0.4,0.6,0.9,1.3,1.5,1.9H158c-0.5-0.5-0.8-1-1.2-1.5c-0.4-0.6-0.7-1.2-1-1.8c-0.3-0.5-0.6-1.1-1-1.6
				c-0.4-0.5-0.7-1.1-1.1-1.5c-0.4-0.5-0.9-0.8-1.4-1.1c-0.5-0.3-1.1-0.4-1.7-0.4L148.2,55.9L148.2,55.9z M148.2,46.5v8.1h2.4
				c0.7,0,1.4-0.1,2-0.2c0.6-0.1,1.1-0.4,1.5-0.6c0.5-0.4,0.8-0.7,1-1.3c0.3-0.5,0.4-1.2,0.4-2c0-1.4-0.5-2.4-1.5-2.9
				c-0.9-0.6-2.3-0.9-4-0.9h-1.8V46.5z"/>
			<path class="st1" d="M174.8,42h7.2c1.6,0,3.2,0.3,4.6,0.8c1.4,0.5,2.6,1.3,3.6,2.3s1.8,2.1,2.5,3.5s0.9,2.7,0.9,4.4
				c0,1.5-0.3,3-0.9,4.4s-1.5,2.5-2.6,3.5c-1.1,1-2.5,1.7-3.9,2.3c-1.5,0.5-3.1,0.8-4.9,0.8h-6.5V42z M191.9,52.9
				c0-1.4-0.3-2.7-0.7-3.8c-0.5-1.2-1.2-2.2-2.1-3c-0.9-0.8-2-1.5-3.2-2c-1.3-0.5-2.5-0.7-4-0.7h-5.7v19.3h5c1.5,0,3-0.3,4.3-0.7
				c1.3-0.5,2.5-1.2,3.5-2c1-0.9,1.7-1.9,2.3-3.1C191.7,55.6,191.9,54.3,191.9,52.9z"/>
			<path class="st1" d="M200,45.2h8.4v1.3h-6.9v6.8h6.2v1.3h-6.2v8h7.1v1.3H200V45.2z"/>
			<path class="st1" d="M216.9,47.5v16.4h-1.5V45.2h1.4l14.1,16.4V45.2h1.5v18.6h-1.4L216.9,47.5z"/>
			<path class="st1" d="M255.9,62.4c-0.9,0.6-2,1.1-3.3,1.5c-1.3,0.4-2.6,0.5-4.1,0.5s-2.7-0.3-3.9-0.8c-1.2-0.5-2.3-1.3-3.2-2.1
				c-0.9-0.9-1.6-1.9-2.1-3.1c-0.5-1.2-0.7-2.5-0.7-3.8s0.3-2.6,0.7-3.8c0.5-1.2,1.2-2.2,2.1-3.1s1.9-1.5,3.2-2.1
				c1.2-0.5,2.5-0.7,3.9-0.7c1.5,0,2.9,0.2,4.2,0.6c1.3,0.4,2.4,0.9,3.4,1.6l-1,1c-0.8-0.6-1.7-1.1-2.9-1.5
				c-1.1-0.4-2.4-0.5-3.6-0.5c-1.2,0-2.4,0.2-3.4,0.6c-1,0.5-1.9,1-2.7,1.8c-0.7,0.7-1.4,1.6-1.8,2.6c-0.5,1-0.6,2.1-0.6,3.3
				s0.2,2.3,0.6,3.3s1,1.9,1.8,2.7c0.7,0.7,1.6,1.4,2.7,1.8c1,0.5,2.2,0.7,3.4,0.7s2.3-0.1,3.2-0.4c1-0.2,1.8-0.5,2.6-1v-7.1h1.5
				L255.9,62.4L255.9,62.4z"/>
			<path class="st1" d="M260.8,54.5c0-1.4,0.3-2.6,0.7-3.8c0.5-1.2,1.2-2.2,2.1-3.1s1.9-1.5,3.2-2.1c1.2-0.5,2.5-0.7,3.9-0.7
				c1.5,0,2.7,0.3,3.9,0.7c1.2,0.5,2.3,1.2,3.2,2.1c0.9,0.9,1.6,1.9,2.1,3.1c0.5,1.2,0.8,2.5,0.8,3.8s-0.3,2.6-0.8,3.8
				c-0.5,1.2-1.2,2.2-2.1,3.1c-0.9,0.9-1.9,1.5-3.2,2.1c-1.2,0.5-2.5,0.8-3.9,0.8c-1.5,0-2.7-0.3-3.9-0.8c-1.2-0.5-2.3-1.3-3.2-2.1
				c-0.9-0.9-1.6-1.9-2.1-3.1C261,57.1,260.8,55.9,260.8,54.5z M262.3,54.5c0,1.2,0.2,2.3,0.6,3.3s1,1.9,1.8,2.7
				c0.7,0.7,1.6,1.4,2.7,1.8c1,0.5,2.2,0.7,3.4,0.7s2.4-0.3,3.4-0.7c1-0.5,1.9-1.1,2.7-1.8c0.7-0.7,1.4-1.6,1.8-2.7s0.6-2.1,0.6-3.3
				c0-1.2-0.2-2.3-0.6-3.3s-1-1.9-1.8-2.6c-0.7-0.7-1.6-1.4-2.7-1.8c-1-0.5-2.2-0.6-3.4-0.6c-1.2,0-2.4,0.2-3.4,0.6
				c-1,0.5-1.9,1-2.7,1.8c-0.7,0.7-1.4,1.6-1.8,2.6C262.5,52.2,262.3,53.3,262.3,54.5z"/>
		</g>
		<g>
			<path class="st1" d="M46.8,37c0.1,6.8,3.8,9.3,5.2,11.9c1,1.9-0.4,4.2-1.8,4.9c-1.5,0.7-4.2,0.7-5.3-1.9
				c-1.1-2.6,1.5-6.1,0.9-12.4c-0.4-4.7-2.1-10.6-7.4-16c0,0-1.9,0.4-3.5,1c3,1.6,4.8,4.5,5.1,7.8c0.4,6-5.8,15.1-5,21.7
				c1,8.2,9.8,12.5,16.2,9.6c4.7-2.2,11.5-7.8,4.4-22.4c-3.4-6.9,0.1-10.2,3.8-10.6c-2-2.3-4.3-4-7-5.3C48.8,28.5,46.7,32.6,46.8,37
				"/>
			<path class="st0" d="M37.3,30c0-0.1-0.1-0.1-0.1-0.2C37.3,29.8,37.3,29.9,37.3,30"/>
			<path class="st0" d="M64.9,43c-0.4-3.1-1.4-5.9-2.8-8.5c-2.7-1.4-7.1,1.1-4.5,6.6c7.3,15.5-2.3,22-6.9,23.7
				c-8.6,3.3-18.8-3.2-18.8-13.4c0-7.8,6.1-11.8,6.1-18.6c0-5-4.6-6.8-6.9-6.6c-7.5,4.4-12,13-10.9,22.1c1.5,12.4,12.7,21.1,25,19.6
				C57.6,66.5,66.4,55.2,64.9,43"/>
			<path class="st0" d="M37.3,30c0.1,0.2,0.1,0.4,0.2,0.5c0-0.1-0.1-0.2-0.1-0.3C37.4,30,37.4,30,37.3,30"/>
			<path class="st0" d="M43.3,6.3c0,0-3.4,4-2.7,9.6c0.4,3.5,1.4,4.9,2.8,7.2c1.2,1.9,2.1,4.5,2.3,8.8c0,0,0-1.6,1.2-3.7
				c1.5-2.8,3.1-7.7-1.5-12.2C42.7,13.6,42,9.5,43.3,6.3"/>
			<path class="st0" d="M46.9,47c0,0,0,2.5,0.1,3.5c0,0.9,0.9,1.5,1.5,1.4c0.6-0.1,1.3-0.6,1.3-1.5C49.8,49,48.2,49,46.9,47"/>
		</g>
	</g>
	<g>
		<g>
			<path class="st2" d="M116.5,219.1c-11.2,0-17.5-7.3-17.5-17.1c0-10.7,6.1-17,17.3-17c7.1,0,9.9,1.6,9.9,1.6v4.1
				c0,0-3.4-1.9-9.8-1.9c-6.9,0-13,3.1-13,12.6s6.3,13.7,13.9,13.7c5.8,0,8.9-1.4,8.9-1.4l0.1,4
				C126.4,217.7,122.7,219.1,116.5,219.1"/>
			<rect x="136.9" y="199.5" class="st2" width="4.1" height="19.3"/>
			<polygon class="st2" points="150.7,185.4 150.7,218.8 170,218.8 170,214.9 154.8,214.9 154.8,189.4 168.9,189.4 168.9,185.4 			
				"/>
			<path class="st2" d="M186.7,199.6c-2.1,0-3.8-0.2-3.8-0.2v-10.7c0,0,1.9-0.1,3.4-0.1c4.5,0,7,1.6,7,5.3
				C193.2,196.9,191.2,199.6,186.7,199.6 M192.9,200.7c0,0,4.8-1.5,4.8-7.5c0-5-4.1-7.7-10.6-7.7c-3.2,0-8.4,0.1-8.4,0.1v17.5h7.5
				l0,0c5.6,0,9.3,1.7,9.3,6.3c0,4.7-3.4,6-7.5,6l0,0h-9.3v3.4c0,0,7.1,0.1,9.5,0.1c7.7,0,11.8-3.9,11.8-9.8
				C200.1,201.8,192.9,200.7,192.9,200.7"/>
			<path class="st3" d="M139.1,192.7c2.2,0,3.9-1.8,3.9-3.9c0-2.1-1.7-4-3.9-4c-2.2,0-3.9,1.8-3.9,3.9S137,192.7,139.1,192.7"/>
			<path class="st3" d="M164.5,207.2c2.2,0,3.9-1.8,3.9-3.9s-1.8-3.9-3.9-3.9s-3.9,1.8-3.9,3.9S162.4,207.2,164.5,207.2"/>
			<polygon class="st3" points="164.9,202.3 138.4,187.1 138.4,189.8 164.9,205 			"/>
		</g>
		<path class="st2" d="M152.5,228.1c-1.3,0-2,0.9-2,2c0,1.1,0.7,2.1,1.9,2.1c1.3,0,2-0.9,2-2.1S153.8,228.1,152.5,228.1
			 M152.5,232.8c-1.6,0-2.5-1.1-2.5-2.7s1.1-2.6,2.6-2.6c1.6,0,2.5,1.1,2.5,2.7C155.2,231.8,154.2,232.8,152.5,232.8"/>
		<path class="st2" d="M101.4,237.2l0.7,1.8h-1.4L101.4,237.2z M101.1,236.4l-2,5.2h0.7l0.7-1.9h1.9l0.7,1.9h0.7l-2-5.2H101.1z"/>
		<polygon class="st2" points="106.5,241.5 106.5,236.4 109.2,236.4 109.2,236.9 107.1,236.9 107.1,238.6 109.2,238.6 109.2,239.1 
			107.1,239.1 107.1,240.9 109.4,240.9 109.4,241.5 		"/>
		<path class="st2" d="M114,237.5c-0.4-0.5-1.1-0.7-1.8-0.7c-0.6,0-1,0-1,0v3.9c0,0,0.5,0.1,1.1,0.1c1.3,0,2.1-0.7,2.1-2
			C114.5,238.3,114.3,237.8,114,237.5 M114.5,240.8c-0.5,0.5-1.1,0.7-2.2,0.7c-0.7,0-1.7,0-1.7,0v-5.2c0,0,1.1,0,1.7,0
			c1.1,0,1.8,0.2,2.3,0.8c0.4,0.4,0.6,1,0.6,1.7S114.9,240.3,114.5,240.8"/>
		<path class="st2" d="M120.2,239.7c-0.1,1.4-1.1,1.9-2,1.9c-1.1,0-2-0.4-2-1.6c0-0.2,0-0.9,0-1.6c0-0.7,0-2,0-2h0.7
			c0,0,0,1.2,0,1.8c0,0.4,0,1,0,1.6c0,0.9,0.6,1.3,1.5,1.3c1,0,1.5-0.4,1.5-1.4c0-0.2,0-0.6,0-1.1c0-1.1,0-2.1,0-2.1h0.6
			c0,0,0,1.6,0,2.1C120.2,238.8,120.2,239.4,120.2,239.7"/>
		<path class="st2" d="M123.8,241.5c-1.7,0-2.7-1.1-2.7-2.6c0-1.6,1-2.6,2.7-2.6c1.1,0,1.6,0.2,1.6,0.2v0.7c0,0-0.5-0.3-1.6-0.3
			c-1.1,0-2,0.5-2,2s1,2.1,2.1,2.1c0.9,0,1.4-0.2,1.4-0.2v0.7C125.4,241.3,124.8,241.5,123.8,241.5"/>
		<path class="st2" d="M128.5,237.2l-0.7,1.8h1.4L128.5,237.2z M130.2,241.5l-0.7-1.9h-1.9l-0.7,1.9h-0.7l2-5.2h0.6l2,5.2H130.2z"/>
		<path class="st2" d="M134,241.5h-0.2l-0.2,0.3c0.6,0.1,0.8,0.3,0.8,0.8c0,0.4-0.3,0.7-0.9,0.7c-0.5,0-0.7-0.2-0.7-0.2l0.1-0.4
			c0,0,0.2,0.2,0.6,0.2c0.2,0,0.4-0.1,0.4-0.2c0-0.3-0.4-0.4-0.9-0.5v-0.3l0.2-0.4c-1.3-0.2-2.1-1.3-2.1-2.6c0-1.6,1-2.6,2.7-2.6
			c1.1,0,1.6,0.2,1.6,0.2v0.7c0,0-0.5-0.3-1.6-0.3c-1.1,0-2,0.5-2,2s1,2.1,2.1,2.1c0.9,0,1.4-0.2,1.4-0.2v0.7
			C135.6,241.3,135,241.5,134,241.5"/>
		<path class="st2" d="M138.7,237.2l-0.7,1.8h1.4L138.7,237.2z M139.2,235.3c-0.3,0-0.7-0.3-0.9-0.3c-0.2,0-0.4,0.1-0.6,0.3
			l-0.2-0.4c0,0,0.3-0.4,0.8-0.4c0.4,0,0.7,0.3,0.9,0.3c0.3,0,0.6-0.3,0.6-0.3l0.2,0.4C140,234.9,139.7,235.3,139.2,235.3
			 M140.4,241.5l-0.7-1.9h-1.9l-0.7,1.9h-0.7l2-5.2h0.6l2,5.2H140.4z"/>
		<path class="st2" d="M144.2,236.8c-1.3,0-2,0.9-2,2c0,1.1,0.7,2.1,1.9,2.1c1.3,0,2-0.9,2-2.1S145.3,236.8,144.2,236.8
			 M144.1,241.6c-1.6,0-2.5-1.1-2.5-2.7s1.1-2.6,2.6-2.6c1.6,0,2.5,1.1,2.5,2.7C146.7,240.5,145.7,241.6,144.1,241.6"/>
		<path class="st2" d="M150.9,239.1c-0.2,0-0.5,0-0.5,0v1.9c0,0,0.4,0,0.7,0c0.7,0,1.1-0.2,1.1-0.9
			C152.4,239.3,151.8,239.1,150.9,239.1 M150.9,236.8c-0.2,0-0.5,0-0.5,0v1.6c0,0,0.2,0,0.6,0c0.7,0,1-0.4,1-0.9
			C152,237,151.6,236.8,150.9,236.8 M151.2,241.5c-0.4,0-1.5,0-1.5,0v-5.2c0,0,0.8,0,1.3,0c1,0,1.6,0.4,1.6,1.2
			c0,0.9-0.7,1.1-0.7,1.1s1.1,0.2,1.1,1.3C153.1,240.9,152.5,241.5,151.2,241.5"/>
		<path class="st2" d="M160.6,237.2l-0.7,1.8h1.4L160.6,237.2z M162.3,241.5l-0.7-1.9h-1.9l-0.7,1.9h-0.7l2-5.2h0.6l2,5.2H162.3z"/>
		<path class="st2" d="M165,241.5c-0.9,0-1.4-0.3-1.4-0.3v-0.7c0,0,0.6,0.4,1.4,0.4c0.7,0,1.2-0.2,1.2-0.8c0-0.7-0.7-0.8-1.2-1.1
			c-0.6-0.2-1.3-0.6-1.3-1.5s0.7-1.3,1.5-1.3c0.9,0,1.3,0.2,1.3,0.2v0.7c0,0-0.6-0.3-1.3-0.3c-0.6,0-0.9,0.2-0.9,0.7s0.6,0.7,1.1,1
			c0.7,0.3,1.4,0.6,1.4,1.5C166.8,241,166,241.5,165,241.5"/>
		<rect x="167.9" y="236.4" class="st2" width="0.7" height="5.2"/>
		<polygon class="st2" points="169.8,241.5 169.8,236.4 170.5,236.4 170.5,240.9 172.8,240.9 172.8,241.5 		"/>
		<polygon class="st2" points="173.8,241.5 173.8,236.4 176.6,236.4 176.6,236.9 174.4,236.9 174.4,238.6 176.6,238.6 176.6,239.1 
			174.4,239.1 174.4,240.9 176.8,240.9 176.8,241.5 		"/>
		<rect x="178" y="236.4" class="st2" width="0.7" height="5.2"/>
		<path class="st2" d="M186.6,237.2l-0.7,1.8h1.4L186.6,237.2z M188.2,241.5l-0.7-1.9h-1.9l-0.7,1.9h-0.7l2-5.2h0.6l2,5.2H188.2z"/>
		<path class="st2" d="M155.4,238.9L155.4,238.9L155.4,238.9C155.3,238.9,155.3,238.9,155.4,238.9
			C155.3,238.9,155.3,238.9,155.4,238.9h-0.7v-2h0.7c0.5,0,0.8,0.1,1,0.3c0.2,0.2,0.2,0.4,0.2,0.7c0,0.3-0.2,0.6-0.3,0.8
			C156.1,238.8,155.7,238.9,155.4,238.9 M156.2,239.3L156.2,239.3c0.5-0.2,1-0.7,1-1.5c0-0.4-0.1-0.7-0.3-1
			c-0.3-0.3-0.7-0.5-1.5-0.5c-0.1,0-0.2,0-0.2,0H154l0,0v0.1l0,0v0.4v2v0.6v2h0.7v-2h1l1.2,2h0.7L156.2,239.3z"/>
		<path class="st2" d="M181.2,238.9L181.2,238.9L181.2,238.9L181.2,238.9C181.2,238.9,181.1,238.9,181.2,238.9h-0.7v-2h0.7
			c0.5,0,0.8,0.1,1,0.3c0.2,0.2,0.2,0.4,0.2,0.7c0,0.3-0.2,0.6-0.3,0.8C181.8,238.8,181.6,238.9,181.2,238.9 M182.1,239.3
			L182.1,239.3c0.5-0.2,1-0.7,1-1.5c0-0.4-0.1-0.7-0.3-1c-0.3-0.3-0.7-0.5-1.5-0.5c-0.1,0-0.2,0-0.2,0h-1.2l0,0v0.1l0,0v0.4v2v0.6v2
			h0.7v-2h1l1.2,2h0.7L182.1,239.3z"/>
		<path class="st2" d="M134.4,228.7c-0.4-0.5-1.1-0.7-1.8-0.7c-0.6,0-1,0-1,0v3.9c0,0,0.5,0.1,1.1,0.1c1.3,0,2.1-0.7,2.1-2
			C134.8,229.5,134.7,229.1,134.4,228.7 M134.8,231.9c-0.5,0.5-1.1,0.7-2.2,0.7c-0.7,0-1.7,0-1.7,0v-5.2c0,0,1.1,0,1.7,0
			c1.1,0,1.8,0.2,2.3,0.8c0.4,0.4,0.6,1,0.6,1.7S135.3,231.4,134.8,231.9"/>
		<polygon class="st2" points="136.4,232.7 136.4,227.5 139.2,227.5 139.2,228.1 137,228.1 137,229.7 139.1,229.7 139.1,230.3 
			137,230.3 137,232 139.3,232 139.3,232.7 		"/>
		<rect x="142.9" y="227.5" class="st2" width="0.7" height="5.2"/>
		<polygon class="st2" points="148.3,232.7 145.3,228.6 145.3,232.7 144.8,232.7 144.8,227.5 145.3,227.5 148.3,231.5 148.3,227.5 
			148.9,227.5 148.9,232.7 		"/>
		<polygon class="st2" points="158.1,232.7 157.5,232.7 155.6,227.5 156.3,227.5 157.9,231.7 159.4,227.5 160.1,227.5 		"/>
		<path class="st2" d="M162.1,228.3l-0.7,1.8h1.4L162.1,228.3z M163.8,232.7l-0.7-1.9h-1.9l-0.7,1.9h-0.7l2-5.2h0.6l2,5.2H163.8z"/>
		<path class="st2" d="M167.5,232.7h-0.2l-0.2,0.3c0.6,0.1,0.8,0.3,0.8,0.7s-0.3,0.7-0.9,0.7c-0.5,0-0.7-0.2-0.7-0.2l0.1-0.4
			c0,0,0.2,0.2,0.6,0.2c0.2,0,0.4-0.1,0.4-0.2c0-0.3-0.4-0.4-0.9-0.5V233l0.2-0.4c-1.3-0.2-2.1-1.3-2.1-2.6c0-1.6,1-2.6,2.7-2.6
			c1.1,0,1.6,0.2,1.6,0.2v0.7c0,0-0.5-0.3-1.6-0.3c-1.1,0-2,0.5-2,2s1,2.1,2.1,2.1c0.9,0,1.4-0.2,1.4-0.2v0.7
			C169,232.5,168.4,232.7,167.5,232.7"/>
		<path class="st2" d="M172.1,228.3l-0.7,1.8h1.4L172.1,228.3z M172.5,226.5c-0.3,0-0.7-0.3-0.9-0.3s-0.4,0.1-0.6,0.3l-0.2-0.4
			c0,0,0.3-0.4,0.8-0.4c0.4,0,0.7,0.3,0.9,0.3c0.3,0,0.6-0.3,0.6-0.3l0.2,0.4C173.4,226,173,226.5,172.5,226.5 M173.8,232.7
			l-0.7-1.9h-1.9l-0.7,1.9h-0.7l2-5.2h0.6l2,5.2H173.8z"/>
		<path class="st2" d="M177.3,228c-1.3,0-2,0.9-2,2c0,1.1,0.7,2.1,1.9,2.1c1.3,0,2-0.9,2-2.1C179.2,228.9,178.5,228,177.3,228
			 M177.2,232.7c-1.6,0-2.5-1.1-2.5-2.7s1.1-2.6,2.6-2.6c1.6,0,2.5,1.1,2.5,2.7S178.9,232.7,177.2,232.7"/>
		<path class="st2" d="M101.8,232.7c-1.7,0-2.7-1.1-2.7-2.6c0-1.6,1-2.6,2.7-2.6c1.1,0,1.6,0.2,1.6,0.2v0.7c0,0-0.5-0.3-1.6-0.3
			c-1.1,0-2,0.5-2,2c0,1.5,1,2.1,2.1,2.1c0.9,0,1.4-0.2,1.4-0.2v0.7C103.3,232.5,102.7,232.7,101.8,232.7"/>
		<polygon class="st2" points="104.4,232.7 104.4,227.5 107.2,227.5 107.2,228.1 105.1,228.1 105.1,229.7 107.2,229.7 107.2,230.3 
			105.1,230.3 105.1,232 107.4,232 107.4,232.7 		"/>
		<polygon class="st2" points="112,232.7 109,228.6 109,232.7 108.3,232.7 108.3,227.5 109,227.5 112,231.5 112,227.5 112.5,227.5 
			112.5,232.7 		"/>
		<polygon class="st2" points="115.8,228.1 115.8,232.7 115.2,232.7 115.2,228.1 113.3,228.1 113.3,227.5 117.6,227.5 117.6,228.1 
					"/>
		<path class="st2" d="M125.2,228c-1.3,0-2,0.9-2,2c0,1.1,0.7,2.1,1.9,2.1c1.3,0,2-0.9,2-2.1C127.1,228.9,126.4,228,125.2,228
			 M125.2,232.7c-1.6,0-2.5-1.1-2.5-2.7s1.1-2.6,2.6-2.6c1.6,0,2.5,1.1,2.5,2.7C127.8,231.7,126.8,232.7,125.2,232.7"/>
		<path class="st2" d="M119.9,230.1L119.9,230.1L119.9,230.1L119.9,230.1C119.9,230.1,119.8,230.1,119.9,230.1h-0.7v-2h0.7
			c0.5,0,0.8,0.1,1,0.3c0.2,0.2,0.2,0.4,0.2,0.7c0,0.3-0.2,0.6-0.3,0.8C120.6,230,120.3,230.1,119.9,230.1 M120.8,230.4L120.8,230.4
			c0.5-0.2,1-0.7,1-1.5c0-0.4-0.1-0.7-0.3-1c-0.3-0.3-0.7-0.5-1.5-0.5c-0.1,0-0.2,0-0.2,0h-1.2l0,0v0.1v0.1v0.4v2v0.6v2h0.7v-2h1
			l1.2,2h0.7L120.8,230.4z"/>
		<path class="st2" d="M185.3,229.7C185.3,229.7,185.2,229.7,185.3,229.7C185.2,229.7,185.2,229.7,185.3,229.7
			C185.2,229.7,185.2,229.7,185.3,229.7C185.2,229.8,185.2,229.8,185.3,229.7c-0.4,0.3-1,0.3-1,0.3h-0.7v-2h0.7c0.5,0,0.8,0.1,1,0.3
			c0.2,0.2,0.2,0.4,0.2,0.7C185.4,229.3,185.3,229.5,185.3,229.7 M185.7,228c-0.3-0.3-0.7-0.5-1.5-0.5c-0.1,0-0.2,0-0.2,0h-1.2l0,0
			v5.2h0.7v-2h0.7c0.3,0,1-0.1,1.4-0.4l0,0l0,0c0.3-0.2,0.5-0.7,0.5-1.1C186.2,228.6,186,228.2,185.7,228"/>
		<path class="st2" d="M188.5,228.3l-0.7,1.8h1.4L188.5,228.3z M190.2,232.7l-0.8-2h-1.9l-0.7,1.9h-0.7l2-5.2h0.6l2,5.2L190.2,232.7
			L190.2,232.7z"/>
		<path class="st2" d="M198.7,228.3l-0.7,1.8h1.4L198.7,228.3z M200.3,232.7l-0.7-1.9h-1.9l-0.7,1.9h-0.7l2-5.2h0.6l2,5.2H200.3z"/>
		<path class="st2" d="M193.4,230L193.4,230L193.4,230C193.3,230.1,193.3,230.1,193.4,230C193.3,230.1,193.3,230.1,193.4,230h-0.7
			v-2h0.7c0.5,0,0.8,0.1,1,0.3c0.2,0.2,0.2,0.4,0.2,0.7s-0.2,0.6-0.3,0.8C194,230,193.7,230,193.4,230 M194.2,230.4L194.2,230.4
			c0.5-0.2,1-0.7,1-1.5c0-0.4-0.1-0.7-0.3-1c-0.3-0.3-0.7-0.5-1.5-0.5c-0.1,0-0.2,0-0.2,0H192l0,0v0.1v0.1v0.4v2v0.6v2h0.7v-2h1
			l1.2,2h0.7L194.2,230.4z"/>
	</g>
	<g>
		<g>
			<path class="st4" d="M191.1,112h-9.9v18.5c0,1.3,3.1,6.2,8.1,6.2c5,0,7.7-4.9,8.2-8.8c0.5-3.9,0.4-8.7-1.5-12.1
				C193.9,112.5,191.1,112,191.1,112z"/>
			<path d="M198.7,112.5c-3-3.3-6.7-3.4-6.7-3.4s-10.7,0-13.4,0c-2.7,0-2.3,1.4-2.3,1.4v37.7c0,0,0.2,1.3,2.5,1.3
				c2.3,0,2.5-1.4,2.5-1.4v-12.8c0,0,3.5,3.8,8.2,3.8c4.8,0,8.3-2.5,10.3-6c2-3.5,2.3-6.6,2.3-9.8
				C202.1,120.4,201.7,115.8,198.7,112.5z M196.4,127.5c-0.5,3.4-2.8,7.7-7.2,7.7c-4.4,0-7.1-4.3-7.1-5.4v-16.2h8.7
				c0,0,2.5,0.4,4.2,3.4C196.7,119.9,196.9,124.1,196.4,127.5z"/>
		</g>
		<g>
			<path d="M167.5,129.1c0,0-2.4,7-9.4,6s-7.9-6.2-7.6-8.9l21.4-1.2c0,0,0.7-7.6-2.5-11.2c-3.2-3.6-8.8-6.8-17.6-3.2
				c-8.7,3.6-6.8,17.2-5.6,21c0,0,2.8,6.3,10,7.7c7.1,1.4,12.5-2,15.5-7.2C173.4,128.9,168.7,127.3,167.5,129.1z M161.6,113.4
				c5.2,1.2,5.4,7.1,5.4,7.1l-16.3,0.6C150.7,115,156.4,112.2,161.6,113.4z"/>
			<path class="st5" d="M161.9,113c-5.8-1.3-12.2,1.8-12.1,8.7l18.2-0.7C168,120.9,167.8,114.3,161.9,113z"/>
		</g>
		<path d="M106.5,123.4v14.1c0,0-0.2,1.7-2.6,1.7c-2.5,0-2.5-1.9-2.5-1.9v-14.1V111c0,0,0.1-1.9,2-1.9c1.9,0,11.6,0,11.6,0
			s4.9-0.5,7.3,4.9c0,0,2.7-3.9,6.8-4.8c4.1-0.9,8.6,1.3,10.4,4c1.8,2.6,2.6,6.6,2.6,10.1v14.1c0,0-0.2,1.7-2.6,1.7
			c-2.5,0-2.5-1.9-2.5-1.9v-14.1c0,0,0.3-5.4-2.3-7.3c-2.6-1.9-5.6-2.4-8,0.7c-2.1,2.7-1.8,6.8-1.8,6.8v14.1c0,0-0.2,1.7-2.6,1.7
			c-2.5,0-2.5-1.9-2.5-1.9v-14.1c0,0,0.1-9.9-7.3-9.9h-6V123.4z"/>
		<path d="M109.9,100.9c0,3.3-2.7,6-6,6c-3.3,0-6-2.7-6-6c0-3.3,2.7-6,6-6C107.2,94.8,109.9,97.5,109.9,100.9z"/>
		<path d="M137,100.9c0,3.3-2.7,6-6,6c-3.3,0-6-2.7-6-6c0-3.3,2.7-6,6-6C134.3,94.8,137,97.5,137,100.9z"/>
		<g>
			<path d="M103.4,151.8l-1.1-4.9v5.3c0,0.3-0.1,0.5-0.2,0.7c-0.1,0.1-0.3,0.2-0.5,0.2c-0.2,0-0.3-0.1-0.5-0.2
				c-0.1-0.1-0.2-0.4-0.2-0.7v-6.1c0-0.3,0.1-0.6,0.2-0.7c0.2-0.1,0.4-0.2,0.6-0.2h0.4c0.3,0,0.5,0,0.6,0.1c0.1,0.1,0.2,0.1,0.3,0.3
				c0.1,0.1,0.1,0.4,0.2,0.7l1,4.2l1-4.2c0.1-0.3,0.1-0.5,0.2-0.7c0.1-0.1,0.1-0.2,0.3-0.3c0.1-0.1,0.3-0.1,0.6-0.1h0.4
				c0.3,0,0.5,0.1,0.6,0.2c0.2,0.1,0.2,0.3,0.2,0.7v6.1c0,0.3-0.1,0.5-0.2,0.7c-0.1,0.1-0.3,0.2-0.5,0.2c-0.2,0-0.3-0.1-0.5-0.2
				c-0.1-0.1-0.2-0.4-0.2-0.7v-5.3l-1.1,4.9c-0.1,0.3-0.1,0.5-0.2,0.7c0,0.1-0.1,0.3-0.3,0.4c-0.1,0.1-0.3,0.2-0.5,0.2
				c-0.2,0-0.3,0-0.4-0.1c-0.1-0.1-0.2-0.2-0.3-0.3c-0.1-0.1-0.1-0.3-0.2-0.4C103.5,152.1,103.5,152,103.4,151.8z"/>
			<path d="M109.8,146.6c-0.2,0-0.3-0.1-0.5-0.2c-0.1-0.1-0.2-0.3-0.2-0.5c0-0.2,0.1-0.4,0.2-0.5c0.1-0.1,0.3-0.2,0.5-0.2
				c0.2,0,0.3,0.1,0.4,0.2c0.1,0.1,0.2,0.3,0.2,0.5c0,0.2-0.1,0.4-0.2,0.5C110.1,146.6,109.9,146.6,109.8,146.6z M110.4,148.1v4.1
				c0,0.3-0.1,0.5-0.2,0.6c-0.1,0.1-0.3,0.2-0.5,0.2c-0.2,0-0.3-0.1-0.5-0.2c-0.1-0.1-0.2-0.4-0.2-0.6v-4.1c0-0.3,0.1-0.5,0.2-0.6
				c0.1-0.1,0.3-0.2,0.5-0.2c0.2,0,0.3,0.1,0.5,0.2C110.3,147.6,110.4,147.8,110.4,148.1z"/>
			<path d="M112.9,148.1v0.2c0.2-0.3,0.5-0.6,0.8-0.7c0.3-0.2,0.6-0.2,0.9-0.2c0.3,0,0.6,0.1,0.9,0.2c0.3,0.2,0.5,0.4,0.6,0.7
				c0.1,0.2,0.1,0.4,0.2,0.6c0,0.2,0,0.5,0,0.8v2.7c0,0.3-0.1,0.5-0.2,0.6c-0.1,0.1-0.3,0.2-0.5,0.2c-0.2,0-0.4-0.1-0.5-0.2
				c-0.1-0.1-0.2-0.4-0.2-0.6v-2.4c0-0.5-0.1-0.8-0.2-1.1c-0.1-0.2-0.4-0.4-0.7-0.4c-0.2,0-0.4,0.1-0.6,0.2
				c-0.2,0.2-0.3,0.4-0.4,0.6c-0.1,0.2-0.1,0.6-0.1,1.2v1.8c0,0.3-0.1,0.5-0.2,0.7c-0.1,0.1-0.3,0.2-0.5,0.2c-0.2,0-0.3-0.1-0.5-0.2
				c-0.1-0.1-0.2-0.4-0.2-0.6v-4.1c0-0.3,0.1-0.5,0.2-0.6c0.1-0.1,0.3-0.2,0.4-0.2c0.1,0,0.2,0,0.3,0.1c0.1,0.1,0.2,0.1,0.2,0.3
				C112.9,147.8,112.9,147.9,112.9,148.1z"/>
			<path d="M118.3,146.6c-0.2,0-0.3-0.1-0.5-0.2c-0.1-0.1-0.2-0.3-0.2-0.5c0-0.2,0.1-0.4,0.2-0.5c0.1-0.1,0.3-0.2,0.5-0.2
				c0.2,0,0.3,0.1,0.4,0.2c0.1,0.1,0.2,0.3,0.2,0.5c0,0.2-0.1,0.4-0.2,0.5C118.6,146.6,118.5,146.6,118.3,146.6z M118.9,148.1v4.1
				c0,0.3-0.1,0.5-0.2,0.6c-0.1,0.1-0.3,0.2-0.5,0.2c-0.2,0-0.3-0.1-0.5-0.2c-0.1-0.1-0.2-0.4-0.2-0.6v-4.1c0-0.3,0.1-0.5,0.2-0.6
				s0.3-0.2,0.5-0.2c0.2,0,0.3,0.1,0.5,0.2S118.9,147.8,118.9,148.1z"/>
			<path d="M124.5,151.2c0,0.4-0.1,0.7-0.3,1c-0.2,0.3-0.4,0.5-0.8,0.6c-0.3,0.1-0.8,0.2-1.2,0.2c-0.5,0-0.9-0.1-1.2-0.2
				c-0.3-0.2-0.6-0.4-0.7-0.6c-0.2-0.2-0.2-0.5-0.2-0.7c0-0.2,0.1-0.3,0.2-0.4c0.1-0.1,0.2-0.2,0.4-0.2c0.1,0,0.2,0,0.3,0.1
				c0.1,0.1,0.1,0.2,0.2,0.3c0.1,0.3,0.3,0.4,0.5,0.6c0.2,0.1,0.4,0.2,0.8,0.2c0.3,0,0.5-0.1,0.6-0.2c0.2-0.1,0.3-0.3,0.3-0.4
				c0-0.3-0.1-0.4-0.3-0.5c-0.2-0.1-0.5-0.2-0.9-0.3c-0.4-0.1-0.8-0.3-1.1-0.4c-0.3-0.1-0.5-0.3-0.7-0.5c-0.2-0.2-0.3-0.5-0.3-0.8
				c0-0.3,0.1-0.6,0.2-0.8c0.2-0.3,0.4-0.5,0.7-0.6c0.3-0.2,0.7-0.2,1.1-0.2c0.3,0,0.6,0,0.9,0.1c0.3,0.1,0.5,0.2,0.7,0.3
				c0.2,0.1,0.3,0.3,0.4,0.4c0.1,0.2,0.1,0.3,0.1,0.5c0,0.2,0,0.3-0.1,0.4c-0.1,0.1-0.2,0.2-0.4,0.2c-0.1,0-0.2,0-0.3-0.1
				c-0.1-0.1-0.2-0.2-0.3-0.4c-0.1-0.1-0.2-0.3-0.3-0.3c-0.1-0.1-0.3-0.1-0.5-0.1c-0.2,0-0.4,0.1-0.6,0.2c-0.2,0.1-0.2,0.2-0.2,0.4
				c0,0.1,0.1,0.3,0.2,0.4c0.1,0.1,0.3,0.2,0.5,0.2c0.2,0.1,0.5,0.1,0.8,0.2c0.4,0.1,0.7,0.2,1,0.4c0.3,0.1,0.4,0.3,0.6,0.5
				C124.4,150.7,124.5,151,124.5,151.2z"/>
			<path d="M125.6,147.4h0.1v-0.9c0-0.2,0-0.4,0-0.5c0-0.1,0-0.2,0.1-0.3c0.1-0.1,0.1-0.2,0.2-0.2c0.1-0.1,0.2-0.1,0.3-0.1
				c0.2,0,0.3,0.1,0.4,0.2c0.1,0.1,0.1,0.2,0.2,0.3c0,0.1,0,0.3,0,0.6v1h0.5c0.2,0,0.3,0,0.4,0.1c0.1,0.1,0.1,0.2,0.1,0.4
				c0,0.2-0.1,0.3-0.2,0.4c-0.1,0.1-0.3,0.1-0.6,0.1h-0.2v2.6c0,0.2,0,0.4,0,0.5c0,0.1,0.1,0.2,0.1,0.3c0.1,0.1,0.2,0.1,0.3,0.1
				c0.1,0,0.2,0,0.3,0c0.1,0,0.2,0,0.3,0c0.1,0,0.2,0,0.3,0.1c0.1,0.1,0.1,0.2,0.1,0.3c0,0.2-0.1,0.4-0.3,0.5
				c-0.2,0.1-0.6,0.2-1,0.2c-0.4,0-0.7-0.1-0.9-0.2c-0.2-0.1-0.3-0.4-0.4-0.6c-0.1-0.3-0.1-0.6-0.1-1.1v-2.7h-0.2
				c-0.2,0-0.3,0-0.4-0.1c-0.1-0.1-0.1-0.2-0.1-0.4c0-0.2,0.1-0.3,0.2-0.4C125.3,147.5,125.4,147.4,125.6,147.4z"/>
			<path d="M132.6,150.5h-2.5c0,0.3,0.1,0.6,0.2,0.9c0.1,0.2,0.3,0.4,0.5,0.6c0.2,0.1,0.4,0.2,0.6,0.2c0.2,0,0.3,0,0.4-0.1
				c0.1,0,0.3-0.1,0.4-0.2c0.1-0.1,0.2-0.2,0.3-0.3c0.1-0.1,0.2-0.2,0.4-0.4c0.1-0.1,0.2-0.1,0.3-0.1c0.1,0,0.2,0,0.3,0.1
				c0.1,0.1,0.1,0.2,0.1,0.3c0,0.1,0,0.3-0.1,0.5c-0.1,0.2-0.2,0.3-0.4,0.5c-0.2,0.2-0.4,0.3-0.7,0.4c-0.3,0.1-0.6,0.2-1,0.2
				c-0.8,0-1.5-0.3-1.9-0.8c-0.5-0.5-0.7-1.2-0.7-2.1c0-0.4,0.1-0.8,0.2-1.2c0.1-0.4,0.3-0.7,0.5-0.9c0.2-0.3,0.5-0.5,0.8-0.6
				c0.3-0.1,0.7-0.2,1.1-0.2c0.5,0,0.9,0.1,1.3,0.4c0.4,0.2,0.6,0.5,0.8,0.9c0.2,0.4,0.3,0.8,0.3,1.1c0,0.4-0.1,0.6-0.3,0.7
				C133.3,150.5,133,150.5,132.6,150.5z M130.1,149.7h2.4c0-0.5-0.2-0.9-0.4-1.1c-0.2-0.2-0.5-0.4-0.8-0.4c-0.3,0-0.6,0.1-0.8,0.4
				C130.3,148.9,130.2,149.3,130.1,149.7z"/>
			<path d="M136.1,151v1.2c0,0.3-0.1,0.5-0.2,0.7c-0.1,0.1-0.3,0.2-0.5,0.2c-0.2,0-0.3-0.1-0.5-0.2c-0.1-0.1-0.2-0.4-0.2-0.6v-4
				c0-0.6,0.2-1,0.6-1c0.2,0,0.4,0.1,0.5,0.2c0.1,0.1,0.1,0.4,0.2,0.7c0.2-0.3,0.3-0.5,0.5-0.7c0.2-0.1,0.4-0.2,0.7-0.2
				c0.3,0,0.5,0.1,0.8,0.2c0.3,0.1,0.4,0.3,0.4,0.6c0,0.2-0.1,0.3-0.2,0.4c-0.1,0.1-0.2,0.2-0.4,0.2c0,0-0.2,0-0.3-0.1
				c-0.2-0.1-0.3-0.1-0.5-0.1c-0.2,0-0.3,0.1-0.5,0.2c-0.1,0.1-0.2,0.3-0.3,0.5c-0.1,0.2-0.1,0.5-0.1,0.8
				C136.1,150.2,136.1,150.6,136.1,151z"/>
			<path d="M139.7,146.6c-0.2,0-0.3-0.1-0.5-0.2c-0.1-0.1-0.2-0.3-0.2-0.5c0-0.2,0.1-0.4,0.2-0.5c0.1-0.1,0.3-0.2,0.5-0.2
				c0.2,0,0.3,0.1,0.4,0.2c0.1,0.1,0.2,0.3,0.2,0.5c0,0.2-0.1,0.4-0.2,0.5C140.1,146.6,139.9,146.6,139.7,146.6z M140.4,148.1v4.1
				c0,0.3-0.1,0.5-0.2,0.6c-0.1,0.1-0.3,0.2-0.5,0.2c-0.2,0-0.3-0.1-0.5-0.2c-0.1-0.1-0.2-0.4-0.2-0.6v-4.1c0-0.3,0.1-0.5,0.2-0.6
				c0.1-0.1,0.3-0.2,0.5-0.2c0.2,0,0.3,0.1,0.5,0.2C140.3,147.6,140.4,147.8,140.4,148.1z"/>
			<path d="M146.6,150.2c0,0.4-0.1,0.8-0.2,1.2c-0.1,0.4-0.3,0.7-0.5,0.9c-0.2,0.3-0.5,0.5-0.8,0.6c-0.3,0.1-0.7,0.2-1.1,0.2
				c-0.4,0-0.7-0.1-1.1-0.2c-0.3-0.1-0.6-0.3-0.8-0.6c-0.2-0.3-0.4-0.6-0.5-0.9c-0.1-0.4-0.2-0.7-0.2-1.2c0-0.4,0.1-0.8,0.2-1.2
				c0.1-0.4,0.3-0.7,0.5-0.9c0.2-0.3,0.5-0.5,0.8-0.6c0.3-0.1,0.7-0.2,1.1-0.2c0.4,0,0.8,0.1,1.1,0.2c0.3,0.1,0.6,0.3,0.8,0.6
				c0.2,0.3,0.4,0.6,0.5,0.9C146.5,149.4,146.6,149.8,146.6,150.2z M145.3,150.2c0-0.6-0.1-1-0.3-1.4c-0.2-0.3-0.5-0.5-0.9-0.5
				c-0.3,0-0.5,0.1-0.7,0.2c-0.2,0.1-0.3,0.4-0.4,0.6c-0.1,0.3-0.2,0.6-0.2,1c0,0.4,0.1,0.7,0.2,1c0.1,0.3,0.3,0.5,0.4,0.6
				c0.2,0.1,0.4,0.2,0.7,0.2c0.4,0,0.7-0.2,0.9-0.5C145.2,151.2,145.3,150.8,145.3,150.2z"/>
			<path d="M104.5,163v-0.1c-0.2,0.2-0.3,0.4-0.5,0.5c-0.2,0.1-0.4,0.2-0.6,0.3c-0.2,0.1-0.4,0.1-0.7,0.1c-0.3,0-0.6-0.1-0.9-0.2
				c-0.3-0.1-0.5-0.4-0.7-0.6c-0.2-0.3-0.3-0.6-0.4-0.9c-0.1-0.4-0.1-0.8-0.1-1.2c0-0.9,0.2-1.6,0.6-2.1c0.4-0.5,0.9-0.7,1.6-0.7
				c0.4,0,0.7,0.1,0.9,0.2s0.5,0.4,0.8,0.7v-2.1c0-0.3,0.1-0.5,0.2-0.7c0.1-0.1,0.3-0.2,0.5-0.2c0.2,0,0.3,0.1,0.5,0.2
				c0.1,0.1,0.2,0.3,0.2,0.6v6.3c0,0.3-0.1,0.5-0.2,0.6c-0.1,0.1-0.3,0.2-0.4,0.2c-0.2,0-0.3-0.1-0.4-0.2
				C104.6,163.5,104.5,163.3,104.5,163z M102,160.9c0,0.4,0.1,0.7,0.2,1c0.1,0.3,0.3,0.5,0.5,0.6c0.2,0.1,0.4,0.2,0.6,0.2
				c0.2,0,0.4-0.1,0.6-0.2s0.3-0.3,0.5-0.6c0.1-0.3,0.2-0.6,0.2-1c0-0.4-0.1-0.7-0.2-1c-0.1-0.3-0.3-0.5-0.5-0.6
				c-0.2-0.1-0.4-0.2-0.6-0.2c-0.2,0-0.5,0.1-0.6,0.2c-0.2,0.1-0.3,0.4-0.4,0.6C102,160.2,102,160.5,102,160.9z"/>
			<path d="M110.7,161.3h-2.5c0,0.3,0.1,0.6,0.2,0.9c0.1,0.2,0.3,0.4,0.5,0.6c0.2,0.1,0.4,0.2,0.6,0.2c0.2,0,0.3,0,0.4-0.1
				c0.1,0,0.3-0.1,0.4-0.2c0.1-0.1,0.2-0.2,0.3-0.3c0.1-0.1,0.2-0.2,0.4-0.4c0.1-0.1,0.2-0.1,0.3-0.1c0.1,0,0.2,0,0.3,0.1
				c0.1,0.1,0.1,0.2,0.1,0.3c0,0.1,0,0.3-0.1,0.5c-0.1,0.2-0.2,0.3-0.4,0.5c-0.2,0.2-0.4,0.3-0.7,0.4c-0.3,0.1-0.6,0.2-1,0.2
				c-0.8,0-1.5-0.3-1.9-0.8c-0.5-0.5-0.7-1.2-0.7-2.1c0-0.4,0.1-0.8,0.2-1.2c0.1-0.4,0.3-0.7,0.5-0.9c0.2-0.3,0.5-0.5,0.8-0.6
				c0.3-0.1,0.7-0.2,1.1-0.2c0.5,0,0.9,0.1,1.3,0.4c0.4,0.2,0.6,0.5,0.8,0.9c0.2,0.4,0.3,0.8,0.3,1.1c0,0.4-0.1,0.6-0.3,0.7
				C111.3,161.2,111,161.3,110.7,161.3z M108.2,160.4h2.4c0-0.5-0.2-0.9-0.4-1.1c-0.2-0.2-0.5-0.4-0.8-0.4c-0.3,0-0.6,0.1-0.8,0.4
				C108.3,159.6,108.2,160,108.2,160.4z"/>
			<path d="M120,157.2h-3.2v1.9h2.9c0.2,0,0.4,0.1,0.5,0.2c0.1,0.1,0.2,0.2,0.2,0.4c0,0.2-0.1,0.3-0.2,0.4c-0.1,0.1-0.3,0.2-0.5,0.2
				h-2.9v2.2h3.3c0.2,0,0.4,0.1,0.5,0.2c0.1,0.1,0.2,0.3,0.2,0.5c0,0.2-0.1,0.3-0.2,0.4c-0.1,0.1-0.3,0.2-0.5,0.2h-3.8
				c-0.3,0-0.5-0.1-0.7-0.2c-0.1-0.1-0.2-0.4-0.2-0.7V157c0-0.2,0-0.4,0.1-0.5c0.1-0.1,0.2-0.2,0.3-0.3c0.1-0.1,0.3-0.1,0.5-0.1h3.7
				c0.2,0,0.4,0.1,0.5,0.2c0.1,0.1,0.2,0.3,0.2,0.4c0,0.2-0.1,0.3-0.2,0.4C120.4,157.2,120.2,157.2,120,157.2z"/>
			<path d="M125.4,163v-0.1c-0.2,0.2-0.3,0.4-0.5,0.5c-0.2,0.1-0.4,0.2-0.6,0.3c-0.2,0.1-0.4,0.1-0.6,0.1c-0.3,0-0.6-0.1-0.9-0.2
				c-0.3-0.1-0.5-0.4-0.7-0.6c-0.2-0.3-0.3-0.6-0.4-0.9c-0.1-0.4-0.2-0.8-0.2-1.2c0-0.9,0.2-1.6,0.6-2.1c0.4-0.5,0.9-0.7,1.6-0.7
				c0.4,0,0.7,0.1,0.9,0.2c0.3,0.1,0.5,0.4,0.8,0.7v-2.1c0-0.3,0.1-0.5,0.2-0.7c0.1-0.1,0.3-0.2,0.5-0.2c0.2,0,0.3,0.1,0.5,0.2
				c0.1,0.1,0.2,0.3,0.2,0.6v6.3c0,0.3-0.1,0.5-0.2,0.6c-0.1,0.1-0.3,0.2-0.4,0.2c-0.2,0-0.3-0.1-0.4-0.2
				C125.4,163.5,125.4,163.3,125.4,163z M122.8,160.9c0,0.4,0.1,0.7,0.2,1c0.1,0.3,0.3,0.5,0.5,0.6c0.2,0.1,0.4,0.2,0.6,0.2
				c0.2,0,0.4-0.1,0.6-0.2s0.3-0.3,0.5-0.6c0.1-0.3,0.2-0.6,0.2-1c0-0.4-0.1-0.7-0.2-1c-0.1-0.3-0.3-0.5-0.5-0.6
				c-0.2-0.1-0.4-0.2-0.6-0.2c-0.2,0-0.5,0.1-0.6,0.2c-0.2,0.1-0.3,0.4-0.4,0.6C122.9,160.2,122.8,160.5,122.8,160.9z"/>
			<path d="M131.3,163v-0.2c-0.2,0.2-0.3,0.4-0.5,0.5c-0.2,0.1-0.4,0.3-0.6,0.3c-0.2,0.1-0.4,0.1-0.7,0.1c-0.3,0-0.6-0.1-0.8-0.2
				c-0.2-0.1-0.4-0.3-0.6-0.6c-0.2-0.3-0.2-0.7-0.2-1.3v-2.8c0-0.3,0.1-0.5,0.2-0.6c0.1-0.1,0.3-0.2,0.5-0.2c0.2,0,0.4,0.1,0.5,0.2
				c0.1,0.1,0.2,0.4,0.2,0.6v2.3c0,0.3,0,0.6,0.1,0.8c0.1,0.2,0.1,0.4,0.3,0.5c0.1,0.1,0.3,0.2,0.5,0.2c0.2,0,0.4-0.1,0.6-0.2
				c0.2-0.1,0.3-0.3,0.4-0.6c0.1-0.2,0.1-0.6,0.1-1.3v-1.7c0-0.3,0.1-0.5,0.2-0.6c0.1-0.1,0.3-0.2,0.5-0.2c0.2,0,0.3,0.1,0.5,0.2
				c0.1,0.1,0.2,0.4,0.2,0.6v4.1c0,0.3-0.1,0.5-0.2,0.6c-0.1,0.1-0.3,0.2-0.4,0.2c-0.2,0-0.3-0.1-0.4-0.2
				C131.3,163.5,131.3,163.3,131.3,163z"/>
			<path d="M138.5,162c0,0.2,0,0.4-0.1,0.6c-0.1,0.2-0.2,0.4-0.4,0.6c-0.2,0.2-0.4,0.3-0.7,0.4c-0.3,0.1-0.6,0.2-1,0.2
				c-0.8,0-1.4-0.3-1.9-0.8c-0.5-0.5-0.7-1.2-0.7-2.1c0-0.6,0.1-1.1,0.3-1.6c0.2-0.4,0.5-0.8,0.9-1c0.4-0.2,0.9-0.4,1.4-0.4
				c0.3,0,0.6,0.1,0.9,0.2c0.3,0.1,0.5,0.2,0.7,0.4c0.2,0.2,0.3,0.4,0.4,0.5c0.1,0.2,0.2,0.4,0.2,0.5c0,0.2-0.1,0.3-0.2,0.4
				c-0.1,0.1-0.3,0.2-0.4,0.2c-0.1,0-0.2,0-0.3-0.1c-0.1-0.1-0.2-0.2-0.2-0.3c-0.2-0.3-0.3-0.5-0.5-0.6c-0.2-0.1-0.4-0.2-0.7-0.2
				c-0.4,0-0.7,0.2-0.9,0.5c-0.2,0.3-0.4,0.8-0.4,1.4c0,0.3,0,0.5,0.1,0.7c0.1,0.2,0.1,0.4,0.3,0.6c0.1,0.2,0.3,0.3,0.4,0.4
				c0.2,0.1,0.3,0.1,0.5,0.1c0.3,0,0.5-0.1,0.7-0.2c0.2-0.1,0.3-0.3,0.5-0.6c0.1-0.2,0.2-0.3,0.3-0.4c0.1-0.1,0.2-0.1,0.3-0.1
				c0.2,0,0.3,0.1,0.4,0.2C138.4,161.8,138.5,161.9,138.5,162z"/>
			<path d="M142.9,163c-0.3,0.3-0.6,0.5-0.9,0.6c-0.3,0.1-0.6,0.2-1,0.2c-0.3,0-0.6-0.1-0.9-0.2c-0.3-0.1-0.4-0.3-0.6-0.6
				c-0.1-0.2-0.2-0.5-0.2-0.8c0-0.4,0.1-0.7,0.3-1c0.2-0.3,0.5-0.5,0.9-0.6c0.1,0,0.3-0.1,0.6-0.1c0.3-0.1,0.6-0.1,0.8-0.2
				c0.2-0.1,0.5-0.1,0.8-0.2c0-0.4-0.1-0.7-0.2-0.8c-0.1-0.2-0.4-0.3-0.8-0.3c-0.3,0-0.6,0.1-0.7,0.2c-0.2,0.1-0.3,0.3-0.4,0.5
				c-0.1,0.2-0.2,0.3-0.3,0.4c0,0.1-0.2,0.1-0.3,0.1c-0.1,0-0.3-0.1-0.4-0.2c-0.1-0.1-0.2-0.2-0.2-0.4c0-0.3,0.1-0.5,0.2-0.7
				c0.2-0.2,0.4-0.4,0.8-0.6c0.3-0.2,0.8-0.2,1.3-0.2c0.6,0,1,0.1,1.3,0.2c0.3,0.1,0.6,0.4,0.7,0.7c0.1,0.3,0.2,0.7,0.2,1.3
				c0,0.3,0,0.6,0,0.9c0,0.2,0,0.5,0,0.8c0,0.3,0,0.5,0.1,0.8c0.1,0.3,0.1,0.5,0.1,0.6c0,0.1-0.1,0.3-0.2,0.4
				c-0.1,0.1-0.3,0.2-0.4,0.2c-0.1,0-0.3-0.1-0.4-0.2C143.2,163.5,143,163.3,142.9,163z M142.8,160.9c-0.2,0.1-0.5,0.2-0.8,0.2
				c-0.4,0.1-0.6,0.1-0.8,0.2c-0.1,0-0.3,0.1-0.4,0.2c-0.1,0.1-0.2,0.3-0.2,0.5c0,0.2,0.1,0.4,0.2,0.6c0.1,0.2,0.3,0.2,0.6,0.2
				c0.3,0,0.5-0.1,0.7-0.2c0.2-0.1,0.4-0.3,0.5-0.5c0.1-0.2,0.2-0.6,0.2-1.1V160.9z"/>
			<path d="M150.1,162c0,0.2,0,0.4-0.1,0.6c-0.1,0.2-0.2,0.4-0.4,0.6c-0.2,0.2-0.4,0.3-0.8,0.4c-0.3,0.1-0.6,0.2-1,0.2
				c-0.8,0-1.4-0.3-1.9-0.8c-0.5-0.5-0.7-1.2-0.7-2.1c0-0.6,0.1-1.1,0.3-1.6c0.2-0.4,0.5-0.8,0.9-1c0.4-0.2,0.9-0.4,1.4-0.4
				c0.3,0,0.6,0.1,0.9,0.2c0.3,0.1,0.5,0.2,0.7,0.4c0.2,0.2,0.3,0.4,0.4,0.5c0.1,0.2,0.2,0.4,0.2,0.5c0,0.2-0.1,0.3-0.2,0.4
				c-0.1,0.1-0.3,0.2-0.4,0.2c-0.1,0-0.2,0-0.3-0.1c-0.1-0.1-0.2-0.2-0.2-0.3c-0.2-0.3-0.3-0.5-0.5-0.6c-0.2-0.1-0.4-0.2-0.7-0.2
				c-0.4,0-0.7,0.2-0.9,0.5c-0.2,0.3-0.4,0.8-0.4,1.4c0,0.3,0,0.5,0.1,0.7c0.1,0.2,0.1,0.4,0.3,0.6c0.1,0.2,0.3,0.3,0.4,0.4
				c0.2,0.1,0.3,0.1,0.5,0.1c0.3,0,0.5-0.1,0.7-0.2c0.2-0.1,0.3-0.3,0.5-0.6c0.1-0.2,0.2-0.3,0.3-0.4c0.1-0.1,0.2-0.1,0.3-0.1
				c0.2,0,0.3,0.1,0.4,0.2C150,161.8,150.1,161.9,150.1,162z"/>
			<path d="M151.8,157.3c-0.2,0-0.3-0.1-0.5-0.2c-0.1-0.1-0.2-0.3-0.2-0.5c0-0.2,0.1-0.4,0.2-0.5c0.1-0.1,0.3-0.2,0.5-0.2
				c0.2,0,0.3,0.1,0.4,0.2c0.1,0.1,0.2,0.3,0.2,0.5c0,0.2-0.1,0.4-0.2,0.5C152.2,157.3,152,157.3,151.8,157.3z M152.5,158.8v4.1
				c0,0.3-0.1,0.5-0.2,0.6c-0.1,0.1-0.3,0.2-0.5,0.2s-0.3-0.1-0.5-0.2c-0.1-0.1-0.2-0.4-0.2-0.6v-4.1c0-0.3,0.1-0.5,0.2-0.6
				c0.1-0.1,0.3-0.2,0.5-0.2s0.3,0.1,0.5,0.2C152.4,158.4,152.5,158.6,152.5,158.8z"/>
			<path d="M158.7,160.9c0,0.4-0.1,0.8-0.2,1.2c-0.1,0.4-0.3,0.7-0.5,0.9c-0.2,0.3-0.5,0.5-0.8,0.6c-0.3,0.1-0.7,0.2-1.1,0.2
				c-0.4,0-0.7-0.1-1.1-0.2c-0.3-0.1-0.6-0.3-0.8-0.6c-0.2-0.3-0.4-0.6-0.5-0.9c-0.1-0.4-0.2-0.7-0.2-1.2c0-0.4,0.1-0.8,0.2-1.2
				c0.1-0.4,0.3-0.7,0.5-0.9c0.2-0.3,0.5-0.5,0.8-0.6c0.3-0.1,0.7-0.2,1.1-0.2c0.4,0,0.8,0.1,1.1,0.2c0.3,0.1,0.6,0.3,0.8,0.6
				c0.2,0.3,0.4,0.6,0.5,0.9C158.6,160.1,158.7,160.5,158.7,160.9z M157.4,160.9c0-0.6-0.1-1-0.3-1.4c-0.2-0.3-0.5-0.5-0.9-0.5
				c-0.3,0-0.5,0.1-0.7,0.2c-0.2,0.1-0.3,0.4-0.4,0.6c-0.1,0.3-0.2,0.6-0.2,1c0,0.4,0.1,0.7,0.2,1c0.1,0.3,0.3,0.5,0.4,0.6
				c0.2,0.1,0.4,0.2,0.7,0.2c0.4,0,0.7-0.2,0.9-0.5C157.3,161.9,157.4,161.5,157.4,160.9z M156.3,156h0.6c0.2,0,0.2,0,0.2,0.1
				c0,0-0.1,0.1-0.3,0.3c-0.2,0.2-0.4,0.4-0.5,0.6c-0.2,0.2-0.3,0.3-0.4,0.3c-0.2,0.1-0.4,0.2-0.6,0.2c-0.1,0-0.2,0-0.2-0.1
				c0-0.1,0-0.2,0.1-0.3l0.2-0.4c0.1-0.3,0.2-0.4,0.3-0.5C155.9,156,156.1,156,156.3,156z"/>
			<path d="M160.9,158.8v0.2c0.2-0.3,0.5-0.6,0.7-0.7c0.3-0.2,0.6-0.2,0.9-0.2c0.3,0,0.6,0.1,0.9,0.2c0.3,0.2,0.5,0.4,0.6,0.7
				c0.1,0.2,0.1,0.4,0.2,0.6c0,0.2,0,0.5,0,0.8v2.7c0,0.3-0.1,0.5-0.2,0.6c-0.1,0.1-0.3,0.2-0.5,0.2c-0.2,0-0.4-0.1-0.5-0.2
				c-0.1-0.1-0.2-0.4-0.2-0.6v-2.4c0-0.5-0.1-0.8-0.2-1.1c-0.1-0.2-0.4-0.4-0.7-0.4c-0.2,0-0.4,0.1-0.6,0.2
				c-0.2,0.2-0.3,0.4-0.4,0.6c-0.1,0.2-0.1,0.6-0.1,1.2v1.8c0,0.3-0.1,0.5-0.2,0.7c-0.1,0.1-0.3,0.2-0.5,0.2c-0.2,0-0.3-0.1-0.5-0.2
				c-0.1-0.1-0.2-0.4-0.2-0.6v-4.1c0-0.3,0.1-0.5,0.2-0.6c0.1-0.1,0.3-0.2,0.4-0.2c0.1,0,0.2,0,0.3,0.1c0.1,0.1,0.2,0.1,0.2,0.3
				C160.9,158.5,160.9,158.6,160.9,158.8z"/>
			<path d="M170.9,160.7h-1.3v2.2c0,0.3-0.1,0.5-0.2,0.7c-0.1,0.2-0.3,0.2-0.5,0.2c-0.2,0-0.4-0.1-0.5-0.2c-0.1-0.2-0.2-0.4-0.2-0.7
				V157c0-0.3,0.1-0.6,0.2-0.7c0.1-0.1,0.4-0.2,0.7-0.2h1.8c0.5,0,0.9,0,1.2,0.1c0.3,0.1,0.5,0.2,0.7,0.4c0.2,0.2,0.4,0.5,0.5,0.7
				c0.1,0.3,0.2,0.6,0.2,1c0,0.8-0.2,1.4-0.7,1.8C172.4,160.5,171.7,160.7,170.9,160.7z M170.5,157.2h-1v2.3h1c0.3,0,0.6,0,0.8-0.1
				c0.2-0.1,0.4-0.2,0.5-0.4c0.1-0.2,0.2-0.4,0.2-0.7c0-0.3-0.1-0.6-0.3-0.8C171.6,157.3,171.1,157.2,170.5,157.2z"/>
			<path d="M177.9,163v-0.2c-0.2,0.2-0.3,0.4-0.5,0.5c-0.2,0.1-0.4,0.3-0.6,0.3c-0.2,0.1-0.4,0.1-0.7,0.1c-0.3,0-0.6-0.1-0.8-0.2
				c-0.2-0.1-0.4-0.3-0.6-0.6c-0.2-0.3-0.2-0.7-0.2-1.3v-2.8c0-0.3,0.1-0.5,0.2-0.6c0.1-0.1,0.3-0.2,0.5-0.2c0.2,0,0.4,0.1,0.5,0.2
				c0.1,0.1,0.2,0.4,0.2,0.6v2.3c0,0.3,0,0.6,0.1,0.8c0.1,0.2,0.1,0.4,0.3,0.5c0.1,0.1,0.3,0.2,0.5,0.2c0.2,0,0.4-0.1,0.6-0.2
				c0.2-0.1,0.3-0.3,0.4-0.6c0.1-0.2,0.1-0.6,0.1-1.3v-1.7c0-0.3,0.1-0.5,0.2-0.6c0.1-0.1,0.3-0.2,0.5-0.2c0.2,0,0.3,0.1,0.5,0.2
				c0.1,0.1,0.2,0.4,0.2,0.6v4.1c0,0.3-0.1,0.5-0.2,0.6c-0.1,0.1-0.3,0.2-0.4,0.2c-0.2,0-0.3-0.1-0.4-0.2
				C178,163.5,177.9,163.3,177.9,163z M177,156h0.6c0.2,0,0.2,0,0.2,0.1c0,0-0.1,0.1-0.3,0.3c-0.2,0.2-0.4,0.4-0.5,0.6
				c-0.2,0.2-0.3,0.3-0.4,0.3c-0.2,0.1-0.4,0.2-0.6,0.2c-0.1,0-0.2,0-0.2-0.1c0-0.1,0-0.2,0.1-0.3l0.2-0.4c0.1-0.3,0.2-0.4,0.3-0.5
				C176.7,156,176.8,156,177,156z"/>
			<path d="M181.7,156.7v2.2c0.2-0.3,0.5-0.5,0.7-0.6c0.3-0.1,0.6-0.2,0.9-0.2c0.4,0,0.8,0.1,1.1,0.3c0.3,0.2,0.6,0.6,0.8,1
				c0.2,0.4,0.3,0.9,0.3,1.5c0,0.4,0,0.8-0.1,1.2c-0.1,0.4-0.2,0.7-0.4,0.9c-0.2,0.3-0.4,0.5-0.7,0.6c-0.3,0.1-0.6,0.2-0.9,0.2
				c-0.2,0-0.4,0-0.6-0.1c-0.2-0.1-0.3-0.1-0.4-0.2c-0.1-0.1-0.2-0.2-0.3-0.3c-0.1-0.1-0.2-0.2-0.3-0.4v0.1c0,0.3-0.1,0.5-0.2,0.6
				c-0.1,0.1-0.3,0.2-0.4,0.2c-0.2,0-0.3-0.1-0.4-0.2c-0.1-0.1-0.2-0.3-0.2-0.6v-6.2c0-0.3,0.1-0.5,0.2-0.7c0.1-0.1,0.3-0.2,0.4-0.2
				c0.2,0,0.4,0.1,0.5,0.2C181.6,156.2,181.7,156.4,181.7,156.7z M181.7,160.9c0,0.6,0.1,1,0.4,1.3c0.2,0.3,0.5,0.5,0.9,0.5
				c0.3,0,0.6-0.2,0.8-0.5c0.2-0.3,0.4-0.8,0.4-1.3c0-0.4,0-0.7-0.1-1c-0.1-0.3-0.2-0.5-0.4-0.6c-0.2-0.1-0.4-0.2-0.6-0.2
				c-0.2,0-0.5,0.1-0.7,0.2c-0.2,0.1-0.3,0.4-0.5,0.6C181.8,160.2,181.7,160.6,181.7,160.9z"/>
			<path d="M186.4,162.9v-6.2c0-0.3,0.1-0.5,0.2-0.6c0.1-0.1,0.3-0.2,0.5-0.2c0.2,0,0.4,0.1,0.5,0.2c0.1,0.1,0.2,0.4,0.2,0.7v6.2
				c0,0.3-0.1,0.5-0.2,0.7c-0.1,0.1-0.3,0.2-0.5,0.2c-0.2,0-0.3-0.1-0.5-0.2C186.5,163.4,186.4,163.2,186.4,162.9z"/>
			<path d="M189.7,157.3c-0.2,0-0.3-0.1-0.5-0.2c-0.1-0.1-0.2-0.3-0.2-0.5c0-0.2,0.1-0.4,0.2-0.5c0.1-0.1,0.3-0.2,0.5-0.2
				c0.2,0,0.3,0.1,0.4,0.2c0.1,0.1,0.2,0.3,0.2,0.5c0,0.2-0.1,0.4-0.2,0.5C190.1,157.3,189.9,157.3,189.7,157.3z M190.4,158.8v4.1
				c0,0.3-0.1,0.5-0.2,0.6c-0.1,0.1-0.3,0.2-0.5,0.2c-0.2,0-0.3-0.1-0.5-0.2c-0.1-0.1-0.2-0.4-0.2-0.6v-4.1c0-0.3,0.1-0.5,0.2-0.6
				c0.1-0.1,0.3-0.2,0.5-0.2c0.2,0,0.3,0.1,0.5,0.2C190.3,158.4,190.4,158.6,190.4,158.8z"/>
			<path d="M196.4,162c0,0.2,0,0.4-0.1,0.6c-0.1,0.2-0.2,0.4-0.4,0.6c-0.2,0.2-0.4,0.3-0.8,0.4c-0.3,0.1-0.6,0.2-1,0.2
				c-0.8,0-1.4-0.3-1.9-0.8c-0.5-0.5-0.7-1.2-0.7-2.1c0-0.6,0.1-1.1,0.3-1.6c0.2-0.4,0.5-0.8,0.9-1c0.4-0.2,0.9-0.4,1.4-0.4
				c0.3,0,0.6,0.1,0.9,0.2c0.3,0.1,0.5,0.2,0.7,0.4c0.2,0.2,0.3,0.4,0.4,0.5c0.1,0.2,0.2,0.4,0.2,0.5c0,0.2-0.1,0.3-0.2,0.4
				c-0.1,0.1-0.3,0.2-0.4,0.2c-0.1,0-0.2,0-0.3-0.1c-0.1-0.1-0.2-0.2-0.2-0.3c-0.2-0.3-0.3-0.5-0.5-0.6c-0.2-0.1-0.4-0.2-0.7-0.2
				c-0.4,0-0.7,0.2-0.9,0.5c-0.2,0.3-0.4,0.8-0.4,1.4c0,0.3,0,0.5,0.1,0.7c0.1,0.2,0.1,0.4,0.3,0.6c0.1,0.2,0.3,0.3,0.4,0.4
				c0.2,0.1,0.3,0.1,0.5,0.1c0.3,0,0.5-0.1,0.7-0.2c0.2-0.1,0.3-0.3,0.5-0.6c0.1-0.2,0.2-0.3,0.3-0.4c0.1-0.1,0.2-0.1,0.3-0.1
				c0.2,0,0.3,0.1,0.4,0.2C196.3,161.8,196.4,161.9,196.4,162z"/>
			<path d="M200.8,163c-0.3,0.3-0.6,0.5-0.9,0.6c-0.3,0.1-0.6,0.2-1,0.2c-0.3,0-0.6-0.1-0.9-0.2c-0.3-0.1-0.4-0.3-0.6-0.6
				c-0.1-0.2-0.2-0.5-0.2-0.8c0-0.4,0.1-0.7,0.3-1c0.2-0.3,0.5-0.5,0.9-0.6c0.1,0,0.3-0.1,0.6-0.1c0.3-0.1,0.6-0.1,0.8-0.2
				c0.2-0.1,0.5-0.1,0.8-0.2c0-0.4-0.1-0.7-0.2-0.8s-0.4-0.3-0.8-0.3c-0.3,0-0.6,0.1-0.7,0.2c-0.2,0.1-0.3,0.3-0.4,0.5
				c-0.1,0.2-0.2,0.3-0.3,0.4c0,0.1-0.2,0.1-0.3,0.1c-0.1,0-0.3-0.1-0.4-0.2c-0.1-0.1-0.2-0.2-0.2-0.4c0-0.3,0.1-0.5,0.2-0.7
				c0.2-0.2,0.4-0.4,0.8-0.6c0.3-0.2,0.8-0.2,1.3-0.2c0.6,0,1,0.1,1.3,0.2c0.3,0.1,0.6,0.4,0.7,0.7c0.1,0.3,0.2,0.7,0.2,1.3
				c0,0.3,0,0.6,0,0.9c0,0.2,0,0.5,0,0.8c0,0.3,0,0.5,0.1,0.8c0.1,0.3,0.1,0.5,0.1,0.6c0,0.1-0.1,0.3-0.2,0.4
				c-0.1,0.1-0.3,0.2-0.4,0.2c-0.1,0-0.3-0.1-0.4-0.2C201.1,163.5,200.9,163.3,200.8,163z M200.7,160.9c-0.2,0.1-0.5,0.2-0.8,0.2
				c-0.4,0.1-0.6,0.1-0.8,0.2c-0.1,0-0.3,0.1-0.4,0.2c-0.1,0.1-0.2,0.3-0.2,0.5c0,0.2,0.1,0.4,0.2,0.6c0.1,0.2,0.3,0.2,0.6,0.2
				c0.3,0,0.5-0.1,0.7-0.2c0.2-0.1,0.4-0.3,0.5-0.5c0.1-0.2,0.2-0.6,0.2-1.1V160.9z"/>
		</g>
	</g>
</g>
</svg>
