<?xml version="1.0" encoding="utf-8"?>
<!-- Generator: Adobe Illustrator 23.0.2, SVG Export Plug-In . SVG Version: 6.00 Build 0)  -->
<svg version="1.1" id="Camada_1" xmlns="http://www.w3.org/2000/svg" xmlns:xlink="http://www.w3.org/1999/xlink" x="0px" y="0px"
	 viewBox="0 0 98.5 81.8" style="enable-background:new 0 0 98.5 81.8;" xml:space="preserve">
<style type="text/css">
	.st0{fill:#4198DF;}
</style>
<title>icone-desenvolvimento</title>
<path class="st0" d="M31.7,31.9c0-0.4-0.3-0.7-0.7-0.7c0,0,0,0,0,0H0.7c-0.4,0-0.7,0.3-0.7,0.7c0,0.4,0.3,0.7,0.7,0.7H31
	C31.4,32.5,31.7,32.2,31.7,31.9z"/>
<path class="st0" d="M35.3,32.5h4.5c0.4,0,0.7-0.3,0.7-0.7c0-0.4-0.3-0.7-0.7-0.7h-4.5c-0.4,0-0.7,0.3-0.7,0.7
	C34.6,32.2,34.9,32.5,35.3,32.5z"/>
<path class="st0" d="M53.7,1.4h15.7c0.4,0,0.7-0.3,0.7-0.7c0-0.4-0.3-0.7-0.7-0.7H53.7C53.3,0,53,0.3,53,0.7S53.3,1.4,53.7,1.4
	C53.7,1.4,53.7,1.4,53.7,1.4z"/>
<path class="st0" d="M73.6,1.4h2.3c0.4,0,0.7-0.3,0.7-0.7c0-0.4-0.3-0.7-0.7-0.7h-2.3c-0.4,0-0.7,0.3-0.7,0.7S73.2,1.4,73.6,1.4
	C73.6,1.4,73.6,1.4,73.6,1.4z"/>
<path class="st0" d="M69,34.5l1.1-3.4l1.4,2.3c0.4,0.6,1,1,1.7,1.2c0.7,0.1,1.4,0,2-0.4c1.3-0.8,1.6-2.5,0.8-3.7l-4.7-7.9
	c-0.1-0.2-0.3-0.5-0.5-0.7c3.4-1.2,5.2-4.9,4-8.3c-1.2-3.4-4.9-5.2-8.3-4c-3.4,1.2-5.2,4.9-4,8.3c0.4,1.2,1.2,2.3,2.2,3l-10,4.1
	c-0.4,0.2-0.7,0.4-1,0.8c-1.4-0.3-2.8,0.5-3.4,1.7L48.4,27c-1.3-0.3-2.6,0.4-2.9,1.6l-1.8,6.5c-0.3,1.3,0.4,2.5,1.6,2.9c0,0,0,0,0,0
	l5.1,1.4H25.6c-0.4,0-0.7,0.3-0.7,0.7c0,0.4,0.3,0.7,0.7,0.7h30.3c0.2,0,0.4-0.1,0.5-0.3c0.7-0.3,1.2-0.8,1.4-1.5l1.8-6.5
	c0.2-0.6,0.1-1.2-0.2-1.8c-0.3-0.5-0.8-0.9-1.4-1.1h-0.1l3.8-1.6l-1.6,6.3c-0.1,0.3-2.8,8.5-3.6,11.3c-0.3,1.1-0.2,2.2,0.4,3.2
	c0.2,0.3,0.4,0.5,0.6,0.8h-0.2c-2.3,0-4.2,1.9-4.2,4.2v23.1c0,2.3,1.9,4.2,4.2,4.2h12.7c2.3,0,4.2-1.9,4.2-4.2V53.8
	c0-2.3-1.9-4.2-4.2-4.2h-7.2c0.6-0.5,1-1.2,1.2-2l1.8-5.6c1.3,1.8,2.7,3.6,4.2,5.3c1,0.9,2.5,1.1,3.7,0.5c1.1-0.5,1.9-1.5,2.2-2.7
	c0.2-1,0-2-0.6-2.7C73.7,40.4,70,35.8,69,34.5z M53.1,27.8c0,0.2,0,0.3,0.1,0.5l-0.8-0.2C52.6,27.9,52.8,27.8,53.1,27.8z M58.2,31.4
	c0.1,0.2,0.2,0.5,0.1,0.7l-1.8,6.5c-0.2,0.5-0.7,0.8-1.2,0.7l-9.5-2.6c-0.5-0.2-0.8-0.7-0.7-1.2l1.8-6.5c0.1-0.4,0.5-0.7,1-0.7
	c0.1,0,0.2,0,0.3,0l3.1,0.9l0,0l6.4,1.8C57.9,31,58.1,31.2,58.2,31.4z M74.6,44.8c-0.2,0.8-0.7,1.4-1.4,1.8
	c-0.7,0.4-1.6,0.2-2.2-0.3c-0.5-0.4-3.8-4.7-4.5-5.8l0.7-2.2l-1.3-0.4L65,40.6l0,0l-2.2,6.7c-0.3,1.4-1.8,2.3-3.2,2c0,0,0,0,0,0
	c-0.6-0.1-1.1-0.5-1.4-1.1c-0.4-0.7-0.5-1.5-0.3-2.2c0.8-2.8,3.6-11.2,3.6-11.3l2.3-8.9l-7.5,3c-0.2,0.1-0.4,0.1-0.6,0.1h-0.1
	l-0.3-0.1c-0.3-0.1-0.6-0.4-0.7-0.7c-0.1-0.2-0.1-0.5-0.1-0.7v-0.2l0.1-0.2c0.1-0.3,0.4-0.5,0.7-0.6l11.4-4.6l1.6-0.6l-1.6-0.7
	c-2.6-1.2-3.7-4.2-2.6-6.8c1.2-2.6,4.2-3.7,6.8-2.6c2.6,1.2,3.7,4.2,2.6,6.8c-0.8,1.8-2.5,2.9-4.4,3v1.4c0.4,0.2,0.7,0.4,1,0.7
	l4.8,8.2l0,0c0.4,0.6,0.2,1.4-0.4,1.8c0,0,0,0,0,0c-0.3,0.2-0.7,0.3-1,0.2c-0.3-0.1-0.6-0.3-0.8-0.6l-3-4.7l-2.1,6.5l-0.1,0.4
	l0.2,0.3c0.3,0.3,4.8,6,6.5,8.1C74.6,43.6,74.7,44.2,74.6,44.8z"/>
<path class="st0" d="M11.7,62.6h12.7c2.3,0,4.2,1.9,4.2,4.2v10.4c0,2.3-1.9,4.2-4.2,4.2H11.7c-2.3,0-4.2-1.9-4.2-4.2V66.8
	C7.5,64.5,9.4,62.6,11.7,62.6z"/>
<path class="st0" d="M34.3,54.8H47c2.3,0,4.2,1.9,4.2,4.2v18.3c0,2.3-1.9,4.2-4.2,4.2H34.3c-2.3,0-4.2-1.9-4.2-4.2V59
	C30.1,56.7,32,54.8,34.3,54.8z"/>
<path class="st0" d="M92.6,42.1H82c-3.3,0-5.9,2.9-5.9,6.5v26.8c0,3.6,2.7,6.5,5.9,6.5h10.6c3.3,0,5.9-2.9,5.9-6.5V48.5
	C98.5,45,95.8,42.1,92.6,42.1z M97.2,75.3c0.1,2.7-2,5-4.7,5.1H82c-2.7-0.1-4.8-2.4-4.7-5.1V48.5c-0.1-2.7,2-5,4.7-5.1h10.6
	c2.7,0.1,4.8,2.4,4.7,5.1V75.3z"/>
</svg>
