<?xml version="1.0" encoding="utf-8"?>
<!-- Generator: Adobe Illustrator 23.0.2, SVG Export Plug-In . SVG Version: 6.00 Build 0)  -->
<svg version="1.1" id="Camada_1" xmlns="http://www.w3.org/2000/svg" xmlns:xlink="http://www.w3.org/1999/xlink" x="0px" y="0px"
	 viewBox="0 0 57.4 57.4" style="enable-background:new 0 0 57.4 57.4;" xml:space="preserve">
<style type="text/css">
	.st0{fill:#14243D;}
</style>
<title>icone-grafico</title>
<path class="st0" d="M28.7,0C12.8,0,0,12.9,0,28.7s12.9,28.7,28.7,28.7s28.7-12.9,28.7-28.7l0,0C57.4,12.9,44.5,0,28.7,0z
	 M28.7,55.2c-14.6,0-26.5-11.9-26.5-26.5S14.1,2.2,28.7,2.2s26.5,11.9,26.5,26.5l0,0C55.2,43.3,43.3,55.2,28.7,55.2z"/>
<path class="st0" d="M25.6,12.4c-0.4,0-0.9,0-1.2-0.4c-0.2-0.2-0.3-0.5-0.3-0.9c0-0.7,0.6-1.3,1.3-1.3h1.5c-0.1-0.4-0.2-0.7,0-1.1
	c0.1-0.1,0.3-0.3,0.7-0.3H30c0.4,0,0.6,0.2,0.7,0.3c0.2,0.3,0.1,0.7-0.1,1.1h0.8c0.7,0,2,0,2,1.3c0,0.6-0.5,1.3-1.3,1.3h-6.2
	C25.8,12.4,25.7,12.4,25.6,12.4z M25.4,10.8c-0.1,0-0.3,0.2-0.3,0.3c0,0.2,0,0.2,0,0.2c0.1,0.1,0.4,0.1,0.7,0.1H26h6
	c0.2,0,0.3-0.2,0.3-0.3c0-0.2,0-0.3-1-0.3h-1.5c-0.2,0-0.4-0.1-0.5-0.3c-0.2-0.3,0-0.6,0.1-0.9c0-0.1,0.1-0.1,0.1-0.2h-1.8
	c0,0.1,0.1,0.2,0.1,0.2c0.1,0.3,0.3,0.6,0.1,0.9c-0.1,0.1-0.3,0.2-0.5,0.2h-2V10.8z"/>
<path class="st0" d="M41,39.1H16.4c-1.7,0-3.1-1.4-3.1-3.1V15.9c0-1.7,1.4-3.1,3.1-3.1H41c1.7,0,3.1,1.4,3.1,3.1V36
	C44.1,37.7,42.7,39.1,41,39.1z M16.4,13.8c-1.1,0-2.1,1-2.1,2.1V36c0,1.1,1,2.1,2.1,2.1H41c1.1,0,2.1-1,2.1-2.1V15.9
	c0-1.1-1-2.1-2.1-2.1C41,13.8,16.4,13.8,16.4,13.8z M18.2,31.9c-0.1,0-0.3-0.1-0.4-0.2l-1.4-1.8c-0.1-0.1-0.1-0.2-0.1-0.4
	c0-0.1,0.1-0.3,0.2-0.3l8.1-6.2c0.2-0.1,0.4-0.1,0.6,0l5.4,3.3l3.7-3.4l-1-0.3c-0.2-0.1-0.3-0.3-0.3-0.5s0.1-0.4,0.3-0.5l7-2.5
	c0.2-0.1,0.4,0,0.5,0.1s0.2,0.4,0.1,0.5l-3.1,6.7c-0.1,0.2-0.3,0.3-0.5,0.3s-0.4-0.2-0.4-0.4l-0.2-1l-5.3,4.8
	c-0.2,0.1-0.4,0.2-0.6,0.1l-5.6-3.4l-6.6,5C18.4,31.9,18.3,31.9,18.2,31.9z M17.5,29.7l0.8,1l6.5-4.9c0.2-0.1,0.4-0.1,0.6,0l5.6,3.4
	l5.6-5.1c0.1-0.1,0.3-0.2,0.5-0.1s0.3,0.2,0.3,0.4l0.1,0.4l2-4.3L35,22.1l0.4,0.1c0.2,0.1,0.3,0.2,0.3,0.4c0,0.2,0,0.4-0.2,0.5
	l-4.6,4.2c-0.2,0.1-0.4,0.2-0.6,0.1L24.9,24L17.5,29.7z"/>
<path class="st0" d="M22.9,48.8c-0.3,0-0.5-0.1-0.8-0.2c-0.3-0.2-0.6-0.5-0.7-0.9s-0.1-0.8,0.2-1.2c0,0,0-0.1,0.1-0.1l3.1-3.1h-5.3
	c-0.7,0-1.2-0.2-1.5-0.5c-0.3-0.4-0.4-0.9-0.3-1.2c0.2-1,1.1-1.1,1.7-1.2H38c0.1,0,0.1,0,0.2,0c0.5,0.2,0.9,0.6,1,1.2
	c0.2,0.8-0.3,1.5-1,1.8c-0.1,0-0.1,0-0.2,0h-5.3l3,3c0.4,0.5,0.4,1.2,0.1,1.6c-0.4,0.7-1.4,1-2.1,0.6c0,0-0.1,0-0.1-0.1l-4.9-5
	l-0.3,0.3l-4.6,4.7c0,0-0.1,0-0.1,0.1C23.4,48.8,23.2,48.8,22.9,48.8z M22.4,47.1c-0.1,0.1,0,0.2,0,0.3s0.1,0.3,0.3,0.3
	c0.1,0.1,0.3,0.1,0.4,0l5.3-5.4c0.1-0.1,0.2-0.1,0.4-0.1l0,0c0.1,0,0.3,0.1,0.4,0.1l0.7,0.7l4.6,4.7c0.3,0.1,0.5,0,0.7-0.3
	c0.1-0.2,0.1-0.3,0-0.5l-3.8-3.8c-0.4,0-0.4-0.2-0.4-0.4s0.3-0.3,0.5-0.3h6.4c0.2-0.1,0.4-0.4,0.3-0.6c0-0.2-0.2-0.3-0.3-0.4H19.4
	c-0.7,0.1-0.7,0.2-0.7,0.3c0,0.2,0,0.4,0.1,0.5s0.2,0.2,0.7,0.2H26c0.2,0,0.4,0.1,0.5,0.3s0,0.4-0.1,0.5L22.4,47.1z"/>
</svg>
