<?xml version="1.0" encoding="utf-8"?>
<!-- Generator: Adobe Illustrator 23.0.2, SVG Export Plug-In . SVG Version: 6.00 Build 0)  -->
<svg version="1.1" id="Camada_1" xmlns="http://www.w3.org/2000/svg" xmlns:xlink="http://www.w3.org/1999/xlink" x="0px" y="0px"
	 viewBox="0 0 57.4 57.4" style="enable-background:new 0 0 57.4 57.4;" xml:space="preserve">
<style type="text/css">
	.st0{fill:#14243D;}
</style>
<title>icone-lampada</title>
<path class="st0" d="M28.7,0C12.8,0,0,12.9,0,28.7s12.9,28.7,28.7,28.7s28.7-12.9,28.7-28.7l0,0C57.4,12.9,44.5,0,28.7,0z
	 M28.7,55.2c-14.6,0-26.5-11.9-26.5-26.5S14.1,2.2,28.7,2.2s26.5,11.9,26.5,26.5l0,0C55.2,43.3,43.3,55.2,28.7,55.2z"/>
<path class="st0" d="M23.4,46.3c-0.1,0-0.2,0-0.3-0.1c-0.1-0.1-0.2-0.2-0.2-0.4v-1.3c0-0.3,0.2-0.5,0.4-0.5l10.4-1.4
	c0.1,0,0.3,0,0.4,0.1c0.1,0.1,0.2,0.2,0.2,0.4v1.3c0,0.3-0.2,0.5-0.4,0.5L23.4,46.3L23.4,46.3z M23.9,44.9v0.3l9.4-1.3v-0.3
	L23.9,44.9z"/>
<path class="st0" d="M23.5,43.5c-0.1,0-0.2,0-0.3-0.1C23.1,43.3,23,43.1,23,43v-2.2c0-0.1,0-0.2,0-0.3l0,0c-0.8-1.4-1.9-2.6-3-3.7
	c-2-2.1-4-4.2-4-7.5c0-6.9,5.7-12.6,12.6-12.6s12.6,5.7,12.6,12.6c0,3.3-2,5.4-3.9,7.4c-1.1,1.2-2.2,2.4-3,3.8c0,0,0.1,0.1,0.1,0.3
	v0.8c0,0.3-0.2,0.5-0.4,0.5L23.5,43.5L23.5,43.5z M23.9,40c0.2,0.2,0.1,0.5,0.1,0.7v0.1v1.6l9.4-1.3v-0.4c0-0.2-0.1-0.4,0.1-0.7
	c0.8-1.6,2-2.8,3.1-4.1c1.8-2,3.6-3.9,3.6-6.7c0-6.4-5.2-11.6-11.6-11.6S17,22.8,17,29.2c0,2.9,1.8,4.8,3.7,6.8
	C21.9,37.3,23,38.5,23.9,40z M33.9,41.6L33.9,41.6L33.9,41.6z M23.1,40.7L23.1,40.7L23.1,40.7z"/>
<path class="st0" d="M28.6,51.2c-1.2,0-2.5-0.4-3.5-1.3c0,0,0,0-0.1,0c-0.2,0-0.7,0.1-0.9-0.3c-0.5-0.6-0.9-1.3-1.1-2.2
	c0-0.1,0-0.3,0.1-0.4s0.2-0.2,0.3-0.2l10.2-1.3c0.1,0,0.3,0,0.4,0.1c0.1,0.1,0.2,0.2,0.2,0.4c0,1.3-0.4,2.5-1.2,3.5
	c-0.2,0.4-0.6,0.3-0.8,0.2l0,0C31.3,50.7,29.9,51.2,28.6,51.2z M25.3,48.9c0.2,0,0.3,0,0.5,0.2c1.7,1.6,4.3,1.5,5.9-0.1
	c0.3-0.3,0.6-0.2,0.8-0.2c0.5-0.7,0.8-1.4,0.8-2.2l-9,1.1c0.2,0.4,0.4,0.8,0.7,1.2h0.1C25.1,48.9,25.2,48.9,25.3,48.9z M25.1,49.8
	L25.1,49.8L25.1,49.8z M25,49.1L25,49.1L25,49.1z M32.3,48.9L32.3,48.9C32.3,48.9,32.3,48.9,32.3,48.9z"/>
<path class="st0" d="M28.8,12.8h-0.2c-0.8,0-1.5-0.7-1.5-1.4V7.6c0.2-0.9,0.8-1.4,1.5-1.4h0.2c0.8,0,1.5,0.7,1.5,1.4v3.8
	C30.3,12.2,29.7,12.8,28.8,12.8z M28.6,7.2c-0.3,0-0.5,0.3-0.5,0.5v3.7c0,0.2,0.3,0.4,0.5,0.4h0.2c0.3,0,0.5-0.2,0.5-0.4V7.6
	c0-0.2-0.3-0.4-0.5-0.4H28.6z"/>
<path class="st0" d="M13.7,21.7c-0.3,0-0.5-0.1-0.8-0.2l-3.3-1.9c-0.6-0.5-0.9-1.3-0.5-2l0.1-0.2c0.2-0.4,0.5-0.6,0.9-0.7
	s0.7,0,1.1,0.2l3.3,1.9c0.4,0.2,0.6,0.5,0.7,0.9c0.1,0.4,0,0.7-0.2,1.1L14.9,21c-0.2,0.4-0.5,0.6-0.9,0.7
	C13.8,21.7,13.7,21.7,13.7,21.7z M10.3,17.6L10.3,17.6c-0.2,0-0.2,0.1-0.3,0.2L9.9,18v0.1c-0.1,0.1,0,0.4,0.2,0.6l3.2,1.9
	c0.1,0.1,0.2,0.1,0.4,0.1c0.1,0,0.2-0.1,0.3-0.2l0.1-0.2c0.1-0.1,0.1-0.3,0.1-0.4s-0.1-0.2-0.2-0.3l-3.3-1.9
	C10.6,17.7,10.5,17.6,10.3,17.6z M9.5,17.8L9.5,17.8L9.5,17.8z"/>
<path class="st0" d="M43.9,21.7c-0.4,0-0.9-0.2-1.2-0.6l-0.1-0.3c-0.2-0.4-0.3-0.8-0.2-1.2c0.1-0.3,0.4-0.6,0.7-0.7l3.3-1.9
	c0.7-0.4,1.5-0.2,1.9,0.4l0.1,0.3c0.4,0.6,0.2,1.4-0.4,1.9l-3.4,1.9C44.4,21.7,44.2,21.7,43.9,21.7z M47.1,17.8
	c-0.1,0-0.2,0-0.2,0.1l-3.3,1.9c0,0,0,0-0.1,0s-0.1,0.1-0.1,0.1c0,0.1,0,0.3,0.1,0.4l0.1,0.2c0.1,0.1,0.3,0.3,0.6,0.1l3.3-1.9
	c0.1-0.1,0.3-0.3,0.1-0.6l-0.1-0.2C47.4,17.9,47.3,17.8,47.1,17.8z M43.3,19.3L43.3,19.3L43.3,19.3z"/>
</svg>
