<?xml version="1.0" encoding="utf-8"?>
<!-- Generator: Adobe Illustrator 23.0.2, SVG Export Plug-In . SVG Version: 6.00 Build 0)  -->
<svg version="1.1" id="Camada_1" xmlns="http://www.w3.org/2000/svg" xmlns:xlink="http://www.w3.org/1999/xlink" x="0px" y="0px"
	 viewBox="0 0 95.8 91.2" style="enable-background:new 0 0 95.8 91.2;" xml:space="preserve">
<style type="text/css">
	.st0{fill:#6D0F59;}
</style>
<title>icone-pedagogica</title>
<path class="st0" d="M69,79.7c0.5-0.1,0.9-0.5,0.8-1c0-0.4-0.4-0.8-0.8-0.8H37.6V52.4h35.2c0.5,0,0.9-0.4,0.9-0.9
	c0-0.5-0.4-0.9-0.9-0.9H59.9c0.6-1.9,2.3-3.1,4.3-3.1h14.9c1.9,0,3.4,1.5,3.4,3.4l0,0v1.5h7.1c2.1,0,3.7-1.7,3.7-3.7V3.7
	c0-2.1-1.7-3.7-3.7-3.7H9.5C7.4,0,5.8,1.7,5.8,3.7v44.9c0,2.1,1.7,3.7,3.7,3.7h9.2l-2.9,12.3c0,1.8,1.4,3.2,3.1,3.2c0,0,0,0,0,0
	c0.7,0,1.3,0.6,1.3,1.3v0.2l0,0v15c0,1.8,1.4,3.2,3.1,3.2h11.1c1.7,0,3.1-1.5,3.1-3.2v-4.7L69,79.7z M28.9,29.7c3.9,0,7,3.2,7,7
	c0,2.8-1.6,5.2-4.1,6.4l0,0c-0.2,0.1-0.3,0.1-0.5,0.2L31,43.4l-0.4,0.1l-0.3,0.1l-0.4,0.1h-0.3c-0.2,0-0.5,0-0.7,0
	c-0.2,0-0.5,0-0.8,0H28l-0.6-0.1h-0.1l-0.6-0.2h-0.1c-0.2-0.1-0.4-0.2-0.6-0.3c-3.5-1.6-5-5.8-3.4-9.3
	C23.7,31.4,26.2,29.8,28.9,29.7L28.9,29.7z M35.9,51.4v33c0,0.8-0.6,1.4-1.3,1.4c0,0,0,0,0,0H30l-0.4-18.2h-1.8l-0.4,18.2h-4.2
	c-0.7,0-1.3-0.7-1.3-1.4V69.3c0-0.1,0-0.2,0-0.3V58.6c0.1-0.5-0.3-0.9-0.8-1c-0.5-0.1-0.9,0.3-1,0.8c0,0.1,0,0.1,0,0.2v7.8
	c-0.4-0.2-0.9-0.3-1.3-0.3c-0.7,0-1.3-0.6-1.4-1.3l3.6-15c0-3.8,1-4.9,2.9-4.9L34.2,45c0.1,0,0.2,0,0.3,0.1l0.5,0.2l13.2-13
	c0.6-0.5,1.4-0.6,2.1-0.4c0.4,0.3,0.7,0.6,0.9,1c0.3,0.7,0.2,1.5-0.2,2.1L36.2,50.4C35.9,50.7,35.8,51,35.9,51.4L35.9,51.4z"/>
<path class="st0" d="M94.9,82H63.4c-0.5-0.1-1,0.3-1,0.8c-0.1,0.5,0.3,1,0.8,1c0.1,0,0.1,0,0.2,0h31.5c0.5,0.1,1-0.3,1-0.8
	s-0.3-1-0.8-1C95,82,94.9,82,94.9,82z"/>
<path class="st0" d="M76.2,86.3h-5.1c-0.5,0-0.9,0.4-0.9,0.9c0,0.5,0.4,0.9,0.9,0.9c0,0,0,0,0,0h5.1c0.5,0,0.9-0.4,0.9-0.9
	C77.1,86.7,76.7,86.3,76.2,86.3z"/>
<path class="st0" d="M32.4,89.4H0.9c-0.5-0.1-1,0.3-1,0.8s0.3,1,0.8,1c0.1,0,0.1,0,0.2,0h31.5c0.5-0.1,0.9-0.5,0.8-1
	C33.2,89.7,32.8,89.4,32.4,89.4z"/>
</svg>
