<?xml version="1.0" encoding="utf-8"?>
<!-- Generator: Adobe Illustrator 23.0.2, SVG Export Plug-In . SVG Version: 6.00 Build 0)  -->
<svg version="1.1" id="Camada_1" xmlns="http://www.w3.org/2000/svg" xmlns:xlink="http://www.w3.org/1999/xlink" x="0px" y="0px"
	 viewBox="0 0 57.4 57.4" style="enable-background:new 0 0 57.4 57.4;" xml:space="preserve">
<style type="text/css">
	.st0{fill:#14243D;}
</style>
<title>icone-pin</title>
<path class="st0" d="M28.7,57.4C12.8,57.4,0,44.6,0,28.7S12.8,0,28.7,0s28.7,12.9,28.7,28.7S44.5,57.4,28.7,57.4z M28.7,2.2
	C14.1,2.2,2.2,14.1,2.2,28.7s11.9,26.5,26.5,26.5s26.5-11.9,26.5-26.5l0,0C55.2,14.1,43.3,2.2,28.7,2.2z"/>
<path class="st0" d="M28.7,48.1c-0.9,0-1.8-0.4-2.4-1.1c-2.5-2.9-10.8-13.2-10.8-21.2c0-7.9,6.2-14.9,13.2-14.9s13.2,7,13.2,14.9
	c0,7.6-7.6,17.4-10.8,21.2l-0.3,0.3C30.1,47.9,29.4,48.1,28.7,48.1z M28.7,11.9c-6.5,0-12.2,6.5-12.2,13.9c0,7.7,8.1,17.7,10.6,20.6
	c0.7,0.9,2.1,1,3,0.2l0.3-0.3C33.6,42.6,41,33,41,25.8C40.9,18.4,35.2,11.9,28.7,11.9z M28.9,31.2c-4.3,0-7.8-3.5-7.8-7.8
	s3.5-7.8,7.8-7.8s7.8,3.5,7.8,7.8C36.7,27.7,33.2,31.2,28.9,31.2z M28.9,16.6c-3.7,0-6.8,3.1-6.8,6.8s3.1,6.8,6.8,6.8
	s6.8-3.1,6.8-6.8S32.6,16.6,28.9,16.6z"/>
</svg>
