<?xml version="1.0" encoding="utf-8"?>
<!-- Generator: Adobe Illustrator 23.0.2, SVG Export Plug-In . SVG Version: 6.00 Build 0)  -->
<svg version="1.1" id="Camada_1" xmlns="http://www.w3.org/2000/svg" xmlns:xlink="http://www.w3.org/1999/xlink" x="0px" y="0px"
	 viewBox="0 0 83.3 109.7" style="enable-background:new 0 0 83.3 109.7;" xml:space="preserve">
<style type="text/css">
	.st0{fill:#E5E4E4;}
</style>
<title>professora</title>
<path class="st0" d="M82.3,109.7H1c-0.3,0-0.6-0.2-0.8-0.4C0,109,0,108.7,0,108.4c1.8-5.7,4.2-9.9,7.2-12.4c4.5-3.9,18-6.5,22-7.2
	c0.6-0.1,1.1,0.3,1.2,0.8c0.1,0.6-0.3,1.1-0.8,1.2c-10.1,1.8-18.4,4.4-21.1,6.8c-2.4,2-4.5,5.5-6.1,10.2h78.5
	c-1.6-4.7-3.6-8.1-6-10.2c-2.8-2.5-11.2-5.1-21.5-6.9c-0.5-0.1-0.9-0.6-0.8-1.2c0.1-0.5,0.6-0.9,1.2-0.8c0,0,0,0,0,0
	c8.5,1.4,18.8,4.2,22.5,7.4c2.9,2.6,5.2,6.7,7,12.4c0.2,0.5-0.1,1.1-0.7,1.3C82.4,109.7,82.3,109.7,82.3,109.7L82.3,109.7z"/>
<path class="st0" d="M41.3,90.6c-15.4,0-27.9-12.8-27.9-28.6c0-2.2,0.2-4.4,0.7-6.6c0.1-0.5,0.7-0.9,1.2-0.8
	c0.5,0.1,0.9,0.7,0.8,1.2l0,0c-0.5,2-0.7,4.1-0.7,6.1c0,14.6,11.6,26.6,25.9,26.6S67.3,76.6,67.3,62c0-2.8-0.4-5.5-1.3-8.1
	c-0.2-0.5,0.1-1.1,0.6-1.3c0,0,0,0,0,0c0.5-0.2,1.1,0.1,1.3,0.7c0.9,2.8,1.4,5.8,1.4,8.7C69.3,77.7,56.7,90.6,41.3,90.6z"/>
<path class="st0" d="M18.4,40.5c-0.2,0-0.5-0.1-0.6-0.2c-1.6-1.2-2.6-3-2.7-5v-18L11,15.9v17.9c0,1.1-0.9,2-2,2
	c-1.3,0-2.3-1-2.3-2.3v-19c-0.5-0.2-0.8-0.8-0.6-1.3c0.1-0.3,0.3-0.5,0.6-0.6L41,0.1c0.2-0.1,0.5-0.1,0.7,0l34.3,12.5
	c0.5,0.2,0.8,0.8,0.6,1.3c-0.1,0.3-0.3,0.5-0.6,0.6l-9.2,3.1v17.8c0,1.7-0.8,3.3-2.1,4.5c-0.4,0.4-1,0.4-1.4,0c-0.4-0.4-0.4-1,0-1.4
	c0.9-0.7,1.4-1.8,1.5-3V16.9c0-0.4,0.3-0.8,0.7-0.9l7.2-2.4L41.3,2.1L10,13.6c0.1,0,0.3,0,0.4,0l6.1,2c0.4,0.1,0.7,0.5,0.7,0.9v18.9
	c0.1,1.4,0.8,2.6,1.9,3.4c0.4,0.3,0.5,1,0.1,1.4C19.1,40.4,18.8,40.6,18.4,40.5z M8.8,14v19.5c0,0.2,0.2,0.3,0.3,0.3L9,14.6
	c0-0.3,0.2-0.6,0.4-0.8l0,0L8.8,14z"/>
<path class="st0" d="M41.3,26.1c-0.1,0-0.2,0-0.3,0l-20.3-6.8c-0.5-0.2-0.8-0.7-0.6-1.3c0,0,0,0,0,0c0.2-0.5,0.7-0.8,1.3-0.6l20,6.7
	l25.9-8.8c0.5-0.2,1.1,0,1.3,0.5c0.2,0.5,0,1.1-0.5,1.3c0,0-0.1,0-0.1,0l-26.2,8.9C41.5,26.1,41.4,26.1,41.3,26.1z"/>
<path class="st0" d="M40.1,45.2c-9.1,0-18.5-1.5-22.4-4.9c-0.4-0.4-0.5-1-0.1-1.4s1-0.5,1.4-0.1l0,0c6.9,5.9,34.9,5.4,41,0.6
	c0.4-0.4,1.1-0.3,1.4,0.2s0.3,1.1-0.2,1.4C57.9,43.7,49.1,45.2,40.1,45.2z"/>
<path class="st0" d="M75.6,86.4H55.9c-0.6,0-1-0.4-1-1s0.4-1,1-1h18.6c-0.5-6-3.1-35.1-9.7-42c-0.4-0.4-0.4-1,0-1.4
	c0.4-0.4,1-0.4,1.4,0l0,0c7.9,8.2,10.3,42.9,10.4,44.3c0,0.3-0.1,0.5-0.3,0.8C76.1,86.3,75.9,86.4,75.6,86.4z"/>
<path class="st0" d="M26.8,86.4H8.9c-0.6,0-1-0.4-1-1c0-29.3,7-41.4,7.3-41.9c0.2-0.5,0.8-0.7,1.3-0.5c0.5,0.2,0.7,0.8,0.5,1.3
	c0,0.1-0.1,0.1-0.1,0.2c-0.1,0.1-6.8,11.9-7,39.9h16.9c0.6,0,1,0.4,1,1S27.3,86.4,26.8,86.4L26.8,86.4z"/>
</svg>
