<svg id="Camada_1" data-name="Camada 1" xmlns="http://www.w3.org/2000/svg" viewBox="0 0 271.45 136.2"><defs><style>.cls-1{fill:#28263e;}.cls-2{fill:#697a8c;}.cls-3{fill:#cfd0d5;}.cls-4{fill:#9fa8b2;}.cls-5{fill:#414961;}.cls-6{fill:#f0f0ef;}</style></defs><title>velocimentro</title><path class="cls-1" d="M271.45,136.2H226.54A90.35,90.35,0,0,0,209,82.61l36.64-26A135.11,135.11,0,0,1,271.45,136.2Z"/><path class="cls-2" d="M178,7.18,164.07,49.9a91.35,91.35,0,0,0-55.76-.3L94.42,6.88a136.48,136.48,0,0,1,83.54.3Z"/><path class="cls-3" d="M62.76,82.13A90.34,90.34,0,0,0,44.91,136.2H0A135.13,135.13,0,0,1,26.11,56.14Z"/><path class="cls-4" d="M108.31,49.6A91,91,0,0,0,62.76,82.13l-36.65-26A136.1,136.1,0,0,1,94.42,6.88Z"/><path class="cls-5" d="M245.68,56.62,209,82.61a91,91,0,0,0-45-32.71L178,7.18A136,136,0,0,1,245.68,56.62Z"/><polygon class="cls-6" points="135.72 136.2 131.24 131.86 135.72 0 140.21 131.86 135.72 136.2"/></svg>