<?xml version="1.0" encoding="utf-8"?>
<!-- Generator: Adobe Illustrator 26.5.1, SVG Export Plug-In . SVG Version: 6.00 Build 0)  -->
<svg version="1.1" id="Camada_1" xmlns="http://www.w3.org/2000/svg" xmlns:xlink="http://www.w3.org/1999/xlink" x="0px" y="0px"
	 viewBox="0 0 53.9 53.9" style="enable-background:new 0 0 53.9 53.9;" xml:space="preserve">
<style type="text/css">
	.st0{fill:#20273D;}
	.st1{fill:#FFFFFF;}
	.st2{fill:#FCD500;}
</style>
<g>
	<g>
		<path class="st0" d="M26.9,52.8c14.3,0,25.9-11.6,25.9-25.9S41.2,1.1,26.9,1.1C12.6,1.2,1.1,12.7,1.1,27S12.6,52.8,26.9,52.8"/>
	</g>
	<g>
		<path class="st1" d="M39.1,39.6h-0.8V24.1c0-0.4-0.3-0.8-0.8-0.8h-3.1c-0.4,0-0.8,0.4-0.8,0.8v15.5H32V29.3c0-0.4-0.3-0.8-0.8-0.8
			h-3.1c-0.4,0-0.8,0.4-0.8,0.8v10.3h-1.6v-7.4c0-0.4-0.3-0.8-0.8-0.8h-3.1c-0.4,0-0.8,0.4-0.8,0.8v7.4h-1.6v-5.5
			c0-0.4-0.3-0.8-0.8-0.8h-3.1c-0.4,0-0.8,0.4-0.8,0.8v5.5h-0.8c-0.4,0-0.8,0.4-0.8,0.8c0,0.4,0.4,0.8,0.8,0.8H39
			c0.4,0,0.8-0.4,0.8-0.8C39.8,40,39.6,39.6,39.1,39.6"/>
	</g>
	<g>
		<path class="st2" d="M14,31.2c4.9,0,10.2-1.8,14.9-5c3.7-2.5,6.8-5.7,8.7-9l0.8,2.9c0.1,0.4,0.5,0.7,1,0.6c0.4-0.1,0.7-0.5,0.6-1
			l-1.3-4.8c-0.1-0.4-0.5-0.7-1-0.6l-4.8,1.3c-0.4,0.1-0.7,0.5-0.6,1c0.1,0.4,0.5,0.7,1,0.6l3.1-0.8c-1.8,3.1-4.7,6.2-8.3,8.6
			c-4.5,3-9.4,4.7-14,4.7c-0.4,0-0.8,0.4-0.8,0.8C13.3,30.9,13.6,31.2,14,31.2"/>
	</g>
</g>
</svg>
