<?xml version="1.0" encoding="utf-8"?>
<!-- Generator: Adobe Illustrator 26.5.1, SVG Export Plug-In . SVG Version: 6.00 Build 0)  -->
<svg version="1.1" id="Camada_1" xmlns="http://www.w3.org/2000/svg" xmlns:xlink="http://www.w3.org/1999/xlink" x="0px" y="0px"
	 viewBox="0 0 53.9 53.9" style="enable-background:new 0 0 53.9 53.9;" xml:space="preserve">
<style type="text/css">
	.st0{fill:#20273D;}
	.st1{fill:#FCD500;}
	.st2{fill:#FFFFFF;}
</style>
<g>
	<g>
		<path class="st0" d="M26.9,52.8c14.3,0,25.9-11.6,25.9-25.9S41.2,1.1,26.9,1.1C12.6,1.2,1.1,12.7,1.1,27S12.6,52.8,26.9,52.8"/>
	</g>
	<g>
		<path class="st1" d="M26.6,18.1c2.9,0,5.3,2.4,5.3,5.3c0,0.5,0.4,0.9,0.9,0.9s0.9-0.4,0.9-0.9c0-3.9-3.2-7.1-7.1-7.1
			c-0.5,0-0.9,0.4-0.9,0.9S26.1,18.1,26.6,18.1"/>
	</g>
	<g>
		<path class="st2" d="M19.9,29.4c-1.9-2.1-2.6-5-2-7.9c0.7-3.3,3.4-6.1,6.8-6.7c5.7-1.2,10.8,3.1,10.8,8.7c0,2.2-0.8,4.2-2.2,5.9
			c-1.2,1.4-2,3.1-2.2,4.9h-9C21.9,32.5,21.1,30.7,19.9,29.4 M31,36.8c0,0.5-0.4,0.9-0.9,0.9H23c-0.5,0-0.9-0.4-0.9-0.9v-0.9H31
			V36.8z M26.6,41.3c-1.1,0-2.1-0.8-2.5-1.8h5C28.7,40.6,27.7,41.3,26.6,41.3 M22.2,39.3c0.4,2.1,2.2,3.8,4.4,3.8s4-1.7,4.4-3.8
			c1.1-0.3,1.8-1.4,1.8-2.5v-1.8c0-1.6,0.6-3.3,1.8-4.6c1.7-1.9,2.6-4.4,2.6-7c0-6.7-6.2-11.9-13-10.5c-4,0.8-7.3,4.1-8.1,8.1
			c-0.7,3.4,0.2,6.9,2.5,9.4c1.1,1.3,1.8,2.9,1.8,4.5v1.8C20.3,38.1,21.1,39.1,22.2,39.3"/>
	</g>
	<g>
		<path class="st1" d="M12.3,25.2h1.8c0.5,0,0.9-0.4,0.9-0.9s-0.4-0.9-0.9-0.9h-1.8c-0.5,0-0.9,0.4-0.9,0.9S11.8,25.2,12.3,25.2"/>
	</g>
	<g>
		<path class="st1" d="M13.2,20.3c0.3,0.3,0.9,0.3,1.3,0c0.3-0.3,0.3-0.9,0-1.3l-1.3-1.3c-0.3-0.3-0.9-0.3-1.3,0
			c-0.3,0.3-0.3,0.9,0,1.3L13.2,20.3z"/>
	</g>
	<g>
		<path class="st1" d="M13.2,28.4l-1.3,1.3c-0.3,0.3-0.3,0.9,0,1.3c0.3,0.3,0.9,0.3,1.3,0l1.3-1.3c0.3-0.3,0.3-0.9,0-1.3
			C14.1,28.1,13.5,28.1,13.2,28.4"/>
	</g>
	<g>
		<path class="st1" d="M40.9,23.5h-1.8c-0.5,0-0.9,0.4-0.9,0.9s0.4,0.9,0.9,0.9h1.8c0.5,0,0.9-0.4,0.9-0.9S41.4,23.5,40.9,23.5"/>
	</g>
	<g>
		<path class="st1" d="M40,20.3l1.3-1.3c0.3-0.3,0.3-0.9,0-1.3c-0.3-0.3-0.9-0.3-1.3,0L38.7,19c-0.3,0.3-0.3,0.9,0,1.3
			C39.1,20.6,39.7,20.6,40,20.3"/>
	</g>
	<g>
		<path class="st1" d="M41.3,31c0.3-0.3,0.3-0.9,0-1.3L40,28.4c-0.3-0.3-0.9-0.3-1.3,0c-0.3,0.3-0.3,0.9,0,1.3L40,31
			C40.4,31.3,40.9,31.3,41.3,31"/>
	</g>
</g>
</svg>
